#usda 1.0
(
    defaultPrim = "DrAnmarNeedle"
    doc = "DrAnmar Needle engine-neutral local physics layer. Composed by DrAnmarNeedle_physx.usda."
    kilogramsPerUnit = 1
    metersPerUnit = 1
    upAxis = "Z"
)

over "DrAnmarNeedle"
{
    over "Looks"
    {
        def Material "NeedleSteelPhysics" (
            prepend apiSchemas = ["PhysicsMaterialAPI"]
        )
        {
            float physics:staticFriction = 0.32
            float physics:dynamicFriction = 0.24
            float physics:restitution = 0.02
        }
    }

    over "Needle" (
        prepend apiSchemas = ["PhysicsRigidBodyAPI", "PhysicsMassAPI"]
    )
    {
        bool physics:rigidBodyEnabled = true
        bool physics:kinematicEnabled = false
        float physics:mass = 3.18954233346e-05
        point3f physics:centerOfMass = (0.00501937942857, 0.00061954163063, 0)
        float3 physics:diagonalInertia = (9.42851455126e-11, 6.56599429871e-10, 7.49855912494e-10)
        quatf physics:principalAxes = (0.749196290374, 0, 0, -0.662348034262)

        def Scope "Collision"
        {
            def Capsule "C000" (
                prepend apiSchemas = ["PhysicsCollisionAPI", "MaterialBindingAPI"]
            )
            {
                uniform token axis = "X"
                float height = 0.000549858649378
                float radius = 3.67732486817e-05
                float3[] extent = [(-0.000311702573371, -3.67732486817e-05, -3.67732486817e-05), (0.000311702573371, 3.67732486817e-05, 3.67732486817e-05)]
                uniform token purpose = "guide"
                token visibility = "invisible"
                rel material:binding:physics = </DrAnmarNeedle/Looks/NeedleSteelPhysics>
                bool physics:collisionEnabled = true
                quatf xformOp:orient = (0.999807240482, 0, 0, 0.0196336924606)
                double3 xformOp:translate = (0.000274929324689, -0.00699741857754, 0)
                uniform token[] xformOpOrder = ["xformOp:translate", "xformOp:orient"]
            }

            def Capsule "C001" (
                prepend apiSchemas = ["PhysicsCollisionAPI", "MaterialBindingAPI"]
            )
            {
                uniform token axis = "X"
                float height = 0.000549858649378
                float radius = 7.02136783692e-05
                float3[] extent = [(-0.000345143003058, -7.02136783692e-05, -7.02136783692e-05), (0.000345143003058, 7.02136783692e-05, 7.02136783692e-05)]
                uniform token purpose = "guide"
                token visibility = "invisible"
                rel material:binding:physics = </DrAnmarNeedle/Looks/NeedleSteelPhysics>
                bool physics:collisionEnabled = true
                quatf xformOp:orient = (0.998265610185, 0, 0, 0.0588708036512)
                double3 xformOp:translate = (0.000823092943357, -0.00695427716513, 0)
                uniform token[] xformOpOrder = ["xformOp:translate", "xformOp:orient"]
            }

            def Capsule "C002" (
                prepend apiSchemas = ["PhysicsCollisionAPI", "MaterialBindingAPI"]
            )
            {
                uniform token axis = "X"
                float height = 0.000549858649378
                float radius = 0.000116415826807
                float3[] extent = [(-0.000391345151496, -0.000116415826807, -0.000116415826807), (0.000391345151496, 0.000116415826807, 0.000116415826807)]
                uniform token purpose = "guide"
                token visibility = "invisible"
                rel material:binding:physics = </DrAnmarNeedle/Looks/NeedleSteelPhysics>
                bool physics:collisionEnabled = true
                quatf xformOp:orient = (0.995184726672, 0, 0, 0.0980171403296)
                double3 xformOp:translate = (0.00136618192032, -0.00686826032147, 0)
                uniform token[] xformOpOrder = ["xformOp:translate", "xformOp:orient"]
            }

            def Capsule "C003" (
                prepend apiSchemas = ["PhysicsCollisionAPI", "MaterialBindingAPI"]
            )
            {
                uniform token axis = "X"
                float height = 0.000549858649378
                float radius = 0.000167580865869
                float3[] extent = [(-0.000442510190558, -0.000167580865869, -0.000167580865869), (0.000442510190558, 0.000167580865869, 0.000167580865869)]
                uniform token purpose = "guide"
                token visibility = "invisible"
                rel material:binding:physics = </DrAnmarNeedle/Looks/NeedleSteelPhysics>
                bool physics:collisionEnabled = true
                quatf xformOp:orient = (0.990569340444, 0, 0, 0.137012341682)
                double3 xformOp:translate = (0.00190084793145, -0.006739898369, 0)
                uniform token[] xformOpOrder = ["xformOp:translate", "xformOp:orient"]
            }

            def Capsule "C004" (
                prepend apiSchemas = ["PhysicsCollisionAPI", "MaterialBindingAPI"]
            )
            {
                uniform token axis = "X"
                float height = 0.000549858649378
                float radius = 0.000215909967432
                float3[] extent = [(-0.000490839292121, -0.000215909967432, -0.000215909967432), (0.000490839292121, 0.000215909967432, 0.000215909967432)]
                uniform token purpose = "guide"
                token visibility = "invisible"
                rel material:binding:physics = </DrAnmarNeedle/Looks/NeedleSteelPhysics>
                bool physics:collisionEnabled = true
                quatf xformOp:orient = (0.98442656809, 0, 0, 0.175796279934)
                double3 xformOp:translate = (0.00242379458298, -0.00656998270183, 0)
                uniform token[] xformOpOrder = ["xformOp:translate", "xformOp:orient"]
            }

            def Capsule "C005" (
                prepend apiSchemas = ["PhysicsCollisionAPI", "MaterialBindingAPI"]
            )
            {
                uniform token axis = "X"
                float height = 0.000549858649378
                float radius = 0.000253604303369
                float3[] extent = [(-0.000528533628058, -0.000253604303369, -0.000253604303369), (0.000528533628058, 0.000253604303369, 0.000253604303369)]
                uniform token purpose = "guide"
                token visibility = "invisible"
                rel material:binding:physics = </DrAnmarNeedle/Looks/NeedleSteelPhysics>
                bool physics:collisionEnabled = true
                quatf xformOp:orient = (0.976765881321, 0, 0, 0.214309153065)
                double3 xformOp:translate = (0.00293179773492, -0.00635956090657, 0)
                uniform token[] xformOpOrder = ["xformOp:translate", "xformOp:orient"]
            }

            def Capsule "C006" (
                prepend apiSchemas = ["PhysicsCollisionAPI", "MaterialBindingAPI"]
            )
            {
                uniform token axis = "X"
                float height = 0.000549858649378
                float radius = 0.000272865045557
                float3[] extent = [(-0.000547794370246, -0.000272865045557, -0.000272865045557), (0.000547794370246, 0.000272865045557, 0.000272865045557)]
                uniform token purpose = "guide"
                token visibility = "invisible"
                rel material:binding:physics = </DrAnmarNeedle/Looks/NeedleSteelPhysics>
                bool physics:collisionEnabled = true
                quatf xformOp:orient = (0.96759909236, 0, 0, 0.252491577015)
                double3 xformOp:translate = (0.00342172537889, -0.00610993030356, 0)
                uniform token[] xformOpOrder = ["xformOp:translate", "xformOp:orient"]
            }

            def Capsule "C007" (
                prepend apiSchemas = ["PhysicsCollisionAPI", "MaterialBindingAPI"]
            )
            {
                uniform token axis = "X"
                float height = 0.000549858649378
                float radius = 0.000273893365869
                float3[] extent = [(-0.000548822690558, -0.000273893365869, -0.000273893365869), (0.000548822690558, 0.000273893365869, 0.000273893365869)]
                uniform token purpose = "guide"
                token visibility = "invisible"
                rel material:binding:physics = </DrAnmarNeedle/Looks/NeedleSteelPhysics>
                bool physics:collisionEnabled = true
                quatf xformOp:orient = (0.956940335732, 0, 0, 0.290284677254)
                double3 xformOp:translate = (0.00389055694807, -0.00582262994846, 0)
                uniform token[] xformOpOrder = ["xformOp:translate", "xformOp:orient"]
            }

            def Capsule "C008" (
                prepend apiSchemas = ["PhysicsCollisionAPI", "MaterialBindingAPI"]
            )
            {
                uniform token axis = "X"
                float height = 0.000549858649378
                float radius = 0.000273893365869
                float3[] extent = [(-0.000548822690558, -0.000273893365869, -0.000273893365869), (0.000548822690558, 0.000273893365869, 0.000273893365869)]
                uniform token purpose = "guide"
                token visibility = "invisible"
                rel material:binding:physics = </DrAnmarNeedle/Looks/NeedleSteelPhysics>
                bool physics:collisionEnabled = true
                quatf xformOp:orient = (0.944806046467, 0, 0, 0.327630179562)
                double3 xformOp:translate = (0.00433540193992, -0.00549943114351, 0)
                uniform token[] xformOpOrder = ["xformOp:translate", "xformOp:orient"]
            }

            def Capsule "C009" (
                prepend apiSchemas = ["PhysicsCollisionAPI", "MaterialBindingAPI"]
            )
            {
                uniform token axis = "X"
                float height = 0.000549858649378
                float radius = 0.000273893365869
                float3[] extent = [(-0.000548822690558, -0.000273893365869, -0.000273893365869), (0.000548822690558, 0.000273893365869, 0.000273893365869)]
                uniform token purpose = "guide"
                token visibility = "invisible"
                rel material:binding:physics = </DrAnmarNeedle/Looks/NeedleSteelPhysics>
                bool physics:collisionEnabled = true
                quatf xformOp:orient = (0.931214934759, 0, 0, 0.364470499879)
                double3 xformOp:translate = (0.00475351773715, -0.00514232651681, 0)
                uniform token[] xformOpOrder = ["xformOp:translate", "xformOp:orient"]
            }

            def Capsule "C010" (
                prepend apiSchemas = ["PhysicsCollisionAPI", "MaterialBindingAPI"]
            )
            {
                uniform token axis = "X"
                float height = 0.000549858649378
                float radius = 0.000273893365869
                float3[] extent = [(-0.000548822690558, -0.000273893365869, -0.000273893365869), (0.000548822690558, 0.000273893365869, 0.000273893365869)]
                uniform token purpose = "guide"
                token visibility = "invisible"
                rel material:binding:physics = </DrAnmarNeedle/Looks/NeedleSteelPhysics>
                bool physics:collisionEnabled = true
                quatf xformOp:orient = (0.916187957117, 0, 0, 0.400748833103)
                double3 xformOp:translate = (0.00514232651681, -0.00475351773715, 0)
                uniform token[] xformOpOrder = ["xformOp:translate", "xformOp:orient"]
            }

            def Capsule "C011" (
                prepend apiSchemas = ["PhysicsCollisionAPI", "MaterialBindingAPI"]
            )
            {
                uniform token axis = "X"
                float height = 0.000549858649378
                float radius = 0.000273893365869
                float3[] extent = [(-0.000548822690558, -0.000273893365869, -0.000273893365869), (0.000548822690558, 0.000273893365869, 0.000273893365869)]
                uniform token purpose = "guide"
                token visibility = "invisible"
                rel material:binding:physics = </DrAnmarNeedle/Looks/NeedleSteelPhysics>
                bool physics:collisionEnabled = true
                quatf xformOp:orient = (0.899748284052, 0, 0, 0.436409240673)
                double3 xformOp:translate = (0.00549943114351, -0.00433540193992, 0)
                uniform token[] xformOpOrder = ["xformOp:translate", "xformOp:orient"]
            }

            def Capsule "C012" (
                prepend apiSchemas = ["PhysicsCollisionAPI", "MaterialBindingAPI"]
            )
            {
                uniform token axis = "X"
                float height = 0.000549858649378
                float radius = 0.000273893365869
                float3[] extent = [(-0.000548822690558, -0.000273893365869, -0.000273893365869), (0.000548822690558, 0.000273893365869, 0.000273893365869)]
                uniform token purpose = "guide"
                token visibility = "invisible"
                rel material:binding:physics = </DrAnmarNeedle/Looks/NeedleSteelPhysics>
                bool physics:collisionEnabled = true
                quatf xformOp:orient = (0.881921264348, 0, 0, 0.471396736826)
                double3 xformOp:translate = (0.00582262994846, -0.00389055694807, 0)
                uniform token[] xformOpOrder = ["xformOp:translate", "xformOp:orient"]
            }

            def Capsule "C013" (
                prepend apiSchemas = ["PhysicsCollisionAPI", "MaterialBindingAPI"]
            )
            {
                uniform token axis = "X"
                float height = 0.000549858649378
                float radius = 0.000273893365869
                float3[] extent = [(-0.000548822690558, -0.000273893365869, -0.000273893365869), (0.000548822690558, 0.000273893365869, 0.000273893365869)]
                uniform token purpose = "guide"
                token visibility = "invisible"
                rel material:binding:physics = </DrAnmarNeedle/Looks/NeedleSteelPhysics>
                bool physics:collisionEnabled = true
                quatf xformOp:orient = (0.862734385978, 0, 0, 0.505657373378)
                double3 xformOp:translate = (0.00610993030356, -0.00342172537889, 0)
                uniform token[] xformOpOrder = ["xformOp:translate", "xformOp:orient"]
            }

            def Capsule "C014" (
                prepend apiSchemas = ["PhysicsCollisionAPI", "MaterialBindingAPI"]
            )
            {
                uniform token axis = "X"
                float height = 0.000549858649378
                float radius = 0.000273893365869
                float3[] extent = [(-0.000548822690558, -0.000273893365869, -0.000273893365869), (0.000548822690558, 0.000273893365869, 0.000273893365869)]
                uniform token purpose = "guide"
                token visibility = "invisible"
                rel material:binding:physics = </DrAnmarNeedle/Looks/NeedleSteelPhysics>
                bool physics:collisionEnabled = true
                quatf xformOp:orient = (0.842217233716, 0, 0, 0.539138322911)
                double3 xformOp:translate = (0.00635956090657, -0.00293179773492, 0)
                uniform token[] xformOpOrder = ["xformOp:translate", "xformOp:orient"]
            }

            def Capsule "C015" (
                prepend apiSchemas = ["PhysicsCollisionAPI", "MaterialBindingAPI"]
            )
            {
                uniform token axis = "X"
                float height = 0.000549858649378
                float radius = 0.000273893365869
                float3[] extent = [(-0.000548822690558, -0.000273893365869, -0.000273893365869), (0.000548822690558, 0.000273893365869, 0.000273893365869)]
                uniform token purpose = "guide"
                token visibility = "invisible"
                rel material:binding:physics = </DrAnmarNeedle/Looks/NeedleSteelPhysics>
                bool physics:collisionEnabled = true
                quatf xformOp:orient = (0.820401443526, 0, 0, 0.571787960228)
                double3 xformOp:translate = (0.00656998270183, -0.00242379458298, 0)
                uniform token[] xformOpOrder = ["xformOp:translate", "xformOp:orient"]
            }

            def Capsule "C016" (
                prepend apiSchemas = ["PhysicsCollisionAPI", "MaterialBindingAPI"]
            )
            {
                uniform token axis = "X"
                float height = 0.000549858649378
                float radius = 0.000273893365869
                float3[] extent = [(-0.000548822690558, -0.000273893365869, -0.000273893365869), (0.000548822690558, 0.000273893365869, 0.000273893365869)]
                uniform token purpose = "guide"
                token visibility = "invisible"
                rel material:binding:physics = </DrAnmarNeedle/Looks/NeedleSteelPhysics>
                bool physics:collisionEnabled = true
                quatf xformOp:orient = (0.797320653773, 0, 0, 0.603555941954)
                double3 xformOp:translate = (0.006739898369, -0.00190084793145, 0)
                uniform token[] xformOpOrder = ["xformOp:translate", "xformOp:orient"]
            }

            def Capsule "C017" (
                prepend apiSchemas = ["PhysicsCollisionAPI", "MaterialBindingAPI"]
            )
            {
                uniform token axis = "X"
                float height = 0.000549858649378
                float radius = 0.000273893365869
                float3[] extent = [(-0.000548822690558, -0.000273893365869, -0.000273893365869), (0.000548822690558, 0.000273893365869, 0.000273893365869)]
                uniform token purpose = "guide"
                token visibility = "invisible"
                rel material:binding:physics = </DrAnmarNeedle/Looks/NeedleSteelPhysics>
                bool physics:collisionEnabled = true
                quatf xformOp:orient = (0.773010453363, 0, 0, 0.634393284164)
                double3 xformOp:translate = (0.00686826032147, -0.00136618192032, 0)
                uniform token[] xformOpOrder = ["xformOp:translate", "xformOp:orient"]
            }

            def Capsule "C018" (
                prepend apiSchemas = ["PhysicsCollisionAPI", "MaterialBindingAPI"]
            )
            {
                uniform token axis = "X"
                float height = 0.000549858649378
                float radius = 0.000273893365869
                float3[] extent = [(-0.000548822690558, -0.000273893365869, -0.000273893365869), (0.000548822690558, 0.000273893365869, 0.000273893365869)]
                uniform token purpose = "guide"
                token visibility = "invisible"
                rel material:binding:physics = </DrAnmarNeedle/Looks/NeedleSteelPhysics>
                bool physics:collisionEnabled = true
                quatf xformOp:orient = (0.747508326863, 0, 0, 0.664252437911)
                double3 xformOp:translate = (0.00695427716513, -0.000823092943357, 0)
                uniform token[] xformOpOrder = ["xformOp:translate", "xformOp:orient"]
            }

            def Capsule "C019" (
                prepend apiSchemas = ["PhysicsCollisionAPI", "MaterialBindingAPI"]
            )
            {
                uniform token axis = "X"
                float height = 0.000549858649378
                float radius = 0.000273893365869
                float3[] extent = [(-0.000548822690558, -0.000273893365869, -0.000273893365869), (0.000548822690558, 0.000273893365869, 0.000273893365869)]
                uniform token purpose = "guide"
                token visibility = "invisible"
                rel material:binding:physics = </DrAnmarNeedle/Looks/NeedleSteelPhysics>
                bool physics:collisionEnabled = true
                quatf xformOp:orient = (0.720853596703, 0, 0, 0.693087362546)
                double3 xformOp:translate = (0.00699741857754, -0.000274929324689, 0)
                uniform token[] xformOpOrder = ["xformOp:translate", "xformOp:orient"]
            }

            def Capsule "C020" (
                prepend apiSchemas = ["PhysicsCollisionAPI", "MaterialBindingAPI"]
            )
            {
                uniform token axis = "X"
                float height = 0.000549858649378
                float radius = 0.000273893365869
                float3[] extent = [(-0.000548822690558, -0.000273893365869, -0.000273893365869), (0.000548822690558, 0.000273893365869, 0.000273893365869)]
                uniform token purpose = "guide"
                token visibility = "invisible"
                rel material:binding:physics = </DrAnmarNeedle/Looks/NeedleSteelPhysics>
                bool physics:collisionEnabled = true
                quatf xformOp:orient = (0.693087362546, 0, 0, 0.720853596703)
                double3 xformOp:translate = (0.00699741857754, 0.000274929324689, 0)
                uniform token[] xformOpOrder = ["xformOp:translate", "xformOp:orient"]
            }

            def Capsule "C021" (
                prepend apiSchemas = ["PhysicsCollisionAPI", "MaterialBindingAPI"]
            )
            {
                uniform token axis = "X"
                float height = 0.000549858649378
                float radius = 0.000273893365869
                float3[] extent = [(-0.000548822690558, -0.000273893365869, -0.000273893365869), (0.000548822690558, 0.000273893365869, 0.000273893365869)]
                uniform token purpose = "guide"
                token visibility = "invisible"
                rel material:binding:physics = </DrAnmarNeedle/Looks/NeedleSteelPhysics>
                bool physics:collisionEnabled = true
                quatf xformOp:orient = (0.664252437911, 0, 0, 0.747508326863)
                double3 xformOp:translate = (0.00695427716513, 0.000823092943357, 0)
                uniform token[] xformOpOrder = ["xformOp:translate", "xformOp:orient"]
            }

            def Capsule "C022" (
                prepend apiSchemas = ["PhysicsCollisionAPI", "MaterialBindingAPI"]
            )
            {
                uniform token axis = "X"
                float height = 0.000549858649378
                float radius = 0.000273893365869
                float3[] extent = [(-0.000548822690558, -0.000273893365869, -0.000273893365869), (0.000548822690558, 0.000273893365869, 0.000273893365869)]
                uniform token purpose = "guide"
                token visibility = "invisible"
                rel material:binding:physics = </DrAnmarNeedle/Looks/NeedleSteelPhysics>
                bool physics:collisionEnabled = true
                quatf xformOp:orient = (0.634393284164, 0, 0, 0.773010453363)
                double3 xformOp:translate = (0.00686826032147, 0.00136618192032, 0)
                uniform token[] xformOpOrder = ["xformOp:translate", "xformOp:orient"]
            }

            def Capsule "C023" (
                prepend apiSchemas = ["PhysicsCollisionAPI", "MaterialBindingAPI"]
            )
            {
                uniform token axis = "X"
                float height = 0.000549858649378
                float radius = 0.000273893365869
                float3[] extent = [(-0.000548822690558, -0.000273893365869, -0.000273893365869), (0.000548822690558, 0.000273893365869, 0.000273893365869)]
                uniform token purpose = "guide"
                token visibility = "invisible"
                rel material:binding:physics = </DrAnmarNeedle/Looks/NeedleSteelPhysics>
                bool physics:collisionEnabled = true
                quatf xformOp:orient = (0.603555941954, 0, 0, 0.797320653773)
                double3 xformOp:translate = (0.006739898369, 0.00190084793145, 0)
                uniform token[] xformOpOrder = ["xformOp:translate", "xformOp:orient"]
            }

            def Capsule "C024" (
                prepend apiSchemas = ["PhysicsCollisionAPI", "MaterialBindingAPI"]
            )
            {
                uniform token axis = "X"
                float height = 0.000549858649378
                float radius = 0.000273893365869
                float3[] extent = [(-0.000548822690558, -0.000273893365869, -0.000273893365869), (0.000548822690558, 0.000273893365869, 0.000273893365869)]
                uniform token purpose = "guide"
                token visibility = "invisible"
                rel material:binding:physics = </DrAnmarNeedle/Looks/NeedleSteelPhysics>
                bool physics:collisionEnabled = true
                quatf xformOp:orient = (0.571787960228, 0, 0, 0.820401443526)
                double3 xformOp:translate = (0.00656998270183, 0.00242379458298, 0)
                uniform token[] xformOpOrder = ["xformOp:translate", "xformOp:orient"]
            }

            def Capsule "C025" (
                prepend apiSchemas = ["PhysicsCollisionAPI", "MaterialBindingAPI"]
            )
            {
                uniform token axis = "X"
                float height = 0.000549858649378
                float radius = 0.000273893365869
                float3[] extent = [(-0.000548822690558, -0.000273893365869, -0.000273893365869), (0.000548822690558, 0.000273893365869, 0.000273893365869)]
                uniform token purpose = "guide"
                token visibility = "invisible"
                rel material:binding:physics = </DrAnmarNeedle/Looks/NeedleSteelPhysics>
                bool physics:collisionEnabled = true
                quatf xformOp:orient = (0.539138322911, 0, 0, 0.842217233716)
                double3 xformOp:translate = (0.00635956090657, 0.00293179773492, 0)
                uniform token[] xformOpOrder = ["xformOp:translate", "xformOp:orient"]
            }

            def Capsule "C026" (
                prepend apiSchemas = ["PhysicsCollisionAPI", "MaterialBindingAPI"]
            )
            {
                uniform token axis = "X"
                float height = 0.000549858649378
                float radius = 0.000273893365869
                float3[] extent = [(-0.000548822690558, -0.000273893365869, -0.000273893365869), (0.000548822690558, 0.000273893365869, 0.000273893365869)]
                uniform token purpose = "guide"
                token visibility = "invisible"
                rel material:binding:physics = </DrAnmarNeedle/Looks/NeedleSteelPhysics>
                bool physics:collisionEnabled = true
                quatf xformOp:orient = (0.505657373378, 0, 0, 0.862734385978)
                double3 xformOp:translate = (0.00610993030356, 0.00342172537889, 0)
                uniform token[] xformOpOrder = ["xformOp:translate", "xformOp:orient"]
            }

            def Capsule "C027" (
                prepend apiSchemas = ["PhysicsCollisionAPI", "MaterialBindingAPI"]
            )
            {
                uniform token axis = "X"
                float height = 0.000549858649378
                float radius = 0.000273893365869
                float3[] extent = [(-0.000548822690558, -0.000273893365869, -0.000273893365869), (0.000548822690558, 0.000273893365869, 0.000273893365869)]
                uniform token purpose = "guide"
                token visibility = "invisible"
                rel material:binding:physics = </DrAnmarNeedle/Looks/NeedleSteelPhysics>
                bool physics:collisionEnabled = true
                quatf xformOp:orient = (0.471396736826, 0, 0, 0.881921264348)
                double3 xformOp:translate = (0.00582262994846, 0.00389055694807, 0)
                uniform token[] xformOpOrder = ["xformOp:translate", "xformOp:orient"]
            }

            def Capsule "C028" (
                prepend apiSchemas = ["PhysicsCollisionAPI", "MaterialBindingAPI"]
            )
            {
                uniform token axis = "X"
                float height = 0.000549858649378
                float radius = 0.000273893365869
                float3[] extent = [(-0.000548822690558, -0.000273893365869, -0.000273893365869), (0.000548822690558, 0.000273893365869, 0.000273893365869)]
                uniform token purpose = "guide"
                token visibility = "invisible"
                rel material:binding:physics = </DrAnmarNeedle/Looks/NeedleSteelPhysics>
                bool physics:collisionEnabled = true
                quatf xformOp:orient = (0.436409240673, 0, 0, 0.899748284052)
                double3 xformOp:translate = (0.00549943114351, 0.00433540193992, 0)
                uniform token[] xformOpOrder = ["xformOp:translate", "xformOp:orient"]
            }

            def Capsule "C029" (
                prepend apiSchemas = ["PhysicsCollisionAPI", "MaterialBindingAPI"]
            )
            {
                uniform token axis = "X"
                float height = 0.000549858649378
                float radius = 0.000273893365869
                float3[] extent = [(-0.000548822690558, -0.000273893365869, -0.000273893365869), (0.000548822690558, 0.000273893365869, 0.000273893365869)]
                uniform token purpose = "guide"
                token visibility = "invisible"
                rel material:binding:physics = </DrAnmarNeedle/Looks/NeedleSteelPhysics>
                bool physics:collisionEnabled = true
                quatf xformOp:orient = (0.400748833103, 0, 0, 0.916187957117)
                double3 xformOp:translate = (0.00514232651681, 0.00475351773715, 0)
                uniform token[] xformOpOrder = ["xformOp:translate", "xformOp:orient"]
            }

            def Capsule "C030" (
                prepend apiSchemas = ["PhysicsCollisionAPI", "MaterialBindingAPI"]
            )
            {
                uniform token axis = "X"
                float height = 0.000549858649378
                float radius = 0.000273893365869
                float3[] extent = [(-0.000548822690558, -0.000273893365869, -0.000273893365869), (0.000548822690558, 0.000273893365869, 0.000273893365869)]
                uniform token purpose = "guide"
                token visibility = "invisible"
                rel material:binding:physics = </DrAnmarNeedle/Looks/NeedleSteelPhysics>
                bool physics:collisionEnabled = true
                quatf xformOp:orient = (0.364470499879, 0, 0, 0.931214934759)
                double3 xformOp:translate = (0.00475351773715, 0.00514232651681, 0)
                uniform token[] xformOpOrder = ["xformOp:translate", "xformOp:orient"]
            }

            def Capsule "C031" (
                prepend apiSchemas = ["PhysicsCollisionAPI", "MaterialBindingAPI"]
            )
            {
                uniform token axis = "X"
                float height = 0.000549858649378
                float radius = 0.000273893365869
                float3[] extent = [(-0.000548822690558, -0.000273893365869, -0.000273893365869), (0.000548822690558, 0.000273893365869, 0.000273893365869)]
                uniform token purpose = "guide"
                token visibility = "invisible"
                rel material:binding:physics = </DrAnmarNeedle/Looks/NeedleSteelPhysics>
                bool physics:collisionEnabled = true
                quatf xformOp:orient = (0.327630179562, 0, 0, 0.944806046467)
                double3 xformOp:translate = (0.00433540193992, 0.00549943114351, 0)
                uniform token[] xformOpOrder = ["xformOp:translate", "xformOp:orient"]
            }

            def Capsule "C032" (
                prepend apiSchemas = ["PhysicsCollisionAPI", "MaterialBindingAPI"]
            )
            {
                uniform token axis = "X"
                float height = 0.000549858649378
                float radius = 0.000273893365869
                float3[] extent = [(-0.000548822690558, -0.000273893365869, -0.000273893365869), (0.000548822690558, 0.000273893365869, 0.000273893365869)]
                uniform token purpose = "guide"
                token visibility = "invisible"
                rel material:binding:physics = </DrAnmarNeedle/Looks/NeedleSteelPhysics>
                bool physics:collisionEnabled = true
                quatf xformOp:orient = (0.290284677254, 0, 0, 0.956940335732)
                double3 xformOp:translate = (0.00389055694807, 0.00582262994846, 0)
                uniform token[] xformOpOrder = ["xformOp:translate", "xformOp:orient"]
            }

            def Capsule "C033" (
                prepend apiSchemas = ["PhysicsCollisionAPI", "MaterialBindingAPI"]
            )
            {
                uniform token axis = "X"
                float height = 0.000549858649378
                float radius = 0.000273893365869
                float3[] extent = [(-0.000548822690558, -0.000273893365869, -0.000273893365869), (0.000548822690558, 0.000273893365869, 0.000273893365869)]
                uniform token purpose = "guide"
                token visibility = "invisible"
                rel material:binding:physics = </DrAnmarNeedle/Looks/NeedleSteelPhysics>
                bool physics:collisionEnabled = true
                quatf xformOp:orient = (0.252491577015, 0, 0, 0.96759909236)
                double3 xformOp:translate = (0.00342172537889, 0.00610993030356, 0)
                uniform token[] xformOpOrder = ["xformOp:translate", "xformOp:orient"]
            }

            def Capsule "C034" (
                prepend apiSchemas = ["PhysicsCollisionAPI", "MaterialBindingAPI"]
            )
            {
                uniform token axis = "X"
                float height = 0.000549858649378
                float radius = 0.000273893365869
                float3[] extent = [(-0.000548822690558, -0.000273893365869, -0.000273893365869), (0.000548822690558, 0.000273893365869, 0.000273893365869)]
                uniform token purpose = "guide"
                token visibility = "invisible"
                rel material:binding:physics = </DrAnmarNeedle/Looks/NeedleSteelPhysics>
                bool physics:collisionEnabled = true
                quatf xformOp:orient = (0.214309153065, 0, 0, 0.976765881321)
                double3 xformOp:translate = (0.00293179773492, 0.00635956090657, 0)
                uniform token[] xformOpOrder = ["xformOp:translate", "xformOp:orient"]
            }

            def Capsule "C035" (
                prepend apiSchemas = ["PhysicsCollisionAPI", "MaterialBindingAPI"]
            )
            {
                uniform token axis = "X"
                float height = 0.000549858649378
                float radius = 0.000273893365869
                float3[] extent = [(-0.000548822690558, -0.000273893365869, -0.000273893365869), (0.000548822690558, 0.000273893365869, 0.000273893365869)]
                uniform token purpose = "guide"
                token visibility = "invisible"
                rel material:binding:physics = </DrAnmarNeedle/Looks/NeedleSteelPhysics>
                bool physics:collisionEnabled = true
                quatf xformOp:orient = (0.175796279934, 0, 0, 0.98442656809)
                double3 xformOp:translate = (0.00242379458298, 0.00656998270183, 0)
                uniform token[] xformOpOrder = ["xformOp:translate", "xformOp:orient"]
            }

            def Capsule "C036" (
                prepend apiSchemas = ["PhysicsCollisionAPI", "MaterialBindingAPI"]
            )
            {
                uniform token axis = "X"
                float height = 0.000549858649378
                float radius = 0.000270316405869
                float3[] extent = [(-0.000545245730558, -0.000270316405869, -0.000270316405869), (0.000545245730558, 0.000270316405869, 0.000270316405869)]
                uniform token purpose = "guide"
                token visibility = "invisible"
                rel material:binding:physics = </DrAnmarNeedle/Looks/NeedleSteelPhysics>
                bool physics:collisionEnabled = true
                quatf xformOp:orient = (0.137012341682, 0, 0, 0.990569340444)
                double3 xformOp:translate = (0.00190084793145, 0.006739898369, 0)
                uniform token[] xformOpOrder = ["xformOp:translate", "xformOp:orient"]
            }

            def Capsule "C037" (
                prepend apiSchemas = ["PhysicsCollisionAPI", "MaterialBindingAPI"]
            )
            {
                uniform token axis = "X"
                float height = 0.000549858649378
                float radius = 0.000249756085869
                float3[] extent = [(-0.000524685410558, -0.000249756085869, -0.000249756085869), (0.000524685410558, 0.000249756085869, 0.000249756085869)]
                uniform token purpose = "guide"
                token visibility = "invisible"
                rel material:binding:physics = </DrAnmarNeedle/Looks/NeedleSteelPhysics>
                bool physics:collisionEnabled = true
                quatf xformOp:orient = (0.0980171403296, 0, 0, 0.995184726672)
                double3 xformOp:translate = (0.00136618192032, 0.00686826032147, 0)
                uniform token[] xformOpOrder = ["xformOp:translate", "xformOp:orient"]
            }

            def Capsule "C038" (
                prepend apiSchemas = ["PhysicsCollisionAPI", "MaterialBindingAPI"]
            )
            {
                uniform token axis = "X"
                float height = 0.000549858649378
                float radius = 0.000220832245869
                float3[] extent = [(-0.000495761570558, -0.000220832245869, -0.000220832245869), (0.000495761570558, 0.000220832245869, 0.000220832245869)]
                uniform token purpose = "guide"
                token visibility = "invisible"
                rel material:binding:physics = </DrAnmarNeedle/Looks/NeedleSteelPhysics>
                bool physics:collisionEnabled = true
                quatf xformOp:orient = (0.0588708036512, 0, 0, 0.998265610185)
                double3 xformOp:translate = (0.000823092943357, 0.00695427716513, 0)
                uniform token[] xformOpOrder = ["xformOp:translate", "xformOp:orient"]
            }

            def Capsule "C039" (
                prepend apiSchemas = ["PhysicsCollisionAPI", "MaterialBindingAPI"]
            )
            {
                uniform token axis = "X"
                float height = 0.000549858649378
                float radius = 0.000195044725869
                float3[] extent = [(-0.000469974050558, -0.000195044725869, -0.000195044725869), (0.000469974050558, 0.000195044725869, 0.000195044725869)]
                uniform token purpose = "guide"
                token visibility = "invisible"
                rel material:binding:physics = </DrAnmarNeedle/Looks/NeedleSteelPhysics>
                bool physics:collisionEnabled = true
                quatf xformOp:orient = (0.0196336924606, 0, 0, 0.999807240482)
                double3 xformOp:translate = (0.000274929324689, 0.00699741857754, 0)
                uniform token[] xformOpOrder = ["xformOp:translate", "xformOp:orient"]
            }
        }
    }

    over "Suture"
    {
        over "NeedleInterface"
        {
            bool physics:kinematicEnabled = false
        }
    }

    def PhysicsFixedJoint "FactorySwage"
    {
        rel physics:body0 = </DrAnmarNeedle/Needle>
        rel physics:body1 = </DrAnmarNeedle/Suture/NeedleInterface>
        point3f physics:localPos0 = (4.28798901577e-19, 0.00700281749604, 0)
        point3f physics:localPos1 = (0, 0, 0)
        quatf physics:localRot0 = (6.12323399574e-17, 0, 0, 1)
        quatf physics:localRot1 = (1, 0, 0, 0)
        bool physics:collisionEnabled = false
    }
}
