#usda 1.0
(
    defaultPrim = "DrAnmarStomach"
    doc = "Stomach: modular component of the DrAnmar dynamic abdominal research patient."
    kilogramsPerUnit = 1
    metersPerUnit = 1
    upAxis = "Z"
)

def Xform "DrAnmarStomach" (
    assetInfo = {
        string name = "DrAnmarStomach"
        string version = "0.1.0"
    }
    kind = "component"
)
{
    custom string drAnmar:assetId = "dranmar-dynamic-abdominal-patient-v1:stomach"
    custom string drAnmar:category = "organ"
    custom string drAnmar:mechanics = "volume_deformable_cooked_from_surface"
    custom float drAnmar:densityKgM3 = 1040
    custom float drAnmar:massKg = 0.45
    custom float drAnmar:youngsModulusPa = 32000
    custom float drAnmar:poissonsRatio = 0.47
    custom float drAnmar:damping = 0.2
    custom float drAnmar:perfusionFraction = 0.04
    custom vector3f drAnmar:respirationCoupling = (-0.001, 0.002, 0.01)
    custom float drAnmar:pulsationFraction = 0
    custom bool drAnmar:clinicalValidation = false
    def Scope "Looks"
    {
        def Material "Stomach"
        {
            def Shader "PreviewSurface"
            {
                uniform token info:id = "UsdPreviewSurface"
                color3f inputs:diffuseColor = (0.73, 0.3, 0.28)
                float inputs:metallic = 0
                float inputs:roughness = 0.5
                float inputs:opacity = 1
                token outputs:surface
            }
            token outputs:surface.connect = </DrAnmarStomach/Looks/Stomach/PreviewSurface.outputs:surface>
        }
    }
    def Xform "Geometry"
    {
        def Mesh "Visual" (
            prepend apiSchemas = ["MaterialBindingAPI"]
        )
        {
            rel material:binding = </DrAnmarStomach/Looks/Stomach>
            custom token[] drAnmar:labels = ["stomach", "hollow_organ", "digestive"]
            uniform bool doubleSided = false
            float3[] extent = [(-0.09176462169, -0.07587751359, -0.04313851369), (0.003430861783, 0.06510265432, 0.03597222115)]
            int[] faceVertexCounts = [3, 3, 3, 3, 3, 3, 3, 3, 3, 3, 3, 3, 3, 3, 3, 3, 3, 3, 3, 3, 3, 3, 3, 3, 3, 3, 3, 3, 3, 3, 3, 3, 3, 3, 3, 3, 3, 3, 3, 3, 3, 3, 3, 3, 3, 3, 3, 3, 3, 3, 3, 3, 3, 3, 3, 3, 3, 3, 3, 3, 3, 3, 3, 3, 3, 3, 3, 3, 3, 3, 3, 3, 3, 3, 3, 3, 3, 3, 3, 3, 3, 3, 3, 3, 3, 3, 3, 3, 3, 3, 3, 3, 3, 3, 3, 3, 3, 3, 3, 3, 3, 3, 3, 3, 3, 3, 3, 3, 3, 3, 3, 3, 3, 3, 3, 3, 3, 3, 3, 3, 3, 3, 3, 3, 3, 3, 3, 3, 3, 3, 3, 3, 3, 3, 3, 3, 3, 3, 3, 3, 3, 3, 3, 3, 3, 3, 3, 3, 3, 3, 3, 3, 3, 3, 3, 3, 3, 3, 3, 3, 3, 3, 3, 3, 3, 3, 3, 3, 3, 3, 3, 3, 3, 3, 3, 3, 3, 3, 3, 3, 3, 3, 3, 3, 3, 3, 3, 3, 3, 3, 3, 3, 3, 3, 3, 3, 3, 3, 3, 3, 3, 3, 3, 3, 3, 3, 3, 3, 3, 3, 3, 3, 3, 3, 3, 3, 3, 3, 3, 3, 3, 3, 3, 3, 3, 3, 3, 3, 3, 3, 3, 3, 3, 3, 3, 3, 3, 3, 3, 3, 3, 3, 3, 3, 3, 3, 3, 3, 3, 3, 3, 3, 3, 3, 3, 3, 3, 3, 3, 3, 3, 3, 3, 3, 3, 3, 3, 3, 3, 3, 3, 3, 3, 3, 3, 3, 3, 3, 3, 3, 3, 3, 3, 3, 3, 3, 3, 3]
            int[] faceVertexIndices = [0, 1, 25, 0, 25, 24, 1, 2, 26, 1, 26, 25, 2, 3, 27, 2, 27, 26, 3, 4, 28, 3, 28, 27, 4, 5, 29, 4, 29, 28, 5, 6, 30, 5, 30, 29, 6, 7, 31, 6, 31, 30, 7, 8, 32, 7, 32, 31, 8, 9, 33, 8, 33, 32, 9, 10, 34, 9, 34, 33, 10, 11, 35, 10, 35, 34, 11, 12, 36, 11, 36, 35, 12, 13, 37, 12, 37, 36, 13, 14, 38, 13, 38, 37, 14, 15, 39, 14, 39, 38, 15, 16, 40, 15, 40, 39, 16, 17, 41, 16, 41, 40, 17, 18, 42, 17, 42, 41, 18, 19, 43, 18, 43, 42, 19, 20, 44, 19, 44, 43, 20, 21, 45, 20, 45, 44, 21, 22, 46, 21, 46, 45, 22, 23, 47, 22, 47, 46, 23, 0, 24, 23, 24, 47, 24, 25, 49, 24, 49, 48, 25, 26, 50, 25, 50, 49, 26, 27, 51, 26, 51, 50, 27, 28, 52, 27, 52, 51, 28, 29, 53, 28, 53, 52, 29, 30, 54, 29, 54, 53, 30, 31, 55, 30, 55, 54, 31, 32, 56, 31, 56, 55, 32, 33, 57, 32, 57, 56, 33, 34, 58, 33, 58, 57, 34, 35, 59, 34, 59, 58, 35, 36, 60, 35, 60, 59, 36, 37, 61, 36, 61, 60, 37, 38, 62, 37, 62, 61, 38, 39, 63, 38, 63, 62, 39, 40, 64, 39, 64, 63, 40, 41, 65, 40, 65, 64, 41, 42, 66, 41, 66, 65, 42, 43, 67, 42, 67, 66, 43, 44, 68, 43, 68, 67, 44, 45, 69, 44, 69, 68, 45, 46, 70, 45, 70, 69, 46, 47, 71, 46, 71, 70, 47, 24, 48, 47, 48, 71, 48, 49, 73, 48, 73, 72, 49, 50, 74, 49, 74, 73, 50, 51, 75, 50, 75, 74, 51, 52, 76, 51, 76, 75, 52, 53, 77, 52, 77, 76, 53, 54, 78, 53, 78, 77, 54, 55, 79, 54, 79, 78, 55, 56, 80, 55, 80, 79, 56, 57, 81, 56, 81, 80, 57, 58, 82, 57, 82, 81, 58, 59, 83, 58, 83, 82, 59, 60, 84, 59, 84, 83, 60, 61, 85, 60, 85, 84, 61, 62, 86, 61, 86, 85, 62, 63, 87, 62, 87, 86, 63, 64, 88, 63, 88, 87, 64, 65, 89, 64, 89, 88, 65, 66, 90, 65, 90, 89, 66, 67, 91, 66, 91, 90, 67, 68, 92, 67, 92, 91, 68, 69, 93, 68, 93, 92, 69, 70, 94, 69, 94, 93, 70, 71, 95, 70, 95, 94, 71, 48, 72, 71, 72, 95, 72, 73, 97, 72, 97, 96, 73, 74, 98, 73, 98, 97, 74, 75, 99, 74, 99, 98, 75, 76, 100, 75, 100, 99, 76, 77, 101, 76, 101, 100, 77, 78, 102, 77, 102, 101, 78, 79, 103, 78, 103, 102, 79, 80, 104, 79, 104, 103, 80, 81, 105, 80, 105, 104, 81, 82, 106, 81, 106, 105, 82, 83, 107, 82, 107, 106, 83, 84, 108, 83, 108, 107, 84, 85, 109, 84, 109, 108, 85, 86, 110, 85, 110, 109, 86, 87, 111, 86, 111, 110, 87, 88, 112, 87, 112, 111, 88, 89, 113, 88, 113, 112, 89, 90, 114, 89, 114, 113, 90, 91, 115, 90, 115, 114, 91, 92, 116, 91, 116, 115, 92, 93, 117, 92, 117, 116, 93, 94, 118, 93, 118, 117, 94, 95, 119, 94, 119, 118, 95, 72, 96, 95, 96, 119, 96, 97, 121, 96, 121, 120, 97, 98, 122, 97, 122, 121, 98, 99, 123, 98, 123, 122, 99, 100, 124, 99, 124, 123, 100, 101, 125, 100, 125, 124, 101, 102, 126, 101, 126, 125, 102, 103, 127, 102, 127, 126, 103, 104, 128, 103, 128, 127, 104, 105, 129, 104, 129, 128, 105, 106, 130, 105, 130, 129, 106, 107, 131, 106, 131, 130, 107, 108, 132, 107, 132, 131, 108, 109, 133, 108, 133, 132, 109, 110, 134, 109, 134, 133, 110, 111, 135, 110, 135, 134, 111, 112, 136, 111, 136, 135, 112, 113, 137, 112, 137, 136, 113, 114, 138, 113, 138, 137, 114, 115, 139, 114, 139, 138, 115, 116, 140, 115, 140, 139, 116, 117, 141, 116, 141, 140, 117, 118, 142, 117, 142, 141, 118, 119, 143, 118, 143, 142, 119, 96, 120, 119, 120, 143, 144, 1, 0, 145, 120, 121, 144, 2, 1, 145, 121, 122, 144, 3, 2, 145, 122, 123, 144, 4, 3, 145, 123, 124, 144, 5, 4, 145, 124, 125, 144, 6, 5, 145, 125, 126, 144, 7, 6, 145, 126, 127, 144, 8, 7, 145, 127, 128, 144, 9, 8, 145, 128, 129, 144, 10, 9, 145, 129, 130, 144, 11, 10, 145, 130, 131, 144, 12, 11, 145, 131, 132, 144, 13, 12, 145, 132, 133, 144, 14, 13, 145, 133, 134, 144, 15, 14, 145, 134, 135, 144, 16, 15, 145, 135, 136, 144, 17, 16, 145, 136, 137, 144, 18, 17, 145, 137, 138, 144, 19, 18, 145, 138, 139, 144, 20, 19, 145, 139, 140, 144, 21, 20, 145, 140, 141, 144, 22, 21, 145, 141, 142, 144, 23, 22, 145, 142, 143, 144, 0, 23, 145, 143, 120]
            point3f[] points = [
                (-0.03311042673, 0.06510265432, 0.01),
                (-0.03173162467, 0.06502554806, 0.003888829278),
                (-0.02955333176, 0.06358373379, -0.001805875259),
                (-0.02672399509, 0.06087546877, -0.006696028907),
                (-0.02343642926, 0.05708531679, -0.01044837578),
                (-0.01991467646, 0.05247157045, -0.01280719963),
                (-0.01639873832, 0.04734864892, -0.01361175052),
                (-0.0131282202, 0.04206567086, -0.01280719963),
                (-0.01032600253, 0.03698266247, -0.01044837578),
                (-0.008183051795, 0.03244602239, -0.006696028907),
                (-0.006845406553, 0.02876491513, -0.001805875259),
                (-0.006404225115, 0.02619020208, 0.003888829278),
                (-0.006889573267, 0.02489734568, 0.01),
                (-0.008268375335, 0.02497445194, 0.01611117072),
                (-0.01044666824, 0.02641626621, 0.02180587526),
                (-0.01327600491, 0.02912453123, 0.02669602891),
                (-0.01656357074, 0.03291468321, 0.03044837578),
                (-0.02008532354, 0.03752842955, 0.03280719963),
                (-0.02360126168, 0.04265135108, 0.03361175052),
                (-0.0268717798, 0.04793432914, 0.03280719963),
                (-0.02967399747, 0.05301733753, 0.03044837578),
                (-0.0318169482, 0.05755397761, 0.02669602891),
                (-0.03315459345, 0.06123508487, 0.02180587526),
                (-0.03359577489, 0.06380979792, 0.01611117072),
                (-0.06779063699, 0.05007349996, 0.002454628299),
                (-0.06520185123, 0.05052694592, -0.005474840965),
                (-0.061100046, 0.04958151444, -0.01269046713),
                (-0.05576475254, 0.04730163511, -0.01870051719),
                (-0.0495595623, 0.04384267793, -0.02309541618),
                (-0.04290734873, 0.03944036514, -0.02557565898),
                (-0.03626144918, 0.03439470705, -0.02597222115),
                (-0.03007477074, 0.02904955695, -0.02425807763),
                (-0.02476892531, 0.02376917797, -0.02055004447),
                (-0.0207054975, 0.01891341921, -0.01510081801),
                (-0.01816140319, 0.01481319262, -0.008281754019),
                (-0.0173100182, 0.01174792185, -0.0005575604386),
                (-0.01820936301, 0.009926500037, 0.007545371701),
                (-0.02079814877, 0.009473054079, 0.01547484097),
                (-0.024899954, 0.01041848556, 0.02269046713),
                (-0.03023524746, 0.01269836489, 0.02870051719),
                (-0.0364404377, 0.01615732207, 0.03309541618),
                (-0.04309265127, 0.02055963486, 0.03557565898),
                (-0.04973855082, 0.02560529295, 0.03597222115),
                (-0.05592522926, 0.03095044305, 0.03425807763),
                (-0.06123107469, 0.03623082203, 0.03055004447),
                (-0.0652945025, 0.04108658079, 0.02510081801),
                (-0.06783859681, 0.04518680738, 0.01828175402),
                (-0.0686899818, 0.04825207815, 0.01055756044),
                (-0.09045584791, 0.006266803471, -0.01252115153),
                (-0.08673081669, 0.008016776307, -0.02125939077),
                (-0.08084338275, 0.009220419086, -0.02882143106),
                (-0.07319476499, 0.009795705542, -0.03469193184),
                (-0.06430620405, 0.009703430853, -0.03847082819),
                (-0.0547834407, 0.008949883387, -0.03990059456),
                (-0.0452754355, 0.007586416159, -0.03888379474),
                (-0.0364301433, 0.005705947206, -0.03548972195),
                (-0.02885035615, 0.003436627381, -0.02994967666),
                (-0.02305262401, 0.0009331070796, -0.02264120378),
                (-0.01943205275, -0.001634002928, -0.01406236367),
                (-0.01823537831, -0.004089758335, -0.004797790112),
                (-0.01954415209, -0.006266803471, 0.004521151529),
                (-0.02326918331, -0.008016776307, 0.01325939077),
                (-0.02915661725, -0.009220419086, 0.02082143106),
                (-0.03680523501, -0.009795705542, 0.02669193184),
                (-0.04569379595, -0.009703430853, 0.03047082819),
                (-0.0552165593, -0.008949883387, 0.03190059456),
                (-0.0647245645, -0.007586416159, 0.03088379474),
                (-0.0735698567, -0.005705947206, 0.02748972195),
                (-0.08114964385, -0.003436627381, 0.02194967666),
                (-0.08694737599, -0.0009331070796, 0.01464120378),
                (-0.09056794725, 0.001634002928, 0.006062363674),
                (-0.09176462169, 0.004089758335, -0.003202209888),
                (-0.07907696736, -0.04162490278, -0.02324354955),
                (-0.07565896876, -0.03827173578, -0.03071703911),
                (-0.07049235384, -0.03435486365, -0.03677869669),
                (-0.06392921888, -0.03014121476, -0.04101543035),
                (-0.05641683066, -0.02591794232, -0.04313851369),
                (-0.04846714604, -0.02197285537, -0.04300326208),
                (-0.04062192289, -0.01857480505, -0.0406188927),
                (-0.03341580019, -0.01595536289, -0.03614789638),
                (-0.0273398633, -0.01429303954, -0.02989496414),
                (-0.02280817729, -0.01370111959, -0.02228622297),
                (-0.02012956905, -0.0142199414, -0.01384019601),
                (-0.01948658132, -0.01581414813, -0.005132466031),
                (-0.02092303264, -0.01837509722, 0.003243549547),
                (-0.02434103124, -0.02172826422, 0.01071703911),
                (-0.02950764616, -0.02564513635, 0.01677869669),
                (-0.03607078112, -0.02985878524, 0.02101543035),
                (-0.04358316934, -0.03408205768, 0.02313851369),
                (-0.05153285396, -0.03802714463, 0.02300326208),
                (-0.05937807711, -0.04142519495, 0.0206188927),
                (-0.06658419981, -0.04404463711, 0.01614789638),
                (-0.0726601367, -0.04570696046, 0.009894964139),
                (-0.07719182271, -0.04629888041, 0.002286222968),
                (-0.07987043095, -0.0457800586, -0.006159803995),
                (-0.08051341868, -0.04418585187, -0.01486753397),
                (-0.03843409193, -0.06881916836, -0.03242713389),
                (-0.03760342935, -0.06357685257, -0.03706483484),
                (-0.03625460562, -0.05740929671, -0.04019885376),
                (-0.03447954085, -0.05073680953, -0.04161561244),
                (-0.03239920278, -0.04401411, -0.04121856111),
                (-0.030155363, -0.03769933898, -0.03903475818),
                (-0.02790093549, -0.03222283767, -0.03521302619),
                (-0.02578955576, -0.02795782061, -0.03001380987),
                (-0.02396511085, -0.02519494164, -0.02379142722),
                (-0.02255193366, -0.02412248641, -0.01696992334),
                (-0.02164632988, -0.02481354096, -0.01001417243),
                (-0.02131001491, -0.02722101108, -0.003398197435),
                (-0.02156590807, -0.03118083164, 0.00242713389),
                (-0.02239657065, -0.03642314743, 0.00706483484),
                (-0.02374539438, -0.04259070329, 0.01019885376),
                (-0.02552045915, -0.04926319047, 0.01161561244),
                (-0.02760079722, -0.05598589, 0.01121856111),
                (-0.029844637, -0.06230066102, 0.009034758179),
                (-0.03209906451, -0.06777716233, 0.005213026192),
                (-0.03421044424, -0.07204217939, 1.380987422e-05),
                (-0.03603488915, -0.07480505836, -0.006208572775),
                (-0.03744806634, -0.07587751359, -0.01303007666),
                (-0.03835367012, -0.07518645904, -0.01998582757),
                (-0.03868998509, -0.07277898892, -0.02660180256),
                (0.0007395212572, -0.05730626084, -0.03111522216),
                (-0.0001536879017, -0.05357361095, -0.03382623061),
                (-0.001036423484, -0.04925668365, -0.03545870759),
                (-0.001848528519, -0.04464967039, -0.0359014025),
                (-0.00253465939, -0.04006653151, -0.03512414641),
                (-0.003048057412, -0.03581960036, -0.03317990805),
                (-0.003353735359, -0.03219829827, -0.03020118404),
                (-0.003430861783, -0.029449411, -0.0263909695),
                (-0.003274180647, -0.02776027067, -0.02200892425),
                (-0.00289436951, -0.0272459894, -0.01735367744),
                (-0.002317311875, -0.02794161462, -0.01274247645),
                (-0.001582333265, -0.02979974061, -0.008489566996),
                (-0.0007395212572, -0.03269373916, -0.004884777836),
                (0.0001536879017, -0.03642638905, -0.002173769393),
                (0.001036423484, -0.04074331635, -0.0005412924111),
                (0.001848528519, -0.04535032961, -9.859749971e-05),
                (0.00253465939, -0.04993346849, -0.0008758535853),
                (0.003048057412, -0.05418039964, -0.00282009195),
                (0.003353735359, -0.05780170173, -0.005798815962),
                (0.003430861783, -0.060550589, -0.009609030504),
                (0.003274180647, -0.06223972933, -0.01399107575),
                (0.00289436951, -0.0627540106, -0.01864632256),
                (0.002317311875, -0.06205838538, -0.02325752355),
                (0.001582333265, -0.06020025939, -0.027510433),
                (-0.02, 0.045, 0.01),
                (0, -0.045, -0.018)
            ]
            normal3f[] primvars:normals = [
                (0.2394618811, 0.96154193, 0.1345181187),
                (0.2838787042, 0.9582735943, -0.03353505287),
                (0.352629888, 0.9169913432, -0.1864913899),
                (0.439682727, 0.8418011722, -0.3131291844),
                (0.5377624709, 0.7393526399, -0.4051779841),
                (0.6392675835, 0.6178360159, -0.4578379781),
                (0.7370975546, 0.4859382996, -0.4696287513),
                (0.8251873836, 0.3520935778, -0.4416966091),
                (0.8986658737, 0.2242493418, -0.376977294),
                (0.9537587033, 0.1100217313, -0.2797133436),
                (0.9876892983, 0.0167142126, -0.1555329067),
                (0.9987171883, -0.04925948545, -0.01172522858),
                (0.9862301659, -0.08333690518, 0.1428461412),
                (0.9507952782, -0.08347687591, 0.2983621126),
                (0.8941544439, -0.05010950482, 0.4449459159),
                (0.819171407, 0.01445803245, 0.5733665244),
                (0.7298075845, 0.1065644643, 0.6752961607),
                (0.6311710748, 0.2212427543, 0.7434209561),
                (0.529518453, 0.3519606589, 0.7718380028),
                (0.4320259901, 0.4904815994, 0.7568231924),
                (0.3462459235, 0.6271474943, 0.6977103847),
                (0.2793153544, 0.7516322838, 0.5975214161),
                (0.2370886177, 0.8540139138, 0.4630866251),
                (0.2233807446, 0.9259235314, 0.3045761923),
                (-0.6749860997, 0.7368848607, -0.03734256818),
                (-0.5950584717, 0.7545952802, -0.2765707475),
                (-0.4670108997, 0.7335145233, -0.4938190597),
                (-0.2990992382, 0.6751451634, -0.6743282984),
                (-0.1023737238, 0.5834716233, -0.8056553143),
                (0.1099517506, 0.464710538, -0.8786095426),
                (0.3234345737, 0.3269392867, -0.8879756637),
                (0.52354793, 0.1795745932, -0.8328568488),
                (0.6967150497, 0.03261632692, -0.7166061085),
                (0.8308920817, -0.1043573681, -0.5465600501),
                (0.9158321255, -0.22305203, -0.3339151238),
                (0.9439916991, -0.316389071, -0.09368899531),
                (0.9126928661, -0.3775880033, 0.1562659011),
                (0.8255392076, -0.4003474685, 0.3977523364),
                (0.6908316388, -0.3811729872, 0.6143767579),
                (0.5189355346, -0.3213079898, 0.7921282009),
                (0.3212687793, -0.2261560045, 0.919586773),
                (0.110431633, -0.1035160972, 0.9884782608),
                (-0.09988814377, 0.03764003474, 0.9942864711),
                (-0.2956541387, 0.1876691042, 0.9366797412),
                (-0.4636197612, 0.3365643017, 0.8196225886),
                (-0.5924569394, 0.4744108406, 0.6510984022),
                (-0.673596151, 0.5920002826, 0.4424973342),
                (-0.7017203594, 0.6814748158, 0.207799453),
                (-0.9581081288, 0.1753644742, -0.2264422989),
                (-0.8602319956, 0.2223470952, -0.4588710963),
                (-0.7051862703, 0.2556478936, -0.661329327),
                (-0.5025811798, 0.2727588316, -0.8203747787),
                (-0.2652075531, 0.2720788369, -0.9250070596),
                (-0.008477113873, 0.2530483981, -0.9674164805),
                (0.2503017471, 0.2163465701, -0.9436859631),
                (0.4928888056, 0.1642079926, -0.8544567634),
                (0.7015249295, 0.1008808454, -0.7054685168),
                (0.8610368767, 0.03302244481, -0.5074692258),
                (0.9610635312, -0.03090106682, -0.2745942701),
                (0.9962209203, -0.0840539838, -0.02188162853),
                (0.9638083649, -0.1262871594, 0.2347871145),
                (0.8637398771, -0.1622403371, 0.4771074278),
                (0.701461198, -0.1926975208, 0.6861631389),
                (0.4888695895, -0.2129848733, 0.8459574269),
                (0.2424732994, -0.2180558989, 0.9453350327),
                (-0.01913920981, -0.2055483108, 0.9784598012),
                (-0.2772893993, -0.1758185676, 0.944562555),
                (-0.51453156, -0.1311399265, 0.8473839705),
                (-0.715553833, -0.07502203024, 0.6945173915),
                (-0.8678317826, -0.01171764098, 0.4967199352),
                (-0.9621171723, 0.05416632033, 0.2672013408),
                (-0.9927950244, 0.1179927103, 0.02087485953),
                (-0.7956773963, -0.4515249733, -0.403760671),
                (-0.6981113743, -0.3593755379, -0.6192654777),
                (-0.5479259876, -0.2547574564, -0.7967909077),
                (-0.3527157334, -0.1473029589, -0.9240635528),
                (-0.1227675804, -0.04905656492, -0.991222263),
                (0.1283979556, 0.02548118723, -0.9913953168),
                (0.3821207932, 0.06048123476, -0.9221310751),
                (0.6122591323, 0.04442667188, -0.7894080223),
                (0.7900362901, -0.01587208295, -0.6128545809),
                (0.9036492245, -0.08593876262, -0.4195624007),
                (0.9673366501, -0.1251611895, -0.2204415614),
                (0.9930442244, -0.1177382894, -0.0009292607744),
                (0.9645202128, -0.08606391625, 0.249587182),
                (0.8609681881, -0.07637882143, 0.5028916929),
                (0.6911138343, -0.1134012102, 0.7137939714),
                (0.4788091327, -0.1891329755, 0.8573042237),
                (0.2444197389, -0.2846287338, 0.9269549478),
                (0.004173938812, -0.3825464982, 0.9239268125),
                (-0.2273314598, -0.4696339156, 0.8530910812),
                (-0.4364616638, -0.5365839775, 0.7222041617),
                (-0.6109025732, -0.5774583006, 0.5416086753),
                (-0.7402993284, -0.5891105353, 0.3238914658),
                (-0.8168669341, -0.570765632, 0.08339667478),
                (-0.8358356471, -0.5237788246, -0.1644217563),
                (-0.172506506, -0.7422835473, -0.6475003018),
                (-0.1250747122, -0.562832945, -0.81705287),
                (-0.05273829907, -0.3522805251, -0.9344073541),
                (0.04037097926, -0.1254508994, -0.9912780921),
                (0.1482573972, 0.1011733338, -0.9837599812),
                (0.2648244196, 0.3102470522, -0.9130250782),
                (0.3869903047, 0.483553409, -0.785120758),
                (0.5159104427, 0.6012606374, -0.6101819901),
                (0.6498646306, 0.6445349071, -0.4028035693),
                (0.77006245, 0.610951436, -0.1836904077),
                (0.8460210374, 0.5322716469, 0.03058264626),
                (0.8606201932, 0.4479422081, 0.2422409158),
                (0.8122123394, 0.3629806974, 0.4566794599),
                (0.7123242151, 0.2491834866, 0.6561263617),
                (0.5862014173, 0.087098226, 0.8054699233),
                (0.4535832592, -0.1129370041, 0.8840291059),
                (0.3226326673, -0.3281665324, 0.8878146704),
                (0.1979274234, -0.5363439736, 0.8204632088),
                (0.08396717428, -0.7188735312, 0.6900509834),
                (-0.01491678033, -0.8612050776, 0.5080386836),
                (-0.09492231605, -0.9528037063, 0.2883658287),
                (-0.1528520595, -0.987149209, 0.04661209231),
                (-0.1861452434, -0.9617854299, -0.2007952571),
                (-0.1929873406, -0.8783193583, -0.4373911193),
                (0.7532274046, -0.3437850473, -0.5607676152),
                (0.7284148958, -0.1998837162, -0.6553306338),
                (0.7061333682, -0.03710801413, -0.7071058348),
                (0.687347638, 0.1318761189, -0.7142561962),
                (0.6725434833, 0.2953263019, -0.6785776584),
                (0.6619023177, 0.4433332741, -0.6044343884),
                (0.6556355864, 0.5678902572, -0.4976370501),
                (0.654370511, 0.6623145492, -0.3648817237),
                (0.6593154355, 0.7207583887, -0.2140338798),
                (0.6718338653, 0.7386806066, -0.0546828937),
                (0.6924171652, 0.7142196418, 0.1022192378),
                (0.7197947673, 0.6491841765, 0.2458767941),
                (0.7510025143, 0.5487853405, 0.3671918757),
                (0.7823915738, 0.4203802074, 0.4595039788),
                (0.810798089, 0.2719679853, 0.5183048079),
                (0.8340725051, 0.1115610939, 0.5402565858),
                (0.8509248376, -0.05223479236, 0.5226838885),
                (0.8606026922, -0.2094464332, 0.4642146031),
                (0.8627438548, -0.3487960632, 0.3660797007),
                (0.8574011165, -0.4587917102, 0.2331812428),
                (0.8451127252, -0.529393988, 0.07434034698),
                (0.8269242998, -0.5536407307, -0.09837755744),
                (0.8043287046, -0.5287787537, -0.2710135875),
                (0.7791268582, -0.4567158744, -0.4293855481),
                (0.8240605185, 0.5374307729, 0.179143591),
                (0.9816299865, 0.1636049978, -0.09816299865)
            ] (
                interpolation = "vertex"
            )
            uniform token subdivisionScheme = "none"
        }
    }
    def Scope "Frames"
    {
        def Xform "greater_curvature"
        {
            custom string drAnmar:role = "stomach_greater_curvature"
            double3 xformOp:translate = (-0.05, -0.005, -0.004)
            quatf xformOp:orient = (1, 0, 0, 0)
            uniform token[] xformOpOrder = ["xformOp:translate", "xformOp:orient"]
        }
        def Xform "pylorus"
        {
            custom string drAnmar:role = "pylorus"
            double3 xformOp:translate = (0, -0.045, -0.018)
            quatf xformOp:orient = (1, 0, 0, 0)
            uniform token[] xformOpOrder = ["xformOp:translate", "xformOp:orient"]
        }
    }
}
