#usda 1.0
(
    defaultPrim = "DrAnmarNerves"
    doc = "Abdominal Autonomic Nerves: modular component of the DrAnmar dynamic abdominal research patient."
    kilogramsPerUnit = 1
    metersPerUnit = 1
    upAxis = "Z"
)

def Xform "DrAnmarNerves" (
    assetInfo = {
        string name = "DrAnmarNerves"
        string version = "0.1.0"
    }
    kind = "component"
)
{
    custom string drAnmar:assetId = "dranmar-dynamic-abdominal-patient-v1:nerves"
    custom string drAnmar:category = "neural"
    custom string drAnmar:mechanics = "segmented_rod"
    custom float drAnmar:densityKgM3 = 1040
    custom float drAnmar:massKg = 0.006
    custom float drAnmar:youngsModulusPa = 500000
    custom float drAnmar:poissonsRatio = 0.45
    custom float drAnmar:damping = 0.14
    custom float drAnmar:perfusionFraction = 0.001
    custom vector3f drAnmar:respirationCoupling = (0, 0, 0.001)
    custom float drAnmar:pulsationFraction = 0
    custom bool drAnmar:clinicalValidation = false
    def Scope "Looks"
    {
        def Material "Nerve"
        {
            def Shader "PreviewSurface"
            {
                uniform token info:id = "UsdPreviewSurface"
                color3f inputs:diffuseColor = (0.95, 0.74, 0.08)
                float inputs:metallic = 0
                float inputs:roughness = 0.4
                float inputs:opacity = 1
                token outputs:surface
            }
            token outputs:surface.connect = </DrAnmarNerves/Looks/Nerve/PreviewSurface.outputs:surface>
        }
    }
    def Xform "Geometry"
    {
        def Mesh "Visual" (
            prepend apiSchemas = ["MaterialBindingAPI"]
        )
        {
            rel material:binding = </DrAnmarNerves/Looks/Nerve>
            custom token[] drAnmar:labels = ["nerve", "protected_structure", "autonomic"]
            uniform bool doubleSided = false
            float3[] extent = [(-0.06616432111, -0.1503020179, -0.09085595086), (0.06616432111, 0.1001488417, -0.07386182914)]
            int[] faceVertexCounts = [3, 3, 3, 3, 3, 3, 3, 3, 3, 3, 3, 3, 3, 3, 3, 3, 3, 3, 3, 3, 3, 3, 3, 3, 3, 3, 3, 3, 3, 3, 3, 3, 3, 3, 3, 3, 3, 3, 3, 3, 3, 3, 3, 3, 3, 3, 3, 3, 3, 3, 3, 3, 3, 3, 3, 3, 3, 3, 3, 3, 3, 3, 3, 3, 3, 3, 3, 3, 3, 3, 3, 3, 3, 3, 3, 3, 3, 3, 3, 3, 3, 3, 3, 3, 3, 3, 3, 3, 3, 3, 3, 3, 3, 3, 3, 3, 3, 3, 3, 3, 3, 3, 3, 3, 3, 3, 3, 3, 3, 3, 3, 3, 3, 3, 3, 3, 3, 3, 3, 3, 3, 3, 3, 3, 3, 3, 3, 3, 3, 3, 3, 3, 3, 3, 3, 3, 3, 3, 3, 3, 3, 3, 3, 3, 3, 3, 3, 3, 3, 3, 3, 3, 3, 3, 3, 3, 3, 3, 3, 3, 3, 3, 3, 3, 3, 3, 3, 3, 3, 3, 3, 3, 3, 3, 3, 3, 3, 3, 3, 3, 3, 3, 3, 3, 3, 3, 3, 3, 3, 3, 3, 3, 3, 3, 3, 3, 3, 3, 3, 3, 3, 3, 3, 3, 3, 3, 3, 3, 3, 3, 3, 3, 3, 3, 3, 3, 3, 3, 3, 3]
            int[] faceVertexIndices = [0, 1, 11, 0, 11, 10, 1, 2, 12, 1, 12, 11, 2, 3, 13, 2, 13, 12, 3, 4, 14, 3, 14, 13, 4, 5, 15, 4, 15, 14, 5, 6, 16, 5, 16, 15, 6, 7, 17, 6, 17, 16, 7, 8, 18, 7, 18, 17, 8, 9, 19, 8, 19, 18, 9, 0, 10, 9, 10, 19, 10, 11, 21, 10, 21, 20, 11, 12, 22, 11, 22, 21, 12, 13, 23, 12, 23, 22, 13, 14, 24, 13, 24, 23, 14, 15, 25, 14, 25, 24, 15, 16, 26, 15, 26, 25, 16, 17, 27, 16, 27, 26, 17, 18, 28, 17, 28, 27, 18, 19, 29, 18, 29, 28, 19, 10, 20, 19, 20, 29, 20, 21, 31, 20, 31, 30, 21, 22, 32, 21, 32, 31, 22, 23, 33, 22, 33, 32, 23, 24, 34, 23, 34, 33, 24, 25, 35, 24, 35, 34, 25, 26, 36, 25, 36, 35, 26, 27, 37, 26, 37, 36, 27, 28, 38, 27, 38, 37, 28, 29, 39, 28, 39, 38, 29, 20, 30, 29, 30, 39, 40, 1, 0, 41, 30, 31, 40, 2, 1, 41, 31, 32, 40, 3, 2, 41, 32, 33, 40, 4, 3, 41, 33, 34, 40, 5, 4, 41, 34, 35, 40, 6, 5, 41, 35, 36, 40, 7, 6, 41, 36, 37, 40, 8, 7, 41, 37, 38, 40, 9, 8, 41, 38, 39, 40, 0, 9, 41, 39, 30, 42, 43, 53, 42, 53, 52, 43, 44, 54, 43, 54, 53, 44, 45, 55, 44, 55, 54, 45, 46, 56, 45, 56, 55, 46, 47, 57, 46, 57, 56, 47, 48, 58, 47, 58, 57, 48, 49, 59, 48, 59, 58, 49, 50, 60, 49, 60, 59, 50, 51, 61, 50, 61, 60, 51, 42, 52, 51, 52, 61, 52, 53, 63, 52, 63, 62, 53, 54, 64, 53, 64, 63, 54, 55, 65, 54, 65, 64, 55, 56, 66, 55, 66, 65, 56, 57, 67, 56, 67, 66, 57, 58, 68, 57, 68, 67, 58, 59, 69, 58, 69, 68, 59, 60, 70, 59, 70, 69, 60, 61, 71, 60, 71, 70, 61, 52, 62, 61, 62, 71, 62, 63, 73, 62, 73, 72, 63, 64, 74, 63, 74, 73, 64, 65, 75, 64, 75, 74, 65, 66, 76, 65, 76, 75, 66, 67, 77, 66, 77, 76, 67, 68, 78, 67, 78, 77, 68, 69, 79, 68, 79, 78, 69, 70, 80, 69, 80, 79, 70, 71, 81, 70, 81, 80, 71, 62, 72, 71, 72, 81, 82, 43, 42, 83, 72, 73, 82, 44, 43, 83, 73, 74, 82, 45, 44, 83, 74, 75, 82, 46, 45, 83, 75, 76, 82, 47, 46, 83, 76, 77, 82, 48, 47, 83, 77, 78, 82, 49, 48, 83, 78, 79, 82, 50, 49, 83, 79, 80, 82, 51, 50, 83, 80, 81, 82, 42, 51, 83, 81, 72, 84, 85, 95, 84, 95, 94, 85, 86, 96, 85, 96, 95, 86, 87, 97, 86, 97, 96, 87, 88, 98, 87, 98, 97, 88, 89, 99, 88, 99, 98, 89, 90, 100, 89, 100, 99, 90, 91, 101, 90, 101, 100, 91, 92, 102, 91, 102, 101, 92, 93, 103, 92, 103, 102, 93, 84, 94, 93, 94, 103, 94, 95, 105, 94, 105, 104, 95, 96, 106, 95, 106, 105, 96, 97, 107, 96, 107, 106, 97, 98, 108, 97, 108, 107, 98, 99, 109, 98, 109, 108, 99, 100, 110, 99, 110, 109, 100, 101, 111, 100, 111, 110, 101, 102, 112, 101, 112, 111, 102, 103, 113, 102, 113, 112, 103, 94, 104, 103, 104, 113, 114, 85, 84, 115, 104, 105, 114, 86, 85, 115, 105, 106, 114, 87, 86, 115, 106, 107, 114, 88, 87, 115, 107, 108, 114, 89, 88, 115, 108, 109, 114, 90, 89, 115, 109, 110, 114, 91, 90, 115, 110, 111, 114, 92, 91, 115, 111, 112, 114, 93, 92, 115, 112, 113, 114, 84, 93, 115, 113, 104]
            point3f[] points = [
                (-0.01619073345, 0.1001488417, -0.085),
                (-0.01596007042, 0.1001464408, -0.0857048545),
                (-0.01536269313, 0.1000881046, -0.08614047853),
                (-0.01462677938, 0.09999611537, -0.08614047853),
                (-0.01403342323, 0.09990560995, -0.0857048545),
                (-0.01380926655, 0.09985115832, -0.085),
                (-0.01403992958, 0.09985355915, -0.0842951455),
                (-0.01463730687, 0.09991189541, -0.08385952147),
                (-0.01537322062, 0.1000038846, -0.08385952147),
                (-0.01596657677, 0.1000943901, -0.0842951455),
                (-0.02618174148, 0.02020853438, -0.08800070005),
                (-0.02595706375, 0.02016058935, -0.0887058612),
                (-0.0253668202, 0.02005130465, -0.08914140736),
                (-0.0246364638, 0.01992242332, -0.08914097471),
                (-0.02404496587, 0.01982317364, -0.0887047285),
                (-0.02381825852, 0.01979146562, -0.08799929995),
                (-0.02404293625, 0.01983941065, -0.0872941388),
                (-0.0246331798, 0.01994869535, -0.08685859264),
                (-0.0253635362, 0.02007757668, -0.08685902529),
                (-0.02595503413, 0.02017682636, -0.0872952715),
                (-0.04616818472, -0.06972557004, -0.08300571499),
                (-0.04595379454, -0.06982971983, -0.08370801174),
                (-0.04537508727, -0.06999891086, -0.08413987208),
                (-0.04465310941, -0.0701685179, -0.08413634002),
                (-0.04406363197, -0.07027375684, -0.0836987647),
                (-0.04383181528, -0.07027442996, -0.08299428501),
                (-0.04404620546, -0.07017028017, -0.08229198826),
                (-0.04462491273, -0.07000108914, -0.08186012792),
                (-0.04534689059, -0.0698314821, -0.08186365998),
                (-0.04593636803, -0.06972624316, -0.0823012353),
                (-0.06616432111, -0.1497096502, -0.07500730493),
                (-0.0659542889, -0.1498322221, -0.07570794297),
                (-0.06537975077, -0.1500188794, -0.07613817086),
                (-0.06466016076, -0.1501983254, -0.07613365617),
                (-0.06407037778, -0.1503020179, -0.07569612335),
                (-0.06383567889, -0.1502903498, -0.07499269507),
                (-0.0640457111, -0.1501677779, -0.07429205703),
                (-0.06462024923, -0.1499811206, -0.07386182914),
                (-0.06533983924, -0.1498016746, -0.07386634383),
                (-0.06592962222, -0.1496979821, -0.07430387665),
                (-0.015, 0.1, -0.085),
                (-0.065, -0.15, -0.075),
                (0.01380926655, 0.09985115832, -0.085),
                (0.01403342323, 0.09990560995, -0.0857048545),
                (0.01462677938, 0.09999611537, -0.08614047853),
                (0.01536269313, 0.1000881046, -0.08614047853),
                (0.01596007042, 0.1001464408, -0.0857048545),
                (0.01619073345, 0.1001488417, -0.085),
                (0.01596657677, 0.1000943901, -0.0842951455),
                (0.01537322062, 0.1000038846, -0.08385952147),
                (0.01463730687, 0.09991189541, -0.08385952147),
                (0.01403992958, 0.09985355915, -0.0842951455),
                (0.02381825852, 0.01979146562, -0.08799929995),
                (0.02404496587, 0.01982317364, -0.0887047285),
                (0.0246364638, 0.01992242332, -0.08914097471),
                (0.0253668202, 0.02005130465, -0.08914140736),
                (0.02595706375, 0.02016058935, -0.0887058612),
                (0.02618174148, 0.02020853438, -0.08800070005),
                (0.02595503413, 0.02017682636, -0.0872952715),
                (0.0253635362, 0.02007757668, -0.08685902529),
                (0.0246331798, 0.01994869535, -0.08685859264),
                (0.02404293625, 0.01983941065, -0.0872941388),
                (0.04383181528, -0.07027442996, -0.08299428501),
                (0.04406363197, -0.07027375684, -0.0836987647),
                (0.04465310941, -0.0701685179, -0.08413634002),
                (0.04537508727, -0.06999891086, -0.08413987208),
                (0.04595379454, -0.06982971983, -0.08370801174),
                (0.04616818472, -0.06972557004, -0.08300571499),
                (0.04593636803, -0.06972624316, -0.0823012353),
                (0.04534689059, -0.0698314821, -0.08186365998),
                (0.04462491273, -0.07000108914, -0.08186012792),
                (0.04404620546, -0.07017028017, -0.08229198826),
                (0.06383567889, -0.1502903498, -0.07499269507),
                (0.06407037778, -0.1503020179, -0.07569612335),
                (0.06466016076, -0.1501983254, -0.07613365617),
                (0.06537975077, -0.1500188794, -0.07613817086),
                (0.0659542889, -0.1498322221, -0.07570794297),
                (0.06616432111, -0.1497096502, -0.07500730493),
                (0.06592962222, -0.1496979821, -0.07430387665),
                (0.06533983924, -0.1498016746, -0.07386634383),
                (0.06462024923, -0.1499811206, -0.07386182914),
                (0.0640457111, -0.1501677779, -0.07429205703),
                (0.015, 0.1, -0.085),
                (0.065, -0.15, -0.075),
                (-0.02573236012, 0.01947688563, -0.088),
                (-0.02560677383, 0.01959678645, -0.08852843575),
                (-0.02524942056, 0.01987070114, -0.08885502701),
                (-0.02479679711, 0.02019400361, -0.08885502701),
                (-0.02442179026, 0.02044320329, -0.08852843575),
                (-0.02426763988, 0.02052311437, -0.088),
                (-0.02439322617, 0.02040321355, -0.08747156425),
                (-0.02475057944, 0.02012929886, -0.08714497299),
                (-0.02520320289, 0.01980599639, -0.08714497299),
                (-0.02557820974, 0.01955679671, -0.08747156425),
                (0, -0.0159, -0.09),
                (0, -0.01572811529, -0.09052900673),
                (0, -0.01527811529, -0.09085595086),
                (0, -0.01472188471, -0.09085595086),
                (0, -0.01427188471, -0.09052900673),
                (0, -0.0141, -0.09),
                (0, -0.01427188471, -0.08947099327),
                (0, -0.01472188471, -0.08914404914),
                (0, -0.01527811529, -0.08914404914),
                (0, -0.01572811529, -0.08947099327),
                (0.02572923982, 0.01947578075, -0.08794166081),
                (0.02563215317, 0.01957589772, -0.0884801246),
                (0.02529360549, 0.01983800734, -0.0888351971),
                (0.02484291049, 0.02016199266, -0.0888712527),
                (0.02445221835, 0.02042410228, -0.08857451938),
                (0.02427076018, 0.02052421925, -0.08805833919),
                (0.02436784683, 0.02042410228, -0.0875198754),
                (0.02470639451, 0.02016199266, -0.0871648029),
                (0.02515708951, 0.01983800734, -0.0871287473),
                (0.02554778165, 0.01957589772, -0.08742548062),
                (-0.025, 0.02, -0.088),
                (0.025, 0.02, -0.088)
            ]
            normal3f[] normals = [
                (-0.6795734652, 0.7332166983, 0.02394114987),
                (-0.5324705983, 0.7316895535, -0.4255648708),
                (-0.1515066012, 0.6944831442, -0.7033767925),
                (0.3178031005, 0.6358129315, -0.7033797733),
                (0.6961991629, 0.5780954404, -0.4255730108),
                (0.8391476625, 0.5433769427, 0.02393112151),
                (0.6920458429, 0.5449124106, 0.4734374469),
                (0.3110808901, 0.5821112254, 0.7512490939),
                (-0.1582304461, 0.6407684216, 0.7512515929),
                (-0.5366265614, 0.6984854619, 0.4734448152),
                (-0.9853016421, 0.1705496949, -0.009668282962),
                (-0.7902268529, 0.1317479099, -0.598484761),
                (-0.2945541787, 0.04281723997, -0.954675086),
                (0.3091665241, -0.06176868707, -0.9489998365),
                (0.7955624044, -0.1429313057, -0.5887708405),
                (0.9852839323, -0.1707230911, -0.008318589361),
                (0.8049629145, -0.1343748849, 0.5779083807),
                (0.3162803459, -0.04657188621, 0.947521927),
                (-0.2978738621, 0.05977136579, 0.9527321481),
                (-0.7977080899, 0.1431478272, 0.5858075648),
                (-0.9733686882, 0.229068004, -0.009013675746),
                (-0.7920938586, 0.1408371841, -0.5939294628),
                (-0.3093467839, -0.0008377780316, -0.9509489289),
                (0.2898306466, -0.1419121459, -0.9464983566),
                (0.7789312005, -0.2291832067, -0.5837304537),
                (0.9732666878, -0.2296770319, 0.0006444768929),
                (0.7975993339, -0.1427499651, 0.5860526853),
                (0.3162279029, -0.0009513445438, 0.9486827754),
                (-0.2877068522, 0.1415031828, 0.9472072722),
                (-0.7811231646, 0.2295035745, 0.5806674702),
                (-0.8979059752, -0.4364156415, 0.05749997813),
                (-0.7639639043, -0.5145829974, -0.3893115612),
                (-0.3975687326, -0.6336179084, -0.6636772175),
                (0.06132885327, -0.7480534808, -0.6607985787),
                (0.4374453582, -0.8141801214, -0.3817751807),
                (0.5871171013, -0.806739852, 0.06681557182),
                (0.453174712, -0.7285737716, 0.5136272382),
                (0.08677974882, -0.6095380255, 0.7879928113),
                (-0.3721173897, -0.4951006616, 0.7851139937),
                (-0.7482338265, -0.4289737488, 0.5060905687),
                (0.1239489535, 0.9915916277, 0.03718468604),
                (-0.2414022748, -0.9656090992, 0.09656090992),
                (-0.8391470632, 0.5433778625, 0.02393125251),
                (-0.6961990724, 0.5780987225, -0.4255687002),
                (-0.3178038014, 0.6358199952, -0.7033730714),
                (0.1515057372, 0.6944900631, -0.7033701472),
                (0.5324698352, 0.7316925261, -0.4255607148),
                (0.6795726605, 0.7332174464, 0.02394108259),
                (0.5366256302, 0.6984889355, 0.4734407461),
                (0.1582293234, 0.6407759316, 0.7512454238),
                (-0.3110818229, 0.5821186245, 0.7512429743),
                (-0.6920458707, 0.5449157802, 0.4734335279),
                (-0.9852855881, -0.1707135243, -0.008318801481),
                (-0.7955635602, -0.1429273665, -0.5887702349),
                (-0.3091664093, -0.06177262862, -0.9489996173),
                (0.2945552166, 0.04281358754, -0.9546749295),
                (0.7902265333, 0.1317525802, -0.5984841548),
                (0.9852999461, 0.1705594887, -0.009668352009),
                (0.7977078542, 0.1431521358, 0.5858068328),
                (0.2978751348, 0.0597672607, 0.9527320078),
                (-0.3162802495, -0.0465752579, 0.9475217935),
                (-0.8049643728, -0.1343696255, 0.5779075724),
                (-0.9732644909, -0.2296863395, 0.0006451721666),
                (-0.7789286642, -0.2291903723, -0.5837310249),
                (-0.2898286329, -0.141917135, -0.9464982252),
                (0.3093473477, -0.0008438130189, -0.9509487402),
                (0.7920950336, 0.1408284964, -0.5939299558),
                (0.973370905, 0.2290586119, -0.009012970373),
                (0.7811240896, 0.2294960836, 0.5806691866),
                (0.287707263, 0.1414978078, 0.9472079503),
                (-0.3162257119, -0.0009570548467, 0.9486835),
                (-0.7975965604, -0.1427581832, 0.5860544581),
                (-0.5871160738, -0.8067405756, 0.06681586322),
                (-0.4374443832, -0.8141807696, -0.3817749153),
                (-0.06132833253, -0.7480536641, -0.6607984195),
                (0.3975686692, -0.6336179778, -0.6636771892),
                (0.7639634635, -0.5145835923, -0.38931164),
                (0.8979054181, -0.4364168013, 0.05749987459),
                (0.7482332793, -0.4289748144, 0.5060904745),
                (0.3721170221, -0.4951010928, 0.785113896),
                (-0.08677965911, -0.609538061, 0.7879927938),
                (-0.4531740489, -0.7285740657, 0.5136274059),
                (-0.1239489535, 0.9915916277, 0.03718468604),
                (0.2414022748, -0.9656090992, 0.09656090992),
                (-0.9967572349, 0.07465225313, 0.03003424335),
                (-0.8902198914, 0.1779137111, -0.4193509941),
                (-0.5860979465, 0.4127397338, -0.6972338985),
                (-0.1996918298, 0.6882944832, -0.6974051029),
                (0.1210760037, 0.8995046185, -0.4198000031),
                (0.2527582867, 0.9670804715, 0.02947219099),
                (0.1447726059, 0.8658070298, 0.4789771181),
                (-0.161032228, 0.6332527565, 0.7570069801),
                (-0.547000883, 0.3571227303, 0.7571349876),
                (-0.8658298947, 0.1432797035, 0.4793845221),
                (-0.0001136251538, -0.9999737639, -0.007242831288),
                (0.0007328116164, -0.8495197194, -0.5275563566),
                (0.001744450803, -0.4461691615, -0.894946946),
                (0.0001345098918, 0.124040068, -0.9922772009),
                (-0.002198253064, 0.7224370814, -0.6914331718),
                (-0.0002806624634, 0.9999241501, -0.01231321194),
                (0.00186213813, 0.7356580402, 0.6773505594),
                (0.0005038947547, 0.1258896173, 0.9920441272),
                (-0.001962766259, -0.456736721, 0.88959975),
                (-0.001013187683, -0.8570123541, 0.5152948654),
                (0.9941332298, 0.07390516347, 0.07897561728),
                (0.9116438869, 0.1593081488, -0.3788486996),
                (0.6239410705, 0.3840160426, -0.6806094472),
                (0.2398826214, 0.6609773047, -0.7110311742),
                (-0.09420310864, 0.8837182836, -0.4584405846),
                (-0.2499632415, 0.9680607276, -0.01941148217),
                (-0.1671700446, 0.8830879715, 0.4384173934),
                (0.1224490365, 0.6609956835, 0.7403316418),
                (0.5073981297, 0.3852196344, 0.7708131883),
                (0.840091356, 0.1606016648, 0.5181250996),
                (-0.5806108452, 0.8128551833, 0.04644886762),
                (0.5806108452, 0.8128551833, 0.04644886762)
            ] (
                interpolation = "vertex"
            )
            uniform token subdivisionScheme = "none"
        }
    }
    def Scope "Frames"
    {
        def Xform "pelvic_plexus"
        {
            custom string drAnmar:role = "pelvic_nerve_plexus"
            double3 xformOp:translate = (0, -0.09, -0.088)
            quatf xformOp:orient = (1, 0, 0, 0)
            uniform token[] xformOpOrder = ["xformOp:translate", "xformOp:orient"]
        }
    }
}
