#usda 1.0
(
    defaultPrim = "DrAnmarUreters"
    doc = "Bilateral Ureters: modular component of the DrAnmar dynamic abdominal research patient."
    kilogramsPerUnit = 1
    metersPerUnit = 1
    upAxis = "Z"
)

def Xform "DrAnmarUreters" (
    assetInfo = {
        string name = "DrAnmarUreters"
        string version = "0.1.0"
    }
    kind = "component"
)
{
    custom string drAnmar:assetId = "dranmar-dynamic-abdominal-patient-v1:ureters"
    custom string drAnmar:category = "urinary"
    custom string drAnmar:mechanics = "segmented_rod"
    custom float drAnmar:densityKgM3 = 1050
    custom float drAnmar:massKg = 0.012
    custom float drAnmar:youngsModulusPa = 260000
    custom float drAnmar:poissonsRatio = 0.47
    custom float drAnmar:damping = 0.18
    custom float drAnmar:perfusionFraction = 0.002
    custom vector3f drAnmar:respirationCoupling = (0, 0, 0.002)
    custom float drAnmar:pulsationFraction = 0
    custom bool drAnmar:clinicalValidation = false
    def Scope "Looks"
    {
        def Material "Ureter"
        {
            def Shader "PreviewSurface"
            {
                uniform token info:id = "UsdPreviewSurface"
                color3f inputs:diffuseColor = (0.89, 0.74, 0.45)
                float inputs:metallic = 0
                float inputs:roughness = 0.42
                float inputs:opacity = 1
                token outputs:surface
            }
            token outputs:surface.connect = </DrAnmarUreters/Looks/Ureter/PreviewSurface.outputs:surface>
        }
    }
    def Xform "Geometry"
    {
        def Mesh "Visual" (
            prepend apiSchemas = ["MaterialBindingAPI"]
        )
        {
            rel material:binding = </DrAnmarUreters/Looks/Ureter>
            custom token[] drAnmar:labels = ["ureter", "urinary_tract", "protected_structure"]
            uniform bool doubleSided = false
            float3[] extent = [(-0.06168960235, -0.1459967567, -0.07769412627), (0.06168960235, -0.009560688999, -0.06034805364)]
            int[] faceVertexCounts = [3, 3, 3, 3, 3, 3, 3, 3, 3, 3, 3, 3, 3, 3, 3, 3, 3, 3, 3, 3, 3, 3, 3, 3, 3, 3, 3, 3, 3, 3, 3, 3, 3, 3, 3, 3, 3, 3, 3, 3, 3, 3, 3, 3, 3, 3, 3, 3, 3, 3, 3, 3, 3, 3, 3, 3, 3, 3, 3, 3, 3, 3, 3, 3, 3, 3, 3, 3, 3, 3, 3, 3, 3, 3, 3, 3, 3, 3, 3, 3, 3, 3, 3, 3, 3, 3, 3, 3, 3, 3, 3, 3, 3, 3, 3, 3, 3, 3, 3, 3, 3, 3, 3, 3, 3, 3, 3, 3, 3, 3, 3, 3, 3, 3, 3, 3, 3, 3, 3, 3, 3, 3, 3, 3, 3, 3, 3, 3, 3, 3, 3, 3, 3, 3, 3, 3, 3, 3, 3, 3, 3, 3, 3, 3, 3, 3, 3, 3, 3, 3, 3, 3, 3, 3, 3, 3, 3, 3, 3, 3, 3, 3, 3, 3, 3, 3, 3, 3, 3, 3, 3, 3, 3, 3, 3, 3, 3, 3, 3, 3, 3, 3, 3, 3, 3, 3, 3, 3, 3, 3, 3, 3]
            int[] faceVertexIndices = [0, 1, 13, 0, 13, 12, 1, 2, 14, 1, 14, 13, 2, 3, 15, 2, 15, 14, 3, 4, 16, 3, 16, 15, 4, 5, 17, 4, 17, 16, 5, 6, 18, 5, 18, 17, 6, 7, 19, 6, 19, 18, 7, 8, 20, 7, 20, 19, 8, 9, 21, 8, 21, 20, 9, 10, 22, 9, 22, 21, 10, 11, 23, 10, 23, 22, 11, 0, 12, 11, 12, 23, 12, 13, 25, 12, 25, 24, 13, 14, 26, 13, 26, 25, 14, 15, 27, 14, 27, 26, 15, 16, 28, 15, 28, 27, 16, 17, 29, 16, 29, 28, 17, 18, 30, 17, 30, 29, 18, 19, 31, 18, 31, 30, 19, 20, 32, 19, 32, 31, 20, 21, 33, 20, 33, 32, 21, 22, 34, 21, 34, 33, 22, 23, 35, 22, 35, 34, 23, 12, 24, 23, 24, 35, 24, 25, 37, 24, 37, 36, 25, 26, 38, 25, 38, 37, 26, 27, 39, 26, 39, 38, 27, 28, 40, 27, 40, 39, 28, 29, 41, 28, 41, 40, 29, 30, 42, 29, 42, 41, 30, 31, 43, 30, 43, 42, 31, 32, 44, 31, 44, 43, 32, 33, 45, 32, 45, 44, 33, 34, 46, 33, 46, 45, 34, 35, 47, 34, 47, 46, 35, 24, 36, 35, 36, 47, 48, 1, 0, 49, 36, 37, 48, 2, 1, 49, 37, 38, 48, 3, 2, 49, 38, 39, 48, 4, 3, 49, 39, 40, 48, 5, 4, 49, 40, 41, 48, 6, 5, 49, 41, 42, 48, 7, 6, 49, 42, 43, 48, 8, 7, 49, 43, 44, 48, 9, 8, 49, 44, 45, 48, 10, 9, 49, 45, 46, 48, 11, 10, 49, 46, 47, 48, 0, 11, 49, 47, 36, 50, 51, 63, 50, 63, 62, 51, 52, 64, 51, 64, 63, 52, 53, 65, 52, 65, 64, 53, 54, 66, 53, 66, 65, 54, 55, 67, 54, 67, 66, 55, 56, 68, 55, 68, 67, 56, 57, 69, 56, 69, 68, 57, 58, 70, 57, 70, 69, 58, 59, 71, 58, 71, 70, 59, 60, 72, 59, 72, 71, 60, 61, 73, 60, 73, 72, 61, 50, 62, 61, 62, 73, 62, 63, 75, 62, 75, 74, 63, 64, 76, 63, 76, 75, 64, 65, 77, 64, 77, 76, 65, 66, 78, 65, 78, 77, 66, 67, 79, 66, 79, 78, 67, 68, 80, 67, 80, 79, 68, 69, 81, 68, 81, 80, 69, 70, 82, 69, 82, 81, 70, 71, 83, 70, 83, 82, 71, 72, 84, 71, 84, 83, 72, 73, 85, 72, 85, 84, 73, 62, 74, 73, 74, 85, 74, 75, 87, 74, 87, 86, 75, 76, 88, 75, 88, 87, 76, 77, 89, 76, 89, 88, 77, 78, 90, 77, 90, 89, 78, 79, 91, 78, 91, 90, 79, 80, 92, 79, 92, 91, 80, 81, 93, 80, 93, 92, 81, 82, 94, 81, 94, 93, 82, 83, 95, 82, 95, 94, 83, 84, 96, 83, 96, 95, 84, 85, 97, 84, 97, 96, 85, 74, 86, 85, 86, 97, 98, 51, 50, 99, 86, 87, 98, 52, 51, 99, 87, 88, 98, 53, 52, 99, 88, 89, 98, 54, 53, 99, 89, 90, 98, 55, 54, 99, 90, 91, 98, 56, 55, 99, 91, 92, 98, 57, 56, 99, 92, 93, 98, 58, 57, 99, 93, 94, 98, 59, 58, 99, 94, 95, 98, 60, 59, 99, 95, 96, 98, 61, 60, 99, 96, 97, 98, 50, 61, 99, 97, 86]
            point3f[] points = [
                (-0.06168960235, -0.01018773359, -0.062),
                (-0.06148539881, -0.009963139758, -0.06282597318),
                (-0.06088318386, -0.009748422594, -0.06343062751),
                (-0.06004432051, -0.009601115392, -0.06365194636),
                (-0.05919358151, -0.009560688999, -0.06343062751),
                (-0.0585589217, -0.009637975634, -0.06282597318),
                (-0.05831039765, -0.009812266406, -0.062),
                (-0.05851460119, -0.01003686024, -0.06117402682),
                (-0.05911681614, -0.01025157741, -0.06056937249),
                (-0.05995567949, -0.01039888461, -0.06034805364),
                (-0.06080641849, -0.010439311, -0.06056937249),
                (-0.0614410783, -0.01036202437, -0.06117402682),
                (-0.05667621043, -0.05528309276, -0.07301330724),
                (-0.05646449565, -0.05512947203, -0.07385351596),
                (-0.05586037044, -0.05494115937, -0.07446502576),
                (-0.05502570967, -0.05476861301, -0.0746839831),
                (-0.05418416001, -0.05465806661, -0.07445171852),
                (-0.05356121402, -0.05463914098, -0.07383046714),
                (-0.05332378957, -0.05471690724, -0.07298669276),
                (-0.05353550435, -0.05487052797, -0.07214648404),
                (-0.05413962956, -0.05505884063, -0.07153497424),
                (-0.05497429033, -0.05523138699, -0.0713160169),
                (-0.05581583999, -0.05534193339, -0.07154828148),
                (-0.05643878598, -0.05536085902, -0.07216953286),
                (-0.04458480447, -0.1106149457, -0.07598462001),
                (-0.04435423799, -0.1106007587, -0.07683374367),
                (-0.04376080453, -0.1104255988, -0.07745946639),
                (-0.04296351412, -0.1101364, -0.07769412627),
                (-0.04217600007, -0.109810653, -0.07747484638),
                (-0.04160927613, -0.1095356414, -0.07686038259),
                (-0.04141519553, -0.1093850543, -0.07601537999),
                (-0.04164576201, -0.1093992413, -0.07516625633),
                (-0.04223919547, -0.1095744012, -0.07454053361),
                (-0.04303648588, -0.1098636, -0.07430587373),
                (-0.04382399993, -0.110189347, -0.07452515362),
                (-0.04439072387, -0.1104643586, -0.07513961741),
                (-0.02143286236, -0.1459088861, -0.06489592537),
                (-0.02116751243, -0.1459967567, -0.06573033614),
                (-0.02058932848, -0.1458175471, -0.06636905394),
                (-0.01985323445, -0.1454192764, -0.06664093484),
                (-0.01915646612, -0.144908661, -0.06647312857),
                (-0.01868572202, -0.1444225198, -0.06591059869),
                (-0.01856713764, -0.1440911139, -0.06510407463),
                (-0.01883248757, -0.1440032433, -0.06426966386),
                (-0.01941067152, -0.1441824529, -0.06363094606),
                (-0.02014676555, -0.1445807236, -0.06335906516),
                (-0.02084353388, -0.145091339, -0.06352687143),
                (-0.02131427798, -0.1455774802, -0.06408940131),
                (-0.06, -0.01, -0.062),
                (-0.02, -0.145, -0.065),
                (0.05831039765, -0.009812266406, -0.062),
                (0.0585589217, -0.009637975634, -0.06282597318),
                (0.05919358151, -0.009560688999, -0.06343062751),
                (0.06004432051, -0.009601115392, -0.06365194636),
                (0.06088318386, -0.009748422594, -0.06343062751),
                (0.06148539881, -0.009963139758, -0.06282597318),
                (0.06168960235, -0.01018773359, -0.062),
                (0.0614410783, -0.01036202437, -0.06117402682),
                (0.06080641849, -0.010439311, -0.06056937249),
                (0.05995567949, -0.01039888461, -0.06034805364),
                (0.05911681614, -0.01025157741, -0.06056937249),
                (0.05851460119, -0.01003686024, -0.06117402682),
                (0.05332378957, -0.05471690724, -0.07298669276),
                (0.05356121402, -0.05463914098, -0.07383046714),
                (0.05418416001, -0.05465806661, -0.07445171852),
                (0.05502570967, -0.05476861301, -0.0746839831),
                (0.05586037044, -0.05494115937, -0.07446502576),
                (0.05646449565, -0.05512947203, -0.07385351596),
                (0.05667621043, -0.05528309276, -0.07301330724),
                (0.05643878598, -0.05536085902, -0.07216953286),
                (0.05581583999, -0.05534193339, -0.07154828148),
                (0.05497429033, -0.05523138699, -0.0713160169),
                (0.05413962956, -0.05505884063, -0.07153497424),
                (0.05353550435, -0.05487052797, -0.07214648404),
                (0.04141519553, -0.1093850543, -0.07601537999),
                (0.04160927613, -0.1095356414, -0.07686038259),
                (0.04217600007, -0.109810653, -0.07747484638),
                (0.04296351412, -0.1101364, -0.07769412627),
                (0.04376080453, -0.1104255988, -0.07745946639),
                (0.04435423799, -0.1106007587, -0.07683374367),
                (0.04458480447, -0.1106149457, -0.07598462001),
                (0.04439072387, -0.1104643586, -0.07513961741),
                (0.04382399993, -0.110189347, -0.07452515362),
                (0.04303648588, -0.1098636, -0.07430587373),
                (0.04223919547, -0.1095744012, -0.07454053361),
                (0.04164576201, -0.1093992413, -0.07516625633),
                (0.01856713764, -0.1440911139, -0.06510407463),
                (0.01868572202, -0.1444225198, -0.06591059869),
                (0.01915646612, -0.144908661, -0.06647312857),
                (0.01985323445, -0.1454192764, -0.06664093484),
                (0.02058932848, -0.1458175471, -0.06636905394),
                (0.02116751243, -0.1459967567, -0.06573033614),
                (0.02143286236, -0.1459088861, -0.06489592537),
                (0.02131427798, -0.1455774802, -0.06408940131),
                (0.02084353388, -0.145091339, -0.06352687143),
                (0.02014676555, -0.1445807236, -0.06335906516),
                (0.01941067152, -0.1441824529, -0.06363094606),
                (0.01883248757, -0.1440032433, -0.06426966386),
                (0.06, -0.01, -0.062),
                (0.02, -0.145, -0.065)
            ]
            normal3f[] normals = [
                (-0.8226476945, 0.5472464762, 0.1541819217),
                (-0.7317099342, 0.6472422632, -0.2137241794),
                (-0.4634901915, 0.7428654597, -0.4830401134),
                (-0.08986178422, 0.8085000762, -0.5815947787),
                (0.2890577403, 0.8265395636, -0.4829885844),
                (0.5717435593, 0.7921240191, -0.2136558933),
                (0.682457487, 0.714466727, 0.1542370723),
                (0.5915283952, 0.614394074, 0.5221245824),
                (0.32331118, 0.5187488257, 0.7914351121),
                (-0.05032341249, 0.4531689963, 0.8900030421),
                (-0.4292516989, 0.435206367, 0.791415439),
                (-0.711940001, 0.4696439904, 0.5220880743),
                (-0.9869489327, -0.1595225667, -0.02200806493),
                (-0.8586538691, -0.0662006132, -0.5082627391),
                (-0.5075797004, 0.04410009656, -0.860475467),
                (-0.02483576311, 0.143157442, -0.9893882613),
                (0.4662066118, 0.205245598, -0.8605379943),
                (0.8373410319, 0.2132713286, -0.5033640201),
                (0.9864622442, 0.1637904657, -0.008057553652),
                (0.8672538579, 0.06916869565, 0.4930379676),
                (0.5080061244, -0.04483441454, 0.8601858246),
                (0.007997610707, -0.1463060251, 0.9892070487),
                (-0.4921477616, -0.2070971994, 0.8455183799),
                (-0.85510432, -0.2114087971, 0.4733951019),
                (-0.9223398515, -0.3861448221, -0.01346754176),
                (-0.7819346479, -0.3801409076, -0.4940355217),
                (-0.4462881592, -0.2805382327, -0.8497794884),
                (0.003335851487, -0.1110666293, -0.9938073636),
                (0.4573118069, 0.0895232806, -0.8847889542),
                (0.7973440561, 0.271350341, -0.5390838975),
                (0.9233667593, 0.3820162659, -0.03817591299),
                (0.7882158476, 0.3847450812, 0.4802988653),
                (0.4249722273, 0.2760207519, 0.8620969496),
                (-0.05763250452, 0.08855867566, 0.9944022603),
                (-0.5169132157, -0.1211647305, 0.8474195157),
                (-0.8292151017, -0.2937287559, 0.4755267952),
                (-0.2914012153, -0.9327908755, 0.2121002458),
                (-0.1734043255, -0.9718207036, -0.1596729785),
                (0.08409504732, -0.8919805543, -0.4441831984),
                (0.4120891143, -0.7146897054, -0.565155896),
                (0.7225954458, -0.4873683691, -0.4902324902),
                (0.9323533944, -0.2707895616, -0.2395624372),
                (0.9851686796, -0.1229380354, 0.1197034347),
                (0.8669365645, -0.08354677497, 0.4913663904),
                (0.6093998335, -0.1633281274, 0.7758580835),
                (0.2816030494, -0.3409215424, 0.8969237562),
                (-0.02866914181, -0.568605097, 0.8221108952),
                (-0.2383891492, -0.7852427703, 0.5714581395),
                (-0.1073099747, 0.9657897726, 0.2360819444),
                (0.5311622477, -0.8082903769, 0.2540341184),
                (-0.6824599125, 0.7144662093, 0.1542287379),
                (-0.5717532474, 0.7921098509, -0.2136824941),
                (-0.289071389, 0.8265108878, -0.4830294861),
                (0.08985072633, 0.8084716266, -0.581636034),
                (0.4634842368, 0.7428517158, -0.4830669629),
                (0.7317080281, 0.6472418332, -0.2137320074),
                (0.8226495984, 0.5472416607, 0.1541888552),
                (0.711945183, 0.4696175207, 0.5221048176),
                (0.4292569249, 0.4351597685, 0.7914382277),
                (0.05032621384, 0.453122831, 0.8900263885),
                (-0.3233094532, 0.5187232313, 0.7914525929),
                (-0.5915268986, 0.614389811, 0.5221312941),
                (-0.9864762595, 0.1637055385, -0.008067599352),
                (-0.8373409938, 0.2131965008, -0.5033957808),
                (-0.4662036483, 0.2051325565, -0.8605665532),
                (0.02481056762, 0.1430044304, -0.9894110211),
                (0.5075322956, 0.04394363437, -0.8605114328),
                (0.8586201536, -0.06632570593, -0.5083033864),
                (0.9869345279, -0.1596097993, -0.02202156959),
                (0.8550790786, -0.2114843972, 0.4734069275),
                (0.492105217, -0.2072034021, 0.8455171232),
                (-0.008026397676, -0.146462693, 0.9891836313),
                (-0.5080118546, -0.04500994945, 0.8601732732),
                (-0.8672620948, 0.0690304945, 0.4930428477),
                (-0.9234774078, 0.3817511377, -0.03815162202),
                (-0.7974225163, 0.2712053047, -0.539040827),
                (-0.4573115645, 0.08960759665, -0.8847805443),
                (-0.0032695297, -0.1108933548, -0.9938269336),
                (0.4463465021, -0.280460643, -0.849774457),
                (0.7819103996, -0.380238451, -0.4939988335),
                (0.9222438124, -0.3863750126, -0.01344247689),
                (0.8291449762, -0.2939371921, 0.4755202788),
                (0.5169374977, -0.1211741383, 0.8474033583),
                (0.05770052594, 0.08873599482, 0.9943825082),
                (-0.4249568643, 0.2761429675, 0.8620653832),
                (-0.7882858379, 0.3846250293, 0.4802801522),
                (-0.9852209361, -0.1226057233, 0.1196141453),
                (-0.9324076717, -0.2705201453, -0.2396555543),
                (-0.7226419467, -0.4872432523, -0.4902883131),
                (-0.4120879085, -0.7146732783, -0.5651775481),
                (-0.08398385856, -0.8919777604, -0.4442098451),
                (0.1736539993, -0.971768354, -0.1597202386),
                (0.2917266528, -0.9326987338, 0.2120580862),
                (0.2386655741, -0.7851684247, 0.571444913),
                (0.02881165269, -0.5685843598, 0.8221202554),
                (-0.2815838553, -0.3409084573, 0.8969347558),
                (-0.6094407448, -0.1632198863, 0.7758487271),
                (-0.8669893155, -0.08329105868, 0.491316727),
                (0.1073099747, 0.9657897726, 0.2360819444),
                (-0.5311622477, -0.8082903769, 0.2540341184)
            ] (
                interpolation = "vertex"
            )
            uniform token subdivisionScheme = "none"
        }
    }
    def Scope "Frames"
    {
        def Xform "left_ureter_target"
        {
            custom string drAnmar:role = "left_ureter_target"
            double3 xformOp:translate = (-0.048, -0.08, -0.075)
            quatf xformOp:orient = (1, 0, 0, 0)
            uniform token[] xformOpOrder = ["xformOp:translate", "xformOp:orient"]
        }
        def Xform "right_ureter_target"
        {
            custom string drAnmar:role = "right_ureter_target"
            double3 xformOp:translate = (0.048, -0.08, -0.075)
            quatf xformOp:orient = (1, 0, 0, 0)
            uniform token[] xformOpOrder = ["xformOp:translate", "xformOp:orient"]
        }
    }
}
