#usda 1.0
(
    defaultPrim = "DrAnmarMajorVessels"
    doc = "Major Abdominal Vessels: modular component of the DrAnmar dynamic abdominal research patient."
    kilogramsPerUnit = 1
    metersPerUnit = 1
    upAxis = "Z"
)

def Xform "DrAnmarMajorVessels" (
    assetInfo = {
        string name = "DrAnmarMajorVessels"
        string version = "0.1.0"
    }
    kind = "component"
)
{
    custom string drAnmar:assetId = "dranmar-dynamic-abdominal-patient-v1:major_vessels"
    custom string drAnmar:category = "vascular"
    custom string drAnmar:mechanics = "segmented_rod"
    custom float drAnmar:densityKgM3 = 1060
    custom float drAnmar:massKg = 0.18
    custom float drAnmar:youngsModulusPa = 420000
    custom float drAnmar:poissonsRatio = 0.48
    custom float drAnmar:damping = 0.14
    custom float drAnmar:perfusionFraction = 1
    custom vector3f drAnmar:respirationCoupling = (0, 0.001, 0.003)
    custom float drAnmar:pulsationFraction = 0.035
    custom bool drAnmar:clinicalValidation = false
    def Scope "Looks"
    {
        def Material "Artery"
        {
            def Shader "PreviewSurface"
            {
                uniform token info:id = "UsdPreviewSurface"
                color3f inputs:diffuseColor = (0.82, 0.025, 0.03)
                float inputs:metallic = 0
                float inputs:roughness = 0.35
                float inputs:opacity = 1
                token outputs:surface
            }
            token outputs:surface.connect = </DrAnmarMajorVessels/Looks/Artery/PreviewSurface.outputs:surface>
        }
    }
    def Xform "Geometry"
    {
        def Mesh "Visual" (
            prepend apiSchemas = ["MaterialBindingAPI"]
        )
        {
            rel material:binding = </DrAnmarMajorVessels/Looks/Artery>
            custom token[] drAnmar:labels = ["major_vessels", "vascular_network", "perfused"]
            uniform bool doubleSided = false
            float3[] extent = [(-0.01282789274, -0.1704160251, -0.0814899923), (0.04685803727, 0.1204491922, -0.000734553118)]
            int[] faceVertexCounts = [3, 3, 3, 3, 3, 3, 3, 3, 3, 3, 3, 3, 3, 3, 3, 3, 3, 3, 3, 3, 3, 3, 3, 3, 3, 3, 3, 3, 3, 3, 3, 3, 3, 3, 3, 3, 3, 3, 3, 3, 3, 3, 3, 3, 3, 3, 3, 3, 3, 3, 3, 3, 3, 3, 3, 3, 3, 3, 3, 3, 3, 3, 3, 3, 3, 3, 3, 3, 3, 3, 3, 3, 3, 3, 3, 3, 3, 3, 3, 3, 3, 3, 3, 3, 3, 3, 3, 3, 3, 3, 3, 3, 3, 3, 3, 3, 3, 3, 3, 3, 3, 3, 3, 3, 3, 3, 3, 3, 3, 3, 3, 3, 3, 3, 3, 3, 3, 3, 3, 3, 3, 3, 3, 3, 3, 3, 3, 3, 3, 3, 3, 3, 3, 3, 3, 3, 3, 3, 3, 3, 3, 3, 3, 3, 3, 3, 3, 3, 3, 3, 3, 3, 3, 3, 3, 3, 3, 3, 3, 3, 3, 3, 3, 3, 3, 3, 3, 3, 3, 3, 3, 3, 3, 3, 3, 3, 3, 3, 3, 3, 3, 3, 3, 3, 3, 3, 3, 3, 3, 3, 3, 3, 3, 3, 3, 3, 3, 3, 3, 3, 3, 3, 3, 3, 3, 3, 3, 3, 3, 3, 3, 3, 3, 3, 3, 3, 3, 3, 3, 3, 3, 3, 3, 3, 3, 3, 3, 3, 3, 3, 3, 3, 3, 3, 3, 3, 3, 3, 3, 3, 3, 3, 3, 3, 3, 3, 3, 3, 3, 3, 3, 3, 3, 3, 3, 3, 3, 3, 3, 3, 3, 3, 3, 3, 3, 3, 3, 3, 3, 3, 3, 3, 3, 3, 3, 3, 3, 3, 3, 3, 3, 3, 3, 3, 3, 3, 3, 3, 3, 3, 3, 3, 3, 3, 3, 3, 3, 3, 3, 3, 3, 3, 3, 3, 3, 3, 3, 3, 3, 3, 3, 3, 3, 3, 3, 3, 3, 3, 3, 3, 3, 3, 3, 3, 3, 3, 3, 3, 3, 3, 3, 3, 3, 3, 3, 3, 3, 3, 3, 3, 3, 3, 3, 3, 3, 3, 3, 3, 3, 3, 3, 3, 3, 3, 3, 3, 3, 3, 3, 3, 3, 3, 3, 3, 3, 3, 3, 3, 3, 3, 3, 3, 3, 3, 3, 3, 3, 3, 3, 3, 3, 3, 3, 3, 3, 3, 3, 3, 3, 3, 3, 3, 3, 3, 3, 3, 3, 3, 3, 3, 3, 3, 3, 3, 3, 3, 3, 3, 3, 3, 3, 3, 3, 3, 3, 3, 3, 3, 3, 3, 3, 3, 3, 3, 3, 3, 3, 3, 3, 3, 3, 3, 3, 3, 3, 3, 3, 3, 3, 3, 3, 3, 3, 3, 3, 3, 3, 3, 3, 3, 3, 3, 3, 3, 3, 3, 3, 3, 3, 3, 3, 3, 3, 3, 3, 3, 3, 3, 3, 3, 3, 3, 3, 3, 3, 3, 3, 3, 3, 3, 3, 3, 3, 3, 3, 3, 3, 3, 3, 3, 3, 3, 3, 3, 3, 3, 3, 3, 3, 3, 3, 3, 3, 3, 3, 3, 3, 3, 3, 3, 3, 3, 3, 3, 3, 3, 3, 3, 3, 3, 3, 3, 3, 3, 3, 3, 3, 3, 3, 3, 3, 3, 3, 3, 3, 3, 3, 3, 3, 3, 3, 3, 3, 3, 3, 3, 3, 3, 3, 3, 3, 3, 3, 3, 3, 3, 3, 3, 3, 3, 3, 3, 3, 3, 3, 3, 3, 3, 3, 3, 3, 3, 3, 3, 3, 3, 3, 3, 3, 3, 3, 3, 3, 3, 3, 3, 3, 3, 3, 3, 3, 3, 3, 3, 3, 3, 3, 3, 3, 3, 3, 3, 3, 3, 3, 3, 3, 3, 3, 3, 3, 3, 3, 3, 3, 3, 3, 3, 3, 3, 3, 3, 3, 3, 3, 3, 3, 3, 3, 3, 3, 3, 3, 3, 3, 3, 3, 3, 3, 3, 3, 3, 3, 3, 3, 3, 3, 3, 3, 3, 3, 3, 3, 3, 3, 3]
            int[] faceVertexIndices = [0, 1, 21, 0, 21, 20, 1, 2, 22, 1, 22, 21, 2, 3, 23, 2, 23, 22, 3, 4, 24, 3, 24, 23, 4, 5, 25, 4, 25, 24, 5, 6, 26, 5, 26, 25, 6, 7, 27, 6, 27, 26, 7, 8, 28, 7, 28, 27, 8, 9, 29, 8, 29, 28, 9, 10, 30, 9, 30, 29, 10, 11, 31, 10, 31, 30, 11, 12, 32, 11, 32, 31, 12, 13, 33, 12, 33, 32, 13, 14, 34, 13, 34, 33, 14, 15, 35, 14, 35, 34, 15, 16, 36, 15, 36, 35, 16, 17, 37, 16, 37, 36, 17, 18, 38, 17, 38, 37, 18, 19, 39, 18, 39, 38, 19, 0, 20, 19, 20, 39, 20, 21, 41, 20, 41, 40, 21, 22, 42, 21, 42, 41, 22, 23, 43, 22, 43, 42, 23, 24, 44, 23, 44, 43, 24, 25, 45, 24, 45, 44, 25, 26, 46, 25, 46, 45, 26, 27, 47, 26, 47, 46, 27, 28, 48, 27, 48, 47, 28, 29, 49, 28, 49, 48, 29, 30, 50, 29, 50, 49, 30, 31, 51, 30, 51, 50, 31, 32, 52, 31, 52, 51, 32, 33, 53, 32, 53, 52, 33, 34, 54, 33, 54, 53, 34, 35, 55, 34, 55, 54, 35, 36, 56, 35, 56, 55, 36, 37, 57, 36, 57, 56, 37, 38, 58, 37, 58, 57, 38, 39, 59, 38, 59, 58, 39, 20, 40, 39, 40, 59, 40, 41, 61, 40, 61, 60, 41, 42, 62, 41, 62, 61, 42, 43, 63, 42, 63, 62, 43, 44, 64, 43, 64, 63, 44, 45, 65, 44, 65, 64, 45, 46, 66, 45, 66, 65, 46, 47, 67, 46, 67, 66, 47, 48, 68, 47, 68, 67, 48, 49, 69, 48, 69, 68, 49, 50, 70, 49, 70, 69, 50, 51, 71, 50, 71, 70, 51, 52, 72, 51, 72, 71, 52, 53, 73, 52, 73, 72, 53, 54, 74, 53, 74, 73, 54, 55, 75, 54, 75, 74, 55, 56, 76, 55, 76, 75, 56, 57, 77, 56, 77, 76, 57, 58, 78, 57, 78, 77, 58, 59, 79, 58, 79, 78, 59, 40, 60, 59, 60, 79, 80, 1, 0, 81, 60, 61, 80, 2, 1, 81, 61, 62, 80, 3, 2, 81, 62, 63, 80, 4, 3, 81, 63, 64, 80, 5, 4, 81, 64, 65, 80, 6, 5, 81, 65, 66, 80, 7, 6, 81, 66, 67, 80, 8, 7, 81, 67, 68, 80, 9, 8, 81, 68, 69, 80, 10, 9, 81, 69, 70, 80, 11, 10, 81, 70, 71, 80, 12, 11, 81, 71, 72, 80, 13, 12, 81, 72, 73, 80, 14, 13, 81, 73, 74, 80, 15, 14, 81, 74, 75, 80, 16, 15, 81, 75, 76, 80, 17, 16, 81, 76, 77, 80, 18, 17, 81, 77, 78, 80, 19, 18, 81, 78, 79, 80, 0, 19, 81, 79, 60, 82, 83, 103, 82, 103, 102, 83, 84, 104, 83, 104, 103, 84, 85, 105, 84, 105, 104, 85, 86, 106, 85, 106, 105, 86, 87, 107, 86, 107, 106, 87, 88, 108, 87, 108, 107, 88, 89, 109, 88, 109, 108, 89, 90, 110, 89, 110, 109, 90, 91, 111, 90, 111, 110, 91, 92, 112, 91, 112, 111, 92, 93, 113, 92, 113, 112, 93, 94, 114, 93, 114, 113, 94, 95, 115, 94, 115, 114, 95, 96, 116, 95, 116, 115, 96, 97, 117, 96, 117, 116, 97, 98, 118, 97, 118, 117, 98, 99, 119, 98, 119, 118, 99, 100, 120, 99, 120, 119, 100, 101, 121, 100, 121, 120, 101, 82, 102, 101, 102, 121, 102, 103, 123, 102, 123, 122, 103, 104, 124, 103, 124, 123, 104, 105, 125, 104, 125, 124, 105, 106, 126, 105, 126, 125, 106, 107, 127, 106, 127, 126, 107, 108, 128, 107, 128, 127, 108, 109, 129, 108, 129, 128, 109, 110, 130, 109, 130, 129, 110, 111, 131, 110, 131, 130, 111, 112, 132, 111, 132, 131, 112, 113, 133, 112, 133, 132, 113, 114, 134, 113, 134, 133, 114, 115, 135, 114, 135, 134, 115, 116, 136, 115, 136, 135, 116, 117, 137, 116, 137, 136, 117, 118, 138, 117, 138, 137, 118, 119, 139, 118, 139, 138, 119, 120, 140, 119, 140, 139, 120, 121, 141, 120, 141, 140, 121, 102, 122, 121, 122, 141, 122, 123, 143, 122, 143, 142, 123, 124, 144, 123, 144, 143, 124, 125, 145, 124, 145, 144, 125, 126, 146, 125, 146, 145, 126, 127, 147, 126, 147, 146, 127, 128, 148, 127, 148, 147, 128, 129, 149, 128, 149, 148, 129, 130, 150, 129, 150, 149, 130, 131, 151, 130, 151, 150, 131, 132, 152, 131, 152, 151, 132, 133, 153, 132, 153, 152, 133, 134, 154, 133, 154, 153, 134, 135, 155, 134, 155, 154, 135, 136, 156, 135, 156, 155, 136, 137, 157, 136, 157, 156, 137, 138, 158, 137, 158, 157, 138, 139, 159, 138, 159, 158, 139, 140, 160, 139, 160, 159, 140, 141, 161, 140, 161, 160, 141, 122, 142, 141, 142, 161, 162, 83, 82, 163, 142, 143, 162, 84, 83, 163, 143, 144, 162, 85, 84, 163, 144, 145, 162, 86, 85, 163, 145, 146, 162, 87, 86, 163, 146, 147, 162, 88, 87, 163, 147, 148, 162, 89, 88, 163, 148, 149, 162, 90, 89, 163, 149, 150, 162, 91, 90, 163, 150, 151, 162, 92, 91, 163, 151, 152, 162, 93, 92, 163, 152, 153, 162, 94, 93, 163, 153, 154, 162, 95, 94, 163, 154, 155, 162, 96, 95, 163, 155, 156, 162, 97, 96, 163, 156, 157, 162, 98, 97, 163, 157, 158, 162, 99, 98, 163, 158, 159, 162, 100, 99, 163, 159, 160, 162, 101, 100, 163, 160, 161, 162, 82, 101, 163, 161, 142, 164, 165, 183, 164, 183, 182, 165, 166, 184, 165, 184, 183, 166, 167, 185, 166, 185, 184, 167, 168, 186, 167, 186, 185, 168, 169, 187, 168, 187, 186, 169, 170, 188, 169, 188, 187, 170, 171, 189, 170, 189, 188, 171, 172, 190, 171, 190, 189, 172, 173, 191, 172, 191, 190, 173, 174, 192, 173, 192, 191, 174, 175, 193, 174, 193, 192, 175, 176, 194, 175, 194, 193, 176, 177, 195, 176, 195, 194, 177, 178, 196, 177, 196, 195, 178, 179, 197, 178, 197, 196, 179, 180, 198, 179, 198, 197, 180, 181, 199, 180, 199, 198, 181, 164, 182, 181, 182, 199, 182, 183, 201, 182, 201, 200, 183, 184, 202, 183, 202, 201, 184, 185, 203, 184, 203, 202, 185, 186, 204, 185, 204, 203, 186, 187, 205, 186, 205, 204, 187, 188, 206, 187, 206, 205, 188, 189, 207, 188, 207, 206, 189, 190, 208, 189, 208, 207, 190, 191, 209, 190, 209, 208, 191, 192, 210, 191, 210, 209, 192, 193, 211, 192, 211, 210, 193, 194, 212, 193, 212, 211, 194, 195, 213, 194, 213, 212, 195, 196, 214, 195, 214, 213, 196, 197, 215, 196, 215, 214, 197, 198, 216, 197, 216, 215, 198, 199, 217, 198, 217, 216, 199, 182, 200, 199, 200, 217, 200, 201, 219, 200, 219, 218, 201, 202, 220, 201, 220, 219, 202, 203, 221, 202, 221, 220, 203, 204, 222, 203, 222, 221, 204, 205, 223, 204, 223, 222, 205, 206, 224, 205, 224, 223, 206, 207, 225, 206, 225, 224, 207, 208, 226, 207, 226, 225, 208, 209, 227, 208, 227, 226, 209, 210, 228, 209, 228, 227, 210, 211, 229, 210, 229, 228, 211, 212, 230, 211, 230, 229, 212, 213, 231, 212, 231, 230, 213, 214, 232, 213, 232, 231, 214, 215, 233, 214, 233, 232, 215, 216, 234, 215, 234, 233, 216, 217, 235, 216, 235, 234, 217, 200, 218, 217, 218, 235, 236, 165, 164, 237, 218, 219, 236, 166, 165, 237, 219, 220, 236, 167, 166, 237, 220, 221, 236, 168, 167, 237, 221, 222, 236, 169, 168, 237, 222, 223, 236, 170, 169, 237, 223, 224, 236, 171, 170, 237, 224, 225, 236, 172, 171, 237, 225, 226, 236, 173, 172, 237, 226, 227, 236, 174, 173, 237, 227, 228, 236, 175, 174, 237, 228, 229, 236, 176, 175, 237, 229, 230, 236, 177, 176, 237, 230, 231, 236, 178, 177, 237, 231, 232, 236, 179, 178, 237, 232, 233, 236, 180, 179, 237, 233, 234, 236, 181, 180, 237, 234, 235, 236, 164, 181, 237, 235, 218, 238, 239, 255, 238, 255, 254, 239, 240, 256, 239, 256, 255, 240, 241, 257, 240, 257, 256, 241, 242, 258, 241, 258, 257, 242, 243, 259, 242, 259, 258, 243, 244, 260, 243, 260, 259, 244, 245, 261, 244, 261, 260, 245, 246, 262, 245, 262, 261, 246, 247, 263, 246, 263, 262, 247, 248, 264, 247, 264, 263, 248, 249, 265, 248, 265, 264, 249, 250, 266, 249, 266, 265, 250, 251, 267, 250, 267, 266, 251, 252, 268, 251, 268, 267, 252, 253, 269, 252, 269, 268, 253, 238, 254, 253, 254, 269, 254, 255, 271, 254, 271, 270, 255, 256, 272, 255, 272, 271, 256, 257, 273, 256, 273, 272, 257, 258, 274, 257, 274, 273, 258, 259, 275, 258, 275, 274, 259, 260, 276, 259, 276, 275, 260, 261, 277, 260, 277, 276, 261, 262, 278, 261, 278, 277, 262, 263, 279, 262, 279, 278, 263, 264, 280, 263, 280, 279, 264, 265, 281, 264, 281, 280, 265, 266, 282, 265, 282, 281, 266, 267, 283, 266, 283, 282, 267, 268, 284, 267, 284, 283, 268, 269, 285, 268, 285, 284, 269, 254, 270, 269, 270, 285, 286, 239, 238, 287, 270, 271, 286, 240, 239, 287, 271, 272, 286, 241, 240, 287, 272, 273, 286, 242, 241, 287, 273, 274, 286, 243, 242, 287, 274, 275, 286, 244, 243, 287, 275, 276, 286, 245, 244, 287, 276, 277, 286, 246, 245, 287, 277, 278, 286, 247, 246, 287, 278, 279, 286, 248, 247, 287, 279, 280, 286, 249, 248, 287, 280, 281, 286, 250, 249, 287, 281, 282, 286, 251, 250, 287, 282, 283, 286, 252, 251, 287, 283, 284, 286, 253, 252, 287, 284, 285, 286, 238, 253, 287, 285, 270, 288, 289, 305, 288, 305, 304, 289, 290, 306, 289, 306, 305, 290, 291, 307, 290, 307, 306, 291, 292, 308, 291, 308, 307, 292, 293, 309, 292, 309, 308, 293, 294, 310, 293, 310, 309, 294, 295, 311, 294, 311, 310, 295, 296, 312, 295, 312, 311, 296, 297, 313, 296, 313, 312, 297, 298, 314, 297, 314, 313, 298, 299, 315, 298, 315, 314, 299, 300, 316, 299, 316, 315, 300, 301, 317, 300, 317, 316, 301, 302, 318, 301, 318, 317, 302, 303, 319, 302, 319, 318, 303, 288, 304, 303, 304, 319, 304, 305, 321, 304, 321, 320, 305, 306, 322, 305, 322, 321, 306, 307, 323, 306, 323, 322, 307, 308, 324, 307, 324, 323, 308, 309, 325, 308, 325, 324, 309, 310, 326, 309, 326, 325, 310, 311, 327, 310, 327, 326, 311, 312, 328, 311, 328, 327, 312, 313, 329, 312, 329, 328, 313, 314, 330, 313, 330, 329, 314, 315, 331, 314, 331, 330, 315, 316, 332, 315, 332, 331, 316, 317, 333, 316, 333, 332, 317, 318, 334, 317, 334, 333, 318, 319, 335, 318, 335, 334, 319, 304, 320, 319, 320, 335, 336, 289, 288, 337, 320, 321, 336, 290, 289, 337, 321, 322, 336, 291, 290, 337, 322, 323, 336, 292, 291, 337, 323, 324, 336, 293, 292, 337, 324, 325, 336, 294, 293, 337, 325, 326, 336, 295, 294, 337, 326, 327, 336, 296, 295, 337, 327, 328, 336, 297, 296, 337, 328, 329, 336, 298, 297, 337, 329, 330, 336, 299, 298, 337, 330, 331, 336, 300, 299, 337, 331, 332, 336, 301, 300, 337, 332, 333, 336, 302, 301, 337, 333, 334, 336, 303, 302, 337, 334, 335, 336, 288, 303, 337, 335, 320]
            point3f[] points = [
                (0.0065, -0.17, -0.075),
                (0.006181867356, -0.1698885823, -0.07700551791),
                (0.005258610463, -0.169788071, -0.07881472176),
                (0.00382060414, -0.1697083048, -0.08025051406),
                (0.002008610463, -0.1696570917, -0.08117234946),
                (0, -0.1696394449, -0.0814899923),
                (-0.002008610463, -0.1696570917, -0.08117234946),
                (-0.00382060414, -0.1697083048, -0.08025051406),
                (-0.005258610463, -0.169788071, -0.07881472176),
                (-0.006181867356, -0.1698885823, -0.07700551791),
                (-0.0065, -0.17, -0.075),
                (-0.006181867356, -0.1701114177, -0.07299448209),
                (-0.005258610463, -0.170211929, -0.07118527824),
                (-0.00382060414, -0.1702916952, -0.06974948594),
                (-0.002008610463, -0.1703429083, -0.06882765054),
                (-1.194030629e-18, -0.1703605551, -0.0685100077),
                (0.002008610463, -0.1703429083, -0.06882765054),
                (0.00382060414, -0.1702916952, -0.06974948594),
                (0.005258610463, -0.170211929, -0.07118527824),
                (0.006181867356, -0.1701114177, -0.07299448209),
                (0.0065, -0.08, -0.07),
                (0.006181867356, -0.07990496186, -0.07200636082),
                (0.005258610463, -0.07981922671, -0.07381632507),
                (0.00382060414, -0.07975118691, -0.07525272082),
                (0.002008610463, -0.07970750267, -0.07617494367),
                (0, -0.07969245011, -0.07649272),
                (-0.002008610463, -0.07970750267, -0.07617494367),
                (-0.00382060414, -0.07975118691, -0.07525272082),
                (-0.005258610463, -0.07981922671, -0.07381632507),
                (-0.006181867356, -0.07990496186, -0.07200636082),
                (-0.0065, -0.08, -0.07),
                (-0.006181867356, -0.08009503814, -0.06799363918),
                (-0.005258610463, -0.08018077329, -0.06618367493),
                (-0.00382060414, -0.08024881309, -0.06474727918),
                (-0.002008610463, -0.08029249733, -0.06382505633),
                (-1.194030629e-18, -0.08030754989, -0.06350728),
                (0.002008610463, -0.08029249733, -0.06382505633),
                (0.00382060414, -0.08024881309, -0.06474727918),
                (0.005258610463, -0.08018077329, -0.06618367493),
                (0.006181867356, -0.08009503814, -0.06799363918),
                (0.0065, 0.02, -0.066),
                (0.006181867356, 0.02010030522, -0.0680061044),
                (0.005258610463, 0.02019079187, -0.06981583732),
                (0.00382060414, 0.02026260247, -0.0712520495),
                (0.002008610463, 0.02030870772, -0.07217415448),
                (0, 0.02032459451, -0.0724918902),
                (-0.002008610463, 0.02030870772, -0.07217415448),
                (-0.00382060414, 0.02026260247, -0.0712520495),
                (-0.005258610463, 0.02019079187, -0.06981583732),
                (-0.006181867356, 0.02010030522, -0.0680061044),
                (-0.0065, 0.02, -0.066),
                (-0.006181867356, 0.01989969478, -0.0639938956),
                (-0.005258610463, 0.01980920813, -0.06218416268),
                (-0.00382060414, 0.01973739753, -0.0607479505),
                (-0.002008610463, 0.01969129228, -0.05982584552),
                (-1.194030629e-18, 0.01967540549, -0.0595081098),
                (0.002008610463, 0.01969129228, -0.05982584552),
                (0.00382060414, 0.01973739753, -0.0607479505),
                (0.005258610463, 0.01980920813, -0.06218416268),
                (0.006181867356, 0.01989969478, -0.0639938956),
                (0.0065, 0.12, -0.06),
                (0.006181867356, 0.1201203003, -0.0620050047),
                (0.005258610463, 0.1202288247, -0.06381374557),
                (0.00382060414, 0.1203149502, -0.06524917045),
                (0.002008610463, 0.1203702462, -0.06617076995),
                (0, 0.1203892999, -0.0664883315),
                (-0.002008610463, 0.1203702462, -0.06617076995),
                (-0.00382060414, 0.1203149502, -0.06524917045),
                (-0.005258610463, 0.1202288247, -0.06381374557),
                (-0.006181867356, 0.1201203003, -0.0620050047),
                (-0.0065, 0.12, -0.06),
                (-0.006181867356, 0.1198796997, -0.0579949953),
                (-0.005258610463, 0.1197711753, -0.05618625443),
                (-0.00382060414, 0.1196850498, -0.05475082955),
                (-0.002008610463, 0.1196297538, -0.05382923005),
                (-1.194030629e-18, 0.1196107001, -0.0535116685),
                (0.002008610463, 0.1196297538, -0.05382923005),
                (0.00382060414, 0.1196850498, -0.05475082955),
                (0.005258610463, 0.1197711753, -0.05618625443),
                (0.006181867356, 0.1198796997, -0.0579949953),
                (0, -0.17, -0.075),
                (0, 0.12, -0.06),
                (0.0325, -0.17, -0.072),
                (0.03213292387, -0.1698714412, -0.07431405913),
                (0.03106762746, -0.1697554666, -0.07640160203),
                (0.02940838939, -0.1696634286, -0.07805828545),
                (0.02731762746, -0.1696043366, -0.07912194169),
                (0.025, -0.1695839749, -0.07948845265),
                (0.02268237254, -0.1696043366, -0.07912194169),
                (0.02059161061, -0.1696634286, -0.07805828545),
                (0.01893237254, -0.1697554666, -0.07640160203),
                (0.01786707613, -0.1698714412, -0.07431405913),
                (0.0175, -0.17, -0.072),
                (0.01786707613, -0.1701285588, -0.06968594087),
                (0.01893237254, -0.1702445334, -0.06759839797),
                (0.02059161061, -0.1703365714, -0.06594171455),
                (0.02268237254, -0.1703956634, -0.06487805831),
                (0.025, -0.1704160251, -0.06451154735),
                (0.02731762746, -0.1703956634, -0.06487805831),
                (0.02940838939, -0.1703365714, -0.06594171455),
                (0.03106762746, -0.1702445334, -0.06759839797),
                (0.03213292387, -0.1701285588, -0.06968594087),
                (0.0325, -0.08, -0.067),
                (0.03213292387, -0.0798903406, -0.06931503172),
                (0.03106762746, -0.07979141543, -0.071403452),
                (0.02940838939, -0.07971290797, -0.07306083172),
                (0.02731762746, -0.07966250308, -0.074124935),
                (0.025, -0.07964513474, -0.07449160001),
                (0.02268237254, -0.07966250308, -0.074124935),
                (0.02059161061, -0.07971290797, -0.07306083172),
                (0.01893237254, -0.07979141543, -0.071403452),
                (0.01786707613, -0.0798903406, -0.06931503172),
                (0.0175, -0.08, -0.067),
                (0.01786707613, -0.0801096594, -0.06468496828),
                (0.01893237254, -0.08020858457, -0.062596548),
                (0.02059161061, -0.08028709203, -0.06093916828),
                (0.02268237254, -0.08033749692, -0.059875065),
                (0.025, -0.08035486526, -0.05950839999),
                (0.02731762746, -0.08033749692, -0.059875065),
                (0.02940838939, -0.08028709203, -0.06093916828),
                (0.03106762746, -0.08020858457, -0.062596548),
                (0.03213292387, -0.0801096594, -0.06468496828),
                (0.0325, 0.02, -0.063),
                (0.03213292387, 0.02011573679, -0.06531473584),
                (0.03106762746, 0.02022014446, -0.06740288922),
                (0.02940838939, 0.02030300286, -0.06906005711),
                (0.02731762746, 0.02035620122, -0.0701240244),
                (0.025, 0.02037453213, -0.07049064254),
                (0.02268237254, 0.02035620122, -0.0701240244),
                (0.02059161061, 0.02030300286, -0.06906005711),
                (0.01893237254, 0.02022014446, -0.06740288922),
                (0.01786707613, 0.02011573679, -0.06531473584),
                (0.0175, 0.02, -0.063),
                (0.01786707613, 0.01988426321, -0.06068526416),
                (0.01893237254, 0.01977985554, -0.05859711078),
                (0.02059161061, 0.01969699714, -0.05693994289),
                (0.02268237254, 0.01964379878, -0.0558759756),
                (0.025, 0.01962546787, -0.05550935746),
                (0.02731762746, 0.01964379878, -0.0558759756),
                (0.02940838939, 0.01969699714, -0.05693994289),
                (0.03106762746, 0.01977985554, -0.05859711078),
                (0.03213292387, 0.01988426321, -0.06068526416),
                (0.0325, 0.12, -0.057),
                (0.03213292387, 0.120138808, -0.05931346696),
                (0.03106762746, 0.1202640285, -0.06140047565),
                (0.02940838939, 0.1203634041, -0.06305673513),
                (0.02731762746, 0.1204272072, -0.06412011917),
                (0.025, 0.1204491922, -0.06448653634),
                (0.02268237254, 0.1204272072, -0.06412011917),
                (0.02059161061, 0.1203634041, -0.06305673513),
                (0.01893237254, 0.1202640285, -0.06140047565),
                (0.01786707613, 0.120138808, -0.05931346696),
                (0.0175, 0.12, -0.057),
                (0.01786707613, 0.119861192, -0.05468653304),
                (0.01893237254, 0.1197359715, -0.05259952435),
                (0.02059161061, 0.1196365959, -0.05094326487),
                (0.02268237254, 0.1195727928, -0.04987988083),
                (0.025, 0.1195508078, -0.04951346366),
                (0.02731762746, 0.1195727928, -0.04987988083),
                (0.02940838939, 0.1196365959, -0.05094326487),
                (0.03106762746, 0.1197359715, -0.05259952435),
                (0.03213292387, 0.119861192, -0.05468653304),
                (0.025, -0.17, -0.072),
                (0.025, 0.12, -0.057),
                (0.02232731068, 0.01292289088, -0.055),
                (0.02240433597, 0.01375231017, -0.05644398572),
                (0.02195013334, 0.01473221927, -0.05771380546),
                (0.02101948634, 0.01574442668, -0.0586563002),
                (0.01972464471, 0.01666684525, -0.05915779118),
                (0.01822178549, 0.01738821768, -0.05915779118),
                (0.01669217566, 0.01782153581, -0.0586563002),
                (0.01532030875, 0.01791453508, -0.05771380546),
                (0.01427165215, 0.0176559984, -0.05644398572),
                (0.01367268932, 0.01707710912, -0.055),
                (0.01359566403, 0.01624768983, -0.05355601428),
                (0.01404986666, 0.01526778073, -0.05228619454),
                (0.01498051366, 0.01425557332, -0.0513436998),
                (0.01627535529, 0.01333315475, -0.05084220882),
                (0.01777821451, 0.01261178232, -0.05084220882),
                (0.01930782434, 0.01217846419, -0.0513436998),
                (0.02067969125, 0.01208546492, -0.05228619454),
                (0.02172834785, 0.0123440016, -0.05355601428),
                (0.03442315165, 0.0381410091, -0.03985899533),
                (0.03451838571, 0.03900725068, -0.04128009351),
                (0.03406863576, 0.03999323248, -0.04254679352),
                (0.0331281483, 0.04098003054, -0.04350631264),
                (0.03181035999, 0.04184862246, -0.04404291871),
                (0.03027421554, 0.04249424322, -0.04409188912),
                (0.02870499665, 0.04283902145, -0.04364731731),
                (0.02729197428, 0.04284137178, -0.0427628252),
                (0.02620557978, 0.04250101075, -0.0415450956),
                (0.02557684835, 0.0418589909, -0.04014100467),
                (0.02548161429, 0.04099274932, -0.03871990649),
                (0.02593136424, 0.04000676752, -0.03745320648),
                (0.0268718517, 0.03901996946, -0.03649368736),
                (0.02818964001, 0.03815137754, -0.03595708129),
                (0.02972578446, 0.03750575678, -0.03590811088),
                (0.03129500335, 0.03716097855, -0.03635268269),
                (0.03270802572, 0.03715862822, -0.0372371748),
                (0.03379442022, 0.03749898925, -0.0384549044),
                (0.04452236984, 0.06995957872, -0.01839172851),
                (0.04469957896, 0.07093847035, -0.01972938771),
                (0.0443099495, 0.0718041686, -0.02109968675),
                (0.04340047653, 0.0724522575, -0.02233734733),
                (0.0420808559, 0.07280456795, -0.02329308933),
                (0.04051025334, 0.07281860611, -0.02385163616),
                (0.03887810669, 0.07249267878, -0.02394561882),
                (0.03738127694, 0.0718660976, -0.02356370162),
                (0.03620030383, 0.07101443751, -0.02275194941),
                (0.03547763016, 0.07004042128, -0.02160827149),
                (0.03530042104, 0.06906152965, -0.02027061229),
                (0.0356900505, 0.0681958314, -0.01890031325),
                (0.03659952347, 0.0675477425, -0.01766265267),
                (0.0379191441, 0.06719543205, -0.01670691067),
                (0.03948974666, 0.06718139389, -0.01614836384),
                (0.04112189331, 0.06750732122, -0.01605438118),
                (0.04261872306, 0.0681339024, -0.01643629838),
                (0.04379969617, 0.06898556249, -0.01724805059),
                (0.02142515416, 0.09151666343, -0.001998658464),
                (0.02160143928, 0.09263100848, -0.003225900368),
                (0.02134333766, 0.09342801508, -0.004667124871),
                (0.02068198019, 0.09381155247, -0.006148499027),
                (0.01969713632, 0.09373536038, -0.00749134725),
                (0.01850759276, 0.0932086287, -0.008533702227),
                (0.01725682602, 0.09229488905, -0.009149840563),
                (0.01609569704, 0.0911043519, -0.009265446882),
                (0.01516425509, 0.08978061362, -0.008866577356),
                (0.01457484584, 0.08848333657, -0.008001341536),
                (0.01439856072, 0.08736899152, -0.006774099632),
                (0.01465666234, 0.08657198492, -0.005332875129),
                (0.01531801981, 0.08618844753, -0.003851500973),
                (0.01630286368, 0.08626463962, -0.00250865275),
                (0.01749240724, 0.0867913713, -0.001466297773),
                (0.01874317398, 0.08770511095, -0.0008501594371),
                (0.01990430296, 0.0888956481, -0.000734553118),
                (0.02083574491, 0.09021938638, -0.001133422644),
                (0.018, 0.015, -0.055),
                (0.018, 0.09, -0.005),
                (0.001766908943, 0.01852757588, -0.061),
                (0.001927444147, 0.01899369726, -0.06174987589),
                (0.001794543451, 0.01961301911, -0.06238558998),
                (0.001388439783, 0.02029125529, -0.06281036055),
                (0.0007709587438, 0.02092515049, -0.06295952014),
                (3.610622483e-05, 0.02141819992, -0.06281036055),
                (-0.0007042431396, 0.02169534127, -0.06238558998),
                (-0.00133737787, 0.02171438227, -0.06174987589),
                (-0.001766908943, 0.02147242412, -0.061),
                (-0.001927444147, 0.02100630274, -0.06025012411),
                (-0.001794543451, 0.02038698089, -0.05961441002),
                (-0.001388439783, 0.01970874471, -0.05918963945),
                (-0.0007709587438, 0.01907484951, -0.05904047986),
                (-3.610622483e-05, 0.01858180008, -0.05918963945),
                (0.0007042431396, 0.01830465873, -0.05961441002),
                (0.00133737787, 0.01828561773, -0.06025012411),
                (0.02672621626, 0.04848059317, -0.03703975327),
                (0.02689845555, 0.04896061874, -0.03777817295),
                (0.02678167219, 0.04959888069, -0.03839812285),
                (0.02639364539, 0.05029820941, -0.03880522123),
                (0.02579344871, 0.05095213845, -0.03893749104),
                (0.02507245666, 0.05146111305, -0.0387747954),
                (0.02434043374, 0.05174764643, -0.03834190325),
                (0.0237088238, 0.05176811648, -0.03770471849),
                (0.02327378374, 0.05151940683, -0.03696024673),
                (0.02310154445, 0.05103938126, -0.03622182705),
                (0.02321832781, 0.05040111931, -0.03560187715),
                (0.02360635461, 0.04970179059, -0.03519477877),
                (0.02420655129, 0.04904786155, -0.03506250896),
                (0.02492754334, 0.04853888695, -0.0352252046),
                (0.02565956626, 0.04825235357, -0.03565809675),
                (0.0262911762, 0.04823188352, -0.03629528151),
                (0.0466695298, 0.06842088227, -0.0180951706),
                (0.04685803727, 0.06891872642, -0.01881764599),
                (0.0467636754, 0.06958118467, -0.01941564218),
                (0.04640080995, 0.07030740376, -0.01979811969),
                (0.04582468388, 0.07098682341, -0.01990684977),
                (0.04512300716, 0.07151600814, -0.01972527927),
                (0.04440260372, 0.07181439438, -0.01928105063),
                (0.04377314845, 0.07183655552, -0.01864179365),
                (0.0433304702, 0.07157911773, -0.0179048294),
                (0.04314196273, 0.07108127358, -0.01718235401),
                (0.0432363246, 0.07041881533, -0.01658435782),
                (0.04359919005, 0.06969259624, -0.01620188031),
                (0.04417531612, 0.06901317659, -0.01609315023),
                (0.04487699284, 0.06848399186, -0.01627472073),
                (0.04559739628, 0.06818560562, -0.01671894937),
                (0.04622685155, 0.06816344448, -0.01735820635),
                (0, 0.02, -0.061),
                (0.045, 0.07, -0.018),
                (-0.003, -0.015, -0.069),
                (-0.002771638598, -0.0156142667, -0.06996989479),
                (-0.002121320344, -0.01613501686, -0.07079213189),
                (-0.001148050297, -0.016482971, -0.07134153316),
                (0, -0.01660515624, -0.07153445723),
                (0.001148050297, -0.016482971, -0.07134153316),
                (0.002121320344, -0.01613501686, -0.07079213189),
                (0.002771638598, -0.0156142667, -0.06996989479),
                (0.003, -0.015, -0.069),
                (0.002771638598, -0.0143857333, -0.06803010521),
                (0.002121320344, -0.01386498314, -0.06720786811),
                (0.001148050297, -0.013517029, -0.06665846684),
                (0, -0.01339484376, -0.06646554277),
                (-0.001148050297, -0.013517029, -0.06665846684),
                (-0.002121320344, -0.01386498314, -0.06720786811),
                (-0.002771638598, -0.0143857333, -0.06803010521),
                (-0.002963377534, -0.04463151237, -0.05028742035),
                (-0.00273780385, -0.04536564926, -0.05117078209),
                (-0.002095424349, -0.04604411936, -0.05187590286),
                (-0.001134035486, -0.04656363176, -0.05229543443),
                (0, -0.0468450954, -0.05236550692),
                (0.001134035486, -0.04684565998, -0.05207545242),
                (0.002095424349, -0.04656523957, -0.0514694291),
                (0.00273780385, -0.04604652562, -0.05063969853),
                (0.002963377534, -0.04536848763, -0.04971257965),
                (0.00273780385, -0.04463435074, -0.04882921791),
                (0.002095424349, -0.04395588064, -0.04812409714),
                (0.001134035486, -0.04343636824, -0.04770456557),
                (0, -0.0431549046, -0.04763449308),
                (-0.001134035486, -0.04315434002, -0.04792454758),
                (-0.002095424349, -0.04343476043, -0.0485305709),
                (-0.00273780385, -0.04395347438, -0.04936030147),
                (-0.01282789274, -0.06425179296, -0.03066573933),
                (-0.01263367158, -0.06511512777, -0.03143196356),
                (-0.01203849779, -0.06596093542, -0.03198018431),
                (-0.01113298119, -0.06666044936, -0.03222693995),
                (-0.01005497847, -0.06710717494, -0.03213466418),
                (-0.008968605785, -0.06723310224, -0.03171740513),
                (-0.008039253516, -0.06701905996, -0.03103868672),
                (-0.007408407125, -0.06649763411, -0.03020183767),
                (-0.007172107257, -0.06574820704, -0.02933426067),
                (-0.007366328423, -0.06488487223, -0.02856803644),
                (-0.007961502213, -0.06403906458, -0.02801981569),
                (-0.008867018812, -0.06333955064, -0.02777306005),
                (-0.009945021527, -0.06289282506, -0.02786533582),
                (-0.01103139422, -0.06276689776, -0.02828259487),
                (-0.01196074648, -0.06298094004, -0.02896131328),
                (-0.01259159287, -0.06350236589, -0.02979816233),
                (0, -0.015, -0.069),
                (-0.01, -0.065, -0.03)
            ]
            normal3f[] normals = [
                (0.7391567965, -0.672496387, -0.03736093778),
                (0.7029799525, -0.6598262429, -0.2654213925),
                (0.5979905683, -0.6483962104, -0.4711577598),
                (0.4344656661, -0.6393252071, -0.6344311346),
                (0.228412161, -0.633501243, -0.739259129),
                (2.736895208e-08, -0.6314944647, -0.7753803848),
                (-0.2284120973, -0.6335013228, -0.7392590803),
                (-0.4344655857, -0.6393253361, -0.6344310597),
                (-0.5979904864, -0.6483963392, -0.4711576864),
                (-0.7029798995, -0.6598263232, -0.2654213331),
                (-0.7391567964, -0.6724963901, -0.03736088319),
                (-0.7029799525, -0.6851662972, 0.1906995846),
                (-0.5979905682, -0.6965958628, 0.3964359776),
                (-0.4344656659, -0.7056663475, 0.5597093809),
                (-0.2284121609, -0.7114899397, 0.6645373958),
                (-2.730615145e-08, -0.7134966346, 0.7006586561),
                (0.2284120972, -0.7114900135, 0.6645373387),
                (0.4344655856, -0.7056664672, 0.5597092924),
                (0.5979904864, -0.6965959825, 0.3964358905),
                (0.7029798995, -0.6851663705, 0.1906995167),
                (0.9999997014, -3.71432913e-05, 0.0007718804812),
                (0.9512834535, 0.01471301771, -0.3079664239),
                (0.8093845676, 0.02802578928, -0.5866099018),
                (0.5881530283, 0.03859523505, -0.8078282139),
                (0.3092443761, 0.04538328519, -0.9498990858),
                (2.991365747e-08, 0.04772267309, -0.9988606241),
                (-0.3092443301, 0.04538332641, -0.9498990988),
                (-0.5881530134, 0.03859530101, -0.8078282216),
                (-0.8093845784, 0.02802585384, -0.5866098838),
                (-0.9512834684, 0.01471305567, -0.3079663761),
                (-0.9999997014, -3.714637401e-05, 0.0007719401233),
                (-0.9508292117, -0.01477983242, 0.3093628398),
                (-0.8086495906, -0.02807295384, 0.5876204123),
                (-0.5874180532, -0.03861808011, 0.8083617226),
                (-0.3087901374, -0.04538643061, 0.9500466951),
                (-2.980957313e-08, -0.04771826318, 0.9988608348),
                (0.3087900915, -0.04538639128, 0.9500467119),
                (0.5874180383, -0.03861801574, 0.8083617365),
                (0.8086496014, -0.02807288808, 0.5876204005),
                (0.9508292267, -0.01477978983, 0.3093627959),
                (0.9999995066, 4.957448437e-05, -0.0009921243922),
                (0.9507643233, 0.01547465982, -0.3095282483),
                (0.8085448924, 0.02938161639, -0.5877005),
                (0.5873135074, 0.04041273614, -0.8083499581),
                (0.3087255594, 0.04749262752, -0.9499647253),
                (-1.339072148e-08, 0.04993180398, -0.9987526295),
                (-0.30872558, 0.04749283167, -0.9499647084),
                (-0.5873135141, 0.04041306718, -0.8083499367),
                (-0.8085448875, 0.02938194878, -0.58770049),
                (-0.9507643166, 0.01547486706, -0.3095282586),
                (-0.9999995066, 4.95772503e-05, -0.0009921511615),
                (-0.9513482131, -0.0153853432, 0.3077334375),
                (-0.8094896436, -0.02931763784, 0.5864017335),
                (-0.5882582557, -0.04037992018, 0.8076643404),
                (-0.3093094444, -0.04748489563, 0.9497751588),
                (1.348485919e-08, -0.04993349654, 0.9987525449),
                (0.3093094651, -0.04748468932, 0.9497751624),
                (0.5882582624, -0.04037958707, 0.8076643521),
                (0.8094896387, -0.02931730606, 0.5864017568),
                (0.9513482064, -0.01538513996, 0.3077334684),
                (0.7391568031, 0.6723242861, 0.04033949391),
                (0.7029799097, 0.6860043582, -0.1876626416),
                (0.5979905178, 0.6983451353, -0.3933464283),
                (0.4344656309, 0.7081386886, -0.5565781286),
                (0.2284121285, 0.7144264524, -0.6613794249),
                (-3.662378275e-08, 0.7165930197, -0.6974915369),
                (-0.2284122139, 0.7144263536, -0.6613795021),
                (-0.4344657387, 0.7081385284, -0.5565782482),
                (-0.5979906277, 0.6983449749, -0.3933465459),
                (-0.7029799809, 0.6860042602, -0.1876627331),
                (-0.7391568031, 0.6723242905, 0.0403394207),
                (-0.7029799098, 0.6586441067, 0.2683415495),
                (-0.5979905178, 0.6463028309, 0.4740253066),
                (-0.434465631, 0.6365085823, 0.6372569655),
                (-0.2284121285, 0.6302201923, 0.7420582247),
                (3.67163301e-08, 0.628053307, 0.7781703179),
                (0.2284122141, 0.6302200847, 0.7420582896),
                (0.434465739, 0.6365084086, 0.6372570654),
                (0.5979906279, 0.6463026574, 0.4740254044),
                (0.702979981, 0.6586439984, 0.2683416288),
                (0, -0.9984603532, -0.05547001962),
                (-1.115074636e-17, 0.9982048455, 0.05989229073),
                (0.7391567994, -0.6724963836, -0.0373609418),
                (0.7029799652, -0.6598262202, -0.2654214153),
                (0.597990595, -0.6483961502, -0.4711578087),
                (0.4344656988, -0.6393251051, -0.634431215),
                (0.228412185, -0.6335011107, -0.739259235),
                (3.158337068e-08, -0.6314943254, -0.7753804982),
                (-0.2284121114, -0.6335012026, -0.739259179),
                (-0.4344656062, -0.6393252535, -0.6344311288),
                (-0.5979905008, -0.6483962985, -0.4711577242),
                (-0.7029799042, -0.6598263127, -0.2654213469),
                (-0.7391567994, -0.6724963871, -0.03736087881),
                (-0.7029799651, -0.6851662772, 0.1906996098),
                (-0.5979905948, -0.6965958085, 0.3964360328),
                (-0.4344656986, -0.7056662553, 0.5597094719),
                (-0.2284121848, -0.7114898203, 0.6645375155),
                (-3.14997694e-08, -0.7134965091, 0.700658784),
                (0.2284121114, -0.7114899052, 0.6645374498),
                (0.4344656062, -0.7056663929, 0.5597093701),
                (0.5979905007, -0.6965959463, 0.3964359326),
                (0.7029799042, -0.6851663615, 0.1906995316),
                (0.9999997014, -3.713597306e-05, 0.0007718762316),
                (0.9512834536, 0.01471304864, -0.3079664221),
                (0.8093845706, 0.02802588912, -0.5866098929),
                (0.5881530348, 0.03859542287, -0.8078282002),
                (0.3092443835, 0.04538354634, -0.9498990709),
                (3.45170677e-08, 0.04772296468, -0.9988606102),
                (-0.3092443304, 0.0453835938, -0.949899086),
                (-0.5881530175, 0.03859549882, -0.8078282091),
                (-0.8093845831, 0.02802596345, -0.5866098721),
                (-0.9512834708, 0.01471309232, -0.3079663669),
                (-0.9999997014, -3.713952772e-05, 0.0007719450459),
                (-0.9508292119, -0.014779801, 0.309362841),
                (-0.8086495936, -0.02807285304, 0.5876204129),
                (-0.5874180597, -0.0386178917, 0.8083617269),
                (-0.3087901448, -0.04538616973, 0.9500467052),
                (-3.439077488e-08, -0.04771797242, 0.9988608487),
                (0.3087900919, -0.04538612449, 0.9500467246),
                (0.5874180425, -0.03861781766, 0.808361743),
                (0.8086496061, -0.02807277738, 0.5876203993),
                (0.9508292291, -0.01477975199, 0.3093627903),
                (0.9999995066, 4.957108023e-05, -0.000992122494),
                (0.9507643302, 0.01547462762, -0.3095282287),
                (0.8085449123, 0.02938154242, -0.5877004762),
                (0.5873135339, 0.04041262334, -0.8083499445),
                (0.3087255774, 0.04749249327, -0.9499647262),
                (-1.544526238e-08, 0.0499316734, -0.998752636),
                (-0.3087256012, 0.04749272832, -0.9499647067),
                (-0.5873135416, 0.0404130045, -0.8083499198),
                (-0.8085449067, 0.02938192514, -0.5877004647),
                (-0.9507643224, 0.01547486626, -0.3095282406),
                (-0.9999995066, 4.95742685e-05, -0.0009921533803),
                (-0.95134822, -0.01538537289, 0.3077334148),
                (-0.8094896636, -0.02931770889, 0.5864017023),
                (-0.5882582822, -0.04038003139, 0.8076643154),
                (-0.3093094625, -0.04748503007, 0.9497751462),
                (1.556365385e-08, -0.04993362796, 0.9987525383),
                (0.3093094864, -0.04748479247, 0.9497751503),
                (0.58825829, -0.04037964776, 0.807664329),
                (0.809489658, -0.02931732681, 0.5864017292),
                (0.9513482123, -0.01538513885, 0.3077334504),
                (0.739156807, 0.6723242814, 0.04033949928),
                (0.702979916, 0.6860043463, -0.1876626616),
                (0.597990537, 0.698345087, -0.3933464849),
                (0.4344656584, 0.7081385896, -0.5565782331),
                (0.2284121474, 0.7144263079, -0.6613795745),
                (-4.224810023e-08, 0.7165928521, -0.6974917091),
                (-0.2284122459, 0.7144261942, -0.6613796633),
                (-0.4344657826, 0.7081384052, -0.5565783708),
                (-0.5979906634, 0.6983449024, -0.3933466204),
                (-0.7029799979, 0.6860042335, -0.1876627671),
                (-0.739156807, 0.6723242865, 0.04033941481),
                (-0.702979916, 0.6586440925, 0.268341568),
                (-0.597990537, 0.6463027761, 0.4740253571),
                (-0.4344656585, 0.6365084713, 0.6372570577),
                (-0.2284121475, 0.6302200305, 0.7420583562),
                (4.237130338e-08, 0.6280531195, 0.7781704692),
                (0.2284122462, 0.6302199066, 0.742058431),
                (0.4344657829, 0.6365082713, 0.6372571726),
                (0.5979906637, 0.6463025764, 0.4740254697),
                (0.702979998, 0.6586439677, 0.2683416594),
                (5.938955092e-18, -0.9984603532, -0.05547001962),
                (-5.177550593e-18, 0.9982048455, 0.05989229073),
                (0.4143182609, -0.8524859308, -0.3187602805),
                (0.4262582612, -0.7241904845, -0.5420812089),
                (0.3560087659, -0.5726358578, -0.7384754112),
                (0.2120467348, -0.4161088359, -0.8842452256),
                (0.01175119058, -0.2734862611, -0.9618041248),
                (-0.2207059599, -0.1619565117, -0.9617998584),
                (-0.4572857135, -0.09495388392, -0.8842361314),
                (-0.6694625738, -0.08055052016, -0.7384656227),
                (-0.8316546789, -0.1204901426, -0.5420632995),
                (-0.924300646, -0.2099737013, -0.3187151715),
                (-0.9362202524, -0.3382256693, -0.09536789671),
                (-0.8659716909, -0.4897825614, 0.1010251112),
                (-0.7220315101, -0.6463564815, 0.2467666858),
                (-0.5217685865, -0.789048621, 0.3242835425),
                (-0.2893395645, -0.9006380953, 0.3242431767),
                (-0.05277020819, -0.9676626995, 0.2466661816),
                (0.159418879, -0.9820399771, 0.100911369),
                (0.3216400462, -0.942038364, -0.09545366077),
                (0.9227550505, -0.3844857341, 0.02634078889),
                (0.9413480128, -0.2055186508, -0.2676303477),
                (0.8479618409, -0.002712011703, -0.5300503386),
                (0.6535905374, 0.200366371, -0.7298443169),
                (0.3810124822, 0.3801919402, -0.8427832325),
                (0.06248408199, 0.5157097279, -0.8544818407),
                (-0.2638156214, 0.5906426349, -0.7625894018),
                (-0.558371024, 0.5954632925, -0.5776203484),
                (-0.7853424563, 0.5287572527, -0.3219518506),
                (-0.9171166136, 0.3977070658, -0.02694822734),
                (-0.9376123457, 0.2175481013, 0.2712119334),
                (-0.8440770017, 0.01001625957, 0.5361284265),
                (-0.6475079746, -0.1991497683, 0.7355765036),
                (-0.3716676093, -0.3835594456, 0.8454261291),
                (-0.05038899449, -0.5199677298, 0.8526983694),
                (0.276800857, -0.5916820123, 0.7571615956),
                (0.5699973265, -0.5907260921, 0.5710917018),
                (0.794068067, -0.5184040147, 0.3173534031),
                (0.9408124253, 0.0217169531, 0.3382312142),
                (0.9734906327, 0.2169835452, 0.0723472816),
                (0.8988011672, 0.3898022339, -0.2005260088),
                (0.7244404834, 0.5210252829, -0.451352014),
                (0.4680934631, 0.5946872669, -0.6536325913),
                (0.1557319262, 0.5994916322, -0.7850842949),
                (-0.1798667487, 0.5311675317, -0.8279547125),
                (-0.500073363, 0.3953766653, -0.770456958),
                (-0.7628268408, 0.2077412771, -0.6123224418),
                (-0.9289548122, -0.008734828396, -0.3700900697),
                (-0.9712052761, -0.2257249846, -0.0762137986),
                (-0.8819406996, -0.4129644435, 0.227246498),
                (-0.6756448375, -0.5439936711, 0.4975690297),
                (-0.3848844862, -0.6019283852, 0.6996757474),
                (-0.0517560494, -0.5829758366, 0.8108393709),
                (0.2811647716, -0.4954008659, 0.8219028855),
                (0.5765174874, -0.3539032772, 0.7364645661),
                (0.8039491755, -0.1753368944, 0.5682628764),
                (0.094034181, 0.6361461831, 0.7658169536),
                (0.1226430074, 0.8087603742, 0.5752089618),
                (0.08217022538, 0.9325261573, 0.3516290944),
                (-0.02225933871, 0.9922132354, 0.1225455727),
                (-0.1772542176, 0.9805457697, -0.08432636549),
                (-0.3633401951, 0.8989713155, -0.2446108678),
                (-0.5578314387, 0.7571732079, -0.339871769),
                (-0.737618686, 0.571813085, -0.3590939569),
                (-0.8815430854, 0.364904093, -0.2995443065),
                (-0.9725411521, 0.161660423, -0.1674204738),
                (-0.9996774198, -0.01254273175, 0.02208475054),
                (-0.9596827511, -0.1358423482, 0.2460810308),
                (-0.8574660893, -0.1932184239, 0.4768842065),
                (-0.7053999824, -0.1784931316, 0.6859672491),
                (-0.5215880208, -0.09456301288, 0.8479409019),
                (-0.3276316173, 0.04779999712, 0.9435956145),
                (-0.1463848334, 0.2316941408, 0.9617116541),
                (0.0002900176532, 0.435782433, 0.9000519913),
                (-0.3806168878, -0.7929518496, -0.4757711098),
                (-0.6606278949, 0.6005708135, 0.4504281102),
                (0.21016632, -0.9134192539, -0.3485618806),
                (0.2622453618, -0.7621927946, -0.5918526117),
                (0.2191239011, -0.561261978, -0.7981038203),
                (0.08736811316, -0.3412154435, -0.93591604),
                (-0.1129640509, -0.13555234, -0.9843092432),
                (-0.3513757011, 0.02441642092, -0.9359161047),
                (-0.5915720903, 0.1143350591, -0.7981039758),
                (-0.7969852935, 0.1205124937, -0.5918540198),
                (-0.9363420645, 0.04200832304, -0.3485668359),
                (-0.9884260472, -0.1092240451, -0.1052808489),
                (-0.9453079437, -0.3101588763, 0.1009671387),
                (-0.8135519627, -0.530205179, 0.2387795472),
                (-0.6132161688, -0.73586394, 0.2871762388),
                (-0.3747995781, -0.895826792, 0.238787845),
                (-0.1345998315, -0.9857414162, 0.1009789374),
                (0.07081317921, -0.9919190826, -0.105271208),
                (0.7482927773, -0.6629864718, -0.02251349874),
                (0.8233348094, -0.4516478255, -0.3437063183),
                (0.7722117848, -0.1715014155, -0.6117811896),
                (0.6034057153, 0.1342559004, -0.7860514589),
                (0.3432621005, 0.4190111488, -0.8405954958),
                (0.03160423079, 0.639862746, -0.767839071),
                (-0.2844486135, 0.7638841806, -0.5792839934),
                (-0.557459524, 0.7727328496, -0.3035174166),
                (-0.7465050851, 0.6651343822, 0.01806686275),
                (-0.8230391859, 0.4570351798, 0.3372318829),
                (-0.7751004776, 0.1794226776, 0.6058273288),
                (-0.6093055109, -0.1259914072, 0.7828620311),
                (-0.350235247, -0.4127953673, 0.8407944199),
                (-0.03708435544, -0.6368866991, 0.7700649863),
                (0.2821526174, -0.7634408942, 0.5809887275),
                (0.5581736775, -0.7726325037, 0.3024585259),
                (0.9324103223, -0.1216028244, 0.3403288761),
                (0.9935711348, 0.03992893264, 0.105934321),
                (0.9629568814, 0.2548670566, -0.08807285669),
                (0.8452279491, 0.4904866709, -0.2121615888),
                (0.6583060943, 0.7109183031, -0.247443433),
                (0.4306471411, 0.8826062415, -0.1885451204),
                (0.1969112608, 0.9794141552, -0.04442823486),
                (-0.007313449077, 0.9866038572, 0.1629703725),
                (-0.1509321387, 0.9030807873, 0.4020753427),
                (-0.2120808072, 0.7415612591, 0.6364814453),
                (-0.1814548791, 0.5266348971, 0.8304997363),
                (-0.06372158077, 0.2910196895, 0.9545926359),
                (0.1231947721, 0.07058252803, 0.9898692615),
                (0.3508415786, -0.1011176382, 0.930959403),
                (0.5845657847, -0.1979373161, 0.7868314065),
                (0.7887861312, -0.2051314259, 0.5794286301),
                (-0.5454148804, -0.6544978564, -0.5235982851),
                (0.5869672709, 0.5869672709, 0.5576189073),
                (-0.7465418973, 0.5621591535, -0.3558823987),
                (-0.6896000327, 0.4094855782, -0.597305078),
                (-0.5277132083, 0.2800234645, -0.8019386692),
                (-0.2855318972, 0.1934112459, -0.9386498952),
                (0.0001237512373, 0.1628321747, -0.9866537729),
                (0.2858077903, 0.1930163562, -0.9386472145),
                (0.5280107751, 0.2794639378, -0.8019379832),
                (0.6898050684, 0.409057178, -0.5973618608),
                (0.7465341091, 0.5620319023, -0.3560996556),
                (0.6895966831, 0.7150234297, -0.114882155),
                (0.5277126634, 0.8446813207, 0.08962595219),
                (0.285531041, 0.931252377, 0.2263648271),
                (-0.0001277533543, 0.9615775479, 0.2745334281),
                (-0.2858160922, 0.9310755363, 0.2267322366),
                (-0.5280221045, 0.8444322889, 0.09014858102),
                (-0.6898162254, 0.7148800889, -0.1144553785),
                (-0.9852691625, 0.1258307261, -0.115807192),
                (-0.9028978985, -0.1272600211, -0.4105852797),
                (-0.6805534442, -0.358439323, -0.6390369796),
                (-0.3562135769, -0.5324994099, -0.7678256743),
                (0.0187580471, -0.6248666587, -0.7805061144),
                (0.3883557462, -0.6241373234, -0.6779619576),
                (0.6995357195, -0.5323046684, -0.4767614887),
                (0.9084436634, -0.3635131721, -0.2063692907),
                (0.9853551609, -0.1418713789, 0.09459238218),
                (0.9181797767, 0.1014421783, 0.3829561099),
                (0.7143396067, 0.331600033, 0.6162469833),
                (0.4009467624, 0.5140630247, 0.7582749503),
                (0.0229247659, 0.6193175614, 0.7848058443),
                (-0.3619066044, 0.6283408158, 0.6886301103),
                (-0.691553788, 0.5374326501, 0.4826173483),
                (-0.9113709513, 0.3602628482, 0.19903183),
                (-0.9256908227, -0.2568902067, 0.2776759308),
                (-0.8772728236, -0.4719944222, 0.08725627969),
                (-0.7290856279, -0.6826723635, -0.04891412164),
                (-0.5036896648, -0.8568205005, -0.1102513108),
                (-0.2353323908, -0.9679709553, -0.08746939732),
                (0.03518868736, -0.999251695, 0.01605634946),
                (0.2666509024, -0.9459261161, 0.1847189192),
                (0.4237025866, -0.8161416613, 0.3929235381),
                (0.4823612214, -0.6297044671, 0.6089334415),
                (0.4337475622, -0.4150192678, 0.7997637524),
                (0.2853900462, -0.2047072795, 0.9362945323),
                (0.05994918322, -0.03065791179, 0.9977305187),
                (-0.2083009652, 0.08071897707, 0.9747282466),
                (-0.4786259823, 0.1124189648, 0.8707922516),
                (-0.7099183298, 0.05945967803, 0.7017695575),
                (-0.8669255151, -0.07022623932, 0.4934657298),
                (1.441018072e-16, 0.8448190756, -0.5350520812),
                (-0.3333333333, -0.6666666667, 0.6666666667)
            ] (
                interpolation = "vertex"
            )
            uniform token subdivisionScheme = "none"
        }
    }
    def Scope "Frames"
    {
        def Xform "aortic_inlet"
        {
            custom string drAnmar:role = "arterial_inlet"
            double3 xformOp:translate = (0, 0.12, -0.06)
            quatf xformOp:orient = (1, 0, 0, 0)
            uniform token[] xformOpOrder = ["xformOp:translate", "xformOp:orient"]
        }
        def Xform "venous_outlet"
        {
            custom string drAnmar:role = "venous_outlet"
            double3 xformOp:translate = (0.025, 0.12, -0.057)
            quatf xformOp:orient = (1, 0, 0, 0)
            uniform token[] xformOpOrder = ["xformOp:translate", "xformOp:orient"]
        }
        def Xform "portal_hilum"
        {
            custom string drAnmar:role = "portal_hilum"
            double3 xformOp:translate = (0.018, 0.09, -0.005)
            quatf xformOp:orient = (1, 0, 0, 0)
            uniform token[] xformOpOrder = ["xformOp:translate", "xformOp:orient"]
        }
    }
}
