#usda 1.0
(
    defaultPrim = "DrAnmarMesentery"
    doc = "Mesentery: modular component of the DrAnmar dynamic abdominal research patient."
    kilogramsPerUnit = 1
    metersPerUnit = 1
    upAxis = "Z"
)

def Xform "DrAnmarMesentery" (
    assetInfo = {
        string name = "DrAnmarMesentery"
        string version = "0.1.0"
    }
    kind = "component"
)
{
    custom string drAnmar:assetId = "dranmar-dynamic-abdominal-patient-v1:mesentery"
    custom string drAnmar:category = "membrane"
    custom string drAnmar:mechanics = "surface_deformable"
    custom float drAnmar:densityKgM3 = 1040
    custom float drAnmar:massKg = 0.08
    custom float drAnmar:youngsModulusPa = 55000
    custom float drAnmar:poissonsRatio = 0.46
    custom float drAnmar:damping = 0.2
    custom float drAnmar:perfusionFraction = 0.03
    custom vector3f drAnmar:respirationCoupling = (0, 0.001, 0.004)
    custom float drAnmar:pulsationFraction = 0
    custom bool drAnmar:clinicalValidation = false
    def Scope "Looks"
    {
        def Material "Mesentery"
        {
            def Shader "PreviewSurface"
            {
                uniform token info:id = "UsdPreviewSurface"
                color3f inputs:diffuseColor = (0.88, 0.58, 0.52)
                float inputs:metallic = 0
                float inputs:roughness = 0.45
                float inputs:opacity = 0.52
                token outputs:surface
            }
            token outputs:surface.connect = </DrAnmarMesentery/Looks/Mesentery/PreviewSurface.outputs:surface>
        }
    }
    def Xform "Geometry"
    {
        def Mesh "Visual" (
            prepend apiSchemas = ["MaterialBindingAPI"]
        )
        {
            rel material:binding = </DrAnmarMesentery/Looks/Mesentery>
            custom token[] drAnmar:labels = ["mesentery", "membrane", "vascular_support"]
            uniform bool doubleSided = true
            float3[] extent = [(-0.1, -0.1, -0.05598496992), (0.1, 0.05, -0.04401503008)]
            int[] faceVertexCounts = [3, 3, 3, 3, 3, 3, 3, 3, 3, 3, 3, 3, 3, 3, 3, 3, 3, 3, 3, 3, 3, 3, 3, 3, 3, 3, 3, 3, 3, 3, 3, 3, 3, 3, 3, 3, 3, 3, 3, 3, 3, 3, 3, 3, 3, 3, 3, 3, 3, 3, 3, 3, 3, 3, 3, 3, 3, 3, 3, 3, 3, 3, 3, 3, 3, 3, 3, 3, 3, 3, 3, 3, 3, 3, 3, 3, 3, 3, 3, 3, 3, 3, 3, 3, 3, 3, 3, 3, 3, 3, 3, 3, 3, 3, 3, 3, 3, 3, 3, 3, 3, 3, 3, 3, 3, 3, 3, 3, 3, 3, 3, 3, 3, 3, 3, 3, 3, 3, 3, 3, 3, 3, 3, 3, 3, 3, 3, 3, 3, 3, 3, 3, 3, 3, 3, 3, 3, 3, 3, 3, 3, 3, 3, 3, 3, 3, 3, 3, 3, 3, 3, 3, 3, 3, 3, 3, 3, 3, 3, 3, 3, 3, 3, 3, 3, 3, 3, 3, 3, 3, 3, 3, 3, 3, 3, 3, 3, 3, 3, 3, 3, 3, 3, 3, 3, 3, 3, 3, 3, 3, 3, 3, 3, 3, 3, 3, 3, 3, 3, 3, 3, 3, 3, 3, 3, 3, 3, 3, 3, 3, 3, 3, 3, 3, 3, 3, 3, 3, 3, 3, 3, 3, 3, 3, 3, 3, 3, 3, 3, 3, 3, 3, 3, 3, 3, 3, 3, 3, 3, 3, 3, 3, 3, 3, 3, 3, 3, 3, 3, 3, 3, 3, 3, 3, 3, 3, 3, 3, 3, 3, 3, 3, 3, 3, 3, 3, 3, 3, 3, 3, 3, 3, 3, 3, 3, 3, 3, 3, 3, 3, 3, 3, 3, 3, 3, 3, 3, 3, 3, 3, 3, 3, 3, 3, 3, 3, 3, 3, 3, 3, 3, 3, 3, 3, 3, 3, 3, 3, 3, 3, 3, 3, 3, 3, 3, 3, 3, 3, 3, 3, 3, 3, 3, 3, 3, 3, 3, 3, 3, 3, 3, 3, 3, 3, 3, 3, 3, 3, 3, 3, 3, 3, 3, 3, 3, 3, 3, 3, 3, 3, 3, 3, 3, 3, 3, 3, 3, 3, 3, 3, 3, 3, 3, 3, 3, 3, 3, 3, 3, 3, 3, 3, 3, 3, 3, 3, 3, 3, 3, 3, 3, 3, 3, 3, 3, 3, 3, 3, 3, 3, 3, 3, 3, 3, 3, 3, 3, 3, 3, 3, 3, 3, 3, 3, 3, 3, 3, 3, 3, 3, 3, 3, 3, 3, 3, 3, 3, 3, 3, 3, 3, 3, 3, 3, 3, 3, 3, 3, 3, 3, 3, 3, 3, 3, 3, 3, 3, 3, 3, 3, 3, 3, 3, 3, 3, 3, 3, 3, 3, 3, 3, 3, 3, 3, 3, 3, 3, 3, 3, 3, 3, 3, 3, 3, 3, 3, 3, 3, 3, 3, 3, 3, 3, 3, 3, 3, 3, 3, 3, 3, 3, 3, 3, 3, 3, 3, 3, 3, 3, 3, 3, 3, 3, 3, 3, 3, 3, 3, 3, 3, 3, 3, 3, 3, 3, 3, 3, 3, 3, 3, 3, 3, 3, 3, 3, 3, 3, 3, 3, 3, 3, 3, 3, 3, 3, 3, 3, 3, 3, 3, 3, 3, 3, 3, 3, 3, 3, 3, 3, 3, 3, 3, 3, 3, 3, 3, 3, 3, 3, 3, 3, 3, 3, 3, 3, 3, 3, 3, 3, 3, 3, 3, 3, 3, 3, 3, 3, 3, 3, 3, 3, 3, 3, 3, 3, 3, 3, 3, 3, 3, 3, 3, 3, 3, 3, 3, 3, 3, 3, 3, 3, 3, 3, 3, 3, 3, 3, 3, 3, 3, 3, 3, 3, 3, 3, 3, 3, 3, 3, 3, 3, 3, 3, 3, 3, 3, 3, 3, 3, 3, 3, 3, 3, 3, 3, 3, 3, 3, 3, 3, 3, 3, 3, 3, 3, 3, 3, 3, 3, 3, 3, 3, 3, 3, 3, 3, 3, 3, 3, 3, 3, 3, 3, 3, 3, 3, 3, 3, 3, 3, 3, 3, 3, 3, 3, 3, 3, 3, 3, 3, 3, 3, 3, 3, 3, 3, 3, 3, 3, 3, 3, 3, 3, 3, 3, 3, 3, 3, 3, 3, 3, 3, 3, 3, 3, 3, 3, 3, 3, 3, 3, 3, 3, 3, 3, 3, 3, 3, 3, 3, 3, 3, 3, 3, 3, 3, 3, 3, 3, 3, 3, 3, 3, 3, 3, 3, 3, 3, 3, 3, 3, 3, 3, 3, 3, 3, 3, 3, 3, 3, 3, 3, 3, 3, 3, 3, 3, 3, 3, 3, 3, 3, 3, 3, 3, 3, 3, 3, 3, 3, 3, 3, 3, 3, 3, 3, 3, 3, 3, 3, 3, 3, 3, 3, 3, 3, 3, 3, 3, 3, 3, 3, 3, 3, 3, 3, 3, 3, 3, 3, 3, 3, 3, 3, 3, 3, 3, 3, 3, 3, 3, 3, 3, 3, 3, 3, 3, 3, 3, 3, 3, 3, 3, 3, 3, 3, 3, 3, 3, 3, 3, 3, 3, 3, 3, 3, 3, 3, 3, 3, 3, 3, 3, 3, 3, 3, 3, 3, 3, 3, 3, 3, 3, 3, 3, 3, 3, 3, 3, 3, 3, 3, 3, 3, 3, 3, 3, 3, 3, 3, 3, 3, 3, 3]
            int[] faceVertexIndices = [0, 1, 26, 0, 26, 25, 1, 2, 26, 2, 27, 26, 2, 3, 28, 2, 28, 27, 3, 4, 28, 4, 29, 28, 4, 5, 30, 4, 30, 29, 5, 6, 30, 6, 31, 30, 6, 7, 32, 6, 32, 31, 7, 8, 32, 8, 33, 32, 8, 9, 34, 8, 34, 33, 9, 10, 34, 10, 35, 34, 10, 11, 36, 10, 36, 35, 11, 12, 36, 12, 37, 36, 12, 13, 38, 12, 38, 37, 13, 14, 38, 14, 39, 38, 14, 15, 40, 14, 40, 39, 15, 16, 40, 16, 41, 40, 16, 17, 42, 16, 42, 41, 17, 18, 42, 18, 43, 42, 18, 19, 44, 18, 44, 43, 19, 20, 44, 20, 45, 44, 20, 21, 46, 20, 46, 45, 21, 22, 46, 22, 47, 46, 22, 23, 48, 22, 48, 47, 23, 24, 48, 24, 49, 48, 25, 26, 50, 26, 51, 50, 26, 27, 52, 26, 52, 51, 27, 28, 52, 28, 53, 52, 28, 29, 54, 28, 54, 53, 29, 30, 54, 30, 55, 54, 30, 31, 56, 30, 56, 55, 31, 32, 56, 32, 57, 56, 32, 33, 58, 32, 58, 57, 33, 34, 58, 34, 59, 58, 34, 35, 60, 34, 60, 59, 35, 36, 60, 36, 61, 60, 36, 37, 62, 36, 62, 61, 37, 38, 62, 38, 63, 62, 38, 39, 64, 38, 64, 63, 39, 40, 64, 40, 65, 64, 40, 41, 66, 40, 66, 65, 41, 42, 66, 42, 67, 66, 42, 43, 68, 42, 68, 67, 43, 44, 68, 44, 69, 68, 44, 45, 70, 44, 70, 69, 45, 46, 70, 46, 71, 70, 46, 47, 72, 46, 72, 71, 47, 48, 72, 48, 73, 72, 48, 49, 74, 48, 74, 73, 50, 51, 76, 50, 76, 75, 51, 52, 76, 52, 77, 76, 52, 53, 78, 52, 78, 77, 53, 54, 78, 54, 79, 78, 54, 55, 80, 54, 80, 79, 55, 56, 80, 56, 81, 80, 56, 57, 82, 56, 82, 81, 57, 58, 82, 58, 83, 82, 58, 59, 84, 58, 84, 83, 59, 60, 84, 60, 85, 84, 60, 61, 86, 60, 86, 85, 61, 62, 86, 62, 87, 86, 62, 63, 88, 62, 88, 87, 63, 64, 88, 64, 89, 88, 64, 65, 90, 64, 90, 89, 65, 66, 90, 66, 91, 90, 66, 67, 92, 66, 92, 91, 67, 68, 92, 68, 93, 92, 68, 69, 94, 68, 94, 93, 69, 70, 94, 70, 95, 94, 70, 71, 96, 70, 96, 95, 71, 72, 96, 72, 97, 96, 72, 73, 98, 72, 98, 97, 73, 74, 98, 74, 99, 98, 75, 76, 100, 76, 101, 100, 76, 77, 102, 76, 102, 101, 77, 78, 102, 78, 103, 102, 78, 79, 104, 78, 104, 103, 79, 80, 104, 80, 105, 104, 80, 81, 106, 80, 106, 105, 81, 82, 106, 82, 107, 106, 82, 83, 108, 82, 108, 107, 83, 84, 108, 84, 109, 108, 84, 85, 110, 84, 110, 109, 85, 86, 110, 86, 111, 110, 86, 87, 112, 86, 112, 111, 87, 88, 112, 88, 113, 112, 88, 89, 114, 88, 114, 113, 89, 90, 114, 90, 115, 114, 90, 91, 116, 90, 116, 115, 91, 92, 116, 92, 117, 116, 92, 93, 118, 92, 118, 117, 93, 94, 118, 94, 119, 118, 94, 95, 120, 94, 120, 119, 95, 96, 120, 96, 121, 120, 96, 97, 122, 96, 122, 121, 97, 98, 122, 98, 123, 122, 98, 99, 124, 98, 124, 123, 100, 101, 126, 100, 126, 125, 101, 102, 126, 102, 127, 126, 102, 103, 128, 102, 128, 127, 103, 104, 128, 104, 129, 128, 104, 105, 130, 104, 130, 129, 105, 106, 130, 106, 131, 130, 106, 107, 132, 106, 132, 131, 107, 108, 132, 108, 133, 132, 108, 109, 134, 108, 134, 133, 109, 110, 134, 110, 135, 134, 110, 111, 136, 110, 136, 135, 111, 112, 136, 112, 137, 136, 112, 113, 138, 112, 138, 137, 113, 114, 138, 114, 139, 138, 114, 115, 140, 114, 140, 139, 115, 116, 140, 116, 141, 140, 116, 117, 142, 116, 142, 141, 117, 118, 142, 118, 143, 142, 118, 119, 144, 118, 144, 143, 119, 120, 144, 120, 145, 144, 120, 121, 146, 120, 146, 145, 121, 122, 146, 122, 147, 146, 122, 123, 148, 122, 148, 147, 123, 124, 148, 124, 149, 148, 125, 126, 150, 126, 151, 150, 126, 127, 152, 126, 152, 151, 127, 128, 152, 128, 153, 152, 128, 129, 154, 128, 154, 153, 129, 130, 154, 130, 155, 154, 130, 131, 156, 130, 156, 155, 131, 132, 156, 132, 157, 156, 132, 133, 158, 132, 158, 157, 133, 134, 158, 134, 159, 158, 134, 135, 160, 134, 160, 159, 135, 136, 160, 136, 161, 160, 136, 137, 162, 136, 162, 161, 137, 138, 162, 138, 163, 162, 138, 139, 164, 138, 164, 163, 139, 140, 164, 140, 165, 164, 140, 141, 166, 140, 166, 165, 141, 142, 166, 142, 167, 166, 142, 143, 168, 142, 168, 167, 143, 144, 168, 144, 169, 168, 144, 145, 170, 144, 170, 169, 145, 146, 170, 146, 171, 170, 146, 147, 172, 146, 172, 171, 147, 148, 172, 148, 173, 172, 148, 149, 174, 148, 174, 173, 150, 151, 176, 150, 176, 175, 151, 152, 176, 152, 177, 176, 152, 153, 178, 152, 178, 177, 153, 154, 178, 154, 179, 178, 154, 155, 180, 154, 180, 179, 155, 156, 180, 156, 181, 180, 156, 157, 182, 156, 182, 181, 157, 158, 182, 158, 183, 182, 158, 159, 184, 158, 184, 183, 159, 160, 184, 160, 185, 184, 160, 161, 186, 160, 186, 185, 161, 162, 186, 162, 187, 186, 162, 163, 188, 162, 188, 187, 163, 164, 188, 164, 189, 188, 164, 165, 190, 164, 190, 189, 165, 166, 190, 166, 191, 190, 166, 167, 192, 166, 192, 191, 167, 168, 192, 168, 193, 192, 168, 169, 194, 168, 194, 193, 169, 170, 194, 170, 195, 194, 170, 171, 196, 170, 196, 195, 171, 172, 196, 172, 197, 196, 172, 173, 198, 172, 198, 197, 173, 174, 198, 174, 199, 198, 175, 176, 200, 176, 201, 200, 176, 177, 202, 176, 202, 201, 177, 178, 202, 178, 203, 202, 178, 179, 204, 178, 204, 203, 179, 180, 204, 180, 205, 204, 180, 181, 206, 180, 206, 205, 181, 182, 206, 182, 207, 206, 182, 183, 208, 182, 208, 207, 183, 184, 208, 184, 209, 208, 184, 185, 210, 184, 210, 209, 185, 186, 210, 186, 211, 210, 186, 187, 212, 186, 212, 211, 187, 188, 212, 188, 213, 212, 188, 189, 214, 188, 214, 213, 189, 190, 214, 190, 215, 214, 190, 191, 216, 190, 216, 215, 191, 192, 216, 192, 217, 216, 192, 193, 218, 192, 218, 217, 193, 194, 218, 194, 219, 218, 194, 195, 220, 194, 220, 219, 195, 196, 220, 196, 221, 220, 196, 197, 222, 196, 222, 221, 197, 198, 222, 198, 223, 222, 198, 199, 224, 198, 224, 223, 200, 201, 226, 200, 226, 225, 201, 202, 226, 202, 227, 226, 202, 203, 228, 202, 228, 227, 203, 204, 228, 204, 229, 228, 204, 205, 230, 204, 230, 229, 205, 206, 230, 206, 231, 230, 206, 207, 232, 206, 232, 231, 207, 208, 232, 208, 233, 232, 208, 209, 234, 208, 234, 233, 209, 210, 234, 210, 235, 234, 210, 211, 236, 210, 236, 235, 211, 212, 236, 212, 237, 236, 212, 213, 238, 212, 238, 237, 213, 214, 238, 214, 239, 238, 214, 215, 240, 214, 240, 239, 215, 216, 240, 216, 241, 240, 216, 217, 242, 216, 242, 241, 217, 218, 242, 218, 243, 242, 218, 219, 244, 218, 244, 243, 219, 220, 244, 220, 245, 244, 220, 221, 246, 220, 246, 245, 221, 222, 246, 222, 247, 246, 222, 223, 248, 222, 248, 247, 223, 224, 248, 224, 249, 248, 225, 226, 250, 226, 251, 250, 226, 227, 252, 226, 252, 251, 227, 228, 252, 228, 253, 252, 228, 229, 254, 228, 254, 253, 229, 230, 254, 230, 255, 254, 230, 231, 256, 230, 256, 255, 231, 232, 256, 232, 257, 256, 232, 233, 258, 232, 258, 257, 233, 234, 258, 234, 259, 258, 234, 235, 260, 234, 260, 259, 235, 236, 260, 236, 261, 260, 236, 237, 262, 236, 262, 261, 237, 238, 262, 238, 263, 262, 238, 239, 264, 238, 264, 263, 239, 240, 264, 240, 265, 264, 240, 241, 266, 240, 266, 265, 241, 242, 266, 242, 267, 266, 242, 243, 268, 242, 268, 267, 243, 244, 268, 244, 269, 268, 244, 245, 270, 244, 270, 269, 245, 246, 270, 246, 271, 270, 246, 247, 272, 246, 272, 271, 247, 248, 272, 248, 273, 272, 248, 249, 274, 248, 274, 273, 250, 251, 276, 250, 276, 275, 251, 252, 276, 252, 277, 276, 252, 253, 278, 252, 278, 277, 253, 254, 278, 254, 279, 278, 254, 255, 280, 254, 280, 279, 255, 256, 280, 256, 281, 280, 256, 257, 282, 256, 282, 281, 257, 258, 282, 258, 283, 282, 258, 259, 284, 258, 284, 283, 259, 260, 284, 260, 285, 284, 260, 261, 286, 260, 286, 285, 261, 262, 286, 262, 287, 286, 262, 263, 288, 262, 288, 287, 263, 264, 288, 264, 289, 288, 264, 265, 290, 264, 290, 289, 265, 266, 290, 266, 291, 290, 266, 267, 292, 266, 292, 291, 267, 268, 292, 268, 293, 292, 268, 269, 294, 268, 294, 293, 269, 270, 294, 270, 295, 294, 270, 271, 296, 270, 296, 295, 271, 272, 296, 272, 297, 296, 272, 273, 298, 272, 298, 297, 273, 274, 298, 274, 299, 298, 275, 276, 300, 276, 301, 300, 276, 277, 302, 276, 302, 301, 277, 278, 302, 278, 303, 302, 278, 279, 304, 278, 304, 303, 279, 280, 304, 280, 305, 304, 280, 281, 306, 280, 306, 305, 281, 282, 306, 282, 307, 306, 282, 283, 308, 282, 308, 307, 283, 284, 308, 284, 309, 308, 284, 285, 310, 284, 310, 309, 285, 286, 310, 286, 311, 310, 286, 287, 312, 286, 312, 311, 287, 288, 312, 288, 313, 312, 288, 289, 314, 288, 314, 313, 289, 290, 314, 290, 315, 314, 290, 291, 316, 290, 316, 315, 291, 292, 316, 292, 317, 316, 292, 293, 318, 292, 318, 317, 293, 294, 318, 294, 319, 318, 294, 295, 320, 294, 320, 319, 295, 296, 320, 296, 321, 320, 296, 297, 322, 296, 322, 321, 297, 298, 322, 298, 323, 322, 298, 299, 324, 298, 324, 323, 300, 301, 326, 300, 326, 325, 301, 302, 326, 302, 327, 326, 302, 303, 328, 302, 328, 327, 303, 304, 328, 304, 329, 328, 304, 305, 330, 304, 330, 329, 305, 306, 330, 306, 331, 330, 306, 307, 332, 306, 332, 331, 307, 308, 332, 308, 333, 332, 308, 309, 334, 308, 334, 333, 309, 310, 334, 310, 335, 334, 310, 311, 336, 310, 336, 335, 311, 312, 336, 312, 337, 336, 312, 313, 338, 312, 338, 337, 313, 314, 338, 314, 339, 338, 314, 315, 340, 314, 340, 339, 315, 316, 340, 316, 341, 340, 316, 317, 342, 316, 342, 341, 317, 318, 342, 318, 343, 342, 318, 319, 344, 318, 344, 343, 319, 320, 344, 320, 345, 344, 320, 321, 346, 320, 346, 345, 321, 322, 346, 322, 347, 346, 322, 323, 348, 322, 348, 347, 323, 324, 348, 324, 349, 348, 325, 326, 350, 326, 351, 350, 326, 327, 352, 326, 352, 351, 327, 328, 352, 328, 353, 352, 328, 329, 354, 328, 354, 353, 329, 330, 354, 330, 355, 354, 330, 331, 356, 330, 356, 355, 331, 332, 356, 332, 357, 356, 332, 333, 358, 332, 358, 357, 333, 334, 358, 334, 359, 358, 334, 335, 360, 334, 360, 359, 335, 336, 360, 336, 361, 360, 336, 337, 362, 336, 362, 361, 337, 338, 362, 338, 363, 362, 338, 339, 364, 338, 364, 363, 339, 340, 364, 340, 365, 364, 340, 341, 366, 340, 366, 365, 341, 342, 366, 342, 367, 366, 342, 343, 368, 342, 368, 367, 343, 344, 368, 344, 369, 368, 344, 345, 370, 344, 370, 369, 345, 346, 370, 346, 371, 370, 346, 347, 372, 346, 372, 371, 347, 348, 372, 348, 373, 372, 348, 349, 374, 348, 374, 373, 350, 351, 376, 350, 376, 375, 351, 352, 376, 352, 377, 376, 352, 353, 378, 352, 378, 377, 353, 354, 378, 354, 379, 378, 354, 355, 380, 354, 380, 379, 355, 356, 380, 356, 381, 380, 356, 357, 382, 356, 382, 381, 357, 358, 382, 358, 383, 382, 358, 359, 384, 358, 384, 383, 359, 360, 384, 360, 385, 384, 360, 361, 386, 360, 386, 385, 361, 362, 386, 362, 387, 386, 362, 363, 388, 362, 388, 387, 363, 364, 388, 364, 389, 388, 364, 365, 390, 364, 390, 389, 365, 366, 390, 366, 391, 390, 366, 367, 392, 366, 392, 391, 367, 368, 392, 368, 393, 392, 368, 369, 394, 368, 394, 393, 369, 370, 394, 370, 395, 394, 370, 371, 396, 370, 396, 395, 371, 372, 396, 372, 397, 396, 372, 373, 398, 372, 398, 397, 373, 374, 398, 374, 399, 398, 375, 376, 400, 376, 401, 400, 376, 377, 402, 376, 402, 401, 377, 378, 402, 378, 403, 402, 378, 379, 404, 378, 404, 403, 379, 380, 404, 380, 405, 404, 380, 381, 406, 380, 406, 405, 381, 382, 406, 382, 407, 406, 382, 383, 408, 382, 408, 407, 383, 384, 408, 384, 409, 408, 384, 385, 410, 384, 410, 409, 385, 386, 410, 386, 411, 410, 386, 387, 412, 386, 412, 411, 387, 388, 412, 388, 413, 412, 388, 389, 414, 388, 414, 413, 389, 390, 414, 390, 415, 414, 390, 391, 416, 390, 416, 415, 391, 392, 416, 392, 417, 416, 392, 393, 418, 392, 418, 417, 393, 394, 418, 394, 419, 418, 394, 395, 420, 394, 420, 419, 395, 396, 420, 396, 421, 420, 396, 397, 422, 396, 422, 421, 397, 398, 422, 398, 423, 422, 398, 399, 424, 398, 424, 423, 400, 401, 426, 400, 426, 425, 401, 402, 426, 402, 427, 426, 402, 403, 428, 402, 428, 427, 403, 404, 428, 404, 429, 428, 404, 405, 430, 404, 430, 429, 405, 406, 430, 406, 431, 430, 406, 407, 432, 406, 432, 431, 407, 408, 432, 408, 433, 432, 408, 409, 434, 408, 434, 433, 409, 410, 434, 410, 435, 434, 410, 411, 436, 410, 436, 435, 411, 412, 436, 412, 437, 436, 412, 413, 438, 412, 438, 437, 413, 414, 438, 414, 439, 438, 414, 415, 440, 414, 440, 439, 415, 416, 440, 416, 441, 440, 416, 417, 442, 416, 442, 441, 417, 418, 442, 418, 443, 442, 418, 419, 444, 418, 444, 443, 419, 420, 444, 420, 445, 444, 420, 421, 446, 420, 446, 445, 421, 422, 446, 422, 447, 446, 422, 423, 448, 422, 448, 447, 423, 424, 448, 424, 449, 448, 425, 426, 450, 426, 451, 450, 426, 427, 452, 426, 452, 451, 427, 428, 452, 428, 453, 452, 428, 429, 454, 428, 454, 453, 429, 430, 454, 430, 455, 454, 430, 431, 456, 430, 456, 455, 431, 432, 456, 432, 457, 456, 432, 433, 458, 432, 458, 457, 433, 434, 458, 434, 459, 458, 434, 435, 460, 434, 460, 459, 435, 436, 460, 436, 461, 460, 436, 437, 462, 436, 462, 461, 437, 438, 462, 438, 463, 462, 438, 439, 464, 438, 464, 463, 439, 440, 464, 440, 465, 464, 440, 441, 466, 440, 466, 465, 441, 442, 466, 442, 467, 466, 442, 443, 468, 442, 468, 467, 443, 444, 468, 444, 469, 468, 444, 445, 470, 444, 470, 469, 445, 446, 470, 446, 471, 470, 446, 447, 472, 446, 472, 471, 447, 448, 472, 448, 473, 472, 448, 449, 474, 448, 474, 473]
            point3f[] points = [
                (-0.1, -0.1, -0.05290735032),
                (-0.09166666667, -0.1, -0.05297606706),
                (-0.08333333333, -0.1, -0.05297794775),
                (-0.075, -0.1, -0.05291295016),
                (-0.06666666667, -0.1, -0.05278253399),
                (-0.05833333333, -0.1, -0.0525896281),
                (-0.05, -0.1, -0.05233856475),
                (-0.04166666667, -0.1, -0.05203498227),
                (-0.03333333333, -0.1, -0.05168569848),
                (-0.025, -0.1, -0.05129855754),
                (-0.01666666667, -0.1, -0.05088225379),
                (-0.008333333333, -0.1, -0.05044613653),
                (1.387778781e-17, -0.1, -0.05),
                (0.008333333333, -0.1, -0.04955386347),
                (0.01666666667, -0.1, -0.04911774621),
                (0.025, -0.1, -0.04870144246),
                (0.03333333333, -0.1, -0.04831430152),
                (0.04166666667, -0.1, -0.04796501773),
                (0.05, -0.1, -0.04766143525),
                (0.05833333333, -0.1, -0.0474103719),
                (0.06666666667, -0.1, -0.04721746601),
                (0.075, -0.1, -0.04708704984),
                (0.08333333333, -0.1, -0.04702205225),
                (0.09166666667, -0.1, -0.04702393294),
                (0.1, -0.1, -0.04709264968),
                (-0.1, -0.09166666667, -0.05347756275),
                (-0.09166666667, -0.09166666667, -0.05355975677),
                (-0.08333333333, -0.09166666667, -0.05356200632),
                (-0.075, -0.09166666667, -0.05348426088),
                (-0.06666666667, -0.09166666667, -0.05332826646),
                (-0.05833333333, -0.09166666667, -0.05309752635),
                (-0.05, -0.09166666667, -0.05279722248),
                (-0.04166666667, -0.09166666667, -0.05243409902),
                (-0.03333333333, -0.09166666667, -0.05201631094),
                (-0.025, -0.09166666667, -0.05155324087),
                (-0.01666666667, -0.09166666667, -0.05105528835),
                (-0.008333333333, -0.09166666667, -0.05053363634),
                (1.387778781e-17, -0.09166666667, -0.05),
                (0.008333333333, -0.09166666667, -0.04946636366),
                (0.01666666667, -0.09166666667, -0.04894471165),
                (0.025, -0.09166666667, -0.04844675913),
                (0.03333333333, -0.09166666667, -0.04798368906),
                (0.04166666667, -0.09166666667, -0.04756590098),
                (0.05, -0.09166666667, -0.04720277752),
                (0.05833333333, -0.09166666667, -0.04690247365),
                (0.06666666667, -0.09166666667, -0.04667173354),
                (0.075, -0.09166666667, -0.04651573912),
                (0.08333333333, -0.09166666667, -0.04643799368),
                (0.09166666667, -0.09166666667, -0.04644024323),
                (0.1, -0.09166666667, -0.04652243725),
                (-0.1, -0.08333333333, -0.05400049536),
                (-0.09166666667, -0.08333333333, -0.05409504916),
                (-0.08333333333, -0.08333333333, -0.05409763698),
                (-0.075, -0.08333333333, -0.05400820071),
                (-0.06666666667, -0.08333333333, -0.05382874889),
                (-0.05833333333, -0.08333333333, -0.05356331163),
                (-0.05, -0.08333333333, -0.05321785007),
                (-0.04166666667, -0.08333333333, -0.05280012253),
                (-0.03333333333, -0.08333333333, -0.05231951028),
                (-0.025, -0.08333333333, -0.05178680683),
                (-0.01666666667, -0.08333333333, -0.05121397555),
                (-0.008333333333, -0.08333333333, -0.050613881),
                (1.387778781e-17, -0.08333333333, -0.05),
                (0.008333333333, -0.08333333333, -0.049386119),
                (0.01666666667, -0.08333333333, -0.04878602445),
                (0.025, -0.08333333333, -0.04821319317),
                (0.03333333333, -0.08333333333, -0.04768048972),
                (0.04166666667, -0.08333333333, -0.04719987747),
                (0.05, -0.08333333333, -0.04678214993),
                (0.05833333333, -0.08333333333, -0.04643668837),
                (0.06666666667, -0.08333333333, -0.04617125111),
                (0.075, -0.08333333333, -0.04599179929),
                (0.08333333333, -0.08333333333, -0.04590236302),
                (0.09166666667, -0.08333333333, -0.04590495084),
                (0.1, -0.08333333333, -0.04599950464),
                (-0.1, -0.075, -0.05446903851),
                (-0.09166666667, -0.075, -0.05457466657),
                (-0.08333333333, -0.075, -0.05457755748),
                (-0.075, -0.075, -0.05447764632),
                (-0.06666666667, -0.075, -0.05427717688),
                (-0.05833333333, -0.075, -0.05398065126),
                (-0.05, -0.075, -0.0535947288),
                (-0.04166666667, -0.075, -0.05312807648),
                (-0.03333333333, -0.075, -0.05259117431),
                (-0.025, -0.075, -0.05199607994),
                (-0.01666666667, -0.075, -0.05135615793),
                (-0.008333333333, -0.075, -0.05068577953),
                (1.387778781e-17, -0.075, -0.05),
                (0.008333333333, -0.075, -0.04931422047),
                (0.01666666667, -0.075, -0.04864384207),
                (0.025, -0.075, -0.04800392006),
                (0.03333333333, -0.075, -0.04740882569),
                (0.04166666667, -0.075, -0.04687192352),
                (0.05, -0.075, -0.0464052712),
                (0.05833333333, -0.075, -0.04601934874),
                (0.06666666667, -0.075, -0.04572282312),
                (0.075, -0.075, -0.04552235368),
                (0.08333333333, -0.075, -0.04542244252),
                (0.09166666667, -0.075, -0.04542533343),
                (0.1, -0.075, -0.04553096149),
                (-0.1, -0.06666666667, -0.05487682205),
                (-0.09166666667, -0.06666666667, -0.05499208829),
                (-0.08333333333, -0.06666666667, -0.05499524298),
                (-0.075, -0.06666666667, -0.05488621529),
                (-0.06666666667, -0.06666666667, -0.05466745374),
                (-0.05833333333, -0.06666666667, -0.05434387124),
                (-0.05, -0.06666666667, -0.05392273475),
                (-0.04166666667, -0.06666666667, -0.0534135021),
                (-0.03333333333, -0.06666666667, -0.05282760955),
                (-0.025, -0.06666666667, -0.05217821499),
                (-0.01666666667, -0.06666666667, -0.05147990241),
                (-0.008333333333, -0.06666666667, -0.05074835442),
                (1.387778781e-17, -0.06666666667, -0.05),
                (0.008333333333, -0.06666666667, -0.04925164558),
                (0.01666666667, -0.06666666667, -0.04852009759),
                (0.025, -0.06666666667, -0.04782178501),
                (0.03333333333, -0.06666666667, -0.04717239045),
                (0.04166666667, -0.06666666667, -0.0465864979),
                (0.05, -0.06666666667, -0.04607726525),
                (0.05833333333, -0.06666666667, -0.04565612876),
                (0.06666666667, -0.06666666667, -0.04533254626),
                (0.075, -0.06666666667, -0.04511378471),
                (0.08333333333, -0.06666666667, -0.04500475702),
                (0.09166666667, -0.06666666667, -0.04500791171),
                (0.1, -0.06666666667, -0.04512317795),
                (-0.1, -0.05833333333, -0.05521830188),
                (-0.09166666667, -0.05833333333, -0.05534163917),
                (-0.08333333333, -0.05833333333, -0.05534501476),
                (-0.075, -0.05833333333, -0.05522835284),
                (-0.06666666667, -0.05833333333, -0.05499427339),
                (-0.05833333333, -0.05833333333, -0.05464803333),
                (-0.05, -0.05833333333, -0.05419740846),
                (-0.04166666667, -0.05833333333, -0.05365251884),
                (-0.03333333333, -0.05833333333, -0.05302560153),
                (-0.025, -0.05833333333, -0.05233073572),
                (-0.01666666667, -0.05833333333, -0.05158352662),
                (-0.008333333333, -0.05833333333, -0.05080075493),
                (1.387778781e-17, -0.05833333333, -0.05),
                (0.008333333333, -0.05833333333, -0.04919924507),
                (0.01666666667, -0.05833333333, -0.04841647338),
                (0.025, -0.05833333333, -0.04766926428),
                (0.03333333333, -0.05833333333, -0.04697439847),
                (0.04166666667, -0.05833333333, -0.04634748116),
                (0.05, -0.05833333333, -0.04580259154),
                (0.05833333333, -0.05833333333, -0.04535196667),
                (0.06666666667, -0.05833333333, -0.04500572661),
                (0.075, -0.05833333333, -0.04477164716),
                (0.08333333333, -0.05833333333, -0.04465498524),
                (0.09166666667, -0.05833333333, -0.04465836083),
                (0.1, -0.05833333333, -0.04478169812),
                (-0.1, -0.05, -0.05548883535),
                (-0.09166666667, -0.05, -0.05561856684),
                (-0.08333333333, -0.05, -0.05562211743),
                (-0.075, -0.05, -0.05549940739),
                (-0.06666666667, -0.05, -0.05525319251),
                (-0.05833333333, -0.05, -0.05488900225),
                (-0.05, -0.05, -0.05441501554),
                (-0.04166666667, -0.05, -0.05384187711),
                (-0.03333333333, -0.05, -0.05318245839),
                (-0.025, -0.05, -0.05245156852),
                (-0.01666666667, -0.05, -0.05166562171),
                (-0.008333333333, -0.05, -0.05084226862),
                (1.387778781e-17, -0.05, -0.05),
                (0.008333333333, -0.05, -0.04915773138),
                (0.01666666667, -0.05, -0.04833437829),
                (0.025, -0.05, -0.04754843148),
                (0.03333333333, -0.05, -0.04681754161),
                (0.04166666667, -0.05, -0.04615812289),
                (0.05, -0.05, -0.04558498446),
                (0.05833333333, -0.05, -0.04511099775),
                (0.06666666667, -0.05, -0.04474680749),
                (0.075, -0.05, -0.04450059261),
                (0.08333333333, -0.05, -0.04437788257),
                (0.09166666667, -0.05, -0.04438143316),
                (0.1, -0.05, -0.04451116465),
                (-0.1, -0.04166666667, -0.05568474437),
                (-0.09166666667, -0.04166666667, -0.05581910627),
                (-0.08333333333, -0.04166666667, -0.05582278359),
                (-0.075, -0.04166666667, -0.05569569375),
                (-0.06666666667, -0.04166666667, -0.0554406909),
                (-0.05833333333, -0.04166666667, -0.05506350186),
                (-0.05, -0.04166666667, -0.05457259749),
                (-0.04166666667, -0.04166666667, -0.05397900244),
                (-0.03333333333, -0.04166666667, -0.05329604757),
                (-0.025, -0.04166666667, -0.05253907058),
                (-0.01666666667, -0.04166666667, -0.05172507154),
                (-0.008333333333, -0.04166666667, -0.05087233111),
                (1.387778781e-17, -0.04166666667, -0.05),
                (0.008333333333, -0.04166666667, -0.04912766889),
                (0.01666666667, -0.04166666667, -0.04827492846),
                (0.025, -0.04166666667, -0.04746092942),
                (0.03333333333, -0.04166666667, -0.04670395243),
                (0.04166666667, -0.04166666667, -0.04602099756),
                (0.05, -0.04166666667, -0.04542740251),
                (0.05833333333, -0.04166666667, -0.04493649814),
                (0.06666666667, -0.04166666667, -0.0445593091),
                (0.075, -0.04166666667, -0.04430430625),
                (0.08333333333, -0.04166666667, -0.04417721641),
                (0.09166666667, -0.04166666667, -0.04418089373),
                (0.1, -0.04166666667, -0.04431525563),
                (-0.1, -0.03333333333, -0.05580336542),
                (-0.09166666667, -0.03333333333, -0.055940531),
                (-0.08333333333, -0.03333333333, -0.05594428505),
                (-0.075, -0.03333333333, -0.05581454328),
                (-0.06666666667, -0.03333333333, -0.0555542194),
                (-0.05833333333, -0.03333333333, -0.05516915973),
                (-0.05, -0.03333333333, -0.05466801187),
                (-0.04166666667, -0.03333333333, -0.05406203053),
                (-0.03333333333, -0.03333333333, -0.05336482475),
                (-0.025, -0.03333333333, -0.05259205225),
                (-0.01666666667, -0.03333333333, -0.05176106785),
                (-0.008333333333, -0.03333333333, -0.05089053366),
                (1.387778781e-17, -0.03333333333, -0.05),
                (0.008333333333, -0.03333333333, -0.04910946634),
                (0.01666666667, -0.03333333333, -0.04823893215),
                (0.025, -0.03333333333, -0.04740794775),
                (0.03333333333, -0.03333333333, -0.04663517525),
                (0.04166666667, -0.03333333333, -0.04593796947),
                (0.05, -0.03333333333, -0.04533198813),
                (0.05833333333, -0.03333333333, -0.04483084027),
                (0.06666666667, -0.03333333333, -0.0444457806),
                (0.075, -0.03333333333, -0.04418545672),
                (0.08333333333, -0.03333333333, -0.04405571495),
                (0.09166666667, -0.03333333333, -0.044059469),
                (0.1, -0.03333333333, -0.04419663458),
                (-0.1, -0.025, -0.05584308579),
                (-0.09166666667, -0.025, -0.05598119017),
                (-0.08333333333, -0.025, -0.05598496992),
                (-0.075, -0.025, -0.05585434015),
                (-0.06666666667, -0.025, -0.05559223452),
                (-0.05833333333, -0.025, -0.05520453935),
                (-0.05, -0.025, -0.05469996146),
                (-0.04166666667, -0.025, -0.05408983256),
                (-0.03333333333, -0.025, -0.05338785484),
                (-0.025, -0.025, -0.0526097932),
                (-0.01666666667, -0.025, -0.05177312124),
                (-0.008333333333, -0.025, -0.05089662879),
                (1.387778781e-17, -0.025, -0.05),
                (0.008333333333, -0.025, -0.04910337121),
                (0.01666666667, -0.025, -0.04822687876),
                (0.025, -0.025, -0.0473902068),
                (0.03333333333, -0.025, -0.04661214516),
                (0.04166666667, -0.025, -0.04591016744),
                (0.05, -0.025, -0.04530003854),
                (0.05833333333, -0.025, -0.04479546065),
                (0.06666666667, -0.025, -0.04440776548),
                (0.075, -0.025, -0.04414565985),
                (0.08333333333, -0.025, -0.04401503008),
                (0.09166666667, -0.025, -0.04401880983),
                (0.1, -0.025, -0.04415691421),
                (-0.1, -0.01666666667, -0.05580336542),
                (-0.09166666667, -0.01666666667, -0.055940531),
                (-0.08333333333, -0.01666666667, -0.05594428505),
                (-0.075, -0.01666666667, -0.05581454328),
                (-0.06666666667, -0.01666666667, -0.0555542194),
                (-0.05833333333, -0.01666666667, -0.05516915973),
                (-0.05, -0.01666666667, -0.05466801187),
                (-0.04166666667, -0.01666666667, -0.05406203053),
                (-0.03333333333, -0.01666666667, -0.05336482475),
                (-0.025, -0.01666666667, -0.05259205225),
                (-0.01666666667, -0.01666666667, -0.05176106785),
                (-0.008333333333, -0.01666666667, -0.05089053366),
                (1.387778781e-17, -0.01666666667, -0.05),
                (0.008333333333, -0.01666666667, -0.04910946634),
                (0.01666666667, -0.01666666667, -0.04823893215),
                (0.025, -0.01666666667, -0.04740794775),
                (0.03333333333, -0.01666666667, -0.04663517525),
                (0.04166666667, -0.01666666667, -0.04593796947),
                (0.05, -0.01666666667, -0.04533198813),
                (0.05833333333, -0.01666666667, -0.04483084027),
                (0.06666666667, -0.01666666667, -0.0444457806),
                (0.075, -0.01666666667, -0.04418545672),
                (0.08333333333, -0.01666666667, -0.04405571495),
                (0.09166666667, -0.01666666667, -0.044059469),
                (0.1, -0.01666666667, -0.04419663458),
                (-0.1, -0.008333333333, -0.05568474437),
                (-0.09166666667, -0.008333333333, -0.05581910627),
                (-0.08333333333, -0.008333333333, -0.05582278359),
                (-0.075, -0.008333333333, -0.05569569375),
                (-0.06666666667, -0.008333333333, -0.0554406909),
                (-0.05833333333, -0.008333333333, -0.05506350186),
                (-0.05, -0.008333333333, -0.05457259749),
                (-0.04166666667, -0.008333333333, -0.05397900244),
                (-0.03333333333, -0.008333333333, -0.05329604757),
                (-0.025, -0.008333333333, -0.05253907058),
                (-0.01666666667, -0.008333333333, -0.05172507154),
                (-0.008333333333, -0.008333333333, -0.05087233111),
                (1.387778781e-17, -0.008333333333, -0.05),
                (0.008333333333, -0.008333333333, -0.04912766889),
                (0.01666666667, -0.008333333333, -0.04827492846),
                (0.025, -0.008333333333, -0.04746092942),
                (0.03333333333, -0.008333333333, -0.04670395243),
                (0.04166666667, -0.008333333333, -0.04602099756),
                (0.05, -0.008333333333, -0.04542740251),
                (0.05833333333, -0.008333333333, -0.04493649814),
                (0.06666666667, -0.008333333333, -0.0445593091),
                (0.075, -0.008333333333, -0.04430430625),
                (0.08333333333, -0.008333333333, -0.04417721641),
                (0.09166666667, -0.008333333333, -0.04418089373),
                (0.1, -0.008333333333, -0.04431525563),
                (-0.1, -6.938893904e-18, -0.05548883535),
                (-0.09166666667, -6.938893904e-18, -0.05561856684),
                (-0.08333333333, -6.938893904e-18, -0.05562211743),
                (-0.075, -6.938893904e-18, -0.05549940739),
                (-0.06666666667, -6.938893904e-18, -0.05525319251),
                (-0.05833333333, -6.938893904e-18, -0.05488900225),
                (-0.05, -6.938893904e-18, -0.05441501554),
                (-0.04166666667, -6.938893904e-18, -0.05384187711),
                (-0.03333333333, -6.938893904e-18, -0.05318245839),
                (-0.025, -6.938893904e-18, -0.05245156852),
                (-0.01666666667, -6.938893904e-18, -0.05166562171),
                (-0.008333333333, -6.938893904e-18, -0.05084226862),
                (1.387778781e-17, -6.938893904e-18, -0.05),
                (0.008333333333, -6.938893904e-18, -0.04915773138),
                (0.01666666667, -6.938893904e-18, -0.04833437829),
                (0.025, -6.938893904e-18, -0.04754843148),
                (0.03333333333, -6.938893904e-18, -0.04681754161),
                (0.04166666667, -6.938893904e-18, -0.04615812289),
                (0.05, -6.938893904e-18, -0.04558498446),
                (0.05833333333, -6.938893904e-18, -0.04511099775),
                (0.06666666667, -6.938893904e-18, -0.04474680749),
                (0.075, -6.938893904e-18, -0.04450059261),
                (0.08333333333, -6.938893904e-18, -0.04437788257),
                (0.09166666667, -6.938893904e-18, -0.04438143316),
                (0.1, -6.938893904e-18, -0.04451116465),
                (-0.1, 0.008333333333, -0.05521830188),
                (-0.09166666667, 0.008333333333, -0.05534163917),
                (-0.08333333333, 0.008333333333, -0.05534501476),
                (-0.075, 0.008333333333, -0.05522835284),
                (-0.06666666667, 0.008333333333, -0.05499427339),
                (-0.05833333333, 0.008333333333, -0.05464803333),
                (-0.05, 0.008333333333, -0.05419740846),
                (-0.04166666667, 0.008333333333, -0.05365251884),
                (-0.03333333333, 0.008333333333, -0.05302560153),
                (-0.025, 0.008333333333, -0.05233073572),
                (-0.01666666667, 0.008333333333, -0.05158352662),
                (-0.008333333333, 0.008333333333, -0.05080075493),
                (1.387778781e-17, 0.008333333333, -0.05),
                (0.008333333333, 0.008333333333, -0.04919924507),
                (0.01666666667, 0.008333333333, -0.04841647338),
                (0.025, 0.008333333333, -0.04766926428),
                (0.03333333333, 0.008333333333, -0.04697439847),
                (0.04166666667, 0.008333333333, -0.04634748116),
                (0.05, 0.008333333333, -0.04580259154),
                (0.05833333333, 0.008333333333, -0.04535196667),
                (0.06666666667, 0.008333333333, -0.04500572661),
                (0.075, 0.008333333333, -0.04477164716),
                (0.08333333333, 0.008333333333, -0.04465498524),
                (0.09166666667, 0.008333333333, -0.04465836083),
                (0.1, 0.008333333333, -0.04478169812),
                (-0.1, 0.01666666667, -0.05487682205),
                (-0.09166666667, 0.01666666667, -0.05499208829),
                (-0.08333333333, 0.01666666667, -0.05499524298),
                (-0.075, 0.01666666667, -0.05488621529),
                (-0.06666666667, 0.01666666667, -0.05466745374),
                (-0.05833333333, 0.01666666667, -0.05434387124),
                (-0.05, 0.01666666667, -0.05392273475),
                (-0.04166666667, 0.01666666667, -0.0534135021),
                (-0.03333333333, 0.01666666667, -0.05282760955),
                (-0.025, 0.01666666667, -0.05217821499),
                (-0.01666666667, 0.01666666667, -0.05147990241),
                (-0.008333333333, 0.01666666667, -0.05074835442),
                (1.387778781e-17, 0.01666666667, -0.05),
                (0.008333333333, 0.01666666667, -0.04925164558),
                (0.01666666667, 0.01666666667, -0.04852009759),
                (0.025, 0.01666666667, -0.04782178501),
                (0.03333333333, 0.01666666667, -0.04717239045),
                (0.04166666667, 0.01666666667, -0.0465864979),
                (0.05, 0.01666666667, -0.04607726525),
                (0.05833333333, 0.01666666667, -0.04565612876),
                (0.06666666667, 0.01666666667, -0.04533254626),
                (0.075, 0.01666666667, -0.04511378471),
                (0.08333333333, 0.01666666667, -0.04500475702),
                (0.09166666667, 0.01666666667, -0.04500791171),
                (0.1, 0.01666666667, -0.04512317795),
                (-0.1, 0.025, -0.05446903851),
                (-0.09166666667, 0.025, -0.05457466657),
                (-0.08333333333, 0.025, -0.05457755748),
                (-0.075, 0.025, -0.05447764632),
                (-0.06666666667, 0.025, -0.05427717688),
                (-0.05833333333, 0.025, -0.05398065126),
                (-0.05, 0.025, -0.0535947288),
                (-0.04166666667, 0.025, -0.05312807648),
                (-0.03333333333, 0.025, -0.05259117431),
                (-0.025, 0.025, -0.05199607994),
                (-0.01666666667, 0.025, -0.05135615793),
                (-0.008333333333, 0.025, -0.05068577953),
                (1.387778781e-17, 0.025, -0.05),
                (0.008333333333, 0.025, -0.04931422047),
                (0.01666666667, 0.025, -0.04864384207),
                (0.025, 0.025, -0.04800392006),
                (0.03333333333, 0.025, -0.04740882569),
                (0.04166666667, 0.025, -0.04687192352),
                (0.05, 0.025, -0.0464052712),
                (0.05833333333, 0.025, -0.04601934874),
                (0.06666666667, 0.025, -0.04572282312),
                (0.075, 0.025, -0.04552235368),
                (0.08333333333, 0.025, -0.04542244252),
                (0.09166666667, 0.025, -0.04542533343),
                (0.1, 0.025, -0.04553096149),
                (-0.1, 0.03333333333, -0.05400049536),
                (-0.09166666667, 0.03333333333, -0.05409504916),
                (-0.08333333333, 0.03333333333, -0.05409763698),
                (-0.075, 0.03333333333, -0.05400820071),
                (-0.06666666667, 0.03333333333, -0.05382874889),
                (-0.05833333333, 0.03333333333, -0.05356331163),
                (-0.05, 0.03333333333, -0.05321785007),
                (-0.04166666667, 0.03333333333, -0.05280012253),
                (-0.03333333333, 0.03333333333, -0.05231951028),
                (-0.025, 0.03333333333, -0.05178680683),
                (-0.01666666667, 0.03333333333, -0.05121397555),
                (-0.008333333333, 0.03333333333, -0.050613881),
                (1.387778781e-17, 0.03333333333, -0.05),
                (0.008333333333, 0.03333333333, -0.049386119),
                (0.01666666667, 0.03333333333, -0.04878602445),
                (0.025, 0.03333333333, -0.04821319317),
                (0.03333333333, 0.03333333333, -0.04768048972),
                (0.04166666667, 0.03333333333, -0.04719987747),
                (0.05, 0.03333333333, -0.04678214993),
                (0.05833333333, 0.03333333333, -0.04643668837),
                (0.06666666667, 0.03333333333, -0.04617125111),
                (0.075, 0.03333333333, -0.04599179929),
                (0.08333333333, 0.03333333333, -0.04590236302),
                (0.09166666667, 0.03333333333, -0.04590495084),
                (0.1, 0.03333333333, -0.04599950464),
                (-0.1, 0.04166666667, -0.05347756275),
                (-0.09166666667, 0.04166666667, -0.05355975677),
                (-0.08333333333, 0.04166666667, -0.05356200632),
                (-0.075, 0.04166666667, -0.05348426088),
                (-0.06666666667, 0.04166666667, -0.05332826646),
                (-0.05833333333, 0.04166666667, -0.05309752635),
                (-0.05, 0.04166666667, -0.05279722248),
                (-0.04166666667, 0.04166666667, -0.05243409902),
                (-0.03333333333, 0.04166666667, -0.05201631094),
                (-0.025, 0.04166666667, -0.05155324087),
                (-0.01666666667, 0.04166666667, -0.05105528835),
                (-0.008333333333, 0.04166666667, -0.05053363634),
                (1.387778781e-17, 0.04166666667, -0.05),
                (0.008333333333, 0.04166666667, -0.04946636366),
                (0.01666666667, 0.04166666667, -0.04894471165),
                (0.025, 0.04166666667, -0.04844675913),
                (0.03333333333, 0.04166666667, -0.04798368906),
                (0.04166666667, 0.04166666667, -0.04756590098),
                (0.05, 0.04166666667, -0.04720277752),
                (0.05833333333, 0.04166666667, -0.04690247365),
                (0.06666666667, 0.04166666667, -0.04667173354),
                (0.075, 0.04166666667, -0.04651573912),
                (0.08333333333, 0.04166666667, -0.04643799368),
                (0.09166666667, 0.04166666667, -0.04644024323),
                (0.1, 0.04166666667, -0.04652243725),
                (-0.1, 0.05, -0.05290735032),
                (-0.09166666667, 0.05, -0.05297606706),
                (-0.08333333333, 0.05, -0.05297794775),
                (-0.075, 0.05, -0.05291295016),
                (-0.06666666667, 0.05, -0.05278253399),
                (-0.05833333333, 0.05, -0.0525896281),
                (-0.05, 0.05, -0.05233856475),
                (-0.04166666667, 0.05, -0.05203498227),
                (-0.03333333333, 0.05, -0.05168569848),
                (-0.025, 0.05, -0.05129855754),
                (-0.01666666667, 0.05, -0.05088225379),
                (-0.008333333333, 0.05, -0.05044613653),
                (1.387778781e-17, 0.05, -0.05),
                (0.008333333333, 0.05, -0.04955386347),
                (0.01666666667, 0.05, -0.04911774621),
                (0.025, 0.05, -0.04870144246),
                (0.03333333333, 0.05, -0.04831430152),
                (0.04166666667, 0.05, -0.04796501773),
                (0.05, 0.05, -0.04766143525),
                (0.05833333333, 0.05, -0.0474103719),
                (0.06666666667, 0.05, -0.04721746601),
                (0.075, 0.05, -0.04708704984),
                (0.08333333333, 0.05, -0.04702205225),
                (0.09166666667, 0.05, -0.04702393294),
                (0.1, 0.05, -0.04709264968)
            ]
            normal3f[] normals = [
                (0.009031460457, 0.06906716008, 0.9975711304),
                (0.004226142033, 0.06987095565, 0.9975470862),
                (-0.004148495416, 0.069523624, 0.9975716795),
                (-0.01169838757, 0.06839205886, 0.9975899328),
                (-0.02125305264, 0.06496601793, 0.997661127),
                (-0.0265826883, 0.0608134074, 0.9977951143),
                (-0.03646570006, 0.05460804924, 0.9978417779),
                (-0.03910017468, 0.04780259051, 0.9980912226),
                (-0.04842758892, 0.03936934912, 0.9980505112),
                (-0.04812983142, 0.03051233433, 0.998374938),
                (-0.05606524618, 0.02060761343, 0.9982144131),
                (-0.05285850413, 0.01048472026, 0.9985469689),
                (-0.05869021442, -6.626196748e-18, 0.9982762437),
                (-0.05285850413, -0.01048472026, 0.9985469689),
                (-0.05606524618, -0.02060761343, 0.9982144131),
                (-0.04812983142, -0.03051233433, 0.998374938),
                (-0.04842758892, -0.03936934912, 0.9980505112),
                (-0.03910017468, -0.04780259051, 0.9980912226),
                (-0.03646570006, -0.05460804924, 0.9978417779),
                (-0.0265826883, -0.0608134074, 0.9977951143),
                (-0.02125305264, -0.06496601793, 0.997661127),
                (-0.01169838757, -0.06839205886, 0.9975899328),
                (-0.004148495416, -0.069523624, 0.9975716795),
                (0.004226142033, -0.06987095565, 0.9975470862),
                (0.009031460457, -0.06906716008, 0.9975711304),
                (0.009841657335, 0.06544554517, 0.9978076079),
                (0.005038389166, 0.06661120082, 0.9977662865),
                (-0.004519376153, 0.06702842236, 0.997740831),
                (-0.01394633932, 0.06519928268, 0.9977748008),
                (-0.02315164224, 0.06263185017, 0.9977681358),
                (-0.03168611328, 0.05796584017, 0.99781559),
                (-0.03971821699, 0.05264172262, 0.9978232871),
                (-0.04659681457, 0.04555451453, 0.9978745027),
                (-0.05273927797, 0.03794814481, 0.9978870211),
                (-0.05734601531, 0.02907144083, 0.9979310026),
                (-0.06104989931, 0.01986221646, 0.9979370732),
                (-0.06297237263, 0.009988358249, 0.9979652865),
                (-0.06390546743, 0, 0.9979559566),
                (-0.06297237263, -0.009988358249, 0.9979652865),
                (-0.06104989931, -0.01986221646, 0.9979370732),
                (-0.05734601531, -0.02907144083, 0.9979310026),
                (-0.05273927797, -0.03794814481, 0.9978870211),
                (-0.04659681457, -0.04555451453, 0.9978745027),
                (-0.03971821699, -0.05264172262, 0.9978232871),
                (-0.03168611328, -0.05796584017, 0.99781559),
                (-0.02315164224, -0.06263185017, 0.9977681358),
                (-0.01394633932, -0.06519928268, 0.9977748008),
                (-0.004519376153, -0.06702842236, 0.997740831),
                (0.005038389166, -0.06661120082, 0.9977662865),
                (0.009841657335, -0.06544554517, 0.9978076079),
                (0.01128670504, 0.0600805547, 0.9981297196),
                (0.005817378656, 0.06077958741, 0.9981342594),
                (-0.005183771131, 0.06047749631, 0.9981561005),
                (-0.01610197039, 0.05948852698, 0.9980991142),
                (-0.02655132877, 0.0565037217, 0.9980492755),
                (-0.03657692785, 0.05287694771, 0.9979309379),
                (-0.04553729911, 0.04747936789, 0.9978336855),
                (-0.05377474643, 0.04154196234, 0.9976885997),
                (-0.06044565832, 0.03421699449, 0.9975848433),
                (-0.06616285989, 0.02650265643, 0.9974568087),
                (-0.06995211213, 0.01790532005, 0.9973896438),
                (-0.07264299906, 0.00910408982, 0.9973164544),
                (-0.07321675994, -3.175080616e-18, 0.9973160512),
                (-0.07264299906, -0.00910408982, 0.9973164544),
                (-0.06995211213, -0.01790532005, 0.9973896438),
                (-0.06616285989, -0.02650265643, 0.9974568087),
                (-0.06044565832, -0.03421699449, 0.9975848433),
                (-0.05377474643, -0.04154196234, 0.9976885997),
                (-0.04553729911, -0.04747936789, 0.9978336855),
                (-0.03657692785, -0.05287694771, 0.9979309379),
                (-0.02655132877, -0.0565037217, 0.9980492755),
                (-0.01610197039, -0.05948852698, 0.9980991142),
                (-0.005183771131, -0.06047749631, 0.9981561005),
                (0.005817378656, -0.06077958741, 0.9981342594),
                (0.01128670504, -0.0600805547, 0.9981297196),
                (0.01265686775, 0.05250370889, 0.9985405171),
                (0.006479619347, 0.05344081303, 0.9985499958),
                (-0.00581238825, 0.05377598548, 0.9985361083),
                (-0.01793414144, 0.05230357386, 0.9984701812),
                (-0.02976745856, 0.05023517595, 0.998293707),
                (-0.04072961451, 0.0464817491, 0.9980884457),
                (-0.05104053242, 0.04219949174, 0.9978046236),
                (-0.05986040685, 0.03650774197, 0.9975389298),
                (-0.06773121654, 0.03040154808, 0.9972403061),
                (-0.07362750975, 0.02328490877, 0.9970139431),
                (-0.07836591283, 0.01590447901, 0.9967977885),
                (-0.0808235024, 0.007997484683, 0.9966963438),
                (-0.08201629554, 0, 0.9966309885),
                (-0.0808235024, -0.007997484683, 0.9966963438),
                (-0.07836591283, -0.01590447901, 0.9967977885),
                (-0.07362750975, -0.02328490877, 0.9970139431),
                (-0.06773121654, -0.03040154808, 0.9972403061),
                (-0.05986040685, -0.03650774197, 0.9975389298),
                (-0.05104053242, -0.04219949174, 0.9978046236),
                (-0.04072961451, -0.0464817491, 0.9980884457),
                (-0.02976745856, -0.05023517595, 0.998293707),
                (-0.01793414144, -0.05230357386, 0.9984701812),
                (-0.00581238825, -0.05377598548, 0.9985361083),
                (0.006479619347, -0.05344081303, 0.9985499958),
                (0.01265686775, -0.05250370889, 0.9985405171),
                (0.01376936282, 0.04543698858, 0.9988723065),
                (0.0070971228, 0.04596699105, 0.9989177477),
                (-0.006323899053, 0.04573838699, 0.9989334353),
                (-0.01964246906, 0.04498662785, 0.9987944617),
                (-0.03238272333, 0.04272210069, 0.9985620568),
                (-0.04460082312, 0.03997002106, 0.9982049709),
                (-0.05550964904, 0.03588025786, 0.997813252),
                (-0.06553192604, 0.03138287578, 0.9973568478),
                (-0.07363865032, 0.02584241177, 0.9969501085),
                (-0.08058226189, 0.02000988664, 0.9965470905),
                (-0.08517994705, 0.01351667515, 0.9962738961),
                (-0.08844394619, 0.006871320904, 0.9960574548),
                (-0.08913948142, -4.003336621e-18, 0.9960191529),
                (-0.08844394619, -0.006871320904, 0.9960574548),
                (-0.08517994705, -0.01351667515, 0.9962738961),
                (-0.08058226189, -0.02000988664, 0.9965470905),
                (-0.07363865032, -0.02584241177, 0.9969501085),
                (-0.06553192604, -0.03138287578, 0.9973568478),
                (-0.05550964904, -0.03588025786, 0.997813252),
                (-0.04460082312, -0.03997002106, 0.9982049709),
                (-0.03238272333, -0.04272210069, 0.9985620568),
                (-0.01964246906, -0.04498662785, 0.9987944617),
                (-0.006323899053, -0.04573838699, 0.9989334353),
                (0.0070971228, -0.04596699105, 0.9989177477),
                (0.01376936282, -0.04543698858, 0.9988723065),
                (0.01478888849, 0.03669285762, 0.9992171551),
                (0.007571092606, 0.03734902698, 0.9992736005),
                (-0.006791733266, 0.03758356081, 0.999270408),
                (-0.02095342871, 0.03655133107, 0.9991120828),
                (-0.03477446728, 0.03510020964, 0.99877861),
                (-0.04756851851, 0.03247056358, 0.9983400716),
                (-0.05959608144, 0.02947079162, 0.9977874421),
                (-0.06987333648, 0.02548917612, 0.9972301734),
                (-0.07903915476, 0.02121925095, 0.9966456519),
                (-0.08589844928, 0.01624873756, 0.9961713883),
                (-0.09140828477, 0.01109578059, 0.9957516805),
                (-0.09426401459, 0.005579073034, 0.9955316015),
                (-0.09565001823, 0, 0.995415026),
                (-0.09426401459, -0.005579073034, 0.9955316015),
                (-0.09140828477, -0.01109578059, 0.9957516805),
                (-0.08589844928, -0.01624873756, 0.9961713883),
                (-0.07903915476, -0.02121925095, 0.9966456519),
                (-0.06987333648, -0.02548917612, 0.9972301734),
                (-0.05959608144, -0.02947079162, 0.9977874421),
                (-0.04756851851, -0.03247056358, 0.9983400716),
                (-0.03477446728, -0.03510020964, 0.99877861),
                (-0.02095342871, -0.03655133107, 0.9991120828),
                (-0.006791733266, -0.03758356081, 0.999270408),
                (0.007571092606, -0.03734902698, 0.9992736005),
                (0.01478888849, -0.03669285762, 0.9992171551),
                (0.01550676928, 0.02830329949, 0.999479096),
                (0.00799275652, 0.02863413055, 0.9995580035),
                (-0.007121741656, 0.02849165771, 0.9995686601),
                (-0.02211970497, 0.02802142468, 0.999362556),
                (-0.03646054394, 0.02660714978, 0.9989808248),
                (-0.05020858177, 0.02488813201, 0.998428605),
                (-0.06247322528, 0.02233663465, 0.9977966581),
                (-0.07373524781, 0.01953155507, 0.9970865718),
                (-0.08283599678, 0.01607991975, 0.9964334568),
                (-0.09062724325, 0.01244757897, 0.99580709),
                (-0.09578216842, 0.008407276292, 0.9953668138),
                (-0.09944086772, 0.004273241236, 0.9950342975),
                (-0.1002201217, -1.035340255e-18, 0.9949652895),
                (-0.09944086772, -0.004273241236, 0.9950342975),
                (-0.09578216842, -0.008407276292, 0.9953668138),
                (-0.09062724325, -0.01244757897, 0.99580709),
                (-0.08283599678, -0.01607991975, 0.9964334568),
                (-0.07373524781, -0.01953155507, 0.9970865718),
                (-0.06247322528, -0.02233663465, 0.9977966581),
                (-0.05020858177, -0.02488813201, 0.998428605),
                (-0.03646054394, -0.02660714978, 0.9989808248),
                (-0.02211970497, -0.02802142468, 0.999362556),
                (-0.007121741656, -0.02849165771, 0.9995686601),
                (0.00799275652, -0.02863413055, 0.9995580035),
                (0.01550676928, -0.02830329949, 0.999479096),
                (0.01611846364, 0.0188664859, 0.999692078),
                (0.008251758204, 0.01920432641, 0.9997815273),
                (-0.007402534677, 0.01932502372, 0.99978585),
                (-0.02283593375, 0.01879311744, 0.9995625738),
                (-0.03789526985, 0.01804497009, 0.9991187755),
                (-0.05182835479, 0.01669052736, 0.9985165236),
                (-0.0649218104, 0.01514558187, 0.9977754105),
                (-0.07610144589, 0.01309695415, 0.997014062),
                (-0.08606783179, 0.01090056653, 0.9962296452),
                (-0.09352081608, 0.008345958875, 0.9955823431),
                (-0.09950567605, 0.005698230022, 0.9950206785),
                (-0.1026061186, 0.002864991565, 0.994717938),
                (-0.1041108715, 0, 0.9945656974),
                (-0.1026061186, -0.002864991565, 0.994717938),
                (-0.09950567605, -0.005698230022, 0.9950206785),
                (-0.09352081608, -0.008345958875, 0.9955823431),
                (-0.08606783179, -0.01090056653, 0.9962296452),
                (-0.07610144589, -0.01309695415, 0.997014062),
                (-0.0649218104, -0.01514558187, 0.9977754105),
                (-0.05182835479, -0.01669052736, 0.9985165236),
                (-0.03789526985, -0.01804497009, 0.9991187755),
                (-0.02283593375, -0.01879311744, 0.9995625738),
                (-0.007402534677, -0.01932502372, 0.99978585),
                (0.008251758204, -0.01920432641, 0.9997815273),
                (0.01611846364, -0.0188664859, 0.999692078),
                (0.01640095321, 0.009611283681, 0.9998192997),
                (0.008453725554, 0.009723758405, 0.9999169881),
                (-0.007532350131, 0.00967536346, 0.9999248227),
                (-0.0233944855, 0.009515309057, 0.9996810276),
                (-0.03855814415, 0.009034348376, 0.9992155173),
                (-0.05309199827, 0.008449705188, 0.9985538755),
                (-0.06605164871, 0.007582516859, 0.9977873948),
                (-0.07794838115, 0.0066292801, 0.9969353552),
                (-0.08755685644, 0.005457092052, 0.9961445764),
                (-0.09578054701, 0.004223772359, 0.9953935134),
                (-0.1012192223, 0.00285259627, 0.9948600564),
                (-0.1050787846, 0.001449787338, 0.9944628435),
                (-0.1059005903, -1.863607021e-18, 0.9943767219),
                (-0.1050787846, -0.001449787338, 0.9944628435),
                (-0.1012192223, -0.00285259627, 0.9948600564),
                (-0.09578054701, -0.004223772359, 0.9953935134),
                (-0.08755685644, -0.005457092052, 0.9961445764),
                (-0.07794838115, -0.0066292801, 0.9969353552),
                (-0.06605164871, -0.007582516859, 0.9977873948),
                (-0.05309199827, -0.008449705188, 0.9985538755),
                (-0.03855814415, -0.009034348376, 0.9992155173),
                (-0.0233944855, -0.009515309057, 0.9996810276),
                (-0.007532350131, -0.00967536346, 0.9999248227),
                (0.008453725554, -0.009723758405, 0.9999169881),
                (0.01640095321, -0.009611283681, 0.9998192997),
                (0.01657025091, 0, 0.999862704),
                (0.008483046918, 0, 0.9999640183),
                (-0.007610095374, 0, 0.9999710428),
                (-0.02347553145, 0, 0.9997244117),
                (-0.0389553933, 0, 0.9992409506),
                (-0.05327487779, 0, 0.9985798853),
                (-0.06672963935, 0, 0.9977710936),
                (-0.0782146745, 0, 0.99693654),
                (-0.08845176057, 0, 0.9960804616),
                (-0.09610518279, 0, 0.995371184),
                (-0.1022503109, 0, 0.9947587014),
                (-0.1054332315, 0, 0.9944263843),
                (-0.1069780067, 0, 0.9942613872),
                (-0.1054332315, 0, 0.9944263843),
                (-0.1022503109, 0, 0.9947587014),
                (-0.09610518279, 0, 0.995371184),
                (-0.08845176057, 0, 0.9960804616),
                (-0.0782146745, 0, 0.99693654),
                (-0.06672963935, 0, 0.9977710936),
                (-0.05327487779, 0, 0.9985798853),
                (-0.0389553933, 0, 0.9992409506),
                (-0.02347553145, 0, 0.9997244117),
                (-0.007610095374, 0, 0.9999710428),
                (0.008483046918, 0, 0.9999640183),
                (0.01657025091, 0, 0.999862704),
                (0.01640095321, -0.009611283681, 0.9998192997),
                (0.008453725554, -0.009723758405, 0.9999169881),
                (-0.007532350131, -0.00967536346, 0.9999248227),
                (-0.0233944855, -0.009515309057, 0.9996810276),
                (-0.03855814415, -0.009034348376, 0.9992155173),
                (-0.05309199827, -0.008449705188, 0.9985538755),
                (-0.06605164871, -0.007582516859, 0.9977873948),
                (-0.07794838115, -0.0066292801, 0.9969353552),
                (-0.08755685644, -0.005457092052, 0.9961445764),
                (-0.09578054701, -0.004223772359, 0.9953935134),
                (-0.1012192223, -0.00285259627, 0.9948600564),
                (-0.1050787846, -0.001449787338, 0.9944628435),
                (-0.1059005903, 1.967140744e-18, 0.9943767219),
                (-0.1050787846, 0.001449787338, 0.9944628435),
                (-0.1012192223, 0.00285259627, 0.9948600564),
                (-0.09578054701, 0.004223772359, 0.9953935134),
                (-0.08755685644, 0.005457092052, 0.9961445764),
                (-0.07794838115, 0.0066292801, 0.9969353552),
                (-0.06605164871, 0.007582516859, 0.9977873948),
                (-0.05309199827, 0.008449705188, 0.9985538755),
                (-0.03855814415, 0.009034348376, 0.9992155173),
                (-0.0233944855, 0.009515309057, 0.9996810276),
                (-0.007532350131, 0.00967536346, 0.9999248227),
                (0.008453725554, 0.009723758405, 0.9999169881),
                (0.01640095321, 0.009611283681, 0.9998192997),
                (0.01611846364, -0.0188664859, 0.999692078),
                (0.008251758204, -0.01920432641, 0.9997815273),
                (-0.007402534677, -0.01932502372, 0.99978585),
                (-0.02283593375, -0.01879311744, 0.9995625738),
                (-0.03789526985, -0.01804497009, 0.9991187755),
                (-0.05182835479, -0.01669052736, 0.9985165236),
                (-0.0649218104, -0.01514558187, 0.9977754105),
                (-0.07610144589, -0.01309695415, 0.997014062),
                (-0.08606783179, -0.01090056653, 0.9962296452),
                (-0.09352081608, -0.008345958875, 0.9955823431),
                (-0.09950567605, -0.005698230022, 0.9950206785),
                (-0.1026061186, -0.002864991565, 0.994717938),
                (-0.1041108715, 0, 0.9945656974),
                (-0.1026061186, 0.002864991565, 0.994717938),
                (-0.09950567605, 0.005698230022, 0.9950206785),
                (-0.09352081608, 0.008345958875, 0.9955823431),
                (-0.08606783179, 0.01090056653, 0.9962296452),
                (-0.07610144589, 0.01309695415, 0.997014062),
                (-0.0649218104, 0.01514558187, 0.9977754105),
                (-0.05182835479, 0.01669052736, 0.9985165236),
                (-0.03789526985, 0.01804497009, 0.9991187755),
                (-0.02283593375, 0.01879311744, 0.9995625738),
                (-0.007402534677, 0.01932502372, 0.99978585),
                (0.008251758204, 0.01920432641, 0.9997815273),
                (0.01611846364, 0.0188664859, 0.999692078),
                (0.01550676928, -0.02830329949, 0.999479096),
                (0.00799275652, -0.02863413055, 0.9995580035),
                (-0.007121741656, -0.02849165771, 0.9995686601),
                (-0.02211970497, -0.02802142468, 0.999362556),
                (-0.03646054394, -0.02660714978, 0.9989808248),
                (-0.05020858177, -0.02488813201, 0.998428605),
                (-0.06247322528, -0.02233663465, 0.9977966581),
                (-0.07373524781, -0.01953155507, 0.9970865718),
                (-0.08283599678, -0.01607991975, 0.9964334568),
                (-0.09062724325, -0.01244757897, 0.99580709),
                (-0.09578216842, -0.008407276292, 0.9953668138),
                (-0.09944086772, -0.004273241236, 0.9950342975),
                (-0.1002201217, 1.449476357e-18, 0.9949652895),
                (-0.09944086772, 0.004273241236, 0.9950342975),
                (-0.09578216842, 0.008407276292, 0.9953668138),
                (-0.09062724325, 0.01244757897, 0.99580709),
                (-0.08283599678, 0.01607991975, 0.9964334568),
                (-0.07373524781, 0.01953155507, 0.9970865718),
                (-0.06247322528, 0.02233663465, 0.9977966581),
                (-0.05020858177, 0.02488813201, 0.998428605),
                (-0.03646054394, 0.02660714978, 0.9989808248),
                (-0.02211970497, 0.02802142468, 0.999362556),
                (-0.007121741656, 0.02849165771, 0.9995686601),
                (0.00799275652, 0.02863413055, 0.9995580035),
                (0.01550676928, 0.02830329949, 0.999479096),
                (0.01478888849, -0.03669285762, 0.9992171551),
                (0.007571092606, -0.03734902698, 0.9992736005),
                (-0.006791733266, -0.03758356081, 0.999270408),
                (-0.02095342871, -0.03655133107, 0.9991120828),
                (-0.03477446728, -0.03510020964, 0.99877861),
                (-0.04756851851, -0.03247056358, 0.9983400716),
                (-0.05959608144, -0.02947079162, 0.9977874421),
                (-0.06987333648, -0.02548917612, 0.9972301734),
                (-0.07903915476, -0.02121925095, 0.9966456519),
                (-0.08589844928, -0.01624873756, 0.9961713883),
                (-0.09140828477, -0.01109578059, 0.9957516805),
                (-0.09426401459, -0.005579073034, 0.9955316015),
                (-0.09565001823, 0, 0.995415026),
                (-0.09426401459, 0.005579073034, 0.9955316015),
                (-0.09140828477, 0.01109578059, 0.9957516805),
                (-0.08589844928, 0.01624873756, 0.9961713883),
                (-0.07903915476, 0.02121925095, 0.9966456519),
                (-0.06987333648, 0.02548917612, 0.9972301734),
                (-0.05959608144, 0.02947079162, 0.9977874421),
                (-0.04756851851, 0.03247056358, 0.9983400716),
                (-0.03477446728, 0.03510020964, 0.99877861),
                (-0.02095342871, 0.03655133107, 0.9991120828),
                (-0.006791733266, 0.03758356081, 0.999270408),
                (0.007571092606, 0.03734902698, 0.9992736005),
                (0.01478888849, 0.03669285762, 0.9992171551),
                (0.01376936282, -0.04543698858, 0.9988723065),
                (0.0070971228, -0.04596699105, 0.9989177477),
                (-0.006323899053, -0.04573838699, 0.9989334353),
                (-0.01964246906, -0.04498662785, 0.9987944617),
                (-0.03238272333, -0.04272210069, 0.9985620568),
                (-0.04460082312, -0.03997002106, 0.9982049709),
                (-0.05550964904, -0.03588025786, 0.997813252),
                (-0.06553192604, -0.03138287578, 0.9973568478),
                (-0.07363865032, -0.02584241177, 0.9969501085),
                (-0.08058226189, -0.02000988664, 0.9965470905),
                (-0.08517994705, -0.01351667515, 0.9962738961),
                (-0.08844394619, -0.006871320904, 0.9960574548),
                (-0.08913948142, 4.003336621e-18, 0.9960191529),
                (-0.08844394619, 0.006871320904, 0.9960574548),
                (-0.08517994705, 0.01351667515, 0.9962738961),
                (-0.08058226189, 0.02000988664, 0.9965470905),
                (-0.07363865032, 0.02584241177, 0.9969501085),
                (-0.06553192604, 0.03138287578, 0.9973568478),
                (-0.05550964904, 0.03588025786, 0.997813252),
                (-0.04460082312, 0.03997002106, 0.9982049709),
                (-0.03238272333, 0.04272210069, 0.9985620568),
                (-0.01964246906, 0.04498662785, 0.9987944617),
                (-0.006323899053, 0.04573838699, 0.9989334353),
                (0.0070971228, 0.04596699105, 0.9989177477),
                (0.01376936282, 0.04543698858, 0.9988723065),
                (0.01265686775, -0.05250370889, 0.9985405171),
                (0.006479619347, -0.05344081303, 0.9985499958),
                (-0.00581238825, -0.05377598548, 0.9985361083),
                (-0.01793414144, -0.05230357386, 0.9984701812),
                (-0.02976745856, -0.05023517595, 0.998293707),
                (-0.04072961451, -0.0464817491, 0.9980884457),
                (-0.05104053242, -0.04219949174, 0.9978046236),
                (-0.05986040685, -0.03650774197, 0.9975389298),
                (-0.06773121654, -0.03040154808, 0.9972403061),
                (-0.07362750975, -0.02328490877, 0.9970139431),
                (-0.07836591283, -0.01590447901, 0.9967977885),
                (-0.0808235024, -0.007997484683, 0.9966963438),
                (-0.08201629554, 0, 0.9966309885),
                (-0.0808235024, 0.007997484683, 0.9966963438),
                (-0.07836591283, 0.01590447901, 0.9967977885),
                (-0.07362750975, 0.02328490877, 0.9970139431),
                (-0.06773121654, 0.03040154808, 0.9972403061),
                (-0.05986040685, 0.03650774197, 0.9975389298),
                (-0.05104053242, 0.04219949174, 0.9978046236),
                (-0.04072961451, 0.0464817491, 0.9980884457),
                (-0.02976745856, 0.05023517595, 0.998293707),
                (-0.01793414144, 0.05230357386, 0.9984701812),
                (-0.00581238825, 0.05377598548, 0.9985361083),
                (0.006479619347, 0.05344081303, 0.9985499958),
                (0.01265686775, 0.05250370889, 0.9985405171),
                (0.01128670504, -0.0600805547, 0.9981297196),
                (0.005817378656, -0.06077958741, 0.9981342594),
                (-0.005183771131, -0.06047749631, 0.9981561005),
                (-0.01610197039, -0.05948852698, 0.9980991142),
                (-0.02655132877, -0.0565037217, 0.9980492755),
                (-0.03657692785, -0.05287694771, 0.9979309379),
                (-0.04553729911, -0.04747936789, 0.9978336855),
                (-0.05377474643, -0.04154196234, 0.9976885997),
                (-0.06044565832, -0.03421699449, 0.9975848433),
                (-0.06616285989, -0.02650265643, 0.9974568087),
                (-0.06995211213, -0.01790532005, 0.9973896438),
                (-0.07264299906, -0.00910408982, 0.9973164544),
                (-0.07321675994, 3.3131276e-18, 0.9973160512),
                (-0.07264299906, 0.00910408982, 0.9973164544),
                (-0.06995211213, 0.01790532005, 0.9973896438),
                (-0.06616285989, 0.02650265643, 0.9974568087),
                (-0.06044565832, 0.03421699449, 0.9975848433),
                (-0.05377474643, 0.04154196234, 0.9976885997),
                (-0.04553729911, 0.04747936789, 0.9978336855),
                (-0.03657692785, 0.05287694771, 0.9979309379),
                (-0.02655132877, 0.0565037217, 0.9980492755),
                (-0.01610197039, 0.05948852698, 0.9980991142),
                (-0.005183771131, 0.06047749631, 0.9981561005),
                (0.005817378656, 0.06077958741, 0.9981342594),
                (0.01128670504, 0.0600805547, 0.9981297196),
                (0.009841657335, -0.06544554517, 0.9978076079),
                (0.005038389166, -0.06661120082, 0.9977662865),
                (-0.004519376153, -0.06702842236, 0.997740831),
                (-0.01394633932, -0.06519928268, 0.9977748008),
                (-0.02315164224, -0.06263185017, 0.9977681358),
                (-0.03168611328, -0.05796584017, 0.99781559),
                (-0.03971821699, -0.05264172262, 0.9978232871),
                (-0.04659681457, -0.04555451453, 0.9978745027),
                (-0.05273927797, -0.03794814481, 0.9978870211),
                (-0.05734601531, -0.02907144083, 0.9979310026),
                (-0.06104989931, -0.01986221646, 0.9979370732),
                (-0.06297237263, -0.009988358249, 0.9979652865),
                (-0.06390546743, 0, 0.9979559566),
                (-0.06297237263, 0.009988358249, 0.9979652865),
                (-0.06104989931, 0.01986221646, 0.9979370732),
                (-0.05734601531, 0.02907144083, 0.9979310026),
                (-0.05273927797, 0.03794814481, 0.9978870211),
                (-0.04659681457, 0.04555451453, 0.9978745027),
                (-0.03971821699, 0.05264172262, 0.9978232871),
                (-0.03168611328, 0.05796584017, 0.99781559),
                (-0.02315164224, 0.06263185017, 0.9977681358),
                (-0.01394633932, 0.06519928268, 0.9977748008),
                (-0.004519376153, 0.06702842236, 0.997740831),
                (0.005038389166, 0.06661120082, 0.9977662865),
                (0.009841657335, 0.06544554517, 0.9978076079),
                (0.009031460457, -0.06906716008, 0.9975711304),
                (0.004226142033, -0.06987095565, 0.9975470862),
                (-0.004148495416, -0.069523624, 0.9975716795),
                (-0.01169838757, -0.06839205886, 0.9975899328),
                (-0.02125305264, -0.06496601793, 0.997661127),
                (-0.0265826883, -0.0608134074, 0.9977951143),
                (-0.03646570006, -0.05460804924, 0.9978417779),
                (-0.03910017468, -0.04780259051, 0.9980912226),
                (-0.04842758892, -0.03936934912, 0.9980505112),
                (-0.04812983142, -0.03051233433, 0.998374938),
                (-0.05606524618, -0.02060761343, 0.9982144131),
                (-0.05285850413, -0.01048472026, 0.9985469689),
                (-0.05869021442, 5.521830624e-18, 0.9982762437),
                (-0.05285850413, 0.01048472026, 0.9985469689),
                (-0.05606524618, 0.02060761343, 0.9982144131),
                (-0.04812983142, 0.03051233433, 0.998374938),
                (-0.04842758892, 0.03936934912, 0.9980505112),
                (-0.03910017468, 0.04780259051, 0.9980912226),
                (-0.03646570006, 0.05460804924, 0.9978417779),
                (-0.0265826883, 0.0608134074, 0.9977951143),
                (-0.02125305264, 0.06496601793, 0.997661127),
                (-0.01169838757, 0.06839205886, 0.9975899328),
                (-0.004148495416, 0.069523624, 0.9975716795),
                (0.004226142033, 0.06987095565, 0.9975470862),
                (0.009031460457, 0.06906716008, 0.9975711304)
            ] (
                interpolation = "vertex"
            )
            uniform token subdivisionScheme = "none"
        }
    }
    def Scope "Frames"
    {
        def Xform "root"
        {
            custom string drAnmar:role = "mesenteric_root"
            double3 xformOp:translate = (0, 0.035, -0.052)
            quatf xformOp:orient = (1, 0, 0, 0)
            uniform token[] xformOpOrder = ["xformOp:translate", "xformOp:orient"]
        }
    }
}
