#usda 1.0
(
    defaultPrim = "DrAnmarColon"
    doc = "Colon: modular component of the DrAnmar dynamic abdominal research patient."
    kilogramsPerUnit = 1
    metersPerUnit = 1
    upAxis = "Z"
)

def Xform "DrAnmarColon" (
    assetInfo = {
        string name = "DrAnmarColon"
        string version = "0.1.0"
    }
    kind = "component"
)
{
    custom string drAnmar:assetId = "dranmar-dynamic-abdominal-patient-v1:colon"
    custom string drAnmar:category = "organ"
    custom string drAnmar:mechanics = "segmented_surface_deformable"
    custom float drAnmar:densityKgM3 = 1035
    custom float drAnmar:massKg = 0.55
    custom float drAnmar:youngsModulusPa = 35000
    custom float drAnmar:poissonsRatio = 0.47
    custom float drAnmar:damping = 0.22
    custom float drAnmar:perfusionFraction = 0.08
    custom vector3f drAnmar:respirationCoupling = (0, 0.001, 0.004)
    custom float drAnmar:pulsationFraction = 0
    custom bool drAnmar:clinicalValidation = false
    def Scope "Looks"
    {
        def Material "Colon"
        {
            def Shader "PreviewSurface"
            {
                uniform token info:id = "UsdPreviewSurface"
                color3f inputs:diffuseColor = (0.66, 0.34, 0.25)
                float inputs:metallic = 0
                float inputs:roughness = 0.54
                float inputs:opacity = 1
                token outputs:surface
            }
            token outputs:surface.connect = </DrAnmarColon/Looks/Colon/PreviewSurface.outputs:surface>
        }
    }
    def Xform "Geometry"
    {
        def Mesh "Visual" (
            prepend apiSchemas = ["MaterialBindingAPI"]
        )
        {
            rel material:binding = </DrAnmarColon/Looks/Colon>
            custom token[] drAnmar:labels = ["colon", "hollow_organ", "digestive"]
            uniform bool doubleSided = false
            float3[] extent = [(-0.1299899517, -0.09220646204, -0.038960163), (0.1298050476, 0.1059026489, 0.01596707489)]
            int[] faceVertexCounts = [3, 3, 3, 3, 3, 3, 3, 3, 3, 3, 3, 3, 3, 3, 3, 3, 3, 3, 3, 3, 3, 3, 3, 3, 3, 3, 3, 3, 3, 3, 3, 3, 3, 3, 3, 3, 3, 3, 3, 3, 3, 3, 3, 3, 3, 3, 3, 3, 3, 3, 3, 3, 3, 3, 3, 3, 3, 3, 3, 3, 3, 3, 3, 3, 3, 3, 3, 3, 3, 3, 3, 3, 3, 3, 3, 3, 3, 3, 3, 3, 3, 3, 3, 3, 3, 3, 3, 3, 3, 3, 3, 3, 3, 3, 3, 3, 3, 3, 3, 3, 3, 3, 3, 3, 3, 3, 3, 3, 3, 3, 3, 3, 3, 3, 3, 3, 3, 3, 3, 3, 3, 3, 3, 3, 3, 3, 3, 3, 3, 3, 3, 3, 3, 3, 3, 3, 3, 3, 3, 3, 3, 3, 3, 3, 3, 3, 3, 3, 3, 3, 3, 3, 3, 3, 3, 3, 3, 3, 3, 3, 3, 3, 3, 3, 3, 3, 3, 3, 3, 3, 3, 3, 3, 3, 3, 3, 3, 3, 3, 3, 3, 3, 3, 3, 3, 3, 3, 3, 3, 3, 3, 3, 3, 3, 3, 3, 3, 3, 3, 3, 3, 3, 3, 3, 3, 3, 3, 3, 3, 3, 3, 3, 3, 3, 3, 3, 3, 3, 3, 3, 3, 3, 3, 3, 3, 3, 3, 3, 3, 3, 3, 3, 3, 3, 3, 3, 3, 3, 3, 3, 3, 3, 3, 3, 3, 3, 3, 3, 3, 3, 3, 3, 3, 3, 3, 3, 3, 3, 3, 3, 3, 3, 3, 3, 3, 3, 3, 3, 3, 3, 3, 3, 3, 3, 3, 3, 3, 3, 3, 3, 3, 3, 3, 3, 3, 3, 3, 3, 3, 3, 3, 3, 3, 3, 3, 3, 3, 3, 3, 3, 3, 3, 3, 3, 3, 3, 3, 3, 3, 3, 3, 3, 3, 3, 3, 3, 3, 3, 3, 3, 3, 3, 3, 3]
            int[] faceVertexIndices = [0, 1, 19, 0, 19, 18, 1, 2, 20, 1, 20, 19, 2, 3, 21, 2, 21, 20, 3, 4, 22, 3, 22, 21, 4, 5, 23, 4, 23, 22, 5, 6, 24, 5, 24, 23, 6, 7, 25, 6, 25, 24, 7, 8, 26, 7, 26, 25, 8, 9, 27, 8, 27, 26, 9, 10, 28, 9, 28, 27, 10, 11, 29, 10, 29, 28, 11, 12, 30, 11, 30, 29, 12, 13, 31, 12, 31, 30, 13, 14, 32, 13, 32, 31, 14, 15, 33, 14, 33, 32, 15, 16, 34, 15, 34, 33, 16, 17, 35, 16, 35, 34, 17, 0, 18, 17, 18, 35, 18, 19, 37, 18, 37, 36, 19, 20, 38, 19, 38, 37, 20, 21, 39, 20, 39, 38, 21, 22, 40, 21, 40, 39, 22, 23, 41, 22, 41, 40, 23, 24, 42, 23, 42, 41, 24, 25, 43, 24, 43, 42, 25, 26, 44, 25, 44, 43, 26, 27, 45, 26, 45, 44, 27, 28, 46, 27, 46, 45, 28, 29, 47, 28, 47, 46, 29, 30, 48, 29, 48, 47, 30, 31, 49, 30, 49, 48, 31, 32, 50, 31, 50, 49, 32, 33, 51, 32, 51, 50, 33, 34, 52, 33, 52, 51, 34, 35, 53, 34, 53, 52, 35, 18, 36, 35, 36, 53, 36, 37, 55, 36, 55, 54, 37, 38, 56, 37, 56, 55, 38, 39, 57, 38, 57, 56, 39, 40, 58, 39, 58, 57, 40, 41, 59, 40, 59, 58, 41, 42, 60, 41, 60, 59, 42, 43, 61, 42, 61, 60, 43, 44, 62, 43, 62, 61, 44, 45, 63, 44, 63, 62, 45, 46, 64, 45, 64, 63, 46, 47, 65, 46, 65, 64, 47, 48, 66, 47, 66, 65, 48, 49, 67, 48, 67, 66, 49, 50, 68, 49, 68, 67, 50, 51, 69, 50, 69, 68, 51, 52, 70, 51, 70, 69, 52, 53, 71, 52, 71, 70, 53, 36, 54, 53, 54, 71, 54, 55, 73, 54, 73, 72, 55, 56, 74, 55, 74, 73, 56, 57, 75, 56, 75, 74, 57, 58, 76, 57, 76, 75, 58, 59, 77, 58, 77, 76, 59, 60, 78, 59, 78, 77, 60, 61, 79, 60, 79, 78, 61, 62, 80, 61, 80, 79, 62, 63, 81, 62, 81, 80, 63, 64, 82, 63, 82, 81, 64, 65, 83, 64, 83, 82, 65, 66, 84, 65, 84, 83, 66, 67, 85, 66, 85, 84, 67, 68, 86, 67, 86, 85, 68, 69, 87, 68, 87, 86, 69, 70, 88, 69, 88, 87, 70, 71, 89, 70, 89, 88, 71, 54, 72, 71, 72, 89, 72, 73, 91, 72, 91, 90, 73, 74, 92, 73, 92, 91, 74, 75, 93, 74, 93, 92, 75, 76, 94, 75, 94, 93, 76, 77, 95, 76, 95, 94, 77, 78, 96, 77, 96, 95, 78, 79, 97, 78, 97, 96, 79, 80, 98, 79, 98, 97, 80, 81, 99, 80, 99, 98, 81, 82, 100, 81, 100, 99, 82, 83, 101, 82, 101, 100, 83, 84, 102, 83, 102, 101, 84, 85, 103, 84, 103, 102, 85, 86, 104, 85, 104, 103, 86, 87, 105, 86, 105, 104, 87, 88, 106, 87, 106, 105, 88, 89, 107, 88, 107, 106, 89, 72, 90, 89, 90, 107, 90, 91, 109, 90, 109, 108, 91, 92, 110, 91, 110, 109, 92, 93, 111, 92, 111, 110, 93, 94, 112, 93, 112, 111, 94, 95, 113, 94, 113, 112, 95, 96, 114, 95, 114, 113, 96, 97, 115, 96, 115, 114, 97, 98, 116, 97, 116, 115, 98, 99, 117, 98, 117, 116, 99, 100, 118, 99, 118, 117, 100, 101, 119, 100, 119, 118, 101, 102, 120, 101, 120, 119, 102, 103, 121, 102, 121, 120, 103, 104, 122, 103, 122, 121, 104, 105, 123, 104, 123, 122, 105, 106, 124, 105, 124, 123, 106, 107, 125, 106, 125, 124, 107, 90, 108, 107, 108, 125, 108, 109, 127, 108, 127, 126, 109, 110, 128, 109, 128, 127, 110, 111, 129, 110, 129, 128, 111, 112, 130, 111, 130, 129, 112, 113, 131, 112, 131, 130, 113, 114, 132, 113, 132, 131, 114, 115, 133, 114, 133, 132, 115, 116, 134, 115, 134, 133, 116, 117, 135, 116, 135, 134, 117, 118, 136, 117, 136, 135, 118, 119, 137, 118, 137, 136, 119, 120, 138, 119, 138, 137, 120, 121, 139, 120, 139, 138, 121, 122, 140, 121, 140, 139, 122, 123, 141, 122, 141, 140, 123, 124, 142, 123, 142, 141, 124, 125, 143, 124, 143, 142, 125, 108, 126, 125, 126, 143, 126, 127, 145, 126, 145, 144, 127, 128, 146, 127, 146, 145, 128, 129, 147, 128, 147, 146, 129, 130, 148, 129, 148, 147, 130, 131, 149, 130, 149, 148, 131, 132, 150, 131, 150, 149, 132, 133, 151, 132, 151, 150, 133, 134, 152, 133, 152, 151, 134, 135, 153, 134, 153, 152, 135, 136, 154, 135, 154, 153, 136, 137, 155, 136, 155, 154, 137, 138, 156, 137, 156, 155, 138, 139, 157, 138, 157, 156, 139, 140, 158, 139, 158, 157, 140, 141, 159, 140, 159, 158, 141, 142, 160, 141, 160, 159, 142, 143, 161, 142, 161, 160, 143, 126, 144, 143, 144, 161, 162, 1, 0, 163, 144, 145, 162, 2, 1, 163, 145, 146, 162, 3, 2, 163, 146, 147, 162, 4, 3, 163, 147, 148, 162, 5, 4, 163, 148, 149, 162, 6, 5, 163, 149, 150, 162, 7, 6, 163, 150, 151, 162, 8, 7, 163, 151, 152, 162, 9, 8, 163, 152, 153, 162, 10, 9, 163, 153, 154, 162, 11, 10, 163, 154, 155, 162, 12, 11, 163, 155, 156, 162, 13, 12, 163, 156, 157, 162, 14, 13, 163, 157, 158, 162, 15, 14, 163, 158, 159, 162, 16, 15, 163, 159, 160, 162, 17, 16, 163, 160, 161, 162, 0, 17, 163, 161, 144]
            point3f[] points = [
                (-0.09114070709, -0.08802010101, -0.025),
                (-0.09202428828, -0.08780515861, -0.02977635601),
                (-0.09447293181, -0.08785494647, -0.03397661299),
                (-0.09819129512, -0.08816345945, -0.03709415796),
                (-0.1027308887, -0.08869348632, -0.03875296899),
                (-0.1075441706, -0.08938109802, -0.03875296899),
                (-0.112050588, -0.09014335844, -0.03709415796),
                (-0.1157066005, -0.09088832771, -0.03397661299),
                (-0.1180712388, -0.09152615155, -0.02977635601),
                (-0.1188592929, -0.09197989899, -0.025),
                (-0.1179757117, -0.09219484139, -0.02022364399),
                (-0.1155270682, -0.09214505353, -0.01602338701),
                (-0.1118087049, -0.09183654055, -0.01290584204),
                (-0.1072691113, -0.09130651368, -0.01124703101),
                (-0.1024558294, -0.09061890198, -0.01124703101),
                (-0.09794941196, -0.08985664156, -0.01290584204),
                (-0.09429339955, -0.08911167229, -0.01602338701),
                (-0.09192876116, -0.08847384845, -0.02022364399),
                (-0.1000100483, -0.0194702142, -0.0201437832),
                (-0.1009791752, -0.01904630823, -0.02524470638),
                (-0.1036394206, -0.01873743156, -0.02971304056),
                (-0.1076699195, -0.01858083927, -0.03300983871),
                (-0.1125845343, -0.01859541872, -0.0347374583),
                (-0.1177904899, -0.01877941139, -0.03468752291),
                (-0.1226598713, -0.01911062507, -0.0328660555),
                (-0.1266053591, -0.01954911049, -0.02949275192),
                (-0.1291510693, -0.02004197983, -0.02497448235),
                (-0.1299899517, -0.0205297858, -0.0198562168),
                (-0.1290208248, -0.02095369177, -0.01475529362),
                (-0.1263605794, -0.02126256844, -0.01028695944),
                (-0.1223300805, -0.02141916073, -0.006990161295),
                (-0.1174154657, -0.02140458128, -0.005262541704),
                (-0.1122095101, -0.02122058861, -0.005312477086),
                (-0.1073401287, -0.02088937493, -0.007133944496),
                (-0.1033946409, -0.02045088951, -0.01050724808),
                (-0.1008489307, -0.01995802017, -0.01502551765),
                (-0.09527268454, 0.04885066381, -0.01313659306),
                (-0.09624130281, 0.05002910874, -0.01847985277),
                (-0.09886942303, 0.05180711653, -0.0230415466),
                (-0.1028400551, 0.05397023318, -0.02627146696),
                (-0.1076742822, 0.0562575549, -0.02778003778),
                (-0.1127890252, 0.05839319695, -0.02738530315),
                (-0.1175673706, 0.06011956937, -0.0251348739),
                (-0.1214329794, 0.06122844616, -0.02130018501),
                (-0.1239196021, 0.06158608042, -0.01634375655),
                (-0.1247273155, 0.06114933619, -0.01086340694),
                (-0.1237586972, 0.05997089126, -0.005520147233),
                (-0.121130577, 0.05819288347, -0.0009584533984),
                (-0.1171599449, 0.05602976682, 0.00227146696),
                (-0.1123257178, 0.0537424451, 0.003780037779),
                (-0.1072109748, 0.05160680305, 0.003385303152),
                (-0.1024326294, 0.04988043063, 0.001134873903),
                (-0.09856702063, 0.04877155384, -0.002699814989),
                (-0.09608039786, 0.04841391958, -0.007656243449),
                (-0.06491823904, 0.07025861861, -0.008587113096),
                (-0.06507338394, 0.07249019051, -0.01367370283),
                (-0.06582275145, 0.07623063005, -0.01771411599),
                (-0.06707595679, 0.08102878504, -0.02022101912),
                (-0.06868184489, 0.08630592715, -0.02089204271),
                (-0.07044672195, 0.09142555518, -0.0196462514),
                (-0.07215771775, 0.09577016642, -0.01663390602),
                (-0.07360846095, 0.09881573664, -0.01221833988),
                (-0.0746239705, 0.1001949251, -0.006932135414),
                (-0.07508176096, 0.09974138139, -0.001412886904),
                (-0.07492661606, 0.09750980949, 0.003673702827),
                (-0.07417724855, 0.09376936995, 0.007714115987),
                (-0.07292404321, 0.08897121496, 0.01022101912),
                (-0.07131815511, 0.08369407285, 0.01089204271),
                (-0.06955327805, 0.07857444482, 0.009646251402),
                (-0.06784228225, 0.07422983358, 0.006633906023),
                (-0.06639153905, 0.07118426336, 0.002218339879),
                (-0.0653760295, 0.06980507487, -0.003067864586),
                (0, 0.07445365062, -0.003782991023),
                (0, 0.07668506934, -0.00887201339),
                (0, 0.08052246521, -0.01289094001),
                (0, 0.08550299164, -0.01535502901),
                (0, 0.09102592365, -0.01596707489),
                (0, 0.09642511413, -0.0146532559),
                (0, 0.101049341, -0.01157203798),
                (0, 0.1043408543, -0.007095061504),
                (0, 0.1059026489, -0.001762315893),
                (0, 0.1055463494, 0.003782991023),
                (0, 0.1033149307, 0.00887201339),
                (0, 0.09947753479, 0.01289094001),
                (0, 0.09449700836, 0.01535502901),
                (0, 0.08897407635, 0.01596707489),
                (0, 0.08357488587, 0.0146532559),
                (0, 0.07895065898, 0.01157203798),
                (0, 0.07565914569, 0.007095061504),
                (0, 0.07409735108, 0.001762315893),
                (0.06492280301, 0.07022098043, -0.008435498707),
                (0.06506070322, 0.07240551151, -0.01354296243),
                (0.06579435552, 0.07610912378, -0.0176200188),
                (0.06703527061, 0.08088510693, -0.02017491465),
                (0.06863377582, 0.08615740692, -0.02089949184),
                (0.07039706783, 0.09129010655, -0.01970635566),
                (0.0721124676, 0.0956641265, -0.01673941594),
                (0.0735730726, 0.0987518954, -0.01235652941),
                (0.07460271231, 0.1001809828, -0.00708633686),
                (0.07507719699, 0.09977901957, -0.001564501293),
                (0.07493929678, 0.09759448849, 0.003542962428),
                (0.07420564448, 0.09389087622, 0.007620018799),
                (0.07296472939, 0.08911489307, 0.01017491465),
                (0.07136622418, 0.08384259308, 0.01089949184),
                (0.06960293217, 0.07870989345, 0.009706355658),
                (0.0678875324, 0.0743358735, 0.006739415944),
                (0.0664269274, 0.0712481046, 0.002356529411),
                (0.06539728769, 0.06981901723, -0.00291366314),
                (0.09538262735, 0.04913899297, -0.01482506873),
                (0.09688373577, 0.05052070351, -0.01999371726),
                (0.09996685923, 0.05244268332, -0.02419820551),
                (0.1042601275, 0.05467311326, -0.02693141016),
                (0.1092457092, 0.05694297056, -0.02786366637),
                (0.1143222694, 0.05897847694, -0.0268825303),
                (0.1188775002, 0.06053412029, -0.02410634143),
                (0.1223619734, 0.06142226705, -0.01986994911),
                (0.1243554102, 0.06153579363, -0.01468432479),
                (0.1246173727, 0.06086100703, -0.009174931273),
                (0.1231162642, 0.05947929649, -0.004006282742),
                (0.1200331408, 0.05755731668, 0.0001982055131),
                (0.1157398725, 0.05532688674, 0.002931410157),
                (0.1107542908, 0.05305702944, 0.003863666372),
                (0.1056777306, 0.05102152306, 0.0028825303),
                (0.1011224998, 0.04946587971, 0.0001063414306),
                (0.09763802658, 0.04857773295, -0.004130050886),
                (0.0956445898, 0.04846420637, -0.009315675213),
                (0.1001949524, -0.01928314403, -0.02230145215),
                (0.1018932233, -0.01890149418, -0.02721149696),
                (0.1051723649, -0.01865234034, -0.0312517288),
                (0.1096368643, -0.01856573415, -0.03393483609),
                (0.1147482371, -0.01865212159, -0.0349371965),
                (0.1198899761, -0.01890108306, -0.03413791055),
                (0.1244419119, -0.01928259013, -0.03163338394),
                (0.1278550138, -0.01975062741, -0.02772569954),
                (0.1297176113, -0.02024874271, -0.02288618175),
                (0.1298050476, -0.02071685597, -0.01769854785),
                (0.1281067767, -0.02109850582, -0.01278850304),
                (0.1248276351, -0.02134765966, -0.008748271198),
                (0.1203631357, -0.02143426585, -0.006065163906),
                (0.1152517629, -0.02134787841, -0.005062803502),
                (0.1101100239, -0.02109891694, -0.005862089446),
                (0.1055580881, -0.02071740987, -0.008366616055),
                (0.1021449862, -0.02024937259, -0.01227430046),
                (0.1002823887, -0.01975125729, -0.01711381825),
                (0.0913125032, -0.0878976892, -0.02705735766),
                (0.09288352759, -0.08779353796, -0.03165752369),
                (0.09591597738, -0.08795551862, -0.03545469411),
                (0.1000440944, -0.0883640939, -0.03799087413),
                (0.1047699667, -0.0889699836, -0.038960163),
                (0.1095235845, -0.08970010848, -0.03824565018),
                (0.1137315912, -0.09046640471, -0.03593351647),
                (0.1168864391, -0.09117644564, -0.0323026393),
                (0.1186076071, -0.09174458986, -0.02779095607),
                (0.1186874968, -0.0921023108, -0.02294264234),
                (0.1171164724, -0.09220646204, -0.01834247631),
                (0.1140840226, -0.09204448138, -0.01454530589),
                (0.1099559056, -0.0916359061, -0.01200912587),
                (0.1052300333, -0.0910300164, -0.011039837),
                (0.1004764155, -0.09029989152, -0.01175434982),
                (0.09626840883, -0.08953359529, -0.01406648353),
                (0.09311356088, -0.08882355436, -0.0176973607),
                (0.09139239292, -0.08825541014, -0.02220904393),
                (-0.105, -0.09, -0.025),
                (0.105, -0.09, -0.025)
            ]
            normal3f[] normals = [
                (0.8257132258, -0.5620816451, -0.04755936266),
                (0.7790994137, -0.5508604942, -0.2992604542),
                (0.65000244, -0.5536172662, -0.5205811661),
                (0.4540151098, -0.5699612526, -0.684846297),
                (0.2147631922, -0.5978809143, -0.7722792135),
                (-0.03893773072, -0.6340065705, -0.7723467626),
                (-0.2765181573, -0.6740147037, -0.6850123268),
                (-0.4693080015, -0.7131293218, -0.5207653696),
                (-0.5940018553, -0.7466736217, -0.2993998973),
                (-0.6355138552, -0.770617932, -0.04764601437),
                (-0.5888379001, -0.7820623629, 0.2040793668),
                (-0.4596512219, -0.779593412, 0.4253879009),
                (-0.2635883935, -0.7634670419, 0.5896093917),
                (-0.02431115067, -0.7355930765, 0.6769872922),
                (0.229352649, -0.6993199241, 0.6770147755),
                (0.4668513709, -0.6590400443, 0.5896745013),
                (0.6595537504, -0.619656449, 0.4254582653),
                (0.7841950168, -0.5859718252, 0.2041450362),
                (0.999455985, 0.03077329844, -0.01186331337),
                (0.9329926102, 0.05742187835, -0.3552851209),
                (0.7520765944, 0.07522517104, -0.6547686384),
                (0.4796564297, 0.08284768672, -0.8735364733),
                (0.149907581, 0.08002926052, -0.9854557497),
                (-0.1965677726, 0.06732392478, -0.97817616),
                (-0.5181273984, 0.04600503995, -0.8540652992),
                (-0.7770745633, 0.01809523746, -0.6291483812),
                (-0.9436612403, -0.01363114389, -0.3306322056),
                (-0.9989309073, -0.04578163519, 0.006409709496),
                (-0.9364408819, -0.07461902566, 0.34279801),
                (-0.7629311738, -0.09643721033, 0.6392463441),
                (-0.4979125554, -0.108034472, 0.8604717543),
                (-0.172029034, -0.1072933204, 0.9792314103),
                (0.1759774211, -0.0937845345, 0.9799165313),
                (0.5037000639, -0.06915102436, 0.8611064867),
                (0.770487823, -0.03697515366, 0.6363814521),
                (0.9429476753, -0.002037096954, 0.3329347263),
                (0.8720329833, -0.4807145801, -0.09204329695),
                (0.8098048761, -0.3905721248, -0.4378007287),
                (0.6421325382, -0.2513797967, -0.7242057727),
                (0.3946845566, -0.08143752378, -0.9152005411),
                (0.1015669439, 0.09549539068, -0.9902347127),
                (-0.2007559762, 0.2545793286, -0.9459843569),
                (-0.4776825838, 0.3772552259, -0.7934090015),
                (-0.6989478205, 0.4534801666, -0.553016892),
                (-0.8406761158, 0.479205273, -0.2522418972),
                (-0.8875893967, 0.4542866717, 0.07621471521),
                (-0.8347165215, 0.3817457564, 0.3968860117),
                (-0.6879256567, 0.2673144595, 0.6747601578),
                (-0.4630440967, 0.1191997393, 0.878283318),
                (-0.1839292027, -0.05057319921, 0.9816376113),
                (0.1193917577, -0.2228100634, 0.967523273),
                (0.4119944327, -0.3713422325, 0.832085052),
                (0.6565118157, -0.4717513043, 0.588594039),
                (0.8181817653, -0.5094919745, 0.2664517345),
                (0.3449291302, -0.9114549966, -0.2242179393),
                (0.3335691086, -0.7658236699, -0.5497688209),
                (0.2804417434, -0.5233146564, -0.8046702424),
                (0.1895986761, -0.2174400798, -0.957482195),
                (0.07168366544, 0.1110715963, -0.9912237652),
                (-0.05693933069, 0.4213783249, -0.9050956965),
                (-0.1784194635, 0.678000339, -0.713079263),
                (-0.2778246236, 0.8537752196, -0.4403196031),
                (-0.3447735722, 0.931103251, -0.119071071),
                (-0.3729988511, 0.9026422418, 0.2147296914),
                (-0.3597447191, 0.7716859072, 0.5244850786),
                (-0.3057685325, 0.5518959914, 0.7758327263),
                (-0.2159707245, 0.2663140763, 0.9393792945),
                (-0.1002793685, -0.05411877303, 0.9934863898),
                (0.02650455202, -0.3725841218, 0.9276198472),
                (0.14735176, -0.6496260539, 0.7458374145),
                (0.2470949915, -0.8482015296, 0.4685063825),
                (0.3150365385, -0.9400635289, 0.1305087777),
                (0.0001168999499, -0.9730732523, -0.2304960565),
                (-0.0001760973576, -0.8337638781, -0.5521211503),
                (-0.0002339208678, -0.5915480851, -0.8062696871),
                (-3.791791504e-05, -0.276294716, -0.9610729569),
                (0.0002921623035, 0.07255490496, -0.9973643769),
                (0.0005798330099, 0.4114865818, -0.9114156334),
                (0.0006920139351, 0.6990303881, -0.7150916288),
                (0.0005952691357, 0.9011245596, -0.4335598848),
                (0.000350256457, 0.9948433703, -0.1014226106),
                (6.806248604e-05, 0.9703386556, 0.2417496409),
                (-0.0001375531473, 0.8312849834, 0.5558464334),
                (-0.0001846731369, 0.594155244, 0.8043503664),
                (-4.571546216e-05, 0.2864835271, 0.9580851667),
                (0.0002381488875, -0.05587905491, 0.9984375166),
                (0.0005575380652, -0.3925131775, 0.9197462121),
                (0.0007660870907, -0.6830021609, 0.7304159509),
                (0.0007474380217, -0.8918392459, 0.4523518552),
                (0.0004904070441, -0.9929418179, 0.118601458),
                (-0.3450749025, -0.9140394208, -0.2132023659),
                (-0.3367547016, -0.7708591536, -0.5407147457),
                (-0.2845245743, -0.5301981438, -0.7987087673),
                (-0.1929678449, -0.2256308664, -0.9549105314),
                (-0.07395204215, 0.1022706771, -0.9920039335),
                (0.05537561009, 0.4129688652, -0.909060096),
                (0.1771336638, 0.6711457817, -0.7198520716),
                (0.2767236897, 0.8495092534, -0.4491748301),
                (0.3440127624, 0.9300708231, -0.1289320882),
                (0.3727775678, 0.9049650979, 0.2051220528),
                (0.3602114044, 0.7769517896, 0.516327087),
                (0.3070780963, 0.5592504569, 0.7700272523),
                (0.218426719, 0.2746416237, 0.9364089635),
                (0.1043564989, -0.04595356864, 0.9934777253),
                (-0.02052847379, -0.3655166144, 0.9305784149),
                (-0.140081052, -0.6443148857, 0.7518215393),
                (-0.2403609797, -0.8451632574, 0.4774156133),
                (-0.3111640483, -0.9397717007, 0.1414428706),
                (-0.8643773674, -0.4607393228, -0.2014225489),
                (-0.7667963505, -0.3557943003, -0.5342600236),
                (-0.5715491079, -0.2039690669, -0.7948133347),
                (-0.3073143396, -0.02633446336, -0.9512436033),
                (-0.008719889583, 0.1500902258, -0.9886338491),
                (0.2885842502, 0.3004333123, -0.90909788),
                (0.5512928269, 0.4091067159, -0.7271230391),
                (0.7507343265, 0.4689284455, -0.4652999935),
                (0.8651948648, 0.4776373889, -0.1526445891),
                (0.8821937242, 0.4363218024, 0.1770805402),
                (0.7998874311, 0.3490589685, 0.4881986625),
                (0.6271317506, 0.2226472308, 0.7464140795),
                (0.3822464624, 0.06677248352, 0.9216447675),
                (0.0911547334, -0.104196483, 0.990370591),
                (-0.2140691697, -0.2690345561, 0.9390392954),
                (-0.4966570342, -0.4028680441, 0.7687841891),
                (-0.7187701321, -0.4855062735, 0.4976476219),
                (-0.847894739, -0.5057159806, 0.1591410019),
                (-0.9865779242, 0.04351956999, -0.1573850265),
                (-0.8706428771, 0.0671104787, -0.4873162876),
                (-0.6483099941, 0.08069431376, -0.7570882242),
                (-0.3475731375, 0.08349296419, -0.9339281766),
                (-0.005792594966, 0.07586403066, -0.9971013463),
                (0.3353612214, 0.05893745154, -0.9402442385),
                (0.6352389763, 0.03445853892, -0.7715465327),
                (0.858927254, 0.00478839051, -0.5120752323),
                (0.9808549441, -0.0271121982, -0.1928432198),
                (0.9871730391, -0.05782999833, 0.1488122381),
                (0.8769803816, -0.08377744195, 0.4731667259),
                (0.6624770367, -0.1015620792, 0.7421652915),
                (0.3680243192, -0.1084408697, 0.9234709948),
                (0.02797588065, -0.1028603816, 0.9943023142),
                (-0.3168621534, -0.08499106524, 0.9446559662),
                (-0.6240713056, -0.05702088563, 0.7792840458),
                (-0.8552360755, -0.02294574773, 0.5177303814),
                (-0.9813072327, 0.01221319037, 0.1920597644),
                (-0.8166710405, -0.5556185174, -0.1560015213),
                (-0.7338308636, -0.5502396112, -0.3984076227),
                (-0.5739732782, -0.5589146124, -0.5984723318),
                (-0.3563981581, -0.5805387997, -0.732089513),
                (-0.1073291819, -0.6124630394, -0.7831790804),
                (0.1432368631, -0.6508334797, -0.7455863349),
                (0.3651058334, -0.6910544689, -0.6238120321),
                (0.531497304, -0.7283233002, -0.4324994638),
                (0.6222873911, -0.7581858241, -0.1947117334),
                (0.6264823309, -0.7770578449, 0.06083580151),
                (0.5435821628, -0.7826534681, 0.3032688267),
                (0.3836354362, -0.7742663827, 0.5033243693),
                (0.1659836346, -0.7528665146, 0.6368998699),
                (-0.08311300459, -0.720998154, 0.6879345103),
                (-0.3336444151, -0.6824891245, 0.6502999302),
                (-0.5554332272, -0.6419998466, 0.5285169128),
                (-0.7217370484, -0.6044584181, 0.337232344),
                (-0.812472623, -0.5744465684, 0.09949561223),
                (0.1410691232, -0.9874838622, -0.07053456159),
                (-0.1410691232, -0.9874838622, -0.07053456159)
            ] (
                interpolation = "vertex"
            )
            uniform token subdivisionScheme = "none"
        }
    }
    def Scope "Frames"
    {
        def Xform "sigmoid_target"
        {
            custom string drAnmar:role = "sigmoid_target"
            double3 xformOp:translate = (-0.095, -0.075, -0.025)
            quatf xformOp:orient = (1, 0, 0, 0)
            uniform token[] xformOpOrder = ["xformOp:translate", "xformOp:orient"]
        }
        def Xform "transverse_target"
        {
            custom string drAnmar:role = "transverse_colon_target"
            double3 xformOp:translate = (0, 0.09, 0)
            quatf xformOp:orient = (1, 0, 0, 0)
            uniform token[] xformOpOrder = ["xformOp:translate", "xformOp:orient"]
        }
    }
}
