#usda 1.0
(
    defaultPrim = "DrAnmarSuturableTissue"
    doc = "DrAnmar Suturable Tissue: two-flap open-incision deformable tissue research asset; not clinically validated."
    kilogramsPerUnit = 1
    metersPerUnit = 1
    upAxis = "Z"
)

def Xform "DrAnmarSuturableTissue" (
    customData = {
        string drAnmarAssetId = "dr-anmar-suturable-tissue"
        string drAnmarAssetName = "DrAnmar Suturable Tissue"
        string drAnmarAssetVersion = "1.0.0"
        string drAnmarAuthorship = "Independent Dr.Anmar procedural geometry, topology, mechanics and calibration contract"
        bool drAnmarClinicalValidation = false
        int drAnmarConnectedComponents = 1
        string drAnmarProfileId = "dr-anmar-suturable-tissue-v1"
        string drAnmarRepresentation = "watertight_surface_for_native_physx_tetrahedral_cooking"
        int drAnmarSimToRealGapCount = 10
        int drAnmarSurfaceTriangleCount = 1344
        int drAnmarTetrahedronCount = 5184
        int drAnmarVertexCount = 1235
        string drAnmarWoundTopology = "two_disconnected_watertight_flaps_with_open_incision"
        string drAnmarStatus = "research_informed_engineering_model_pending_bench_and_clinical_validation"
    }
)
{
    def Scope "Materials"
    {
        def Material "Surface"
        {
            def Shader "PreviewSurface"
            {
                uniform token info:id = "UsdPreviewSurface"
                color3f inputs:diffuseColor = (0.58, 0.18, 0.16)
                float inputs:metallic = 0
                float inputs:roughness = 0.58
                token outputs:surface
            }
            token outputs:surface.connect = </DrAnmarSuturableTissue/Materials/Surface/PreviewSurface.outputs:surface>
        }

        def Material "Bulk"
        {
            def Shader "PreviewSurface"
            {
                uniform token info:id = "UsdPreviewSurface"
                color3f inputs:diffuseColor = (0.72, 0.31, 0.26)
                float inputs:metallic = 0
                float inputs:roughness = 0.58
                token outputs:surface
            }
            token outputs:surface.connect = </DrAnmarSuturableTissue/Materials/Bulk/PreviewSurface.outputs:surface>
        }

        def Material "Fascia"
        {
            def Shader "PreviewSurface"
            {
                uniform token info:id = "UsdPreviewSurface"
                color3f inputs:diffuseColor = (0.82, 0.66, 0.45)
                float inputs:metallic = 0
                float inputs:roughness = 0.58
                token outputs:surface
            }
            token outputs:surface.connect = </DrAnmarSuturableTissue/Materials/Fascia/PreviewSurface.outputs:surface>
        }

        def Material "Wound"
        {
            def Shader "PreviewSurface"
            {
                uniform token info:id = "UsdPreviewSurface"
                color3f inputs:diffuseColor = (0.36, 0.035, 0.025)
                float inputs:metallic = 0
                float inputs:roughness = 0.58
                token outputs:surface
            }
            token outputs:surface.connect = </DrAnmarSuturableTissue/Materials/Wound/PreviewSurface.outputs:surface>
        }
    }

    def Mesh "Surface" (
        prepend apiSchemas = ["PhysicsCollisionAPI", "PhysicsMeshCollisionAPI", "MaterialBindingAPI"]
    )
    {
        uniform token physics:approximation = "none"
        float3[] extent = [(-0.035, -0.0225, -0.003), (-0.00155, 0.0225, 0.003)]
int[] faceVertexCounts = [3, 3, 3, 3, 3, 3, 3, 3, 3, 3, 3, 3, 3, 3, 3, 3, 3, 3, 3, 3, 3, 3, 3, 3, 3, 3, 3, 3, 3, 3, 3, 3, 3, 3, 3, 3, 3, 3, 3, 3, 3, 3, 3, 3, 3, 3, 3, 3, 3, 3, 3, 3, 3, 3, 3, 3, 3, 3, 3, 3, 3, 3, 3, 3, 3, 3, 3, 3, 3, 3, 3, 3, 3, 3, 3, 3, 3, 3, 3, 3, 3, 3, 3, 3, 3, 3, 3, 3, 3, 3, 3, 3, 3, 3, 3, 3, 3, 3, 3, 3, 3, 3, 3, 3, 3, 3, 3, 3, 3, 3, 3, 3, 3, 3, 3, 3, 3, 3, 3, 3, 3, 3, 3, 3, 3, 3, 3, 3, 3, 3, 3, 3, 3, 3, 3, 3, 3, 3, 3, 3, 3, 3, 3, 3, 3, 3, 3, 3, 3, 3, 3, 3, 3, 3, 3, 3, 3, 3, 3, 3, 3, 3, 3, 3, 3, 3, 3, 3, 3, 3, 3, 3, 3, 3, 3, 3, 3, 3, 3, 3, 3, 3, 3, 3, 3, 3, 3, 3, 3, 3, 3, 3, 3, 3, 3, 3, 3, 3, 3, 3, 3, 3, 3, 3, 3, 3, 3, 3, 3, 3, 3, 3, 3, 3, 3, 3, 3, 3, 3, 3, 3, 3, 3, 3, 3, 3, 3, 3, 3, 3, 3, 3, 3, 3, 3, 3, 3, 3, 3, 3, 3, 3, 3, 3, 3, 3, 3, 3, 3, 3, 3, 3, 3, 3, 3, 3, 3, 3, 3, 3, 3, 3, 3, 3, 3, 3, 3, 3, 3, 3, 3, 3, 3, 3, 3, 3, 3, 3, 3, 3, 3, 3, 3, 3, 3, 3, 3, 3, 3, 3, 3, 3, 3, 3, 3, 3, 3, 3, 3, 3, 3, 3, 3, 3, 3, 3, 3, 3, 3, 3, 3, 3, 3, 3, 3, 3, 3, 3, 3, 3, 3, 3, 3, 3, 3, 3, 3, 3, 3, 3, 3, 3, 3, 3, 3, 3, 3, 3, 3, 3, 3, 3, 3, 3, 3, 3, 3, 3, 3, 3, 3, 3, 3, 3, 3, 3, 3, 3, 3, 3, 3, 3, 3, 3, 3, 3, 3, 3, 3, 3, 3, 3, 3, 3, 3, 3, 3, 3, 3, 3, 3, 3, 3, 3, 3, 3, 3, 3, 3, 3, 3, 3, 3, 3, 3, 3, 3, 3, 3, 3, 3, 3, 3, 3, 3, 3, 3, 3, 3, 3, 3, 3, 3, 3, 3, 3, 3, 3, 3, 3, 3, 3, 3, 3, 3, 3, 3, 3, 3, 3, 3, 3, 3, 3, 3, 3, 3, 3, 3, 3, 3, 3, 3, 3, 3, 3, 3, 3, 3, 3, 3, 3, 3, 3, 3, 3, 3, 3, 3, 3, 3, 3, 3, 3, 3, 3, 3, 3, 3, 3, 3, 3, 3, 3, 3, 3, 3, 3, 3, 3, 3, 3, 3, 3, 3, 3, 3, 3, 3, 3, 3, 3, 3, 3, 3, 3, 3, 3, 3, 3, 3, 3, 3, 3, 3, 3, 3, 3, 3, 3, 3, 3, 3, 3, 3, 3, 3, 3, 3, 3, 3, 3, 3, 3, 3, 3, 3, 3, 3, 3, 3, 3, 3, 3, 3, 3, 3, 3, 3, 3, 3, 3, 3, 3, 3, 3, 3, 3, 3, 3, 3, 3, 3, 3, 3, 3, 3, 3, 3, 3, 3, 3, 3, 3, 3, 3, 3, 3, 3, 3, 3, 3, 3, 3, 3, 3, 3, 3, 3, 3, 3, 3, 3, 3, 3, 3, 3, 3, 3, 3, 3, 3, 3, 3, 3, 3, 3, 3, 3, 3, 3, 3, 3, 3, 3, 3, 3, 3, 3, 3, 3, 3, 3, 3, 3, 3, 3, 3, 3, 3, 3, 3, 3, 3, 3, 3, 3, 3, 3, 3, 3, 3, 3, 3, 3, 3, 3, 3, 3, 3, 3, 3, 3, 3, 3, 3, 3, 3, 3, 3, 3, 3, 3, 3, 3, 3, 3, 3, 3, 3, 3, 3, 3, 3, 3, 3, 3, 3, 3, 3, 3, 3, 3, 3, 3, 3, 3, 3, 3, 3, 3, 3, 3, 3, 3, 3, 3, 3, 3, 3, 3, 3, 3, 3, 3, 3, 3, 3, 3, 3, 3, 3, 3, 3, 3, 3, 3, 3, 3, 3, 3, 3, 3, 3, 3, 3, 3, 3, 3, 3, 3, 3, 3, 3, 3, 3, 3, 3, 3, 3, 3, 3, 3, 3, 3, 3, 3, 3, 3, 3, 3, 3, 3, 3, 3, 3, 3, 3, 3, 3, 3, 3, 3, 3, 3, 3, 3, 3, 3, 3, 3, 3, 3, 3, 3, 3, 3, 3, 3, 3, 3, 3, 3, 3, 3, 3, 3, 3, 3, 3, 3, 3, 3, 3, 3, 3, 3, 3, 3, 3, 3, 3, 3, 3, 3, 3, 3, 3, 3, 3, 3, 3, 3, 3, 3, 3, 3, 3, 3, 3, 3, 3, 3, 3, 3, 3, 3, 3, 3, 3, 3, 3, 3, 3, 3, 3, 3, 3, 3, 3, 3, 3, 3, 3, 3, 3, 3, 3, 3, 3, 3, 3, 3, 3, 3, 3, 3, 3, 3, 3, 3, 3, 3, 3, 3, 3, 3, 3, 3, 3, 3, 3, 3, 3, 3, 3, 3, 3, 3, 3, 3, 3, 3, 3, 3, 3, 3, 3, 3, 3, 3, 3, 3, 3, 3, 3, 3, 3, 3, 3, 3, 3, 3, 3, 3, 3, 3, 3, 3, 3, 3, 3, 3, 3, 3, 3, 3, 3, 3, 3, 3, 3, 3, 3, 3, 3, 3, 3, 3, 3, 3, 3, 3, 3, 3, 3, 3, 3, 3, 3, 3, 3, 3, 3, 3, 3, 3, 3, 3, 3, 3, 3, 3, 3, 3, 3, 3, 3, 3, 3, 3, 3, 3, 3, 3, 3, 3, 3, 3, 3, 3, 3, 3, 3, 3, 3, 3, 3, 3, 3, 3, 3, 3, 3, 3, 3, 3, 3, 3, 3, 3, 3, 3, 3, 3, 3, 3, 3, 3, 3, 3, 3, 3, 3, 3, 3, 3, 3, 3, 3, 3, 3, 3, 3, 3, 3, 3, 3, 3, 3, 3, 3, 3, 3, 3, 3, 3, 3, 3, 3, 3, 3, 3, 3, 3, 3, 3, 3, 3, 3, 3, 3, 3, 3, 3, 3, 3, 3, 3, 3, 3, 3, 3, 3, 3, 3, 3, 3, 3, 3, 3, 3, 3, 3, 3, 3, 3, 3, 3, 3, 3, 3, 3, 3, 3, 3, 3, 3, 3, 3, 3, 3, 3, 3, 3, 3, 3, 3, 3, 3, 3, 3, 3, 3, 3, 3, 3, 3, 3, 3, 3, 3, 3, 3, 3, 3, 3, 3, 3, 3, 3, 3, 3, 3, 3, 3, 3, 3, 3, 3, 3, 3, 3, 3, 3, 3, 3, 3, 3, 3, 3, 3, 3, 3, 3, 3, 3, 3, 3, 3, 3, 3, 3, 3, 3, 3, 3, 3, 3, 3, 3, 3, 3, 3, 3, 3, 3, 3, 3, 3, 3, 3, 3, 3, 3, 3, 3, 3, 3, 3, 3, 3, 3, 3, 3, 3, 3, 3, 3, 3, 3, 3, 3, 3, 3, 3, 3, 3, 3, 3, 3, 3, 3, 3, 3, 3, 3, 3, 3, 3, 3, 3, 3, 3, 3, 3, 3, 3, 3, 3, 3, 3, 3, 3, 3, 3, 3, 3, 3, 3, 3, 3, 3, 3, 3, 3, 3, 3, 3, 3, 3, 3, 3, 3, 3, 3, 3, 3, 3, 3, 3, 3, 3, 3, 3, 3, 3, 3, 3, 3, 3, 3, 3, 3, 3, 3, 3, 3, 3, 3, 3, 3, 3, 3, 3, 3, 3, 3, 3, 3, 3, 3, 3, 3, 3, 3, 3, 3, 3, 3, 3, 3, 3, 3, 3, 3, 3, 3, 3, 3, 3, 3, 3, 3, 3, 3, 3, 3, 3, 3, 3, 3, 3, 3, 3, 3, 3, 3, 3, 3, 3, 3, 3, 3, 3, 3, 3, 3, 3, 3, 3, 3, 3, 3, 3, 3, 3, 3, 3, 3, 3, 3, 3, 3, 3, 3, 3, 3, 3, 3, 3, 3, 3, 3, 3, 3, 3, 3, 3, 3, 3, 3, 3, 3]
int[] faceVertexIndices = [0, 14, 1, 0, 1, 248, 0, 13, 14, 0, 260, 13, 0, 248, 247, 0, 247, 260, 1, 15, 2, 1, 2, 249, 1, 14, 15, 1, 249, 248, 2, 16, 3, 2, 3, 250, 2, 15, 16, 2, 250, 249, 3, 17, 4, 3, 4, 251, 3, 16, 17, 3, 251, 250, 4, 18, 5, 4, 5, 252, 4, 17, 18, 4, 252, 251, 5, 19, 6, 5, 6, 253, 5, 18, 19, 5, 253, 252, 6, 20, 7, 6, 7, 254, 6, 19, 20, 6, 254, 253, 7, 21, 8, 7, 8, 255, 7, 20, 21, 7, 255, 254, 8, 22, 9, 8, 9, 256, 8, 21, 22, 8, 256, 255, 9, 23, 10, 9, 10, 257, 9, 22, 23, 9, 257, 256, 10, 24, 11, 10, 11, 258, 10, 23, 24, 10, 258, 257, 11, 25, 12, 11, 12, 259, 11, 24, 25, 11, 259, 258, 12, 25, 272, 259, 12, 272, 13, 27, 14, 13, 26, 27, 13, 273, 26, 13, 260, 273, 14, 28, 15, 14, 27, 28, 15, 29, 16, 15, 28, 29, 16, 30, 17, 16, 29, 30, 17, 31, 18, 17, 30, 31, 18, 32, 19, 18, 31, 32, 19, 33, 20, 19, 32, 33, 20, 34, 21, 20, 33, 34, 21, 35, 22, 21, 34, 35, 22, 36, 23, 22, 35, 36, 23, 37, 24, 23, 36, 37, 24, 38, 25, 24, 37, 38, 25, 38, 285, 272, 25, 285, 26, 40, 27, 26, 39, 40, 26, 286, 39, 26, 273, 286, 27, 41, 28, 27, 40, 41, 28, 42, 29, 28, 41, 42, 29, 43, 30, 29, 42, 43, 30, 44, 31, 30, 43, 44, 31, 45, 32, 31, 44, 45, 32, 46, 33, 32, 45, 46, 33, 47, 34, 33, 46, 47, 34, 48, 35, 34, 47, 48, 35, 49, 36, 35, 48, 49, 36, 50, 37, 36, 49, 50, 37, 51, 38, 37, 50, 51, 38, 51, 298, 285, 38, 298, 39, 53, 40, 39, 52, 53, 39, 299, 52, 39, 286, 299, 40, 54, 41, 40, 53, 54, 41, 55, 42, 41, 54, 55, 42, 56, 43, 42, 55, 56, 43, 57, 44, 43, 56, 57, 44, 58, 45, 44, 57, 58, 45, 59, 46, 45, 58, 59, 46, 60, 47, 46, 59, 60, 47, 61, 48, 47, 60, 61, 48, 62, 49, 48, 61, 62, 49, 63, 50, 49, 62, 63, 50, 64, 51, 50, 63, 64, 51, 64, 311, 298, 51, 311, 52, 66, 53, 52, 65, 66, 52, 312, 65, 52, 299, 312, 53, 67, 54, 53, 66, 67, 54, 68, 55, 54, 67, 68, 55, 69, 56, 55, 68, 69, 56, 70, 57, 56, 69, 70, 57, 71, 58, 57, 70, 71, 58, 72, 59, 58, 71, 72, 59, 73, 60, 59, 72, 73, 60, 74, 61, 60, 73, 74, 61, 75, 62, 61, 74, 75, 62, 76, 63, 62, 75, 76, 63, 77, 64, 63, 76, 77, 64, 77, 324, 311, 64, 324, 65, 79, 66, 65, 78, 79, 65, 325, 78, 65, 312, 325, 66, 80, 67, 66, 79, 80, 67, 81, 68, 67, 80, 81, 68, 82, 69, 68, 81, 82, 69, 83, 70, 69, 82, 83, 70, 84, 71, 70, 83, 84, 71, 85, 72, 71, 84, 85, 72, 86, 73, 72, 85, 86, 73, 87, 74, 73, 86, 87, 74, 88, 75, 74, 87, 88, 75, 89, 76, 75, 88, 89, 76, 90, 77, 76, 89, 90, 77, 90, 337, 324, 77, 337, 78, 92, 79, 78, 91, 92, 78, 338, 91, 78, 325, 338, 79, 93, 80, 79, 92, 93, 80, 94, 81, 80, 93, 94, 81, 95, 82, 81, 94, 95, 82, 96, 83, 82, 95, 96, 83, 97, 84, 83, 96, 97, 84, 98, 85, 84, 97, 98, 85, 99, 86, 85, 98, 99, 86, 100, 87, 86, 99, 100, 87, 101, 88, 87, 100, 101, 88, 102, 89, 88, 101, 102, 89, 103, 90, 89, 102, 103, 90, 103, 350, 337, 90, 350, 91, 105, 92, 91, 104, 105, 91, 351, 104, 91, 338, 351, 92, 106, 93, 92, 105, 106, 93, 107, 94, 93, 106, 107, 94, 108, 95, 94, 107, 108, 95, 109, 96, 95, 108, 109, 96, 110, 97, 96, 109, 110, 97, 111, 98, 97, 110, 111, 98, 112, 99, 98, 111, 112, 99, 113, 100, 99, 112, 113, 100, 114, 101, 100, 113, 114, 101, 115, 102, 101, 114, 115, 102, 116, 103, 102, 115, 116, 103, 116, 363, 350, 103, 363, 104, 118, 105, 104, 117, 118, 104, 364, 117, 104, 351, 364, 105, 119, 106, 105, 118, 119, 106, 120, 107, 106, 119, 120, 107, 121, 108, 107, 120, 121, 108, 122, 109, 108, 121, 122, 109, 123, 110, 109, 122, 123, 110, 124, 111, 110, 123, 124, 111, 125, 112, 111, 124, 125, 112, 126, 113, 112, 125, 126, 113, 127, 114, 113, 126, 127, 114, 128, 115, 114, 127, 128, 115, 129, 116, 115, 128, 129, 116, 129, 376, 363, 116, 376, 117, 131, 118, 117, 130, 131, 117, 377, 130, 117, 364, 377, 118, 132, 119, 118, 131, 132, 119, 133, 120, 119, 132, 133, 120, 134, 121, 120, 133, 134, 121, 135, 122, 121, 134, 135, 122, 136, 123, 122, 135, 136, 123, 137, 124, 123, 136, 137, 124, 138, 125, 124, 137, 138, 125, 139, 126, 125, 138, 139, 126, 140, 127, 126, 139, 140, 127, 141, 128, 127, 140, 141, 128, 142, 129, 128, 141, 142, 129, 142, 389, 376, 129, 389, 130, 144, 131, 130, 143, 144, 130, 390, 143, 130, 377, 390, 131, 145, 132, 131, 144, 145, 132, 146, 133, 132, 145, 146, 133, 147, 134, 133, 146, 147, 134, 148, 135, 134, 147, 148, 135, 149, 136, 135, 148, 149, 136, 150, 137, 136, 149, 150, 137, 151, 138, 137, 150, 151, 138, 152, 139, 138, 151, 152, 139, 153, 140, 139, 152, 153, 140, 154, 141, 140, 153, 154, 141, 155, 142, 141, 154, 155, 142, 155, 402, 389, 142, 402, 143, 157, 144, 143, 156, 157, 143, 403, 156, 143, 390, 403, 144, 158, 145, 144, 157, 158, 145, 159, 146, 145, 158, 159, 146, 160, 147, 146, 159, 160, 147, 161, 148, 147, 160, 161, 148, 162, 149, 148, 161, 162, 149, 163, 150, 149, 162, 163, 150, 164, 151, 150, 163, 164, 151, 165, 152, 151, 164, 165, 152, 166, 153, 152, 165, 166, 153, 167, 154, 153, 166, 167, 154, 168, 155, 154, 167, 168, 155, 168, 415, 402, 155, 415, 156, 170, 157, 156, 169, 170, 156, 416, 169, 156, 403, 416, 157, 171, 158, 157, 170, 171, 158, 172, 159, 158, 171, 172, 159, 173, 160, 159, 172, 173, 160, 174, 161, 160, 173, 174, 161, 175, 162, 161, 174, 175, 162, 176, 163, 162, 175, 176, 163, 177, 164, 163, 176, 177, 164, 178, 165, 164, 177, 178, 165, 179, 166, 165, 178, 179, 166, 180, 167, 166, 179, 180, 167, 181, 168, 167, 180, 181, 168, 181, 428, 415, 168, 428, 169, 183, 170, 169, 182, 183, 169, 429, 182, 169, 416, 429, 170, 184, 171, 170, 183, 184, 171, 185, 172, 171, 184, 185, 172, 186, 173, 172, 185, 186, 173, 187, 174, 173, 186, 187, 174, 188, 175, 174, 187, 188, 175, 189, 176, 175, 188, 189, 176, 190, 177, 176, 189, 190, 177, 191, 178, 177, 190, 191, 178, 192, 179, 178, 191, 192, 179, 193, 180, 179, 192, 193, 180, 194, 181, 180, 193, 194, 181, 194, 441, 428, 181, 441, 182, 196, 183, 182, 195, 196, 182, 442, 195, 182, 429, 442, 183, 197, 184, 183, 196, 197, 184, 198, 185, 184, 197, 198, 185, 199, 186, 185, 198, 199, 186, 200, 187, 186, 199, 200, 187, 201, 188, 187, 200, 201, 188, 202, 189, 188, 201, 202, 189, 203, 190, 189, 202, 203, 190, 204, 191, 190, 203, 204, 191, 205, 192, 191, 204, 205, 192, 206, 193, 192, 205, 206, 193, 207, 194, 193, 206, 207, 194, 207, 454, 441, 194, 454, 195, 209, 196, 195, 208, 209, 195, 455, 208, 195, 442, 455, 196, 210, 197, 196, 209, 210, 197, 211, 198, 197, 210, 211, 198, 212, 199, 198, 211, 212, 199, 213, 200, 199, 212, 213, 200, 214, 201, 200, 213, 214, 201, 215, 202, 201, 214, 215, 202, 216, 203, 202, 215, 216, 203, 217, 204, 203, 216, 217, 204, 218, 205, 204, 217, 218, 205, 219, 206, 205, 218, 219, 206, 220, 207, 206, 219, 220, 207, 220, 467, 454, 207, 467, 208, 222, 209, 208, 221, 222, 208, 468, 221, 208, 455, 468, 209, 223, 210, 209, 222, 223, 210, 224, 211, 210, 223, 224, 211, 225, 212, 211, 224, 225, 212, 226, 213, 212, 225, 226, 213, 227, 214, 213, 226, 227, 214, 228, 215, 214, 227, 228, 215, 229, 216, 215, 228, 229, 216, 230, 217, 216, 229, 230, 217, 231, 218, 217, 230, 231, 218, 232, 219, 218, 231, 232, 219, 233, 220, 219, 232, 233, 220, 233, 480, 467, 220, 480, 221, 235, 222, 221, 234, 235, 221, 481, 234, 221, 468, 481, 222, 236, 223, 222, 235, 236, 223, 237, 224, 223, 236, 237, 224, 238, 225, 224, 237, 238, 225, 239, 226, 225, 238, 239, 226, 240, 227, 226, 239, 240, 227, 241, 228, 227, 240, 241, 228, 242, 229, 228, 241, 242, 229, 243, 230, 229, 242, 243, 230, 244, 231, 230, 243, 244, 231, 245, 232, 231, 244, 245, 232, 246, 233, 232, 245, 246, 233, 246, 493, 480, 233, 493, 235, 234, 482, 234, 481, 482, 236, 235, 483, 235, 482, 483, 237, 236, 484, 236, 483, 484, 238, 237, 485, 237, 484, 485, 239, 238, 486, 238, 485, 486, 240, 239, 487, 239, 486, 487, 241, 240, 488, 240, 487, 488, 242, 241, 489, 241, 488, 489, 243, 242, 490, 242, 489, 490, 244, 243, 491, 243, 490, 491, 245, 244, 492, 244, 491, 492, 246, 245, 493, 245, 492, 493, 247, 248, 495, 247, 507, 260, 247, 495, 494, 247, 494, 507, 248, 249, 496, 248, 496, 495, 249, 250, 497, 249, 497, 496, 250, 251, 498, 250, 498, 497, 251, 252, 499, 251, 499, 498, 252, 253, 500, 252, 500, 499, 253, 254, 501, 253, 501, 500, 254, 255, 502, 254, 502, 501, 255, 256, 503, 255, 503, 502, 256, 257, 504, 256, 504, 503, 257, 258, 505, 257, 505, 504, 258, 259, 506, 258, 506, 505, 259, 272, 519, 506, 259, 519, 260, 520, 273, 260, 507, 520, 272, 285, 532, 519, 272, 532, 273, 533, 286, 273, 520, 533, 285, 298, 545, 532, 285, 545, 286, 546, 299, 286, 533, 546, 298, 311, 558, 545, 298, 558, 299, 559, 312, 299, 546, 559, 311, 324, 571, 558, 311, 571, 312, 572, 325, 312, 559, 572, 324, 337, 584, 571, 324, 584, 325, 585, 338, 325, 572, 585, 337, 350, 597, 584, 337, 597, 338, 598, 351, 338, 585, 598, 350, 363, 610, 597, 350, 610, 351, 611, 364, 351, 598, 611, 363, 376, 623, 610, 363, 623, 364, 624, 377, 364, 611, 624, 376, 389, 636, 623, 376, 636, 377, 637, 390, 377, 624, 637, 389, 402, 649, 636, 389, 649, 390, 650, 403, 390, 637, 650, 402, 415, 662, 649, 402, 662, 403, 663, 416, 403, 650, 663, 415, 428, 675, 662, 415, 675, 416, 676, 429, 416, 663, 676, 428, 441, 688, 675, 428, 688, 429, 689, 442, 429, 676, 689, 441, 454, 701, 688, 441, 701, 442, 702, 455, 442, 689, 702, 454, 467, 714, 701, 454, 714, 455, 715, 468, 455, 702, 715, 467, 480, 727, 714, 467, 727, 468, 728, 481, 468, 715, 728, 480, 493, 740, 727, 480, 740, 482, 481, 729, 481, 728, 729, 483, 482, 730, 482, 729, 730, 484, 483, 731, 483, 730, 731, 485, 484, 732, 484, 731, 732, 486, 485, 733, 485, 732, 733, 487, 486, 734, 486, 733, 734, 488, 487, 735, 487, 734, 735, 489, 488, 736, 488, 735, 736, 490, 489, 737, 489, 736, 737, 491, 490, 738, 490, 737, 738, 492, 491, 739, 491, 738, 739, 493, 492, 740, 492, 739, 740, 494, 495, 742, 494, 754, 507, 494, 742, 741, 494, 741, 754, 495, 496, 743, 495, 743, 742, 496, 497, 744, 496, 744, 743, 497, 498, 745, 497, 745, 744, 498, 499, 746, 498, 746, 745, 499, 500, 747, 499, 747, 746, 500, 501, 748, 500, 748, 747, 501, 502, 749, 501, 749, 748, 502, 503, 750, 502, 750, 749, 503, 504, 751, 503, 751, 750, 504, 505, 752, 504, 752, 751, 505, 506, 753, 505, 753, 752, 506, 519, 766, 753, 506, 766, 507, 767, 520, 507, 754, 767, 519, 532, 779, 766, 519, 779, 520, 780, 533, 520, 767, 780, 532, 545, 792, 779, 532, 792, 533, 793, 546, 533, 780, 793, 545, 558, 805, 792, 545, 805, 546, 806, 559, 546, 793, 806, 558, 571, 818, 805, 558, 818, 559, 819, 572, 559, 806, 819, 571, 584, 831, 818, 571, 831, 572, 832, 585, 572, 819, 832, 584, 597, 844, 831, 584, 844, 585, 845, 598, 585, 832, 845, 597, 610, 857, 844, 597, 857, 598, 858, 611, 598, 845, 858, 610, 623, 870, 857, 610, 870, 611, 871, 624, 611, 858, 871, 623, 636, 883, 870, 623, 883, 624, 884, 637, 624, 871, 884, 636, 649, 896, 883, 636, 896, 637, 897, 650, 637, 884, 897, 649, 662, 909, 896, 649, 909, 650, 910, 663, 650, 897, 910, 662, 675, 922, 909, 662, 922, 663, 923, 676, 663, 910, 923, 675, 688, 935, 922, 675, 935, 676, 936, 689, 676, 923, 936, 688, 701, 948, 935, 688, 948, 689, 949, 702, 689, 936, 949, 701, 714, 961, 948, 701, 961, 702, 962, 715, 702, 949, 962, 714, 727, 974, 961, 714, 974, 715, 975, 728, 715, 962, 975, 727, 740, 987, 974, 727, 987, 729, 728, 976, 728, 975, 976, 730, 729, 977, 729, 976, 977, 731, 730, 978, 730, 977, 978, 732, 731, 979, 731, 978, 979, 733, 732, 980, 732, 979, 980, 734, 733, 981, 733, 980, 981, 735, 734, 982, 734, 981, 982, 736, 735, 983, 735, 982, 983, 737, 736, 984, 736, 983, 984, 738, 737, 985, 737, 984, 985, 739, 738, 986, 738, 985, 986, 740, 739, 987, 739, 986, 987, 741, 742, 989, 741, 1001, 754, 741, 989, 988, 741, 988, 1001, 742, 743, 990, 742, 990, 989, 743, 744, 991, 743, 991, 990, 744, 745, 992, 744, 992, 991, 745, 746, 993, 745, 993, 992, 746, 747, 994, 746, 994, 993, 747, 748, 995, 747, 995, 994, 748, 749, 996, 748, 996, 995, 749, 750, 997, 749, 997, 996, 750, 751, 998, 750, 998, 997, 751, 752, 999, 751, 999, 998, 752, 753, 1000, 752, 1000, 999, 753, 766, 1013, 1000, 753, 1013, 754, 1014, 767, 754, 1001, 1014, 766, 779, 1026, 1013, 766, 1026, 767, 1027, 780, 767, 1014, 1027, 779, 792, 1039, 1026, 779, 1039, 780, 1040, 793, 780, 1027, 1040, 792, 805, 1052, 1039, 792, 1052, 793, 1053, 806, 793, 1040, 1053, 805, 818, 1065, 1052, 805, 1065, 806, 1066, 819, 806, 1053, 1066, 818, 831, 1078, 1065, 818, 1078, 819, 1079, 832, 819, 1066, 1079, 831, 844, 1091, 1078, 831, 1091, 832, 1092, 845, 832, 1079, 1092, 844, 857, 1104, 1091, 844, 1104, 845, 1105, 858, 845, 1092, 1105, 857, 870, 1117, 1104, 857, 1117, 858, 1118, 871, 858, 1105, 1118, 870, 883, 1130, 1117, 870, 1130, 871, 1131, 884, 871, 1118, 1131, 883, 896, 1143, 1130, 883, 1143, 884, 1144, 897, 884, 1131, 1144, 896, 909, 1156, 1143, 896, 1156, 897, 1157, 910, 897, 1144, 1157, 909, 922, 1169, 1156, 909, 1169, 910, 1170, 923, 910, 1157, 1170, 922, 935, 1182, 1169, 922, 1182, 923, 1183, 936, 923, 1170, 1183, 935, 948, 1195, 1182, 935, 1195, 936, 1196, 949, 936, 1183, 1196, 948, 961, 1208, 1195, 948, 1208, 949, 1209, 962, 949, 1196, 1209, 961, 974, 1221, 1208, 961, 1221, 962, 1222, 975, 962, 1209, 1222, 974, 987, 1234, 1221, 974, 1234, 976, 975, 1223, 975, 1222, 1223, 977, 976, 1224, 976, 1223, 1224, 978, 977, 1225, 977, 1224, 1225, 979, 978, 1226, 978, 1225, 1226, 980, 979, 1227, 979, 1226, 1227, 981, 980, 1228, 980, 1227, 1228, 982, 981, 1229, 981, 1228, 1229, 983, 982, 1230, 982, 1229, 1230, 984, 983, 1231, 983, 1230, 1231, 985, 984, 1232, 984, 1231, 1232, 986, 985, 1233, 985, 1232, 1233, 987, 986, 1234, 986, 1233, 1234, 988, 989, 1002, 1001, 988, 1002, 989, 990, 1003, 1002, 989, 1003, 990, 991, 1004, 1003, 990, 1004, 991, 992, 1005, 1004, 991, 1005, 992, 993, 1006, 1005, 992, 1006, 993, 994, 1007, 1006, 993, 1007, 994, 995, 1008, 1007, 994, 1008, 995, 996, 1009, 1008, 995, 1009, 996, 997, 1010, 1009, 996, 1010, 997, 998, 1011, 1010, 997, 1011, 998, 999, 1012, 1011, 998, 1012, 999, 1000, 1013, 1012, 999, 1013, 1001, 1002, 1015, 1014, 1001, 1015, 1002, 1003, 1016, 1015, 1002, 1016, 1003, 1004, 1017, 1016, 1003, 1017, 1004, 1005, 1018, 1017, 1004, 1018, 1005, 1006, 1019, 1018, 1005, 1019, 1006, 1007, 1020, 1019, 1006, 1020, 1007, 1008, 1021, 1020, 1007, 1021, 1008, 1009, 1022, 1021, 1008, 1022, 1009, 1010, 1023, 1022, 1009, 1023, 1010, 1011, 1024, 1023, 1010, 1024, 1011, 1012, 1025, 1024, 1011, 1025, 1012, 1013, 1026, 1025, 1012, 1026, 1014, 1015, 1028, 1027, 1014, 1028, 1015, 1016, 1029, 1028, 1015, 1029, 1016, 1017, 1030, 1029, 1016, 1030, 1017, 1018, 1031, 1030, 1017, 1031, 1018, 1019, 1032, 1031, 1018, 1032, 1019, 1020, 1033, 1032, 1019, 1033, 1020, 1021, 1034, 1033, 1020, 1034, 1021, 1022, 1035, 1034, 1021, 1035, 1022, 1023, 1036, 1035, 1022, 1036, 1023, 1024, 1037, 1036, 1023, 1037, 1024, 1025, 1038, 1037, 1024, 1038, 1025, 1026, 1039, 1038, 1025, 1039, 1027, 1028, 1041, 1040, 1027, 1041, 1028, 1029, 1042, 1041, 1028, 1042, 1029, 1030, 1043, 1042, 1029, 1043, 1030, 1031, 1044, 1043, 1030, 1044, 1031, 1032, 1045, 1044, 1031, 1045, 1032, 1033, 1046, 1045, 1032, 1046, 1033, 1034, 1047, 1046, 1033, 1047, 1034, 1035, 1048, 1047, 1034, 1048, 1035, 1036, 1049, 1048, 1035, 1049, 1036, 1037, 1050, 1049, 1036, 1050, 1037, 1038, 1051, 1050, 1037, 1051, 1038, 1039, 1052, 1051, 1038, 1052, 1040, 1041, 1054, 1053, 1040, 1054, 1041, 1042, 1055, 1054, 1041, 1055, 1042, 1043, 1056, 1055, 1042, 1056, 1043, 1044, 1057, 1056, 1043, 1057, 1044, 1045, 1058, 1057, 1044, 1058, 1045, 1046, 1059, 1058, 1045, 1059, 1046, 1047, 1060, 1059, 1046, 1060, 1047, 1048, 1061, 1060, 1047, 1061, 1048, 1049, 1062, 1061, 1048, 1062, 1049, 1050, 1063, 1062, 1049, 1063, 1050, 1051, 1064, 1063, 1050, 1064, 1051, 1052, 1065, 1064, 1051, 1065, 1053, 1054, 1067, 1066, 1053, 1067, 1054, 1055, 1068, 1067, 1054, 1068, 1055, 1056, 1069, 1068, 1055, 1069, 1056, 1057, 1070, 1069, 1056, 1070, 1057, 1058, 1071, 1070, 1057, 1071, 1058, 1059, 1072, 1071, 1058, 1072, 1059, 1060, 1073, 1072, 1059, 1073, 1060, 1061, 1074, 1073, 1060, 1074, 1061, 1062, 1075, 1074, 1061, 1075, 1062, 1063, 1076, 1075, 1062, 1076, 1063, 1064, 1077, 1076, 1063, 1077, 1064, 1065, 1078, 1077, 1064, 1078, 1066, 1067, 1080, 1079, 1066, 1080, 1067, 1068, 1081, 1080, 1067, 1081, 1068, 1069, 1082, 1081, 1068, 1082, 1069, 1070, 1083, 1082, 1069, 1083, 1070, 1071, 1084, 1083, 1070, 1084, 1071, 1072, 1085, 1084, 1071, 1085, 1072, 1073, 1086, 1085, 1072, 1086, 1073, 1074, 1087, 1086, 1073, 1087, 1074, 1075, 1088, 1087, 1074, 1088, 1075, 1076, 1089, 1088, 1075, 1089, 1076, 1077, 1090, 1089, 1076, 1090, 1077, 1078, 1091, 1090, 1077, 1091, 1079, 1080, 1093, 1092, 1079, 1093, 1080, 1081, 1094, 1093, 1080, 1094, 1081, 1082, 1095, 1094, 1081, 1095, 1082, 1083, 1096, 1095, 1082, 1096, 1083, 1084, 1097, 1096, 1083, 1097, 1084, 1085, 1098, 1097, 1084, 1098, 1085, 1086, 1099, 1098, 1085, 1099, 1086, 1087, 1100, 1099, 1086, 1100, 1087, 1088, 1101, 1100, 1087, 1101, 1088, 1089, 1102, 1101, 1088, 1102, 1089, 1090, 1103, 1102, 1089, 1103, 1090, 1091, 1104, 1103, 1090, 1104, 1092, 1093, 1106, 1105, 1092, 1106, 1093, 1094, 1107, 1106, 1093, 1107, 1094, 1095, 1108, 1107, 1094, 1108, 1095, 1096, 1109, 1108, 1095, 1109, 1096, 1097, 1110, 1109, 1096, 1110, 1097, 1098, 1111, 1110, 1097, 1111, 1098, 1099, 1112, 1111, 1098, 1112, 1099, 1100, 1113, 1112, 1099, 1113, 1100, 1101, 1114, 1113, 1100, 1114, 1101, 1102, 1115, 1114, 1101, 1115, 1102, 1103, 1116, 1115, 1102, 1116, 1103, 1104, 1117, 1116, 1103, 1117, 1105, 1106, 1119, 1118, 1105, 1119, 1106, 1107, 1120, 1119, 1106, 1120, 1107, 1108, 1121, 1120, 1107, 1121, 1108, 1109, 1122, 1121, 1108, 1122, 1109, 1110, 1123, 1122, 1109, 1123, 1110, 1111, 1124, 1123, 1110, 1124, 1111, 1112, 1125, 1124, 1111, 1125, 1112, 1113, 1126, 1125, 1112, 1126, 1113, 1114, 1127, 1126, 1113, 1127, 1114, 1115, 1128, 1127, 1114, 1128, 1115, 1116, 1129, 1128, 1115, 1129, 1116, 1117, 1130, 1129, 1116, 1130, 1118, 1119, 1132, 1131, 1118, 1132, 1119, 1120, 1133, 1132, 1119, 1133, 1120, 1121, 1134, 1133, 1120, 1134, 1121, 1122, 1135, 1134, 1121, 1135, 1122, 1123, 1136, 1135, 1122, 1136, 1123, 1124, 1137, 1136, 1123, 1137, 1124, 1125, 1138, 1137, 1124, 1138, 1125, 1126, 1139, 1138, 1125, 1139, 1126, 1127, 1140, 1139, 1126, 1140, 1127, 1128, 1141, 1140, 1127, 1141, 1128, 1129, 1142, 1141, 1128, 1142, 1129, 1130, 1143, 1142, 1129, 1143, 1131, 1132, 1145, 1144, 1131, 1145, 1132, 1133, 1146, 1145, 1132, 1146, 1133, 1134, 1147, 1146, 1133, 1147, 1134, 1135, 1148, 1147, 1134, 1148, 1135, 1136, 1149, 1148, 1135, 1149, 1136, 1137, 1150, 1149, 1136, 1150, 1137, 1138, 1151, 1150, 1137, 1151, 1138, 1139, 1152, 1151, 1138, 1152, 1139, 1140, 1153, 1152, 1139, 1153, 1140, 1141, 1154, 1153, 1140, 1154, 1141, 1142, 1155, 1154, 1141, 1155, 1142, 1143, 1156, 1155, 1142, 1156, 1144, 1145, 1158, 1157, 1144, 1158, 1145, 1146, 1159, 1158, 1145, 1159, 1146, 1147, 1160, 1159, 1146, 1160, 1147, 1148, 1161, 1160, 1147, 1161, 1148, 1149, 1162, 1161, 1148, 1162, 1149, 1150, 1163, 1162, 1149, 1163, 1150, 1151, 1164, 1163, 1150, 1164, 1151, 1152, 1165, 1164, 1151, 1165, 1152, 1153, 1166, 1165, 1152, 1166, 1153, 1154, 1167, 1166, 1153, 1167, 1154, 1155, 1168, 1167, 1154, 1168, 1155, 1156, 1169, 1168, 1155, 1169, 1157, 1158, 1171, 1170, 1157, 1171, 1158, 1159, 1172, 1171, 1158, 1172, 1159, 1160, 1173, 1172, 1159, 1173, 1160, 1161, 1174, 1173, 1160, 1174, 1161, 1162, 1175, 1174, 1161, 1175, 1162, 1163, 1176, 1175, 1162, 1176, 1163, 1164, 1177, 1176, 1163, 1177, 1164, 1165, 1178, 1177, 1164, 1178, 1165, 1166, 1179, 1178, 1165, 1179, 1166, 1167, 1180, 1179, 1166, 1180, 1167, 1168, 1181, 1180, 1167, 1181, 1168, 1169, 1182, 1181, 1168, 1182, 1170, 1171, 1184, 1183, 1170, 1184, 1171, 1172, 1185, 1184, 1171, 1185, 1172, 1173, 1186, 1185, 1172, 1186, 1173, 1174, 1187, 1186, 1173, 1187, 1174, 1175, 1188, 1187, 1174, 1188, 1175, 1176, 1189, 1188, 1175, 1189, 1176, 1177, 1190, 1189, 1176, 1190, 1177, 1178, 1191, 1190, 1177, 1191, 1178, 1179, 1192, 1191, 1178, 1192, 1179, 1180, 1193, 1192, 1179, 1193, 1180, 1181, 1194, 1193, 1180, 1194, 1181, 1182, 1195, 1194, 1181, 1195, 1183, 1184, 1197, 1196, 1183, 1197, 1184, 1185, 1198, 1197, 1184, 1198, 1185, 1186, 1199, 1198, 1185, 1199, 1186, 1187, 1200, 1199, 1186, 1200, 1187, 1188, 1201, 1200, 1187, 1201, 1188, 1189, 1202, 1201, 1188, 1202, 1189, 1190, 1203, 1202, 1189, 1203, 1190, 1191, 1204, 1203, 1190, 1204, 1191, 1192, 1205, 1204, 1191, 1205, 1192, 1193, 1206, 1205, 1192, 1206, 1193, 1194, 1207, 1206, 1193, 1207, 1194, 1195, 1208, 1207, 1194, 1208, 1196, 1197, 1210, 1209, 1196, 1210, 1197, 1198, 1211, 1210, 1197, 1211, 1198, 1199, 1212, 1211, 1198, 1212, 1199, 1200, 1213, 1212, 1199, 1213, 1200, 1201, 1214, 1213, 1200, 1214, 1201, 1202, 1215, 1214, 1201, 1215, 1202, 1203, 1216, 1215, 1202, 1216, 1203, 1204, 1217, 1216, 1203, 1217, 1204, 1205, 1218, 1217, 1204, 1218, 1205, 1206, 1219, 1218, 1205, 1219, 1206, 1207, 1220, 1219, 1206, 1220, 1207, 1208, 1221, 1220, 1207, 1221, 1209, 1210, 1223, 1222, 1209, 1223, 1210, 1211, 1224, 1223, 1210, 1224, 1211, 1212, 1225, 1224, 1211, 1225, 1212, 1213, 1226, 1225, 1212, 1226, 1213, 1214, 1227, 1226, 1213, 1227, 1214, 1215, 1228, 1227, 1214, 1228, 1215, 1216, 1229, 1228, 1215, 1229, 1216, 1217, 1230, 1229, 1216, 1230, 1217, 1218, 1231, 1230, 1217, 1231, 1218, 1219, 1232, 1231, 1218, 1232, 1219, 1220, 1233, 1232, 1219, 1233, 1220, 1221, 1234, 1233, 1220, 1234]
point3f[] points = [
        (-0.035, -0.0225, -0.003),
        (-0.03225, -0.0225, -0.003),
        (-0.0295, -0.0225, -0.003),
        (-0.02675, -0.0225, -0.003),
        (-0.024, -0.0225, -0.003),
        (-0.02125, -0.0225, -0.003),
        (-0.0185, -0.0225, -0.003),
        (-0.01575, -0.0225, -0.003),
        (-0.013, -0.0225, -0.003),
        (-0.01025, -0.0225, -0.003),
        (-0.0075, -0.0225, -0.003),
        (-0.00475, -0.0225, -0.003),
        (-0.002, -0.0225, -0.003),
        (-0.035, -0.02, -0.003),
        (-0.0322212733334, -0.02, -0.003),
        (-0.0294425466668, -0.02, -0.003),
        (-0.0266638200001, -0.02, -0.003),
        (-0.0238850933335, -0.02, -0.003),
        (-0.0211063666669, -0.02, -0.003),
        (-0.0183276400003, -0.02, -0.003),
        (-0.0155489133337, -0.02, -0.003),
        (-0.0127701866671, -0.02, -0.003),
        (-0.00999146000045, -0.02, -0.003),
        (-0.00721273333383, -0.02, -0.003),
        (-0.00443400666721, -0.02, -0.003),
        (-0.0016552800006, -0.02, -0.003),
        (-0.035, -0.0175, -0.003),
        (-0.0322130697093, -0.0175, -0.003),
        (-0.0294261394185, -0.0175, -0.003),
        (-0.0266392091278, -0.0175, -0.003),
        (-0.023852278837, -0.0175, -0.003),
        (-0.0210653485463, -0.0175, -0.003),
        (-0.0182784182556, -0.0175, -0.003),
        (-0.0154914879648, -0.0175, -0.003),
        (-0.0127045576741, -0.0175, -0.003),
        (-0.00991762738336, -0.0175, -0.003),
        (-0.00713069709262, -0.0175, -0.003),
        (-0.00434376680188, -0.0175, -0.003),
        (-0.00155683651114, -0.0175, -0.003),
        (-0.035, -0.015, -0.003),
        (-0.03223125, -0.015, -0.003),
        (-0.0294625, -0.015, -0.003),
        (-0.02669375, -0.015, -0.003),
        (-0.023925, -0.015, -0.003),
        (-0.02115625, -0.015, -0.003),
        (-0.0183875, -0.015, -0.003),
        (-0.01561875, -0.015, -0.003),
        (-0.01285, -0.015, -0.003),
        (-0.01008125, -0.015, -0.003),
        (-0.0073125, -0.015, -0.003),
        (-0.00454375, -0.015, -0.003),
        (-0.001775, -0.015, -0.003),
        (-0.035, -0.0125, -0.003),
        (-0.0322628257554, -0.0125, -0.003),
        (-0.0295256515107, -0.0125, -0.003),
        (-0.0267884772661, -0.0125, -0.003),
        (-0.0240513030215, -0.0125, -0.003),
        (-0.0213141287769, -0.0125, -0.003),
        (-0.0185769545322, -0.0125, -0.003),
        (-0.0158397802876, -0.0125, -0.003),
        (-0.013102606043, -0.0125, -0.003),
        (-0.0103654317984, -0.0125, -0.003),
        (-0.00762825755375, -0.0125, -0.003),
        (-0.00489108330912, -0.0125, -0.003),
        (-0.0021539090645, -0.0125, -0.003),
        (-0.035, -0.01, -0.003),
        (-0.0322852384733, -0.01, -0.003),
        (-0.0295704769466, -0.01, -0.003),
        (-0.0268557154198, -0.01, -0.003),
        (-0.0241409538931, -0.01, -0.003),
        (-0.0214261923664, -0.01, -0.003),
        (-0.0187114308397, -0.01, -0.003),
        (-0.015996669313, -0.01, -0.003),
        (-0.0132819077862, -0.01, -0.003),
        (-0.0105671462595, -0.01, -0.003),
        (-0.00785238473279, -0.01, -0.003),
        (-0.00513762320607, -0.01, -0.003),
        (-0.00242286167935, -0.01, -0.003),
        (-0.035, -0.0075, -0.003),
        (-0.0322824759526, -0.0075, -0.003),
        (-0.0295649519053, -0.0075, -0.003),
        (-0.0268474278579, -0.0075, -0.003),
        (-0.0241299038106, -0.0075, -0.003),
        (-0.0214123797632, -0.0075, -0.003),
        (-0.0186948557159, -0.0075, -0.003),
        (-0.0159773316685, -0.0075, -0.003),
        (-0.0132598076211, -0.0075, -0.003),
        (-0.0105422835738, -0.0075, -0.003),
        (-0.00782475952642, -0.0075, -0.003),
        (-0.00510723547906, -0.0075, -0.003),
        (-0.0023897114317, -0.0075, -0.003),
        (-0.035, -0.005, -0.003),
        (-0.0322565118067, -0.005, -0.003),
        (-0.0295130236133, -0.005, -0.003),
        (-0.02676953542, -0.005, -0.003),
        (-0.0240260472267, -0.005, -0.003),
        (-0.0212825590333, -0.005, -0.003),
        (-0.01853907084, -0.005, -0.003),
        (-0.0157955826466, -0.005, -0.003),
        (-0.0130520944533, -0.005, -0.003),
        (-0.01030860626, -0.005, -0.003),
        (-0.00756511806663, -0.005, -0.003),
        (-0.00482162987329, -0.005, -0.003),
        (-0.00207814167995, -0.005, -0.003),
        (-0.035, -0.0025, -0.003),
        (-0.0322258954646, -0.0025, -0.003),
        (-0.0294517909293, -0.0025, -0.003),
        (-0.0266776863939, -0.0025, -0.003),
        (-0.0239035818585, -0.0025, -0.003),
        (-0.0211294773232, -0.0025, -0.003),
        (-0.0183553727878, -0.0025, -0.003),
        (-0.0155812682525, -0.0025, -0.003),
        (-0.0128071637171, -0.0025, -0.003),
        (-0.0100330591817, -0.0025, -0.003),
        (-0.00725895464637, -0.0025, -0.003),
        (-0.004484850111, -0.0025, -0.003),
        (-0.00171074557564, -0.0025, -0.003),
        (-0.035, 0, -0.003),
        (-0.0322125, 0, -0.003),
        (-0.029425, 0, -0.003),
        (-0.0266375, 0, -0.003),
        (-0.02385, 0, -0.003),
        (-0.0210625, 0, -0.003),
        (-0.018275, 0, -0.003),
        (-0.0154875, 0, -0.003),
        (-0.0127, 0, -0.003),
        (-0.0099125, 0, -0.003),
        (-0.007125, 0, -0.003),
        (-0.0043375, 0, -0.003),
        (-0.00155, 0, -0.003),
        (-0.035, 0.0025, -0.003),
        (-0.0322258954646, 0.0025, -0.003),
        (-0.0294517909293, 0.0025, -0.003),
        (-0.0266776863939, 0.0025, -0.003),
        (-0.0239035818585, 0.0025, -0.003),
        (-0.0211294773232, 0.0025, -0.003),
        (-0.0183553727878, 0.0025, -0.003),
        (-0.0155812682525, 0.0025, -0.003),
        (-0.0128071637171, 0.0025, -0.003),
        (-0.0100330591817, 0.0025, -0.003),
        (-0.00725895464637, 0.0025, -0.003),
        (-0.004484850111, 0.0025, -0.003),
        (-0.00171074557564, 0.0025, -0.003),
        (-0.035, 0.005, -0.003),
        (-0.0322565118067, 0.005, -0.003),
        (-0.0295130236133, 0.005, -0.003),
        (-0.02676953542, 0.005, -0.003),
        (-0.0240260472267, 0.005, -0.003),
        (-0.0212825590333, 0.005, -0.003),
        (-0.01853907084, 0.005, -0.003),
        (-0.0157955826466, 0.005, -0.003),
        (-0.0130520944533, 0.005, -0.003),
        (-0.01030860626, 0.005, -0.003),
        (-0.00756511806663, 0.005, -0.003),
        (-0.00482162987329, 0.005, -0.003),
        (-0.00207814167995, 0.005, -0.003),
        (-0.035, 0.0075, -0.003),
        (-0.0322824759526, 0.0075, -0.003),
        (-0.0295649519053, 0.0075, -0.003),
        (-0.0268474278579, 0.0075, -0.003),
        (-0.0241299038106, 0.0075, -0.003),
        (-0.0214123797632, 0.0075, -0.003),
        (-0.0186948557159, 0.0075, -0.003),
        (-0.0159773316685, 0.0075, -0.003),
        (-0.0132598076211, 0.0075, -0.003),
        (-0.0105422835738, 0.0075, -0.003),
        (-0.00782475952642, 0.0075, -0.003),
        (-0.00510723547906, 0.0075, -0.003),
        (-0.0023897114317, 0.0075, -0.003),
        (-0.035, 0.01, -0.003),
        (-0.0322852384733, 0.01, -0.003),
        (-0.0295704769466, 0.01, -0.003),
        (-0.0268557154198, 0.01, -0.003),
        (-0.0241409538931, 0.01, -0.003),
        (-0.0214261923664, 0.01, -0.003),
        (-0.0187114308397, 0.01, -0.003),
        (-0.015996669313, 0.01, -0.003),
        (-0.0132819077862, 0.01, -0.003),
        (-0.0105671462595, 0.01, -0.003),
        (-0.00785238473279, 0.01, -0.003),
        (-0.00513762320607, 0.01, -0.003),
        (-0.00242286167935, 0.01, -0.003),
        (-0.035, 0.0125, -0.003),
        (-0.0322628257554, 0.0125, -0.003),
        (-0.0295256515107, 0.0125, -0.003),
        (-0.0267884772661, 0.0125, -0.003),
        (-0.0240513030215, 0.0125, -0.003),
        (-0.0213141287769, 0.0125, -0.003),
        (-0.0185769545322, 0.0125, -0.003),
        (-0.0158397802876, 0.0125, -0.003),
        (-0.013102606043, 0.0125, -0.003),
        (-0.0103654317984, 0.0125, -0.003),
        (-0.00762825755375, 0.0125, -0.003),
        (-0.00489108330912, 0.0125, -0.003),
        (-0.0021539090645, 0.0125, -0.003),
        (-0.035, 0.015, -0.003),
        (-0.03223125, 0.015, -0.003),
        (-0.0294625, 0.015, -0.003),
        (-0.02669375, 0.015, -0.003),
        (-0.023925, 0.015, -0.003),
        (-0.02115625, 0.015, -0.003),
        (-0.0183875, 0.015, -0.003),
        (-0.01561875, 0.015, -0.003),
        (-0.01285, 0.015, -0.003),
        (-0.01008125, 0.015, -0.003),
        (-0.0073125, 0.015, -0.003),
        (-0.00454375, 0.015, -0.003),
        (-0.001775, 0.015, -0.003),
        (-0.035, 0.0175, -0.003),
        (-0.0322130697093, 0.0175, -0.003),
        (-0.0294261394185, 0.0175, -0.003),
        (-0.0266392091278, 0.0175, -0.003),
        (-0.023852278837, 0.0175, -0.003),
        (-0.0210653485463, 0.0175, -0.003),
        (-0.0182784182556, 0.0175, -0.003),
        (-0.0154914879648, 0.0175, -0.003),
        (-0.0127045576741, 0.0175, -0.003),
        (-0.00991762738336, 0.0175, -0.003),
        (-0.00713069709262, 0.0175, -0.003),
        (-0.00434376680188, 0.0175, -0.003),
        (-0.00155683651114, 0.0175, -0.003),
        (-0.035, 0.02, -0.003),
        (-0.0322212733334, 0.02, -0.003),
        (-0.0294425466668, 0.02, -0.003),
        (-0.0266638200001, 0.02, -0.003),
        (-0.0238850933335, 0.02, -0.003),
        (-0.0211063666669, 0.02, -0.003),
        (-0.0183276400003, 0.02, -0.003),
        (-0.0155489133337, 0.02, -0.003),
        (-0.0127701866671, 0.02, -0.003),
        (-0.00999146000045, 0.02, -0.003),
        (-0.00721273333383, 0.02, -0.003),
        (-0.00443400666721, 0.02, -0.003),
        (-0.0016552800006, 0.02, -0.003),
        (-0.035, 0.0225, -0.003),
        (-0.03225, 0.0225, -0.003),
        (-0.0295, 0.0225, -0.003),
        (-0.02675, 0.0225, -0.003),
        (-0.024, 0.0225, -0.003),
        (-0.02125, 0.0225, -0.003),
        (-0.0185, 0.0225, -0.003),
        (-0.01575, 0.0225, -0.003),
        (-0.013, 0.0225, -0.003),
        (-0.01025, 0.0225, -0.003),
        (-0.0075, 0.0225, -0.003),
        (-0.00475, 0.0225, -0.003),
        (-0.002, 0.0225, -0.003),
        (-0.035, -0.0225, -0.0015),
        (-0.0322708333333, -0.0225, -0.0015),
        (-0.0295416666667, -0.0225, -0.0015),
        (-0.0268125, -0.0225, -0.0015),
        (-0.0240833333333, -0.0225, -0.0015),
        (-0.0213541666667, -0.0225, -0.0015),
        (-0.018625, -0.0225, -0.0015),
        (-0.0158958333333, -0.0225, -0.0015),
        (-0.0131666666667, -0.0225, -0.0015),
        (-0.0104375, -0.0225, -0.0015),
        (-0.00770833333333, -0.0225, -0.0015),
        (-0.00497916666667, -0.0225, -0.0015),
        (-0.00225, -0.0225, -0.0015),
        (-0.035, -0.02, -0.0015),
        (-0.0322421066667, -0.02, -0.0015),
        (-0.0294842133334, -0.02, -0.0015),
        (-0.0267263200001, -0.02, -0.0015),
        (-0.0239684266669, -0.02, -0.0015),
        (-0.0212105333336, -0.02, -0.0015),
        (-0.0184526400003, -0.02, -0.0015),
        (-0.015694746667, -0.02, -0.0015),
        (-0.0129368533337, -0.02, -0.0015),
        (-0.0101789600004, -0.02, -0.0015),
        (-0.00742106666716, -0.02, -0.0015),
        (-0.00466317333388, -0.02, -0.0015),
        (-0.0019052800006, -0.02, -0.0015),
        (-0.035, -0.0175, -0.0015),
        (-0.0322339030426, -0.0175, -0.0015),
        (-0.0294678060852, -0.0175, -0.0015),
        (-0.0267017091278, -0.0175, -0.0015),
        (-0.0239356121704, -0.0175, -0.0015),
        (-0.021169515213, -0.0175, -0.0015),
        (-0.0184034182556, -0.0175, -0.0015),
        (-0.0156373212982, -0.0175, -0.0015),
        (-0.0128712243408, -0.0175, -0.0015),
        (-0.0101051273834, -0.0175, -0.0015),
        (-0.00733903042595, -0.0175, -0.0015),
        (-0.00457293346855, -0.0175, -0.0015),
        (-0.00180683651114, -0.0175, -0.0015),
        (-0.035, -0.015, -0.0015),
        (-0.0322520833333, -0.015, -0.0015),
        (-0.0295041666667, -0.015, -0.0015),
        (-0.02675625, -0.015, -0.0015),
        (-0.0240083333333, -0.015, -0.0015),
        (-0.0212604166667, -0.015, -0.0015),
        (-0.0185125, -0.015, -0.0015),
        (-0.0157645833333, -0.015, -0.0015),
        (-0.0130166666667, -0.015, -0.0015),
        (-0.01026875, -0.015, -0.0015),
        (-0.00752083333333, -0.015, -0.0015),
        (-0.00477291666667, -0.015, -0.0015),
        (-0.002025, -0.015, -0.0015),
        (-0.035, -0.0125, -0.0015),
        (-0.0322836590887, -0.0125, -0.0015),
        (-0.0295673181774, -0.0125, -0.0015),
        (-0.0268509772661, -0.0125, -0.0015),
        (-0.0241346363548, -0.0125, -0.0015),
        (-0.0214182954435, -0.0125, -0.0015),
        (-0.0187019545322, -0.0125, -0.0015),
        (-0.015985613621, -0.0125, -0.0015),
        (-0.0132692727097, -0.0125, -0.0015),
        (-0.0105529317984, -0.0125, -0.0015),
        (-0.00783659088708, -0.0125, -0.0015),
        (-0.00512024997579, -0.0125, -0.0015),
        (-0.0024039090645, -0.0125, -0.0015),
        (-0.035, -0.01, -0.0015),
        (-0.0323060718066, -0.01, -0.0015),
        (-0.0296121436132, -0.01, -0.0015),
        (-0.0269182154198, -0.01, -0.0015),
        (-0.0242242872265, -0.01, -0.0015),
        (-0.0215303590331, -0.01, -0.0015),
        (-0.0188364308397, -0.01, -0.0015),
        (-0.0161425026463, -0.01, -0.0015),
        (-0.0134485744529, -0.01, -0.0015),
        (-0.0107546462595, -0.01, -0.0015),
        (-0.00806071806613, -0.01, -0.0015),
        (-0.00536678987274, -0.01, -0.0015),
        (-0.00267286167935, -0.01, -0.0015),
        (-0.035, -0.0075, -0.0015),
        (-0.032303309286, -0.0075, -0.0015),
        (-0.029606618572, -0.0075, -0.0015),
        (-0.0269099278579, -0.0075, -0.0015),
        (-0.0242132371439, -0.0075, -0.0015),
        (-0.0215165464299, -0.0075, -0.0015),
        (-0.0188198557159, -0.0075, -0.0015),
        (-0.0161231650018, -0.0075, -0.0015),
        (-0.0134264742878, -0.0075, -0.0015),
        (-0.0107297835738, -0.0075, -0.0015),
        (-0.00803309285975, -0.0075, -0.0015),
        (-0.00533640214573, -0.0075, -0.0015),
        (-0.0026397114317, -0.0075, -0.0015),
        (-0.035, -0.005, -0.0015),
        (-0.03227734514, -0.005, -0.0015),
        (-0.02955469028, -0.005, -0.0015),
        (-0.02683203542, -0.005, -0.0015),
        (-0.02410938056, -0.005, -0.0015),
        (-0.0213867257, -0.005, -0.0015),
        (-0.01866407084, -0.005, -0.0015),
        (-0.01594141598, -0.005, -0.0015),
        (-0.01321876112, -0.005, -0.0015),
        (-0.01049610626, -0.005, -0.0015),
        (-0.00777345139996, -0.005, -0.0015),
        (-0.00505079653995, -0.005, -0.0015),
        (-0.00232814167995, -0.005, -0.0015),
        (-0.035, -0.0025, -0.0015),
        (-0.032246728798, -0.0025, -0.0015),
        (-0.0294934575959, -0.0025, -0.0015),
        (-0.0267401863939, -0.0025, -0.0015),
        (-0.0239869151919, -0.0025, -0.0015),
        (-0.0212336439899, -0.0025, -0.0015),
        (-0.0184803727878, -0.0025, -0.0015),
        (-0.0157271015858, -0.0025, -0.0015),
        (-0.0129738303838, -0.0025, -0.0015),
        (-0.0102205591817, -0.0025, -0.0015),
        (-0.0074672879797, -0.0025, -0.0015),
        (-0.00471401677767, -0.0025, -0.0015),
        (-0.00196074557564, -0.0025, -0.0015),
        (-0.035, 0, -0.0015),
        (-0.0322333333333, 0, -0.0015),
        (-0.0294666666667, 0, -0.0015),
        (-0.0267, 0, -0.0015),
        (-0.0239333333333, 0, -0.0015),
        (-0.0211666666667, 0, -0.0015),
        (-0.0184, 0, -0.0015),
        (-0.0156333333333, 0, -0.0015),
        (-0.0128666666667, 0, -0.0015),
        (-0.0101, 0, -0.0015),
        (-0.00733333333333, 0, -0.0015),
        (-0.00456666666667, 0, -0.0015),
        (-0.0018, 0, -0.0015),
        (-0.035, 0.0025, -0.0015),
        (-0.032246728798, 0.0025, -0.0015),
        (-0.0294934575959, 0.0025, -0.0015),
        (-0.0267401863939, 0.0025, -0.0015),
        (-0.0239869151919, 0.0025, -0.0015),
        (-0.0212336439899, 0.0025, -0.0015),
        (-0.0184803727878, 0.0025, -0.0015),
        (-0.0157271015858, 0.0025, -0.0015),
        (-0.0129738303838, 0.0025, -0.0015),
        (-0.0102205591817, 0.0025, -0.0015),
        (-0.0074672879797, 0.0025, -0.0015),
        (-0.00471401677767, 0.0025, -0.0015),
        (-0.00196074557564, 0.0025, -0.0015),
        (-0.035, 0.005, -0.0015),
        (-0.03227734514, 0.005, -0.0015),
        (-0.02955469028, 0.005, -0.0015),
        (-0.02683203542, 0.005, -0.0015),
        (-0.02410938056, 0.005, -0.0015),
        (-0.0213867257, 0.005, -0.0015),
        (-0.01866407084, 0.005, -0.0015),
        (-0.01594141598, 0.005, -0.0015),
        (-0.01321876112, 0.005, -0.0015),
        (-0.01049610626, 0.005, -0.0015),
        (-0.00777345139996, 0.005, -0.0015),
        (-0.00505079653995, 0.005, -0.0015),
        (-0.00232814167995, 0.005, -0.0015),
        (-0.035, 0.0075, -0.0015),
        (-0.032303309286, 0.0075, -0.0015),
        (-0.029606618572, 0.0075, -0.0015),
        (-0.0269099278579, 0.0075, -0.0015),
        (-0.0242132371439, 0.0075, -0.0015),
        (-0.0215165464299, 0.0075, -0.0015),
        (-0.0188198557159, 0.0075, -0.0015),
        (-0.0161231650018, 0.0075, -0.0015),
        (-0.0134264742878, 0.0075, -0.0015),
        (-0.0107297835738, 0.0075, -0.0015),
        (-0.00803309285975, 0.0075, -0.0015),
        (-0.00533640214573, 0.0075, -0.0015),
        (-0.0026397114317, 0.0075, -0.0015),
        (-0.035, 0.01, -0.0015),
        (-0.0323060718066, 0.01, -0.0015),
        (-0.0296121436132, 0.01, -0.0015),
        (-0.0269182154198, 0.01, -0.0015),
        (-0.0242242872265, 0.01, -0.0015),
        (-0.0215303590331, 0.01, -0.0015),
        (-0.0188364308397, 0.01, -0.0015),
        (-0.0161425026463, 0.01, -0.0015),
        (-0.0134485744529, 0.01, -0.0015),
        (-0.0107546462595, 0.01, -0.0015),
        (-0.00806071806613, 0.01, -0.0015),
        (-0.00536678987274, 0.01, -0.0015),
        (-0.00267286167935, 0.01, -0.0015),
        (-0.035, 0.0125, -0.0015),
        (-0.0322836590887, 0.0125, -0.0015),
        (-0.0295673181774, 0.0125, -0.0015),
        (-0.0268509772661, 0.0125, -0.0015),
        (-0.0241346363548, 0.0125, -0.0015),
        (-0.0214182954435, 0.0125, -0.0015),
        (-0.0187019545322, 0.0125, -0.0015),
        (-0.015985613621, 0.0125, -0.0015),
        (-0.0132692727097, 0.0125, -0.0015),
        (-0.0105529317984, 0.0125, -0.0015),
        (-0.00783659088708, 0.0125, -0.0015),
        (-0.00512024997579, 0.0125, -0.0015),
        (-0.0024039090645, 0.0125, -0.0015),
        (-0.035, 0.015, -0.0015),
        (-0.0322520833333, 0.015, -0.0015),
        (-0.0295041666667, 0.015, -0.0015),
        (-0.02675625, 0.015, -0.0015),
        (-0.0240083333333, 0.015, -0.0015),
        (-0.0212604166667, 0.015, -0.0015),
        (-0.0185125, 0.015, -0.0015),
        (-0.0157645833333, 0.015, -0.0015),
        (-0.0130166666667, 0.015, -0.0015),
        (-0.01026875, 0.015, -0.0015),
        (-0.00752083333333, 0.015, -0.0015),
        (-0.00477291666667, 0.015, -0.0015),
        (-0.002025, 0.015, -0.0015),
        (-0.035, 0.0175, -0.0015),
        (-0.0322339030426, 0.0175, -0.0015),
        (-0.0294678060852, 0.0175, -0.0015),
        (-0.0267017091278, 0.0175, -0.0015),
        (-0.0239356121704, 0.0175, -0.0015),
        (-0.021169515213, 0.0175, -0.0015),
        (-0.0184034182556, 0.0175, -0.0015),
        (-0.0156373212982, 0.0175, -0.0015),
        (-0.0128712243408, 0.0175, -0.0015),
        (-0.0101051273834, 0.0175, -0.0015),
        (-0.00733903042595, 0.0175, -0.0015),
        (-0.00457293346855, 0.0175, -0.0015),
        (-0.00180683651114, 0.0175, -0.0015),
        (-0.035, 0.02, -0.0015),
        (-0.0322421066667, 0.02, -0.0015),
        (-0.0294842133334, 0.02, -0.0015),
        (-0.0267263200001, 0.02, -0.0015),
        (-0.0239684266669, 0.02, -0.0015),
        (-0.0212105333336, 0.02, -0.0015),
        (-0.0184526400003, 0.02, -0.0015),
        (-0.015694746667, 0.02, -0.0015),
        (-0.0129368533337, 0.02, -0.0015),
        (-0.0101789600004, 0.02, -0.0015),
        (-0.00742106666716, 0.02, -0.0015),
        (-0.00466317333388, 0.02, -0.0015),
        (-0.0019052800006, 0.02, -0.0015),
        (-0.035, 0.0225, -0.0015),
        (-0.0322708333333, 0.0225, -0.0015),
        (-0.0295416666667, 0.0225, -0.0015),
        (-0.0268125, 0.0225, -0.0015),
        (-0.0240833333333, 0.0225, -0.0015),
        (-0.0213541666667, 0.0225, -0.0015),
        (-0.018625, 0.0225, -0.0015),
        (-0.0158958333333, 0.0225, -0.0015),
        (-0.0131666666667, 0.0225, -0.0015),
        (-0.0104375, 0.0225, -0.0015),
        (-0.00770833333333, 0.0225, -0.0015),
        (-0.00497916666667, 0.0225, -0.0015),
        (-0.00225, 0.0225, -0.0015),
        (-0.035, -0.0225, 0),
        (-0.0322916666667, -0.0225, 0),
        (-0.0295833333333, -0.0225, 0),
        (-0.026875, -0.0225, 0),
        (-0.0241666666667, -0.0225, 0),
        (-0.0214583333333, -0.0225, 0),
        (-0.01875, -0.0225, 0),
        (-0.0160416666667, -0.0225, 0),
        (-0.0133333333333, -0.0225, 0),
        (-0.010625, -0.0225, 0),
        (-0.00791666666667, -0.0225, 0),
        (-0.00520833333333, -0.0225, 0),
        (-0.0025, -0.0225, 0),
        (-0.035, -0.02, 0),
        (-0.03226294, -0.02, 0),
        (-0.0295258800001, -0.02, 0),
        (-0.0267888200001, -0.02, 0),
        (-0.0240517600002, -0.02, 0),
        (-0.0213147000002, -0.02, 0),
        (-0.0185776400003, -0.02, 0),
        (-0.0158405800003, -0.02, 0),
        (-0.0131035200004, -0.02, 0),
        (-0.0103664600004, -0.02, 0),
        (-0.0076294000005, -0.02, 0),
        (-0.00489234000055, -0.02, 0),
        (-0.0021552800006, -0.02, 0),
        (-0.035, -0.0175, 0),
        (-0.0322547363759, -0.0175, 0),
        (-0.0295094727519, -0.0175, 0),
        (-0.0267642091278, -0.0175, 0),
        (-0.0240189455037, -0.0175, 0),
        (-0.0212736818796, -0.0175, 0),
        (-0.0185284182556, -0.0175, 0),
        (-0.0157831546315, -0.0175, 0),
        (-0.0130378910074, -0.0175, 0),
        (-0.0102926273834, -0.0175, 0),
        (-0.00754736375929, -0.0175, 0),
        (-0.00480210013522, -0.0175, 0),
        (-0.00205683651114, -0.0175, 0),
        (-0.035, -0.015, 0),
        (-0.0322729166667, -0.015, 0),
        (-0.0295458333333, -0.015, 0),
        (-0.02681875, -0.015, 0),
        (-0.0240916666667, -0.015, 0),
        (-0.0213645833333, -0.015, 0),
        (-0.0186375, -0.015, 0),
        (-0.0159104166667, -0.015, 0),
        (-0.0131833333333, -0.015, 0),
        (-0.01045625, -0.015, 0),
        (-0.00772916666667, -0.015, 0),
        (-0.00500208333333, -0.015, 0),
        (-0.002275, -0.015, 0),
        (-0.035, -0.0125, 0),
        (-0.032304492422, -0.0125, 0),
        (-0.0296089848441, -0.0125, 0),
        (-0.0269134772661, -0.0125, 0),
        (-0.0242179696882, -0.0125, 0),
        (-0.0215224621102, -0.0125, 0),
        (-0.0188269545322, -0.0125, 0),
        (-0.0161314469543, -0.0125, 0),
        (-0.0134359393763, -0.0125, 0),
        (-0.0107404317984, -0.0125, 0),
        (-0.00804492422041, -0.0125, 0),
        (-0.00534941664246, -0.0125, 0),
        (-0.0026539090645, -0.0125, 0),
        (-0.035, -0.01, 0),
        (-0.0323269051399, -0.01, 0),
        (-0.0296538102799, -0.01, 0),
        (-0.0269807154198, -0.01, 0),
        (-0.0243076205598, -0.01, 0),
        (-0.0216345256997, -0.01, 0),
        (-0.0189614308397, -0.01, 0),
        (-0.0162883359796, -0.01, 0),
        (-0.0136152411196, -0.01, 0),
        (-0.0109421462595, -0.01, 0),
        (-0.00826905139946, -0.01, 0),
        (-0.00559595653941, -0.01, 0),
        (-0.00292286167935, -0.01, 0),
        (-0.035, -0.0075, 0),
        (-0.0323241426193, -0.0075, 0),
        (-0.0296482852386, -0.0075, 0),
        (-0.0269724278579, -0.0075, 0),
        (-0.0242965704772, -0.0075, 0),
        (-0.0216207130965, -0.0075, 0),
        (-0.0189448557159, -0.0075, 0),
        (-0.0162689983352, -0.0075, 0),
        (-0.0135931409545, -0.0075, 0),
        (-0.0109172835738, -0.0075, 0),
        (-0.00824142619309, -0.0075, 0),
        (-0.00556556881239, -0.0075, 0),
        (-0.0028897114317, -0.0075, 0),
        (-0.035, -0.005, 0),
        (-0.0322981784733, -0.005, 0),
        (-0.0295963569467, -0.005, 0),
        (-0.02689453542, -0.005, 0),
        (-0.0241927138933, -0.005, 0),
        (-0.0214908923666, -0.005, 0),
        (-0.01878907084, -0.005, 0),
        (-0.0160872493133, -0.005, 0),
        (-0.0133854277866, -0.005, 0),
        (-0.01068360626, -0.005, 0),
        (-0.00798178473329, -0.005, 0),
        (-0.00527996320662, -0.005, 0),
        (-0.00257814167995, -0.005, 0),
        (-0.035, -0.0025, 0),
        (-0.0322675621313, -0.0025, 0),
        (-0.0295351242626, -0.0025, 0),
        (-0.0268026863939, -0.0025, 0),
        (-0.0240702485252, -0.0025, 0),
        (-0.0213378106565, -0.0025, 0),
        (-0.0186053727878, -0.0025, 0),
        (-0.0158729349191, -0.0025, 0),
        (-0.0131404970504, -0.0025, 0),
        (-0.0104080591817, -0.0025, 0),
        (-0.00767562131303, -0.0025, 0),
        (-0.00494318344434, -0.0025, 0),
        (-0.00221074557564, -0.0025, 0),
        (-0.035, 0, 0),
        (-0.0322541666667, 0, 0),
        (-0.0295083333333, 0, 0),
        (-0.0267625, 0, 0),
        (-0.0240166666667, 0, 0),
        (-0.0212708333333, 0, 0),
        (-0.018525, 0, 0),
        (-0.0157791666667, 0, 0),
        (-0.0130333333333, 0, 0),
        (-0.0102875, 0, 0),
        (-0.00754166666667, 0, 0),
        (-0.00479583333333, 0, 0),
        (-0.00205, 0, 0),
        (-0.035, 0.0025, 0),
        (-0.0322675621313, 0.0025, 0),
        (-0.0295351242626, 0.0025, 0),
        (-0.0268026863939, 0.0025, 0),
        (-0.0240702485252, 0.0025, 0),
        (-0.0213378106565, 0.0025, 0),
        (-0.0186053727878, 0.0025, 0),
        (-0.0158729349191, 0.0025, 0),
        (-0.0131404970504, 0.0025, 0),
        (-0.0104080591817, 0.0025, 0),
        (-0.00767562131303, 0.0025, 0),
        (-0.00494318344434, 0.0025, 0),
        (-0.00221074557564, 0.0025, 0),
        (-0.035, 0.005, 0),
        (-0.0322981784733, 0.005, 0),
        (-0.0295963569467, 0.005, 0),
        (-0.02689453542, 0.005, 0),
        (-0.0241927138933, 0.005, 0),
        (-0.0214908923666, 0.005, 0),
        (-0.01878907084, 0.005, 0),
        (-0.0160872493133, 0.005, 0),
        (-0.0133854277866, 0.005, 0),
        (-0.01068360626, 0.005, 0),
        (-0.00798178473329, 0.005, 0),
        (-0.00527996320662, 0.005, 0),
        (-0.00257814167995, 0.005, 0),
        (-0.035, 0.0075, 0),
        (-0.0323241426193, 0.0075, 0),
        (-0.0296482852386, 0.0075, 0),
        (-0.0269724278579, 0.0075, 0),
        (-0.0242965704772, 0.0075, 0),
        (-0.0216207130965, 0.0075, 0),
        (-0.0189448557159, 0.0075, 0),
        (-0.0162689983352, 0.0075, 0),
        (-0.0135931409545, 0.0075, 0),
        (-0.0109172835738, 0.0075, 0),
        (-0.00824142619309, 0.0075, 0),
        (-0.00556556881239, 0.0075, 0),
        (-0.0028897114317, 0.0075, 0),
        (-0.035, 0.01, 0),
        (-0.0323269051399, 0.01, 0),
        (-0.0296538102799, 0.01, 0),
        (-0.0269807154198, 0.01, 0),
        (-0.0243076205598, 0.01, 0),
        (-0.0216345256997, 0.01, 0),
        (-0.0189614308397, 0.01, 0),
        (-0.0162883359796, 0.01, 0),
        (-0.0136152411196, 0.01, 0),
        (-0.0109421462595, 0.01, 0),
        (-0.00826905139946, 0.01, 0),
        (-0.00559595653941, 0.01, 0),
        (-0.00292286167935, 0.01, 0),
        (-0.035, 0.0125, 0),
        (-0.032304492422, 0.0125, 0),
        (-0.0296089848441, 0.0125, 0),
        (-0.0269134772661, 0.0125, 0),
        (-0.0242179696882, 0.0125, 0),
        (-0.0215224621102, 0.0125, 0),
        (-0.0188269545322, 0.0125, 0),
        (-0.0161314469543, 0.0125, 0),
        (-0.0134359393763, 0.0125, 0),
        (-0.0107404317984, 0.0125, 0),
        (-0.00804492422041, 0.0125, 0),
        (-0.00534941664246, 0.0125, 0),
        (-0.0026539090645, 0.0125, 0),
        (-0.035, 0.015, 0),
        (-0.0322729166667, 0.015, 0),
        (-0.0295458333333, 0.015, 0),
        (-0.02681875, 0.015, 0),
        (-0.0240916666667, 0.015, 0),
        (-0.0213645833333, 0.015, 0),
        (-0.0186375, 0.015, 0),
        (-0.0159104166667, 0.015, 0),
        (-0.0131833333333, 0.015, 0),
        (-0.01045625, 0.015, 0),
        (-0.00772916666667, 0.015, 0),
        (-0.00500208333333, 0.015, 0),
        (-0.002275, 0.015, 0),
        (-0.035, 0.0175, 0),
        (-0.0322547363759, 0.0175, 0),
        (-0.0295094727519, 0.0175, 0),
        (-0.0267642091278, 0.0175, 0),
        (-0.0240189455037, 0.0175, 0),
        (-0.0212736818796, 0.0175, 0),
        (-0.0185284182556, 0.0175, 0),
        (-0.0157831546315, 0.0175, 0),
        (-0.0130378910074, 0.0175, 0),
        (-0.0102926273834, 0.0175, 0),
        (-0.00754736375929, 0.0175, 0),
        (-0.00480210013522, 0.0175, 0),
        (-0.00205683651114, 0.0175, 0),
        (-0.035, 0.02, 0),
        (-0.03226294, 0.02, 0),
        (-0.0295258800001, 0.02, 0),
        (-0.0267888200001, 0.02, 0),
        (-0.0240517600002, 0.02, 0),
        (-0.0213147000002, 0.02, 0),
        (-0.0185776400003, 0.02, 0),
        (-0.0158405800003, 0.02, 0),
        (-0.0131035200004, 0.02, 0),
        (-0.0103664600004, 0.02, 0),
        (-0.0076294000005, 0.02, 0),
        (-0.00489234000055, 0.02, 0),
        (-0.0021552800006, 0.02, 0),
        (-0.035, 0.0225, 0),
        (-0.0322916666667, 0.0225, 0),
        (-0.0295833333333, 0.0225, 0),
        (-0.026875, 0.0225, 0),
        (-0.0241666666667, 0.0225, 0),
        (-0.0214583333333, 0.0225, 0),
        (-0.01875, 0.0225, 0),
        (-0.0160416666667, 0.0225, 0),
        (-0.0133333333333, 0.0225, 0),
        (-0.010625, 0.0225, 0),
        (-0.00791666666667, 0.0225, 0),
        (-0.00520833333333, 0.0225, 0),
        (-0.0025, 0.0225, 0),
        (-0.035, -0.0225, 0.0015),
        (-0.0323125, -0.0225, 0.0015),
        (-0.029625, -0.0225, 0.0015),
        (-0.0269375, -0.0225, 0.0015),
        (-0.02425, -0.0225, 0.0015),
        (-0.0215625, -0.0225, 0.0015),
        (-0.018875, -0.0225, 0.0015),
        (-0.0161875, -0.0225, 0.0015),
        (-0.0135, -0.0225, 0.0015),
        (-0.0108125, -0.0225, 0.0015),
        (-0.008125, -0.0225, 0.0015),
        (-0.0054375, -0.0225, 0.0015),
        (-0.00275, -0.0225, 0.0015),
        (-0.035, -0.02, 0.0015),
        (-0.0322837733334, -0.02, 0.0015),
        (-0.0295675466668, -0.02, 0.0015),
        (-0.0268513200001, -0.02, 0.0015),
        (-0.0241350933335, -0.02, 0.0015),
        (-0.0214188666669, -0.02, 0.0015),
        (-0.0187026400003, -0.02, 0.0015),
        (-0.0159864133337, -0.02, 0.0015),
        (-0.0132701866671, -0.02, 0.0015),
        (-0.0105539600004, -0.02, 0.0015),
        (-0.00783773333383, -0.02, 0.0015),
        (-0.00512150666721, -0.02, 0.0015),
        (-0.0024052800006, -0.02, 0.0015),
        (-0.035, -0.0175, 0.0015),
        (-0.0322755697093, -0.0175, 0.0015),
        (-0.0295511394185, -0.0175, 0.0015),
        (-0.0268267091278, -0.0175, 0.0015),
        (-0.024102278837, -0.0175, 0.0015),
        (-0.0213778485463, -0.0175, 0.0015),
        (-0.0186534182556, -0.0175, 0.0015),
        (-0.0159289879648, -0.0175, 0.0015),
        (-0.0132045576741, -0.0175, 0.0015),
        (-0.0104801273834, -0.0175, 0.0015),
        (-0.00775569709262, -0.0175, 0.0015),
        (-0.00503126680188, -0.0175, 0.0015),
        (-0.00230683651114, -0.0175, 0.0015),
        (-0.035, -0.015, 0.0015),
        (-0.03229375, -0.015, 0.0015),
        (-0.0295875, -0.015, 0.0015),
        (-0.02688125, -0.015, 0.0015),
        (-0.024175, -0.015, 0.0015),
        (-0.02146875, -0.015, 0.0015),
        (-0.0187625, -0.015, 0.0015),
        (-0.01605625, -0.015, 0.0015),
        (-0.01335, -0.015, 0.0015),
        (-0.01064375, -0.015, 0.0015),
        (-0.0079375, -0.015, 0.0015),
        (-0.00523125, -0.015, 0.0015),
        (-0.002525, -0.015, 0.0015),
        (-0.035, -0.0125, 0.0015),
        (-0.0323253257554, -0.0125, 0.0015),
        (-0.0296506515107, -0.0125, 0.0015),
        (-0.0269759772661, -0.0125, 0.0015),
        (-0.0243013030215, -0.0125, 0.0015),
        (-0.0216266287769, -0.0125, 0.0015),
        (-0.0189519545322, -0.0125, 0.0015),
        (-0.0162772802876, -0.0125, 0.0015),
        (-0.013602606043, -0.0125, 0.0015),
        (-0.0109279317984, -0.0125, 0.0015),
        (-0.00825325755375, -0.0125, 0.0015),
        (-0.00557858330912, -0.0125, 0.0015),
        (-0.0029039090645, -0.0125, 0.0015),
        (-0.035, -0.01, 0.0015),
        (-0.0323477384733, -0.01, 0.0015),
        (-0.0296954769466, -0.01, 0.0015),
        (-0.0270432154198, -0.01, 0.0015),
        (-0.0243909538931, -0.01, 0.0015),
        (-0.0217386923664, -0.01, 0.0015),
        (-0.0190864308397, -0.01, 0.0015),
        (-0.016434169313, -0.01, 0.0015),
        (-0.0137819077862, -0.01, 0.0015),
        (-0.0111296462595, -0.01, 0.0015),
        (-0.00847738473279, -0.01, 0.0015),
        (-0.00582512320607, -0.01, 0.0015),
        (-0.00317286167935, -0.01, 0.0015),
        (-0.035, -0.0075, 0.0015),
        (-0.0323449759526, -0.0075, 0.0015),
        (-0.0296899519053, -0.0075, 0.0015),
        (-0.0270349278579, -0.0075, 0.0015),
        (-0.0243799038106, -0.0075, 0.0015),
        (-0.0217248797632, -0.0075, 0.0015),
        (-0.0190698557159, -0.0075, 0.0015),
        (-0.0164148316685, -0.0075, 0.0015),
        (-0.0137598076211, -0.0075, 0.0015),
        (-0.0111047835738, -0.0075, 0.0015),
        (-0.00844975952642, -0.0075, 0.0015),
        (-0.00579473547906, -0.0075, 0.0015),
        (-0.0031397114317, -0.0075, 0.0015),
        (-0.035, -0.005, 0.0015),
        (-0.0323190118067, -0.005, 0.0015),
        (-0.0296380236133, -0.005, 0.0015),
        (-0.02695703542, -0.005, 0.0015),
        (-0.0242760472267, -0.005, 0.0015),
        (-0.0215950590333, -0.005, 0.0015),
        (-0.01891407084, -0.005, 0.0015),
        (-0.0162330826466, -0.005, 0.0015),
        (-0.0135520944533, -0.005, 0.0015),
        (-0.01087110626, -0.005, 0.0015),
        (-0.00819011806663, -0.005, 0.0015),
        (-0.00550912987329, -0.005, 0.0015),
        (-0.00282814167995, -0.005, 0.0015),
        (-0.035, -0.0025, 0.0015),
        (-0.0322883954646, -0.0025, 0.0015),
        (-0.0295767909293, -0.0025, 0.0015),
        (-0.0268651863939, -0.0025, 0.0015),
        (-0.0241535818585, -0.0025, 0.0015),
        (-0.0214419773232, -0.0025, 0.0015),
        (-0.0187303727878, -0.0025, 0.0015),
        (-0.0160187682525, -0.0025, 0.0015),
        (-0.0133071637171, -0.0025, 0.0015),
        (-0.0105955591817, -0.0025, 0.0015),
        (-0.00788395464637, -0.0025, 0.0015),
        (-0.005172350111, -0.0025, 0.0015),
        (-0.00246074557564, -0.0025, 0.0015),
        (-0.035, 0, 0.0015),
        (-0.032275, 0, 0.0015),
        (-0.02955, 0, 0.0015),
        (-0.026825, 0, 0.0015),
        (-0.0241, 0, 0.0015),
        (-0.021375, 0, 0.0015),
        (-0.01865, 0, 0.0015),
        (-0.015925, 0, 0.0015),
        (-0.0132, 0, 0.0015),
        (-0.010475, 0, 0.0015),
        (-0.00775, 0, 0.0015),
        (-0.005025, 0, 0.0015),
        (-0.0023, 0, 0.0015),
        (-0.035, 0.0025, 0.0015),
        (-0.0322883954646, 0.0025, 0.0015),
        (-0.0295767909293, 0.0025, 0.0015),
        (-0.0268651863939, 0.0025, 0.0015),
        (-0.0241535818585, 0.0025, 0.0015),
        (-0.0214419773232, 0.0025, 0.0015),
        (-0.0187303727878, 0.0025, 0.0015),
        (-0.0160187682525, 0.0025, 0.0015),
        (-0.0133071637171, 0.0025, 0.0015),
        (-0.0105955591817, 0.0025, 0.0015),
        (-0.00788395464637, 0.0025, 0.0015),
        (-0.005172350111, 0.0025, 0.0015),
        (-0.00246074557564, 0.0025, 0.0015),
        (-0.035, 0.005, 0.0015),
        (-0.0323190118067, 0.005, 0.0015),
        (-0.0296380236133, 0.005, 0.0015),
        (-0.02695703542, 0.005, 0.0015),
        (-0.0242760472267, 0.005, 0.0015),
        (-0.0215950590333, 0.005, 0.0015),
        (-0.01891407084, 0.005, 0.0015),
        (-0.0162330826466, 0.005, 0.0015),
        (-0.0135520944533, 0.005, 0.0015),
        (-0.01087110626, 0.005, 0.0015),
        (-0.00819011806663, 0.005, 0.0015),
        (-0.00550912987329, 0.005, 0.0015),
        (-0.00282814167995, 0.005, 0.0015),
        (-0.035, 0.0075, 0.0015),
        (-0.0323449759526, 0.0075, 0.0015),
        (-0.0296899519053, 0.0075, 0.0015),
        (-0.0270349278579, 0.0075, 0.0015),
        (-0.0243799038106, 0.0075, 0.0015),
        (-0.0217248797632, 0.0075, 0.0015),
        (-0.0190698557159, 0.0075, 0.0015),
        (-0.0164148316685, 0.0075, 0.0015),
        (-0.0137598076211, 0.0075, 0.0015),
        (-0.0111047835738, 0.0075, 0.0015),
        (-0.00844975952642, 0.0075, 0.0015),
        (-0.00579473547906, 0.0075, 0.0015),
        (-0.0031397114317, 0.0075, 0.0015),
        (-0.035, 0.01, 0.0015),
        (-0.0323477384733, 0.01, 0.0015),
        (-0.0296954769466, 0.01, 0.0015),
        (-0.0270432154198, 0.01, 0.0015),
        (-0.0243909538931, 0.01, 0.0015),
        (-0.0217386923664, 0.01, 0.0015),
        (-0.0190864308397, 0.01, 0.0015),
        (-0.016434169313, 0.01, 0.0015),
        (-0.0137819077862, 0.01, 0.0015),
        (-0.0111296462595, 0.01, 0.0015),
        (-0.00847738473279, 0.01, 0.0015),
        (-0.00582512320607, 0.01, 0.0015),
        (-0.00317286167935, 0.01, 0.0015),
        (-0.035, 0.0125, 0.0015),
        (-0.0323253257554, 0.0125, 0.0015),
        (-0.0296506515107, 0.0125, 0.0015),
        (-0.0269759772661, 0.0125, 0.0015),
        (-0.0243013030215, 0.0125, 0.0015),
        (-0.0216266287769, 0.0125, 0.0015),
        (-0.0189519545322, 0.0125, 0.0015),
        (-0.0162772802876, 0.0125, 0.0015),
        (-0.013602606043, 0.0125, 0.0015),
        (-0.0109279317984, 0.0125, 0.0015),
        (-0.00825325755375, 0.0125, 0.0015),
        (-0.00557858330912, 0.0125, 0.0015),
        (-0.0029039090645, 0.0125, 0.0015),
        (-0.035, 0.015, 0.0015),
        (-0.03229375, 0.015, 0.0015),
        (-0.0295875, 0.015, 0.0015),
        (-0.02688125, 0.015, 0.0015),
        (-0.024175, 0.015, 0.0015),
        (-0.02146875, 0.015, 0.0015),
        (-0.0187625, 0.015, 0.0015),
        (-0.01605625, 0.015, 0.0015),
        (-0.01335, 0.015, 0.0015),
        (-0.01064375, 0.015, 0.0015),
        (-0.0079375, 0.015, 0.0015),
        (-0.00523125, 0.015, 0.0015),
        (-0.002525, 0.015, 0.0015),
        (-0.035, 0.0175, 0.0015),
        (-0.0322755697093, 0.0175, 0.0015),
        (-0.0295511394185, 0.0175, 0.0015),
        (-0.0268267091278, 0.0175, 0.0015),
        (-0.024102278837, 0.0175, 0.0015),
        (-0.0213778485463, 0.0175, 0.0015),
        (-0.0186534182556, 0.0175, 0.0015),
        (-0.0159289879648, 0.0175, 0.0015),
        (-0.0132045576741, 0.0175, 0.0015),
        (-0.0104801273834, 0.0175, 0.0015),
        (-0.00775569709262, 0.0175, 0.0015),
        (-0.00503126680188, 0.0175, 0.0015),
        (-0.00230683651114, 0.0175, 0.0015),
        (-0.035, 0.02, 0.0015),
        (-0.0322837733334, 0.02, 0.0015),
        (-0.0295675466668, 0.02, 0.0015),
        (-0.0268513200001, 0.02, 0.0015),
        (-0.0241350933335, 0.02, 0.0015),
        (-0.0214188666669, 0.02, 0.0015),
        (-0.0187026400003, 0.02, 0.0015),
        (-0.0159864133337, 0.02, 0.0015),
        (-0.0132701866671, 0.02, 0.0015),
        (-0.0105539600004, 0.02, 0.0015),
        (-0.00783773333383, 0.02, 0.0015),
        (-0.00512150666721, 0.02, 0.0015),
        (-0.0024052800006, 0.02, 0.0015),
        (-0.035, 0.0225, 0.0015),
        (-0.0323125, 0.0225, 0.0015),
        (-0.029625, 0.0225, 0.0015),
        (-0.0269375, 0.0225, 0.0015),
        (-0.02425, 0.0225, 0.0015),
        (-0.0215625, 0.0225, 0.0015),
        (-0.018875, 0.0225, 0.0015),
        (-0.0161875, 0.0225, 0.0015),
        (-0.0135, 0.0225, 0.0015),
        (-0.0108125, 0.0225, 0.0015),
        (-0.008125, 0.0225, 0.0015),
        (-0.0054375, 0.0225, 0.0015),
        (-0.00275, 0.0225, 0.0015),
        (-0.035, -0.0225, 0.003),
        (-0.0323333333333, -0.0225, 0.003),
        (-0.0296666666667, -0.0225, 0.003),
        (-0.027, -0.0225, 0.003),
        (-0.0243333333333, -0.0225, 0.003),
        (-0.0216666666667, -0.0225, 0.003),
        (-0.019, -0.0225, 0.003),
        (-0.0163333333333, -0.0225, 0.003),
        (-0.0136666666667, -0.0225, 0.003),
        (-0.011, -0.0225, 0.003),
        (-0.00833333333333, -0.0225, 0.003),
        (-0.00566666666667, -0.0225, 0.003),
        (-0.003, -0.0225, 0.003),
        (-0.035, -0.02, 0.003),
        (-0.0323046066667, -0.02, 0.003),
        (-0.0296092133334, -0.02, 0.003),
        (-0.0269138200001, -0.02, 0.003),
        (-0.0242184266669, -0.02, 0.003),
        (-0.0215230333336, -0.02, 0.003),
        (-0.0188276400003, -0.02, 0.003),
        (-0.016132246667, -0.02, 0.003),
        (-0.0134368533337, -0.02, 0.003),
        (-0.0107414600004, -0.02, 0.003),
        (-0.00804606666716, -0.02, 0.003),
        (-0.00535067333388, -0.02, 0.003),
        (-0.0026552800006, -0.02, 0.003),
        (-0.035, -0.0175, 0.003),
        (-0.0322964030426, -0.0175, 0.003),
        (-0.0295928060852, -0.0175, 0.003),
        (-0.0268892091278, -0.0175, 0.003),
        (-0.0241856121704, -0.0175, 0.003),
        (-0.021482015213, -0.0175, 0.003),
        (-0.0187784182556, -0.0175, 0.003),
        (-0.0160748212982, -0.0175, 0.003),
        (-0.0133712243408, -0.0175, 0.003),
        (-0.0106676273834, -0.0175, 0.003),
        (-0.00796403042595, -0.0175, 0.003),
        (-0.00526043346855, -0.0175, 0.003),
        (-0.00255683651114, -0.0175, 0.003),
        (-0.035, -0.015, 0.003),
        (-0.0323145833333, -0.015, 0.003),
        (-0.0296291666667, -0.015, 0.003),
        (-0.02694375, -0.015, 0.003),
        (-0.0242583333333, -0.015, 0.003),
        (-0.0215729166667, -0.015, 0.003),
        (-0.0188875, -0.015, 0.003),
        (-0.0162020833333, -0.015, 0.003),
        (-0.0135166666667, -0.015, 0.003),
        (-0.01083125, -0.015, 0.003),
        (-0.00814583333333, -0.015, 0.003),
        (-0.00546041666667, -0.015, 0.003),
        (-0.002775, -0.015, 0.003),
        (-0.035, -0.0125, 0.003),
        (-0.0323461590887, -0.0125, 0.003),
        (-0.0296923181774, -0.0125, 0.003),
        (-0.0270384772661, -0.0125, 0.003),
        (-0.0243846363548, -0.0125, 0.003),
        (-0.0217307954435, -0.0125, 0.003),
        (-0.0190769545322, -0.0125, 0.003),
        (-0.016423113621, -0.0125, 0.003),
        (-0.0137692727097, -0.0125, 0.003),
        (-0.0111154317984, -0.0125, 0.003),
        (-0.00846159088708, -0.0125, 0.003),
        (-0.00580774997579, -0.0125, 0.003),
        (-0.0031539090645, -0.0125, 0.003),
        (-0.035, -0.01, 0.003),
        (-0.0323685718066, -0.01, 0.003),
        (-0.0297371436132, -0.01, 0.003),
        (-0.0271057154198, -0.01, 0.003),
        (-0.0244742872265, -0.01, 0.003),
        (-0.0218428590331, -0.01, 0.003),
        (-0.0192114308397, -0.01, 0.003),
        (-0.0165800026463, -0.01, 0.003),
        (-0.0139485744529, -0.01, 0.003),
        (-0.0113171462595, -0.01, 0.003),
        (-0.00868571806613, -0.01, 0.003),
        (-0.00605428987274, -0.01, 0.003),
        (-0.00342286167935, -0.01, 0.003),
        (-0.035, -0.0075, 0.003),
        (-0.032365809286, -0.0075, 0.003),
        (-0.029731618572, -0.0075, 0.003),
        (-0.0270974278579, -0.0075, 0.003),
        (-0.0244632371439, -0.0075, 0.003),
        (-0.0218290464299, -0.0075, 0.003),
        (-0.0191948557159, -0.0075, 0.003),
        (-0.0165606650018, -0.0075, 0.003),
        (-0.0139264742878, -0.0075, 0.003),
        (-0.0112922835738, -0.0075, 0.003),
        (-0.00865809285975, -0.0075, 0.003),
        (-0.00602390214573, -0.0075, 0.003),
        (-0.0033897114317, -0.0075, 0.003),
        (-0.035, -0.005, 0.003),
        (-0.03233984514, -0.005, 0.003),
        (-0.02967969028, -0.005, 0.003),
        (-0.02701953542, -0.005, 0.003),
        (-0.02435938056, -0.005, 0.003),
        (-0.0216992257, -0.005, 0.003),
        (-0.01903907084, -0.005, 0.003),
        (-0.01637891598, -0.005, 0.003),
        (-0.01371876112, -0.005, 0.003),
        (-0.01105860626, -0.005, 0.003),
        (-0.00839845139996, -0.005, 0.003),
        (-0.00573829653995, -0.005, 0.003),
        (-0.00307814167995, -0.005, 0.003),
        (-0.035, -0.0025, 0.003),
        (-0.032309228798, -0.0025, 0.003),
        (-0.0296184575959, -0.0025, 0.003),
        (-0.0269276863939, -0.0025, 0.003),
        (-0.0242369151919, -0.0025, 0.003),
        (-0.0215461439899, -0.0025, 0.003),
        (-0.0188553727878, -0.0025, 0.003),
        (-0.0161646015858, -0.0025, 0.003),
        (-0.0134738303838, -0.0025, 0.003),
        (-0.0107830591817, -0.0025, 0.003),
        (-0.0080922879797, -0.0025, 0.003),
        (-0.00540151677767, -0.0025, 0.003),
        (-0.00271074557564, -0.0025, 0.003),
        (-0.035, 0, 0.003),
        (-0.0322958333333, 0, 0.003),
        (-0.0295916666667, 0, 0.003),
        (-0.0268875, 0, 0.003),
        (-0.0241833333333, 0, 0.003),
        (-0.0214791666667, 0, 0.003),
        (-0.018775, 0, 0.003),
        (-0.0160708333333, 0, 0.003),
        (-0.0133666666667, 0, 0.003),
        (-0.0106625, 0, 0.003),
        (-0.00795833333333, 0, 0.003),
        (-0.00525416666667, 0, 0.003),
        (-0.00255, 0, 0.003),
        (-0.035, 0.0025, 0.003),
        (-0.032309228798, 0.0025, 0.003),
        (-0.0296184575959, 0.0025, 0.003),
        (-0.0269276863939, 0.0025, 0.003),
        (-0.0242369151919, 0.0025, 0.003),
        (-0.0215461439899, 0.0025, 0.003),
        (-0.0188553727878, 0.0025, 0.003),
        (-0.0161646015858, 0.0025, 0.003),
        (-0.0134738303838, 0.0025, 0.003),
        (-0.0107830591817, 0.0025, 0.003),
        (-0.0080922879797, 0.0025, 0.003),
        (-0.00540151677767, 0.0025, 0.003),
        (-0.00271074557564, 0.0025, 0.003),
        (-0.035, 0.005, 0.003),
        (-0.03233984514, 0.005, 0.003),
        (-0.02967969028, 0.005, 0.003),
        (-0.02701953542, 0.005, 0.003),
        (-0.02435938056, 0.005, 0.003),
        (-0.0216992257, 0.005, 0.003),
        (-0.01903907084, 0.005, 0.003),
        (-0.01637891598, 0.005, 0.003),
        (-0.01371876112, 0.005, 0.003),
        (-0.01105860626, 0.005, 0.003),
        (-0.00839845139996, 0.005, 0.003),
        (-0.00573829653995, 0.005, 0.003),
        (-0.00307814167995, 0.005, 0.003),
        (-0.035, 0.0075, 0.003),
        (-0.032365809286, 0.0075, 0.003),
        (-0.029731618572, 0.0075, 0.003),
        (-0.0270974278579, 0.0075, 0.003),
        (-0.0244632371439, 0.0075, 0.003),
        (-0.0218290464299, 0.0075, 0.003),
        (-0.0191948557159, 0.0075, 0.003),
        (-0.0165606650018, 0.0075, 0.003),
        (-0.0139264742878, 0.0075, 0.003),
        (-0.0112922835738, 0.0075, 0.003),
        (-0.00865809285975, 0.0075, 0.003),
        (-0.00602390214573, 0.0075, 0.003),
        (-0.0033897114317, 0.0075, 0.003),
        (-0.035, 0.01, 0.003),
        (-0.0323685718066, 0.01, 0.003),
        (-0.0297371436132, 0.01, 0.003),
        (-0.0271057154198, 0.01, 0.003),
        (-0.0244742872265, 0.01, 0.003),
        (-0.0218428590331, 0.01, 0.003),
        (-0.0192114308397, 0.01, 0.003),
        (-0.0165800026463, 0.01, 0.003),
        (-0.0139485744529, 0.01, 0.003),
        (-0.0113171462595, 0.01, 0.003),
        (-0.00868571806613, 0.01, 0.003),
        (-0.00605428987274, 0.01, 0.003),
        (-0.00342286167935, 0.01, 0.003),
        (-0.035, 0.0125, 0.003),
        (-0.0323461590887, 0.0125, 0.003),
        (-0.0296923181774, 0.0125, 0.003),
        (-0.0270384772661, 0.0125, 0.003),
        (-0.0243846363548, 0.0125, 0.003),
        (-0.0217307954435, 0.0125, 0.003),
        (-0.0190769545322, 0.0125, 0.003),
        (-0.016423113621, 0.0125, 0.003),
        (-0.0137692727097, 0.0125, 0.003),
        (-0.0111154317984, 0.0125, 0.003),
        (-0.00846159088708, 0.0125, 0.003),
        (-0.00580774997579, 0.0125, 0.003),
        (-0.0031539090645, 0.0125, 0.003),
        (-0.035, 0.015, 0.003),
        (-0.0323145833333, 0.015, 0.003),
        (-0.0296291666667, 0.015, 0.003),
        (-0.02694375, 0.015, 0.003),
        (-0.0242583333333, 0.015, 0.003),
        (-0.0215729166667, 0.015, 0.003),
        (-0.0188875, 0.015, 0.003),
        (-0.0162020833333, 0.015, 0.003),
        (-0.0135166666667, 0.015, 0.003),
        (-0.01083125, 0.015, 0.003),
        (-0.00814583333333, 0.015, 0.003),
        (-0.00546041666667, 0.015, 0.003),
        (-0.002775, 0.015, 0.003),
        (-0.035, 0.0175, 0.003),
        (-0.0322964030426, 0.0175, 0.003),
        (-0.0295928060852, 0.0175, 0.003),
        (-0.0268892091278, 0.0175, 0.003),
        (-0.0241856121704, 0.0175, 0.003),
        (-0.021482015213, 0.0175, 0.003),
        (-0.0187784182556, 0.0175, 0.003),
        (-0.0160748212982, 0.0175, 0.003),
        (-0.0133712243408, 0.0175, 0.003),
        (-0.0106676273834, 0.0175, 0.003),
        (-0.00796403042595, 0.0175, 0.003),
        (-0.00526043346855, 0.0175, 0.003),
        (-0.00255683651114, 0.0175, 0.003),
        (-0.035, 0.02, 0.003),
        (-0.0323046066667, 0.02, 0.003),
        (-0.0296092133334, 0.02, 0.003),
        (-0.0269138200001, 0.02, 0.003),
        (-0.0242184266669, 0.02, 0.003),
        (-0.0215230333336, 0.02, 0.003),
        (-0.0188276400003, 0.02, 0.003),
        (-0.016132246667, 0.02, 0.003),
        (-0.0134368533337, 0.02, 0.003),
        (-0.0107414600004, 0.02, 0.003),
        (-0.00804606666716, 0.02, 0.003),
        (-0.00535067333388, 0.02, 0.003),
        (-0.0026552800006, 0.02, 0.003),
        (-0.035, 0.0225, 0.003),
        (-0.0323333333333, 0.0225, 0.003),
        (-0.0296666666667, 0.0225, 0.003),
        (-0.027, 0.0225, 0.003),
        (-0.0243333333333, 0.0225, 0.003),
        (-0.0216666666667, 0.0225, 0.003),
        (-0.019, 0.0225, 0.003),
        (-0.0163333333333, 0.0225, 0.003),
        (-0.0136666666667, 0.0225, 0.003),
        (-0.011, 0.0225, 0.003),
        (-0.00833333333333, 0.0225, 0.003),
        (-0.00566666666667, 0.0225, 0.003),
        (-0.003, 0.0225, 0.003)
]
uniform token subdivisionScheme = "none"
uniform token orientation = "rightHanded"
uniform token subsetFamily:materialBind:familyType = "partition"

        def GeomSubset "SurfaceFaces" (
            prepend apiSchemas = ["MaterialBindingAPI"]
        )
        {
            uniform token elementType = "face"
            uniform token familyName = "materialBind"
            int[] indices = [912, 913, 914, 915, 916, 917, 918, 919, 920, 921, 922, 923, 924, 925, 926, 927, 928, 929, 930, 931, 932, 933, 934, 935, 936, 937, 938, 939, 940, 941, 942, 943, 944, 945, 946, 947, 948, 949, 950, 951, 952, 953, 954, 955, 956, 957, 958, 959, 960, 961, 962, 963, 964, 965, 966, 967, 968, 969, 970, 971, 972, 973, 974, 975, 976, 977, 978, 979, 980, 981, 982, 983, 984, 985, 986, 987, 988, 989, 990, 991, 992, 993, 994, 995, 996, 997, 998, 999, 1000, 1001, 1002, 1003, 1004, 1005, 1006, 1007, 1008, 1009, 1010, 1011, 1012, 1013, 1014, 1015, 1016, 1017, 1018, 1019, 1020, 1021, 1022, 1023, 1024, 1025, 1026, 1027, 1028, 1029, 1030, 1031, 1032, 1033, 1034, 1035, 1036, 1037, 1038, 1039, 1040, 1041, 1042, 1043, 1044, 1045, 1046, 1047, 1048, 1049, 1050, 1051, 1052, 1053, 1054, 1055, 1056, 1057, 1058, 1059, 1060, 1061, 1062, 1063, 1064, 1065, 1066, 1067, 1068, 1069, 1070, 1071, 1072, 1073, 1074, 1075, 1076, 1077, 1078, 1079, 1080, 1081, 1082, 1083, 1084, 1085, 1086, 1087, 1088, 1089, 1090, 1091, 1092, 1093, 1094, 1095, 1096, 1097, 1098, 1099, 1100, 1101, 1102, 1103, 1104, 1105, 1106, 1107, 1108, 1109, 1110, 1111, 1112, 1113, 1114, 1115, 1116, 1117, 1118, 1119, 1120, 1121, 1122, 1123, 1124, 1125, 1126, 1127, 1128, 1129, 1130, 1131, 1132, 1133, 1134, 1135, 1136, 1137, 1138, 1139, 1140, 1141, 1142, 1143, 1144, 1145, 1146, 1147, 1148, 1149, 1150, 1151, 1152, 1153, 1154, 1155, 1156, 1157, 1158, 1159, 1160, 1161, 1162, 1163, 1164, 1165, 1166, 1167, 1168, 1169, 1170, 1171, 1172, 1173, 1174, 1175, 1176, 1177, 1178, 1179, 1180, 1181, 1182, 1183, 1184, 1185, 1186, 1187, 1188, 1189, 1190, 1191, 1192, 1193, 1194, 1195, 1196, 1197, 1198, 1199, 1200, 1201, 1202, 1203, 1204, 1205, 1206, 1207, 1208, 1209, 1210, 1211, 1212, 1213, 1214, 1215, 1216, 1217, 1218, 1219, 1220, 1221, 1222, 1223, 1224, 1225, 1226, 1227, 1228, 1229, 1230, 1231, 1232, 1233, 1234, 1235, 1236, 1237, 1238, 1239, 1240, 1241, 1242, 1243, 1244, 1245, 1246, 1247, 1248, 1249, 1250, 1251, 1252, 1253, 1254, 1255, 1256, 1257, 1258, 1259, 1260, 1261, 1262, 1263, 1264, 1265, 1266, 1267, 1268, 1269, 1270, 1271, 1272, 1273, 1274, 1275, 1276, 1277, 1278, 1279, 1280, 1281, 1282, 1283, 1284, 1285, 1286, 1287, 1288, 1289, 1290, 1291, 1292, 1293, 1294, 1295, 1296, 1297, 1298, 1299, 1300, 1301, 1302, 1303, 1304, 1305, 1306, 1307, 1308, 1309, 1310, 1311, 1312, 1313, 1314, 1315, 1316, 1317, 1318, 1319, 1320, 1321, 1322, 1323, 1324, 1325, 1326, 1327, 1328, 1329, 1330, 1331, 1332, 1333, 1334, 1335, 1336, 1337, 1338, 1339, 1340, 1341, 1342, 1343]
            rel material:binding = </DrAnmarSuturableTissue/Materials/Surface>
        }

        def GeomSubset "BulkFaces" (
            prepend apiSchemas = ["MaterialBindingAPI"]
        )
        {
            uniform token elementType = "face"
            uniform token familyName = "materialBind"
            int[] indices = [1, 3, 4, 5, 7, 9, 11, 13, 15, 17, 19, 21, 23, 25, 27, 29, 31, 33, 35, 37, 39, 41, 43, 45, 47, 49, 54, 55, 82, 83, 110, 111, 138, 139, 166, 167, 194, 195, 222, 223, 250, 251, 278, 279, 306, 307, 334, 335, 362, 363, 390, 391, 418, 419, 446, 447, 474, 475, 502, 503, 528, 529, 530, 531, 532, 533, 534, 535, 536, 537, 538, 539, 540, 541, 542, 543, 544, 545, 546, 547, 548, 549, 550, 551, 552, 553, 554, 555, 556, 557, 558, 559, 560, 561, 562, 563, 564, 565, 566, 567, 568, 569, 570, 571, 572, 573, 574, 575, 576, 577, 580, 581, 584, 585, 588, 589, 592, 593, 596, 597, 600, 601, 604, 605, 608, 609, 612, 613, 616, 617, 620, 621, 624, 625, 628, 629, 632, 633, 636, 637, 640, 641, 644, 645, 648, 649, 650, 651, 652, 653, 654, 655, 656, 657, 658, 659, 660, 661, 662, 663, 664, 665, 666, 667, 668, 669, 670, 671, 672, 673, 674, 675, 676, 677, 678, 679, 680, 681, 682, 683, 684, 685, 686, 687, 688, 689, 690, 691, 692, 693, 694, 695, 696, 697, 700, 701, 704, 705, 708, 709, 712, 713, 716, 717, 720, 721, 724, 725, 728, 729, 732, 733, 736, 737, 740, 741, 744, 745, 748, 749, 752, 753, 756, 757, 760, 761, 764, 765, 768, 769, 770, 771, 772, 773, 774, 775, 776, 777, 778, 779, 780, 781, 782, 783, 784, 785, 786, 787, 788, 789, 790, 791, 792, 793, 794, 795, 796, 797, 798, 799, 800, 801, 802, 803, 804, 805, 806, 807, 808, 809, 810, 811, 812, 813, 814, 815, 816, 817, 820, 821, 824, 825, 828, 829, 832, 833, 836, 837, 840, 841, 844, 845, 848, 849, 852, 853, 856, 857, 860, 861, 864, 865, 868, 869, 872, 873, 876, 877, 880, 881, 884, 885, 888, 889, 890, 891, 892, 893, 894, 895, 896, 897, 898, 899, 900, 901, 902, 903, 904, 905, 906, 907, 908, 909, 910, 911]
            rel material:binding = </DrAnmarSuturableTissue/Materials/Bulk>
        }

        def GeomSubset "FasciaFaces" (
            prepend apiSchemas = ["MaterialBindingAPI"]
        )
        {
            uniform token elementType = "face"
            uniform token familyName = "materialBind"
            int[] indices = [0, 2, 6, 8, 10, 12, 14, 16, 18, 20, 22, 24, 26, 28, 30, 32, 34, 36, 38, 40, 42, 44, 46, 48, 52, 53, 56, 57, 58, 59, 60, 61, 62, 63, 64, 65, 66, 67, 68, 69, 70, 71, 72, 73, 74, 75, 76, 77, 80, 81, 84, 85, 86, 87, 88, 89, 90, 91, 92, 93, 94, 95, 96, 97, 98, 99, 100, 101, 102, 103, 104, 105, 108, 109, 112, 113, 114, 115, 116, 117, 118, 119, 120, 121, 122, 123, 124, 125, 126, 127, 128, 129, 130, 131, 132, 133, 136, 137, 140, 141, 142, 143, 144, 145, 146, 147, 148, 149, 150, 151, 152, 153, 154, 155, 156, 157, 158, 159, 160, 161, 164, 165, 168, 169, 170, 171, 172, 173, 174, 175, 176, 177, 178, 179, 180, 181, 182, 183, 184, 185, 186, 187, 188, 189, 192, 193, 196, 197, 198, 199, 200, 201, 202, 203, 204, 205, 206, 207, 208, 209, 210, 211, 212, 213, 214, 215, 216, 217, 220, 221, 224, 225, 226, 227, 228, 229, 230, 231, 232, 233, 234, 235, 236, 237, 238, 239, 240, 241, 242, 243, 244, 245, 248, 249, 252, 253, 254, 255, 256, 257, 258, 259, 260, 261, 262, 263, 264, 265, 266, 267, 268, 269, 270, 271, 272, 273, 276, 277, 280, 281, 282, 283, 284, 285, 286, 287, 288, 289, 290, 291, 292, 293, 294, 295, 296, 297, 298, 299, 300, 301, 304, 305, 308, 309, 310, 311, 312, 313, 314, 315, 316, 317, 318, 319, 320, 321, 322, 323, 324, 325, 326, 327, 328, 329, 332, 333, 336, 337, 338, 339, 340, 341, 342, 343, 344, 345, 346, 347, 348, 349, 350, 351, 352, 353, 354, 355, 356, 357, 360, 361, 364, 365, 366, 367, 368, 369, 370, 371, 372, 373, 374, 375, 376, 377, 378, 379, 380, 381, 382, 383, 384, 385, 388, 389, 392, 393, 394, 395, 396, 397, 398, 399, 400, 401, 402, 403, 404, 405, 406, 407, 408, 409, 410, 411, 412, 413, 416, 417, 420, 421, 422, 423, 424, 425, 426, 427, 428, 429, 430, 431, 432, 433, 434, 435, 436, 437, 438, 439, 440, 441, 444, 445, 448, 449, 450, 451, 452, 453, 454, 455, 456, 457, 458, 459, 460, 461, 462, 463, 464, 465, 466, 467, 468, 469, 472, 473, 476, 477, 478, 479, 480, 481, 482, 483, 484, 485, 486, 487, 488, 489, 490, 491, 492, 493, 494, 495, 496, 497, 500, 501, 504, 505, 506, 507, 508, 509, 510, 511, 512, 513, 514, 515, 516, 517, 518, 519, 520, 521, 522, 523, 524, 525]
            rel material:binding = </DrAnmarSuturableTissue/Materials/Fascia>
        }

        def GeomSubset "WoundFaces" (
            prepend apiSchemas = ["MaterialBindingAPI"]
        )
        {
            uniform token elementType = "face"
            uniform token familyName = "materialBind"
            int[] indices = [50, 51, 78, 79, 106, 107, 134, 135, 162, 163, 190, 191, 218, 219, 246, 247, 274, 275, 302, 303, 330, 331, 358, 359, 386, 387, 414, 415, 442, 443, 470, 471, 498, 499, 526, 527, 578, 579, 582, 583, 586, 587, 590, 591, 594, 595, 598, 599, 602, 603, 606, 607, 610, 611, 614, 615, 618, 619, 622, 623, 626, 627, 630, 631, 634, 635, 638, 639, 642, 643, 646, 647, 698, 699, 702, 703, 706, 707, 710, 711, 714, 715, 718, 719, 722, 723, 726, 727, 730, 731, 734, 735, 738, 739, 742, 743, 746, 747, 750, 751, 754, 755, 758, 759, 762, 763, 766, 767, 818, 819, 822, 823, 826, 827, 830, 831, 834, 835, 838, 839, 842, 843, 846, 847, 850, 851, 854, 855, 858, 859, 862, 863, 866, 867, 870, 871, 874, 875, 878, 879, 882, 883, 886, 887]
            rel material:binding = </DrAnmarSuturableTissue/Materials/Wound>
        }
    }
}
