#usda 1.0
(
    defaultPrim = "DrAnmarSuturableTissue"
    doc = "DrAnmar Suturable Tissue: two-flap open-incision deformable tissue research asset; not clinically validated."
    kilogramsPerUnit = 1
    metersPerUnit = 1
    upAxis = "Z"
)

def Xform "DrAnmarSuturableTissue" (
    customData = {
        string drAnmarAssetId = "dr-anmar-suturable-tissue"
        string drAnmarAssetName = "DrAnmar Suturable Tissue"
        string drAnmarAssetVersion = "1.0.0"
        string drAnmarAuthorship = "Independent Dr.Anmar procedural geometry, topology, mechanics and calibration contract"
        bool drAnmarClinicalValidation = false
        int drAnmarConnectedComponents = 1
        string drAnmarProfileId = "dr-anmar-suturable-tissue-v1"
        string drAnmarRepresentation = "watertight_surface_for_native_physx_tetrahedral_cooking"
        int drAnmarSimToRealGapCount = 10
        int drAnmarSurfaceTriangleCount = 1344
        int drAnmarTetrahedronCount = 5184
        int drAnmarVertexCount = 1235
        string drAnmarWoundTopology = "two_disconnected_watertight_flaps_with_open_incision"
        string drAnmarStatus = "research_informed_engineering_model_pending_bench_and_clinical_validation"
    }
)
{
    def Scope "Materials"
    {
        def Material "Surface"
        {
            def Shader "PreviewSurface"
            {
                uniform token info:id = "UsdPreviewSurface"
                color3f inputs:diffuseColor = (0.58, 0.18, 0.16)
                float inputs:metallic = 0
                float inputs:roughness = 0.58
                token outputs:surface
            }
            token outputs:surface.connect = </DrAnmarSuturableTissue/Materials/Surface/PreviewSurface.outputs:surface>
        }

        def Material "Bulk"
        {
            def Shader "PreviewSurface"
            {
                uniform token info:id = "UsdPreviewSurface"
                color3f inputs:diffuseColor = (0.72, 0.31, 0.26)
                float inputs:metallic = 0
                float inputs:roughness = 0.58
                token outputs:surface
            }
            token outputs:surface.connect = </DrAnmarSuturableTissue/Materials/Bulk/PreviewSurface.outputs:surface>
        }

        def Material "Fascia"
        {
            def Shader "PreviewSurface"
            {
                uniform token info:id = "UsdPreviewSurface"
                color3f inputs:diffuseColor = (0.82, 0.66, 0.45)
                float inputs:metallic = 0
                float inputs:roughness = 0.58
                token outputs:surface
            }
            token outputs:surface.connect = </DrAnmarSuturableTissue/Materials/Fascia/PreviewSurface.outputs:surface>
        }

        def Material "Wound"
        {
            def Shader "PreviewSurface"
            {
                uniform token info:id = "UsdPreviewSurface"
                color3f inputs:diffuseColor = (0.36, 0.035, 0.025)
                float inputs:metallic = 0
                float inputs:roughness = 0.58
                token outputs:surface
            }
            token outputs:surface.connect = </DrAnmarSuturableTissue/Materials/Wound/PreviewSurface.outputs:surface>
        }
    }

    def Mesh "Surface" (
        prepend apiSchemas = ["PhysicsCollisionAPI", "PhysicsMeshCollisionAPI", "MaterialBindingAPI"]
    )
    {
        uniform token physics:approximation = "none"
        float3[] extent = [(0.00157713832065, -0.0225, -0.003), (0.035, 0.0225, 0.003)]
int[] faceVertexCounts = [3, 3, 3, 3, 3, 3, 3, 3, 3, 3, 3, 3, 3, 3, 3, 3, 3, 3, 3, 3, 3, 3, 3, 3, 3, 3, 3, 3, 3, 3, 3, 3, 3, 3, 3, 3, 3, 3, 3, 3, 3, 3, 3, 3, 3, 3, 3, 3, 3, 3, 3, 3, 3, 3, 3, 3, 3, 3, 3, 3, 3, 3, 3, 3, 3, 3, 3, 3, 3, 3, 3, 3, 3, 3, 3, 3, 3, 3, 3, 3, 3, 3, 3, 3, 3, 3, 3, 3, 3, 3, 3, 3, 3, 3, 3, 3, 3, 3, 3, 3, 3, 3, 3, 3, 3, 3, 3, 3, 3, 3, 3, 3, 3, 3, 3, 3, 3, 3, 3, 3, 3, 3, 3, 3, 3, 3, 3, 3, 3, 3, 3, 3, 3, 3, 3, 3, 3, 3, 3, 3, 3, 3, 3, 3, 3, 3, 3, 3, 3, 3, 3, 3, 3, 3, 3, 3, 3, 3, 3, 3, 3, 3, 3, 3, 3, 3, 3, 3, 3, 3, 3, 3, 3, 3, 3, 3, 3, 3, 3, 3, 3, 3, 3, 3, 3, 3, 3, 3, 3, 3, 3, 3, 3, 3, 3, 3, 3, 3, 3, 3, 3, 3, 3, 3, 3, 3, 3, 3, 3, 3, 3, 3, 3, 3, 3, 3, 3, 3, 3, 3, 3, 3, 3, 3, 3, 3, 3, 3, 3, 3, 3, 3, 3, 3, 3, 3, 3, 3, 3, 3, 3, 3, 3, 3, 3, 3, 3, 3, 3, 3, 3, 3, 3, 3, 3, 3, 3, 3, 3, 3, 3, 3, 3, 3, 3, 3, 3, 3, 3, 3, 3, 3, 3, 3, 3, 3, 3, 3, 3, 3, 3, 3, 3, 3, 3, 3, 3, 3, 3, 3, 3, 3, 3, 3, 3, 3, 3, 3, 3, 3, 3, 3, 3, 3, 3, 3, 3, 3, 3, 3, 3, 3, 3, 3, 3, 3, 3, 3, 3, 3, 3, 3, 3, 3, 3, 3, 3, 3, 3, 3, 3, 3, 3, 3, 3, 3, 3, 3, 3, 3, 3, 3, 3, 3, 3, 3, 3, 3, 3, 3, 3, 3, 3, 3, 3, 3, 3, 3, 3, 3, 3, 3, 3, 3, 3, 3, 3, 3, 3, 3, 3, 3, 3, 3, 3, 3, 3, 3, 3, 3, 3, 3, 3, 3, 3, 3, 3, 3, 3, 3, 3, 3, 3, 3, 3, 3, 3, 3, 3, 3, 3, 3, 3, 3, 3, 3, 3, 3, 3, 3, 3, 3, 3, 3, 3, 3, 3, 3, 3, 3, 3, 3, 3, 3, 3, 3, 3, 3, 3, 3, 3, 3, 3, 3, 3, 3, 3, 3, 3, 3, 3, 3, 3, 3, 3, 3, 3, 3, 3, 3, 3, 3, 3, 3, 3, 3, 3, 3, 3, 3, 3, 3, 3, 3, 3, 3, 3, 3, 3, 3, 3, 3, 3, 3, 3, 3, 3, 3, 3, 3, 3, 3, 3, 3, 3, 3, 3, 3, 3, 3, 3, 3, 3, 3, 3, 3, 3, 3, 3, 3, 3, 3, 3, 3, 3, 3, 3, 3, 3, 3, 3, 3, 3, 3, 3, 3, 3, 3, 3, 3, 3, 3, 3, 3, 3, 3, 3, 3, 3, 3, 3, 3, 3, 3, 3, 3, 3, 3, 3, 3, 3, 3, 3, 3, 3, 3, 3, 3, 3, 3, 3, 3, 3, 3, 3, 3, 3, 3, 3, 3, 3, 3, 3, 3, 3, 3, 3, 3, 3, 3, 3, 3, 3, 3, 3, 3, 3, 3, 3, 3, 3, 3, 3, 3, 3, 3, 3, 3, 3, 3, 3, 3, 3, 3, 3, 3, 3, 3, 3, 3, 3, 3, 3, 3, 3, 3, 3, 3, 3, 3, 3, 3, 3, 3, 3, 3, 3, 3, 3, 3, 3, 3, 3, 3, 3, 3, 3, 3, 3, 3, 3, 3, 3, 3, 3, 3, 3, 3, 3, 3, 3, 3, 3, 3, 3, 3, 3, 3, 3, 3, 3, 3, 3, 3, 3, 3, 3, 3, 3, 3, 3, 3, 3, 3, 3, 3, 3, 3, 3, 3, 3, 3, 3, 3, 3, 3, 3, 3, 3, 3, 3, 3, 3, 3, 3, 3, 3, 3, 3, 3, 3, 3, 3, 3, 3, 3, 3, 3, 3, 3, 3, 3, 3, 3, 3, 3, 3, 3, 3, 3, 3, 3, 3, 3, 3, 3, 3, 3, 3, 3, 3, 3, 3, 3, 3, 3, 3, 3, 3, 3, 3, 3, 3, 3, 3, 3, 3, 3, 3, 3, 3, 3, 3, 3, 3, 3, 3, 3, 3, 3, 3, 3, 3, 3, 3, 3, 3, 3, 3, 3, 3, 3, 3, 3, 3, 3, 3, 3, 3, 3, 3, 3, 3, 3, 3, 3, 3, 3, 3, 3, 3, 3, 3, 3, 3, 3, 3, 3, 3, 3, 3, 3, 3, 3, 3, 3, 3, 3, 3, 3, 3, 3, 3, 3, 3, 3, 3, 3, 3, 3, 3, 3, 3, 3, 3, 3, 3, 3, 3, 3, 3, 3, 3, 3, 3, 3, 3, 3, 3, 3, 3, 3, 3, 3, 3, 3, 3, 3, 3, 3, 3, 3, 3, 3, 3, 3, 3, 3, 3, 3, 3, 3, 3, 3, 3, 3, 3, 3, 3, 3, 3, 3, 3, 3, 3, 3, 3, 3, 3, 3, 3, 3, 3, 3, 3, 3, 3, 3, 3, 3, 3, 3, 3, 3, 3, 3, 3, 3, 3, 3, 3, 3, 3, 3, 3, 3, 3, 3, 3, 3, 3, 3, 3, 3, 3, 3, 3, 3, 3, 3, 3, 3, 3, 3, 3, 3, 3, 3, 3, 3, 3, 3, 3, 3, 3, 3, 3, 3, 3, 3, 3, 3, 3, 3, 3, 3, 3, 3, 3, 3, 3, 3, 3, 3, 3, 3, 3, 3, 3, 3, 3, 3, 3, 3, 3, 3, 3, 3, 3, 3, 3, 3, 3, 3, 3, 3, 3, 3, 3, 3, 3, 3, 3, 3, 3, 3, 3, 3, 3, 3, 3, 3, 3, 3, 3, 3, 3, 3, 3, 3, 3, 3, 3, 3, 3, 3, 3, 3, 3, 3, 3, 3, 3, 3, 3, 3, 3, 3, 3, 3, 3, 3, 3, 3, 3, 3, 3, 3, 3, 3, 3, 3, 3, 3, 3, 3, 3, 3, 3, 3, 3, 3, 3, 3, 3, 3, 3, 3, 3, 3, 3, 3, 3, 3, 3, 3, 3, 3, 3, 3, 3, 3, 3, 3, 3, 3, 3, 3, 3, 3, 3, 3, 3, 3, 3, 3, 3, 3, 3, 3, 3, 3, 3, 3, 3, 3, 3, 3, 3, 3, 3, 3, 3, 3, 3, 3, 3, 3, 3, 3, 3, 3, 3, 3, 3, 3, 3, 3, 3, 3, 3, 3, 3, 3, 3, 3, 3, 3, 3, 3, 3, 3, 3, 3, 3, 3, 3, 3, 3, 3, 3, 3, 3, 3, 3, 3, 3, 3, 3, 3, 3, 3, 3, 3, 3, 3, 3, 3, 3, 3, 3, 3, 3, 3, 3, 3, 3, 3, 3, 3, 3, 3, 3, 3, 3, 3, 3, 3, 3, 3, 3, 3, 3, 3, 3, 3, 3, 3, 3, 3, 3, 3, 3, 3, 3, 3, 3, 3, 3, 3, 3, 3, 3, 3, 3, 3, 3, 3, 3, 3, 3, 3, 3, 3, 3, 3, 3, 3, 3, 3, 3, 3, 3, 3, 3, 3, 3, 3, 3, 3, 3, 3, 3, 3, 3, 3, 3, 3, 3, 3, 3, 3, 3, 3, 3, 3, 3, 3, 3, 3, 3, 3, 3, 3, 3, 3, 3, 3, 3, 3, 3, 3, 3, 3, 3, 3, 3, 3, 3, 3, 3, 3, 3, 3, 3, 3, 3, 3, 3, 3, 3, 3, 3, 3, 3, 3, 3, 3, 3, 3, 3, 3, 3, 3, 3, 3, 3, 3, 3, 3, 3, 3, 3, 3, 3, 3, 3, 3, 3, 3, 3, 3, 3, 3, 3, 3, 3, 3, 3, 3, 3, 3, 3, 3, 3, 3, 3, 3, 3, 3, 3, 3, 3, 3, 3, 3, 3, 3, 3, 3, 3, 3, 3, 3, 3, 3, 3, 3, 3, 3, 3, 3, 3, 3, 3, 3, 3, 3, 3, 3, 3, 3, 3, 3]
int[] faceVertexIndices = [0, 14, 1, 0, 1, 248, 0, 13, 14, 0, 260, 13, 0, 248, 247, 0, 247, 260, 1, 15, 2, 1, 2, 249, 1, 14, 15, 1, 249, 248, 2, 16, 3, 2, 3, 250, 2, 15, 16, 2, 250, 249, 3, 17, 4, 3, 4, 251, 3, 16, 17, 3, 251, 250, 4, 18, 5, 4, 5, 252, 4, 17, 18, 4, 252, 251, 5, 19, 6, 5, 6, 253, 5, 18, 19, 5, 253, 252, 6, 20, 7, 6, 7, 254, 6, 19, 20, 6, 254, 253, 7, 21, 8, 7, 8, 255, 7, 20, 21, 7, 255, 254, 8, 22, 9, 8, 9, 256, 8, 21, 22, 8, 256, 255, 9, 23, 10, 9, 10, 257, 9, 22, 23, 9, 257, 256, 10, 24, 11, 10, 11, 258, 10, 23, 24, 10, 258, 257, 11, 25, 12, 11, 12, 259, 11, 24, 25, 11, 259, 258, 12, 25, 272, 259, 12, 272, 13, 27, 14, 13, 26, 27, 13, 273, 26, 13, 260, 273, 14, 28, 15, 14, 27, 28, 15, 29, 16, 15, 28, 29, 16, 30, 17, 16, 29, 30, 17, 31, 18, 17, 30, 31, 18, 32, 19, 18, 31, 32, 19, 33, 20, 19, 32, 33, 20, 34, 21, 20, 33, 34, 21, 35, 22, 21, 34, 35, 22, 36, 23, 22, 35, 36, 23, 37, 24, 23, 36, 37, 24, 38, 25, 24, 37, 38, 25, 38, 285, 272, 25, 285, 26, 40, 27, 26, 39, 40, 26, 286, 39, 26, 273, 286, 27, 41, 28, 27, 40, 41, 28, 42, 29, 28, 41, 42, 29, 43, 30, 29, 42, 43, 30, 44, 31, 30, 43, 44, 31, 45, 32, 31, 44, 45, 32, 46, 33, 32, 45, 46, 33, 47, 34, 33, 46, 47, 34, 48, 35, 34, 47, 48, 35, 49, 36, 35, 48, 49, 36, 50, 37, 36, 49, 50, 37, 51, 38, 37, 50, 51, 38, 51, 298, 285, 38, 298, 39, 53, 40, 39, 52, 53, 39, 299, 52, 39, 286, 299, 40, 54, 41, 40, 53, 54, 41, 55, 42, 41, 54, 55, 42, 56, 43, 42, 55, 56, 43, 57, 44, 43, 56, 57, 44, 58, 45, 44, 57, 58, 45, 59, 46, 45, 58, 59, 46, 60, 47, 46, 59, 60, 47, 61, 48, 47, 60, 61, 48, 62, 49, 48, 61, 62, 49, 63, 50, 49, 62, 63, 50, 64, 51, 50, 63, 64, 51, 64, 311, 298, 51, 311, 52, 66, 53, 52, 65, 66, 52, 312, 65, 52, 299, 312, 53, 67, 54, 53, 66, 67, 54, 68, 55, 54, 67, 68, 55, 69, 56, 55, 68, 69, 56, 70, 57, 56, 69, 70, 57, 71, 58, 57, 70, 71, 58, 72, 59, 58, 71, 72, 59, 73, 60, 59, 72, 73, 60, 74, 61, 60, 73, 74, 61, 75, 62, 61, 74, 75, 62, 76, 63, 62, 75, 76, 63, 77, 64, 63, 76, 77, 64, 77, 324, 311, 64, 324, 65, 79, 66, 65, 78, 79, 65, 325, 78, 65, 312, 325, 66, 80, 67, 66, 79, 80, 67, 81, 68, 67, 80, 81, 68, 82, 69, 68, 81, 82, 69, 83, 70, 69, 82, 83, 70, 84, 71, 70, 83, 84, 71, 85, 72, 71, 84, 85, 72, 86, 73, 72, 85, 86, 73, 87, 74, 73, 86, 87, 74, 88, 75, 74, 87, 88, 75, 89, 76, 75, 88, 89, 76, 90, 77, 76, 89, 90, 77, 90, 337, 324, 77, 337, 78, 92, 79, 78, 91, 92, 78, 338, 91, 78, 325, 338, 79, 93, 80, 79, 92, 93, 80, 94, 81, 80, 93, 94, 81, 95, 82, 81, 94, 95, 82, 96, 83, 82, 95, 96, 83, 97, 84, 83, 96, 97, 84, 98, 85, 84, 97, 98, 85, 99, 86, 85, 98, 99, 86, 100, 87, 86, 99, 100, 87, 101, 88, 87, 100, 101, 88, 102, 89, 88, 101, 102, 89, 103, 90, 89, 102, 103, 90, 103, 350, 337, 90, 350, 91, 105, 92, 91, 104, 105, 91, 351, 104, 91, 338, 351, 92, 106, 93, 92, 105, 106, 93, 107, 94, 93, 106, 107, 94, 108, 95, 94, 107, 108, 95, 109, 96, 95, 108, 109, 96, 110, 97, 96, 109, 110, 97, 111, 98, 97, 110, 111, 98, 112, 99, 98, 111, 112, 99, 113, 100, 99, 112, 113, 100, 114, 101, 100, 113, 114, 101, 115, 102, 101, 114, 115, 102, 116, 103, 102, 115, 116, 103, 116, 363, 350, 103, 363, 104, 118, 105, 104, 117, 118, 104, 364, 117, 104, 351, 364, 105, 119, 106, 105, 118, 119, 106, 120, 107, 106, 119, 120, 107, 121, 108, 107, 120, 121, 108, 122, 109, 108, 121, 122, 109, 123, 110, 109, 122, 123, 110, 124, 111, 110, 123, 124, 111, 125, 112, 111, 124, 125, 112, 126, 113, 112, 125, 126, 113, 127, 114, 113, 126, 127, 114, 128, 115, 114, 127, 128, 115, 129, 116, 115, 128, 129, 116, 129, 376, 363, 116, 376, 117, 131, 118, 117, 130, 131, 117, 377, 130, 117, 364, 377, 118, 132, 119, 118, 131, 132, 119, 133, 120, 119, 132, 133, 120, 134, 121, 120, 133, 134, 121, 135, 122, 121, 134, 135, 122, 136, 123, 122, 135, 136, 123, 137, 124, 123, 136, 137, 124, 138, 125, 124, 137, 138, 125, 139, 126, 125, 138, 139, 126, 140, 127, 126, 139, 140, 127, 141, 128, 127, 140, 141, 128, 142, 129, 128, 141, 142, 129, 142, 389, 376, 129, 389, 130, 144, 131, 130, 143, 144, 130, 390, 143, 130, 377, 390, 131, 145, 132, 131, 144, 145, 132, 146, 133, 132, 145, 146, 133, 147, 134, 133, 146, 147, 134, 148, 135, 134, 147, 148, 135, 149, 136, 135, 148, 149, 136, 150, 137, 136, 149, 150, 137, 151, 138, 137, 150, 151, 138, 152, 139, 138, 151, 152, 139, 153, 140, 139, 152, 153, 140, 154, 141, 140, 153, 154, 141, 155, 142, 141, 154, 155, 142, 155, 402, 389, 142, 402, 143, 157, 144, 143, 156, 157, 143, 403, 156, 143, 390, 403, 144, 158, 145, 144, 157, 158, 145, 159, 146, 145, 158, 159, 146, 160, 147, 146, 159, 160, 147, 161, 148, 147, 160, 161, 148, 162, 149, 148, 161, 162, 149, 163, 150, 149, 162, 163, 150, 164, 151, 150, 163, 164, 151, 165, 152, 151, 164, 165, 152, 166, 153, 152, 165, 166, 153, 167, 154, 153, 166, 167, 154, 168, 155, 154, 167, 168, 155, 168, 415, 402, 155, 415, 156, 170, 157, 156, 169, 170, 156, 416, 169, 156, 403, 416, 157, 171, 158, 157, 170, 171, 158, 172, 159, 158, 171, 172, 159, 173, 160, 159, 172, 173, 160, 174, 161, 160, 173, 174, 161, 175, 162, 161, 174, 175, 162, 176, 163, 162, 175, 176, 163, 177, 164, 163, 176, 177, 164, 178, 165, 164, 177, 178, 165, 179, 166, 165, 178, 179, 166, 180, 167, 166, 179, 180, 167, 181, 168, 167, 180, 181, 168, 181, 428, 415, 168, 428, 169, 183, 170, 169, 182, 183, 169, 429, 182, 169, 416, 429, 170, 184, 171, 170, 183, 184, 171, 185, 172, 171, 184, 185, 172, 186, 173, 172, 185, 186, 173, 187, 174, 173, 186, 187, 174, 188, 175, 174, 187, 188, 175, 189, 176, 175, 188, 189, 176, 190, 177, 176, 189, 190, 177, 191, 178, 177, 190, 191, 178, 192, 179, 178, 191, 192, 179, 193, 180, 179, 192, 193, 180, 194, 181, 180, 193, 194, 181, 194, 441, 428, 181, 441, 182, 196, 183, 182, 195, 196, 182, 442, 195, 182, 429, 442, 183, 197, 184, 183, 196, 197, 184, 198, 185, 184, 197, 198, 185, 199, 186, 185, 198, 199, 186, 200, 187, 186, 199, 200, 187, 201, 188, 187, 200, 201, 188, 202, 189, 188, 201, 202, 189, 203, 190, 189, 202, 203, 190, 204, 191, 190, 203, 204, 191, 205, 192, 191, 204, 205, 192, 206, 193, 192, 205, 206, 193, 207, 194, 193, 206, 207, 194, 207, 454, 441, 194, 454, 195, 209, 196, 195, 208, 209, 195, 455, 208, 195, 442, 455, 196, 210, 197, 196, 209, 210, 197, 211, 198, 197, 210, 211, 198, 212, 199, 198, 211, 212, 199, 213, 200, 199, 212, 213, 200, 214, 201, 200, 213, 214, 201, 215, 202, 201, 214, 215, 202, 216, 203, 202, 215, 216, 203, 217, 204, 203, 216, 217, 204, 218, 205, 204, 217, 218, 205, 219, 206, 205, 218, 219, 206, 220, 207, 206, 219, 220, 207, 220, 467, 454, 207, 467, 208, 222, 209, 208, 221, 222, 208, 468, 221, 208, 455, 468, 209, 223, 210, 209, 222, 223, 210, 224, 211, 210, 223, 224, 211, 225, 212, 211, 224, 225, 212, 226, 213, 212, 225, 226, 213, 227, 214, 213, 226, 227, 214, 228, 215, 214, 227, 228, 215, 229, 216, 215, 228, 229, 216, 230, 217, 216, 229, 230, 217, 231, 218, 217, 230, 231, 218, 232, 219, 218, 231, 232, 219, 233, 220, 219, 232, 233, 220, 233, 480, 467, 220, 480, 221, 235, 222, 221, 234, 235, 221, 481, 234, 221, 468, 481, 222, 236, 223, 222, 235, 236, 223, 237, 224, 223, 236, 237, 224, 238, 225, 224, 237, 238, 225, 239, 226, 225, 238, 239, 226, 240, 227, 226, 239, 240, 227, 241, 228, 227, 240, 241, 228, 242, 229, 228, 241, 242, 229, 243, 230, 229, 242, 243, 230, 244, 231, 230, 243, 244, 231, 245, 232, 231, 244, 245, 232, 246, 233, 232, 245, 246, 233, 246, 493, 480, 233, 493, 235, 234, 482, 234, 481, 482, 236, 235, 483, 235, 482, 483, 237, 236, 484, 236, 483, 484, 238, 237, 485, 237, 484, 485, 239, 238, 486, 238, 485, 486, 240, 239, 487, 239, 486, 487, 241, 240, 488, 240, 487, 488, 242, 241, 489, 241, 488, 489, 243, 242, 490, 242, 489, 490, 244, 243, 491, 243, 490, 491, 245, 244, 492, 244, 491, 492, 246, 245, 493, 245, 492, 493, 247, 248, 495, 247, 507, 260, 247, 495, 494, 247, 494, 507, 248, 249, 496, 248, 496, 495, 249, 250, 497, 249, 497, 496, 250, 251, 498, 250, 498, 497, 251, 252, 499, 251, 499, 498, 252, 253, 500, 252, 500, 499, 253, 254, 501, 253, 501, 500, 254, 255, 502, 254, 502, 501, 255, 256, 503, 255, 503, 502, 256, 257, 504, 256, 504, 503, 257, 258, 505, 257, 505, 504, 258, 259, 506, 258, 506, 505, 259, 272, 519, 506, 259, 519, 260, 520, 273, 260, 507, 520, 272, 285, 532, 519, 272, 532, 273, 533, 286, 273, 520, 533, 285, 298, 545, 532, 285, 545, 286, 546, 299, 286, 533, 546, 298, 311, 558, 545, 298, 558, 299, 559, 312, 299, 546, 559, 311, 324, 571, 558, 311, 571, 312, 572, 325, 312, 559, 572, 324, 337, 584, 571, 324, 584, 325, 585, 338, 325, 572, 585, 337, 350, 597, 584, 337, 597, 338, 598, 351, 338, 585, 598, 350, 363, 610, 597, 350, 610, 351, 611, 364, 351, 598, 611, 363, 376, 623, 610, 363, 623, 364, 624, 377, 364, 611, 624, 376, 389, 636, 623, 376, 636, 377, 637, 390, 377, 624, 637, 389, 402, 649, 636, 389, 649, 390, 650, 403, 390, 637, 650, 402, 415, 662, 649, 402, 662, 403, 663, 416, 403, 650, 663, 415, 428, 675, 662, 415, 675, 416, 676, 429, 416, 663, 676, 428, 441, 688, 675, 428, 688, 429, 689, 442, 429, 676, 689, 441, 454, 701, 688, 441, 701, 442, 702, 455, 442, 689, 702, 454, 467, 714, 701, 454, 714, 455, 715, 468, 455, 702, 715, 467, 480, 727, 714, 467, 727, 468, 728, 481, 468, 715, 728, 480, 493, 740, 727, 480, 740, 482, 481, 729, 481, 728, 729, 483, 482, 730, 482, 729, 730, 484, 483, 731, 483, 730, 731, 485, 484, 732, 484, 731, 732, 486, 485, 733, 485, 732, 733, 487, 486, 734, 486, 733, 734, 488, 487, 735, 487, 734, 735, 489, 488, 736, 488, 735, 736, 490, 489, 737, 489, 736, 737, 491, 490, 738, 490, 737, 738, 492, 491, 739, 491, 738, 739, 493, 492, 740, 492, 739, 740, 494, 495, 742, 494, 754, 507, 494, 742, 741, 494, 741, 754, 495, 496, 743, 495, 743, 742, 496, 497, 744, 496, 744, 743, 497, 498, 745, 497, 745, 744, 498, 499, 746, 498, 746, 745, 499, 500, 747, 499, 747, 746, 500, 501, 748, 500, 748, 747, 501, 502, 749, 501, 749, 748, 502, 503, 750, 502, 750, 749, 503, 504, 751, 503, 751, 750, 504, 505, 752, 504, 752, 751, 505, 506, 753, 505, 753, 752, 506, 519, 766, 753, 506, 766, 507, 767, 520, 507, 754, 767, 519, 532, 779, 766, 519, 779, 520, 780, 533, 520, 767, 780, 532, 545, 792, 779, 532, 792, 533, 793, 546, 533, 780, 793, 545, 558, 805, 792, 545, 805, 546, 806, 559, 546, 793, 806, 558, 571, 818, 805, 558, 818, 559, 819, 572, 559, 806, 819, 571, 584, 831, 818, 571, 831, 572, 832, 585, 572, 819, 832, 584, 597, 844, 831, 584, 844, 585, 845, 598, 585, 832, 845, 597, 610, 857, 844, 597, 857, 598, 858, 611, 598, 845, 858, 610, 623, 870, 857, 610, 870, 611, 871, 624, 611, 858, 871, 623, 636, 883, 870, 623, 883, 624, 884, 637, 624, 871, 884, 636, 649, 896, 883, 636, 896, 637, 897, 650, 637, 884, 897, 649, 662, 909, 896, 649, 909, 650, 910, 663, 650, 897, 910, 662, 675, 922, 909, 662, 922, 663, 923, 676, 663, 910, 923, 675, 688, 935, 922, 675, 935, 676, 936, 689, 676, 923, 936, 688, 701, 948, 935, 688, 948, 689, 949, 702, 689, 936, 949, 701, 714, 961, 948, 701, 961, 702, 962, 715, 702, 949, 962, 714, 727, 974, 961, 714, 974, 715, 975, 728, 715, 962, 975, 727, 740, 987, 974, 727, 987, 729, 728, 976, 728, 975, 976, 730, 729, 977, 729, 976, 977, 731, 730, 978, 730, 977, 978, 732, 731, 979, 731, 978, 979, 733, 732, 980, 732, 979, 980, 734, 733, 981, 733, 980, 981, 735, 734, 982, 734, 981, 982, 736, 735, 983, 735, 982, 983, 737, 736, 984, 736, 983, 984, 738, 737, 985, 737, 984, 985, 739, 738, 986, 738, 985, 986, 740, 739, 987, 739, 986, 987, 741, 742, 989, 741, 1001, 754, 741, 989, 988, 741, 988, 1001, 742, 743, 990, 742, 990, 989, 743, 744, 991, 743, 991, 990, 744, 745, 992, 744, 992, 991, 745, 746, 993, 745, 993, 992, 746, 747, 994, 746, 994, 993, 747, 748, 995, 747, 995, 994, 748, 749, 996, 748, 996, 995, 749, 750, 997, 749, 997, 996, 750, 751, 998, 750, 998, 997, 751, 752, 999, 751, 999, 998, 752, 753, 1000, 752, 1000, 999, 753, 766, 1013, 1000, 753, 1013, 754, 1014, 767, 754, 1001, 1014, 766, 779, 1026, 1013, 766, 1026, 767, 1027, 780, 767, 1014, 1027, 779, 792, 1039, 1026, 779, 1039, 780, 1040, 793, 780, 1027, 1040, 792, 805, 1052, 1039, 792, 1052, 793, 1053, 806, 793, 1040, 1053, 805, 818, 1065, 1052, 805, 1065, 806, 1066, 819, 806, 1053, 1066, 818, 831, 1078, 1065, 818, 1078, 819, 1079, 832, 819, 1066, 1079, 831, 844, 1091, 1078, 831, 1091, 832, 1092, 845, 832, 1079, 1092, 844, 857, 1104, 1091, 844, 1104, 845, 1105, 858, 845, 1092, 1105, 857, 870, 1117, 1104, 857, 1117, 858, 1118, 871, 858, 1105, 1118, 870, 883, 1130, 1117, 870, 1130, 871, 1131, 884, 871, 1118, 1131, 883, 896, 1143, 1130, 883, 1143, 884, 1144, 897, 884, 1131, 1144, 896, 909, 1156, 1143, 896, 1156, 897, 1157, 910, 897, 1144, 1157, 909, 922, 1169, 1156, 909, 1169, 910, 1170, 923, 910, 1157, 1170, 922, 935, 1182, 1169, 922, 1182, 923, 1183, 936, 923, 1170, 1183, 935, 948, 1195, 1182, 935, 1195, 936, 1196, 949, 936, 1183, 1196, 948, 961, 1208, 1195, 948, 1208, 949, 1209, 962, 949, 1196, 1209, 961, 974, 1221, 1208, 961, 1221, 962, 1222, 975, 962, 1209, 1222, 974, 987, 1234, 1221, 974, 1234, 976, 975, 1223, 975, 1222, 1223, 977, 976, 1224, 976, 1223, 1224, 978, 977, 1225, 977, 1224, 1225, 979, 978, 1226, 978, 1225, 1226, 980, 979, 1227, 979, 1226, 1227, 981, 980, 1228, 980, 1227, 1228, 982, 981, 1229, 981, 1228, 1229, 983, 982, 1230, 982, 1229, 1230, 984, 983, 1231, 983, 1230, 1231, 985, 984, 1232, 984, 1231, 1232, 986, 985, 1233, 985, 1232, 1233, 987, 986, 1234, 986, 1233, 1234, 988, 989, 1002, 1001, 988, 1002, 989, 990, 1003, 1002, 989, 1003, 990, 991, 1004, 1003, 990, 1004, 991, 992, 1005, 1004, 991, 1005, 992, 993, 1006, 1005, 992, 1006, 993, 994, 1007, 1006, 993, 1007, 994, 995, 1008, 1007, 994, 1008, 995, 996, 1009, 1008, 995, 1009, 996, 997, 1010, 1009, 996, 1010, 997, 998, 1011, 1010, 997, 1011, 998, 999, 1012, 1011, 998, 1012, 999, 1000, 1013, 1012, 999, 1013, 1001, 1002, 1015, 1014, 1001, 1015, 1002, 1003, 1016, 1015, 1002, 1016, 1003, 1004, 1017, 1016, 1003, 1017, 1004, 1005, 1018, 1017, 1004, 1018, 1005, 1006, 1019, 1018, 1005, 1019, 1006, 1007, 1020, 1019, 1006, 1020, 1007, 1008, 1021, 1020, 1007, 1021, 1008, 1009, 1022, 1021, 1008, 1022, 1009, 1010, 1023, 1022, 1009, 1023, 1010, 1011, 1024, 1023, 1010, 1024, 1011, 1012, 1025, 1024, 1011, 1025, 1012, 1013, 1026, 1025, 1012, 1026, 1014, 1015, 1028, 1027, 1014, 1028, 1015, 1016, 1029, 1028, 1015, 1029, 1016, 1017, 1030, 1029, 1016, 1030, 1017, 1018, 1031, 1030, 1017, 1031, 1018, 1019, 1032, 1031, 1018, 1032, 1019, 1020, 1033, 1032, 1019, 1033, 1020, 1021, 1034, 1033, 1020, 1034, 1021, 1022, 1035, 1034, 1021, 1035, 1022, 1023, 1036, 1035, 1022, 1036, 1023, 1024, 1037, 1036, 1023, 1037, 1024, 1025, 1038, 1037, 1024, 1038, 1025, 1026, 1039, 1038, 1025, 1039, 1027, 1028, 1041, 1040, 1027, 1041, 1028, 1029, 1042, 1041, 1028, 1042, 1029, 1030, 1043, 1042, 1029, 1043, 1030, 1031, 1044, 1043, 1030, 1044, 1031, 1032, 1045, 1044, 1031, 1045, 1032, 1033, 1046, 1045, 1032, 1046, 1033, 1034, 1047, 1046, 1033, 1047, 1034, 1035, 1048, 1047, 1034, 1048, 1035, 1036, 1049, 1048, 1035, 1049, 1036, 1037, 1050, 1049, 1036, 1050, 1037, 1038, 1051, 1050, 1037, 1051, 1038, 1039, 1052, 1051, 1038, 1052, 1040, 1041, 1054, 1053, 1040, 1054, 1041, 1042, 1055, 1054, 1041, 1055, 1042, 1043, 1056, 1055, 1042, 1056, 1043, 1044, 1057, 1056, 1043, 1057, 1044, 1045, 1058, 1057, 1044, 1058, 1045, 1046, 1059, 1058, 1045, 1059, 1046, 1047, 1060, 1059, 1046, 1060, 1047, 1048, 1061, 1060, 1047, 1061, 1048, 1049, 1062, 1061, 1048, 1062, 1049, 1050, 1063, 1062, 1049, 1063, 1050, 1051, 1064, 1063, 1050, 1064, 1051, 1052, 1065, 1064, 1051, 1065, 1053, 1054, 1067, 1066, 1053, 1067, 1054, 1055, 1068, 1067, 1054, 1068, 1055, 1056, 1069, 1068, 1055, 1069, 1056, 1057, 1070, 1069, 1056, 1070, 1057, 1058, 1071, 1070, 1057, 1071, 1058, 1059, 1072, 1071, 1058, 1072, 1059, 1060, 1073, 1072, 1059, 1073, 1060, 1061, 1074, 1073, 1060, 1074, 1061, 1062, 1075, 1074, 1061, 1075, 1062, 1063, 1076, 1075, 1062, 1076, 1063, 1064, 1077, 1076, 1063, 1077, 1064, 1065, 1078, 1077, 1064, 1078, 1066, 1067, 1080, 1079, 1066, 1080, 1067, 1068, 1081, 1080, 1067, 1081, 1068, 1069, 1082, 1081, 1068, 1082, 1069, 1070, 1083, 1082, 1069, 1083, 1070, 1071, 1084, 1083, 1070, 1084, 1071, 1072, 1085, 1084, 1071, 1085, 1072, 1073, 1086, 1085, 1072, 1086, 1073, 1074, 1087, 1086, 1073, 1087, 1074, 1075, 1088, 1087, 1074, 1088, 1075, 1076, 1089, 1088, 1075, 1089, 1076, 1077, 1090, 1089, 1076, 1090, 1077, 1078, 1091, 1090, 1077, 1091, 1079, 1080, 1093, 1092, 1079, 1093, 1080, 1081, 1094, 1093, 1080, 1094, 1081, 1082, 1095, 1094, 1081, 1095, 1082, 1083, 1096, 1095, 1082, 1096, 1083, 1084, 1097, 1096, 1083, 1097, 1084, 1085, 1098, 1097, 1084, 1098, 1085, 1086, 1099, 1098, 1085, 1099, 1086, 1087, 1100, 1099, 1086, 1100, 1087, 1088, 1101, 1100, 1087, 1101, 1088, 1089, 1102, 1101, 1088, 1102, 1089, 1090, 1103, 1102, 1089, 1103, 1090, 1091, 1104, 1103, 1090, 1104, 1092, 1093, 1106, 1105, 1092, 1106, 1093, 1094, 1107, 1106, 1093, 1107, 1094, 1095, 1108, 1107, 1094, 1108, 1095, 1096, 1109, 1108, 1095, 1109, 1096, 1097, 1110, 1109, 1096, 1110, 1097, 1098, 1111, 1110, 1097, 1111, 1098, 1099, 1112, 1111, 1098, 1112, 1099, 1100, 1113, 1112, 1099, 1113, 1100, 1101, 1114, 1113, 1100, 1114, 1101, 1102, 1115, 1114, 1101, 1115, 1102, 1103, 1116, 1115, 1102, 1116, 1103, 1104, 1117, 1116, 1103, 1117, 1105, 1106, 1119, 1118, 1105, 1119, 1106, 1107, 1120, 1119, 1106, 1120, 1107, 1108, 1121, 1120, 1107, 1121, 1108, 1109, 1122, 1121, 1108, 1122, 1109, 1110, 1123, 1122, 1109, 1123, 1110, 1111, 1124, 1123, 1110, 1124, 1111, 1112, 1125, 1124, 1111, 1125, 1112, 1113, 1126, 1125, 1112, 1126, 1113, 1114, 1127, 1126, 1113, 1127, 1114, 1115, 1128, 1127, 1114, 1128, 1115, 1116, 1129, 1128, 1115, 1129, 1116, 1117, 1130, 1129, 1116, 1130, 1118, 1119, 1132, 1131, 1118, 1132, 1119, 1120, 1133, 1132, 1119, 1133, 1120, 1121, 1134, 1133, 1120, 1134, 1121, 1122, 1135, 1134, 1121, 1135, 1122, 1123, 1136, 1135, 1122, 1136, 1123, 1124, 1137, 1136, 1123, 1137, 1124, 1125, 1138, 1137, 1124, 1138, 1125, 1126, 1139, 1138, 1125, 1139, 1126, 1127, 1140, 1139, 1126, 1140, 1127, 1128, 1141, 1140, 1127, 1141, 1128, 1129, 1142, 1141, 1128, 1142, 1129, 1130, 1143, 1142, 1129, 1143, 1131, 1132, 1145, 1144, 1131, 1145, 1132, 1133, 1146, 1145, 1132, 1146, 1133, 1134, 1147, 1146, 1133, 1147, 1134, 1135, 1148, 1147, 1134, 1148, 1135, 1136, 1149, 1148, 1135, 1149, 1136, 1137, 1150, 1149, 1136, 1150, 1137, 1138, 1151, 1150, 1137, 1151, 1138, 1139, 1152, 1151, 1138, 1152, 1139, 1140, 1153, 1152, 1139, 1153, 1140, 1141, 1154, 1153, 1140, 1154, 1141, 1142, 1155, 1154, 1141, 1155, 1142, 1143, 1156, 1155, 1142, 1156, 1144, 1145, 1158, 1157, 1144, 1158, 1145, 1146, 1159, 1158, 1145, 1159, 1146, 1147, 1160, 1159, 1146, 1160, 1147, 1148, 1161, 1160, 1147, 1161, 1148, 1149, 1162, 1161, 1148, 1162, 1149, 1150, 1163, 1162, 1149, 1163, 1150, 1151, 1164, 1163, 1150, 1164, 1151, 1152, 1165, 1164, 1151, 1165, 1152, 1153, 1166, 1165, 1152, 1166, 1153, 1154, 1167, 1166, 1153, 1167, 1154, 1155, 1168, 1167, 1154, 1168, 1155, 1156, 1169, 1168, 1155, 1169, 1157, 1158, 1171, 1170, 1157, 1171, 1158, 1159, 1172, 1171, 1158, 1172, 1159, 1160, 1173, 1172, 1159, 1173, 1160, 1161, 1174, 1173, 1160, 1174, 1161, 1162, 1175, 1174, 1161, 1175, 1162, 1163, 1176, 1175, 1162, 1176, 1163, 1164, 1177, 1176, 1163, 1177, 1164, 1165, 1178, 1177, 1164, 1178, 1165, 1166, 1179, 1178, 1165, 1179, 1166, 1167, 1180, 1179, 1166, 1180, 1167, 1168, 1181, 1180, 1167, 1181, 1168, 1169, 1182, 1181, 1168, 1182, 1170, 1171, 1184, 1183, 1170, 1184, 1171, 1172, 1185, 1184, 1171, 1185, 1172, 1173, 1186, 1185, 1172, 1186, 1173, 1174, 1187, 1186, 1173, 1187, 1174, 1175, 1188, 1187, 1174, 1188, 1175, 1176, 1189, 1188, 1175, 1189, 1176, 1177, 1190, 1189, 1176, 1190, 1177, 1178, 1191, 1190, 1177, 1191, 1178, 1179, 1192, 1191, 1178, 1192, 1179, 1180, 1193, 1192, 1179, 1193, 1180, 1181, 1194, 1193, 1180, 1194, 1181, 1182, 1195, 1194, 1181, 1195, 1183, 1184, 1197, 1196, 1183, 1197, 1184, 1185, 1198, 1197, 1184, 1198, 1185, 1186, 1199, 1198, 1185, 1199, 1186, 1187, 1200, 1199, 1186, 1200, 1187, 1188, 1201, 1200, 1187, 1201, 1188, 1189, 1202, 1201, 1188, 1202, 1189, 1190, 1203, 1202, 1189, 1203, 1190, 1191, 1204, 1203, 1190, 1204, 1191, 1192, 1205, 1204, 1191, 1205, 1192, 1193, 1206, 1205, 1192, 1206, 1193, 1194, 1207, 1206, 1193, 1207, 1194, 1195, 1208, 1207, 1194, 1208, 1196, 1197, 1210, 1209, 1196, 1210, 1197, 1198, 1211, 1210, 1197, 1211, 1198, 1199, 1212, 1211, 1198, 1212, 1199, 1200, 1213, 1212, 1199, 1213, 1200, 1201, 1214, 1213, 1200, 1214, 1201, 1202, 1215, 1214, 1201, 1215, 1202, 1203, 1216, 1215, 1202, 1216, 1203, 1204, 1217, 1216, 1203, 1217, 1204, 1205, 1218, 1217, 1204, 1218, 1205, 1206, 1219, 1218, 1205, 1219, 1206, 1207, 1220, 1219, 1206, 1220, 1207, 1208, 1221, 1220, 1207, 1221, 1209, 1210, 1223, 1222, 1209, 1223, 1210, 1211, 1224, 1223, 1210, 1224, 1211, 1212, 1225, 1224, 1211, 1225, 1212, 1213, 1226, 1225, 1212, 1226, 1213, 1214, 1227, 1226, 1213, 1227, 1214, 1215, 1228, 1227, 1214, 1228, 1215, 1216, 1229, 1228, 1215, 1229, 1216, 1217, 1230, 1229, 1216, 1230, 1217, 1218, 1231, 1230, 1217, 1231, 1218, 1219, 1232, 1231, 1218, 1232, 1219, 1220, 1233, 1232, 1219, 1233, 1220, 1221, 1234, 1233, 1220, 1234]
point3f[] points = [
        (0.002, -0.0225, -0.003),
        (0.00475, -0.0225, -0.003),
        (0.0075, -0.0225, -0.003),
        (0.01025, -0.0225, -0.003),
        (0.013, -0.0225, -0.003),
        (0.01575, -0.0225, -0.003),
        (0.0185, -0.0225, -0.003),
        (0.02125, -0.0225, -0.003),
        (0.024, -0.0225, -0.003),
        (0.02675, -0.0225, -0.003),
        (0.0295, -0.0225, -0.003),
        (0.03225, -0.0225, -0.003),
        (0.035, -0.0225, -0.003),
        (0.0023447199994, -0.02, -0.003),
        (0.00506599333279, -0.02, -0.003),
        (0.00778726666617, -0.02, -0.003),
        (0.0105085399996, -0.02, -0.003),
        (0.0132298133329, -0.02, -0.003),
        (0.0159510866663, -0.02, -0.003),
        (0.0186723599997, -0.02, -0.003),
        (0.0213936333331, -0.02, -0.003),
        (0.0241149066665, -0.02, -0.003),
        (0.0268361799999, -0.02, -0.003),
        (0.0295574533332, -0.02, -0.003),
        (0.0322787266666, -0.02, -0.003),
        (0.035, -0.02, -0.003),
        (0.00244316348886, -0.0175, -0.003),
        (0.00515623319812, -0.0175, -0.003),
        (0.00786930290738, -0.0175, -0.003),
        (0.0105823726166, -0.0175, -0.003),
        (0.0132954423259, -0.0175, -0.003),
        (0.0160085120352, -0.0175, -0.003),
        (0.0187215817444, -0.0175, -0.003),
        (0.0214346514537, -0.0175, -0.003),
        (0.024147721163, -0.0175, -0.003),
        (0.0268607908722, -0.0175, -0.003),
        (0.0295738605815, -0.0175, -0.003),
        (0.0322869302907, -0.0175, -0.003),
        (0.035, -0.0175, -0.003),
        (0.002225, -0.015, -0.003),
        (0.00495625, -0.015, -0.003),
        (0.0076875, -0.015, -0.003),
        (0.01041875, -0.015, -0.003),
        (0.01315, -0.015, -0.003),
        (0.01588125, -0.015, -0.003),
        (0.0186125, -0.015, -0.003),
        (0.02134375, -0.015, -0.003),
        (0.024075, -0.015, -0.003),
        (0.02680625, -0.015, -0.003),
        (0.0295375, -0.015, -0.003),
        (0.03226875, -0.015, -0.003),
        (0.035, -0.015, -0.003),
        (0.0018460909355, -0.0125, -0.003),
        (0.00460891669088, -0.0125, -0.003),
        (0.00737174244625, -0.0125, -0.003),
        (0.0101345682016, -0.0125, -0.003),
        (0.012897393957, -0.0125, -0.003),
        (0.0156602197124, -0.0125, -0.003),
        (0.0184230454678, -0.0125, -0.003),
        (0.0211858712231, -0.0125, -0.003),
        (0.0239486969785, -0.0125, -0.003),
        (0.0267115227339, -0.0125, -0.003),
        (0.0294743484893, -0.0125, -0.003),
        (0.0322371742446, -0.0125, -0.003),
        (0.035, -0.0125, -0.003),
        (0.00157713832065, -0.01, -0.003),
        (0.00436237679393, -0.01, -0.003),
        (0.00714761526721, -0.01, -0.003),
        (0.00993285374048, -0.01, -0.003),
        (0.0127180922138, -0.01, -0.003),
        (0.015503330687, -0.01, -0.003),
        (0.0182885691603, -0.01, -0.003),
        (0.0210738076336, -0.01, -0.003),
        (0.0238590461069, -0.01, -0.003),
        (0.0266442845802, -0.01, -0.003),
        (0.0294295230534, -0.01, -0.003),
        (0.0322147615267, -0.01, -0.003),
        (0.035, -0.01, -0.003),
        (0.0016102885683, -0.0075, -0.003),
        (0.00439276452094, -0.0075, -0.003),
        (0.00717524047358, -0.0075, -0.003),
        (0.00995771642622, -0.0075, -0.003),
        (0.0127401923789, -0.0075, -0.003),
        (0.0155226683315, -0.0075, -0.003),
        (0.0183051442841, -0.0075, -0.003),
        (0.0210876202368, -0.0075, -0.003),
        (0.0238700961894, -0.0075, -0.003),
        (0.0266525721421, -0.0075, -0.003),
        (0.0294350480947, -0.0075, -0.003),
        (0.0322175240474, -0.0075, -0.003),
        (0.035, -0.0075, -0.003),
        (0.00192185832005, -0.005, -0.003),
        (0.00467837012671, -0.005, -0.003),
        (0.00743488193337, -0.005, -0.003),
        (0.01019139374, -0.005, -0.003),
        (0.0129479055467, -0.005, -0.003),
        (0.0157044173534, -0.005, -0.003),
        (0.01846092916, -0.005, -0.003),
        (0.0212174409667, -0.005, -0.003),
        (0.0239739527733, -0.005, -0.003),
        (0.02673046458, -0.005, -0.003),
        (0.0294869763867, -0.005, -0.003),
        (0.0322434881933, -0.005, -0.003),
        (0.035, -0.005, -0.003),
        (0.00228925442436, -0.0025, -0.003),
        (0.005015149889, -0.0025, -0.003),
        (0.00774104535363, -0.0025, -0.003),
        (0.0104669408183, -0.0025, -0.003),
        (0.0131928362829, -0.0025, -0.003),
        (0.0159187317475, -0.0025, -0.003),
        (0.0186446272122, -0.0025, -0.003),
        (0.0213705226768, -0.0025, -0.003),
        (0.0240964181415, -0.0025, -0.003),
        (0.0268223136061, -0.0025, -0.003),
        (0.0295482090707, -0.0025, -0.003),
        (0.0322741045354, -0.0025, -0.003),
        (0.035, -0.0025, -0.003),
        (0.00245, 0, -0.003),
        (0.0051625, 0, -0.003),
        (0.007875, 0, -0.003),
        (0.0105875, 0, -0.003),
        (0.0133, 0, -0.003),
        (0.0160125, 0, -0.003),
        (0.018725, 0, -0.003),
        (0.0214375, 0, -0.003),
        (0.02415, 0, -0.003),
        (0.0268625, 0, -0.003),
        (0.029575, 0, -0.003),
        (0.0322875, 0, -0.003),
        (0.035, 0, -0.003),
        (0.00228925442436, 0.0025, -0.003),
        (0.005015149889, 0.0025, -0.003),
        (0.00774104535363, 0.0025, -0.003),
        (0.0104669408183, 0.0025, -0.003),
        (0.0131928362829, 0.0025, -0.003),
        (0.0159187317475, 0.0025, -0.003),
        (0.0186446272122, 0.0025, -0.003),
        (0.0213705226768, 0.0025, -0.003),
        (0.0240964181415, 0.0025, -0.003),
        (0.0268223136061, 0.0025, -0.003),
        (0.0295482090707, 0.0025, -0.003),
        (0.0322741045354, 0.0025, -0.003),
        (0.035, 0.0025, -0.003),
        (0.00192185832005, 0.005, -0.003),
        (0.00467837012671, 0.005, -0.003),
        (0.00743488193337, 0.005, -0.003),
        (0.01019139374, 0.005, -0.003),
        (0.0129479055467, 0.005, -0.003),
        (0.0157044173534, 0.005, -0.003),
        (0.01846092916, 0.005, -0.003),
        (0.0212174409667, 0.005, -0.003),
        (0.0239739527733, 0.005, -0.003),
        (0.02673046458, 0.005, -0.003),
        (0.0294869763867, 0.005, -0.003),
        (0.0322434881933, 0.005, -0.003),
        (0.035, 0.005, -0.003),
        (0.0016102885683, 0.0075, -0.003),
        (0.00439276452094, 0.0075, -0.003),
        (0.00717524047358, 0.0075, -0.003),
        (0.00995771642622, 0.0075, -0.003),
        (0.0127401923789, 0.0075, -0.003),
        (0.0155226683315, 0.0075, -0.003),
        (0.0183051442841, 0.0075, -0.003),
        (0.0210876202368, 0.0075, -0.003),
        (0.0238700961894, 0.0075, -0.003),
        (0.0266525721421, 0.0075, -0.003),
        (0.0294350480947, 0.0075, -0.003),
        (0.0322175240474, 0.0075, -0.003),
        (0.035, 0.0075, -0.003),
        (0.00157713832065, 0.01, -0.003),
        (0.00436237679393, 0.01, -0.003),
        (0.00714761526721, 0.01, -0.003),
        (0.00993285374048, 0.01, -0.003),
        (0.0127180922138, 0.01, -0.003),
        (0.015503330687, 0.01, -0.003),
        (0.0182885691603, 0.01, -0.003),
        (0.0210738076336, 0.01, -0.003),
        (0.0238590461069, 0.01, -0.003),
        (0.0266442845802, 0.01, -0.003),
        (0.0294295230534, 0.01, -0.003),
        (0.0322147615267, 0.01, -0.003),
        (0.035, 0.01, -0.003),
        (0.0018460909355, 0.0125, -0.003),
        (0.00460891669088, 0.0125, -0.003),
        (0.00737174244625, 0.0125, -0.003),
        (0.0101345682016, 0.0125, -0.003),
        (0.012897393957, 0.0125, -0.003),
        (0.0156602197124, 0.0125, -0.003),
        (0.0184230454678, 0.0125, -0.003),
        (0.0211858712231, 0.0125, -0.003),
        (0.0239486969785, 0.0125, -0.003),
        (0.0267115227339, 0.0125, -0.003),
        (0.0294743484893, 0.0125, -0.003),
        (0.0322371742446, 0.0125, -0.003),
        (0.035, 0.0125, -0.003),
        (0.002225, 0.015, -0.003),
        (0.00495625, 0.015, -0.003),
        (0.0076875, 0.015, -0.003),
        (0.01041875, 0.015, -0.003),
        (0.01315, 0.015, -0.003),
        (0.01588125, 0.015, -0.003),
        (0.0186125, 0.015, -0.003),
        (0.02134375, 0.015, -0.003),
        (0.024075, 0.015, -0.003),
        (0.02680625, 0.015, -0.003),
        (0.0295375, 0.015, -0.003),
        (0.03226875, 0.015, -0.003),
        (0.035, 0.015, -0.003),
        (0.00244316348886, 0.0175, -0.003),
        (0.00515623319812, 0.0175, -0.003),
        (0.00786930290738, 0.0175, -0.003),
        (0.0105823726166, 0.0175, -0.003),
        (0.0132954423259, 0.0175, -0.003),
        (0.0160085120352, 0.0175, -0.003),
        (0.0187215817444, 0.0175, -0.003),
        (0.0214346514537, 0.0175, -0.003),
        (0.024147721163, 0.0175, -0.003),
        (0.0268607908722, 0.0175, -0.003),
        (0.0295738605815, 0.0175, -0.003),
        (0.0322869302907, 0.0175, -0.003),
        (0.035, 0.0175, -0.003),
        (0.0023447199994, 0.02, -0.003),
        (0.00506599333279, 0.02, -0.003),
        (0.00778726666617, 0.02, -0.003),
        (0.0105085399996, 0.02, -0.003),
        (0.0132298133329, 0.02, -0.003),
        (0.0159510866663, 0.02, -0.003),
        (0.0186723599997, 0.02, -0.003),
        (0.0213936333331, 0.02, -0.003),
        (0.0241149066665, 0.02, -0.003),
        (0.0268361799999, 0.02, -0.003),
        (0.0295574533332, 0.02, -0.003),
        (0.0322787266666, 0.02, -0.003),
        (0.035, 0.02, -0.003),
        (0.002, 0.0225, -0.003),
        (0.00475, 0.0225, -0.003),
        (0.0075, 0.0225, -0.003),
        (0.01025, 0.0225, -0.003),
        (0.013, 0.0225, -0.003),
        (0.01575, 0.0225, -0.003),
        (0.0185, 0.0225, -0.003),
        (0.02125, 0.0225, -0.003),
        (0.024, 0.0225, -0.003),
        (0.02675, 0.0225, -0.003),
        (0.0295, 0.0225, -0.003),
        (0.03225, 0.0225, -0.003),
        (0.035, 0.0225, -0.003),
        (0.00225, -0.0225, -0.0015),
        (0.00497916666667, -0.0225, -0.0015),
        (0.00770833333333, -0.0225, -0.0015),
        (0.0104375, -0.0225, -0.0015),
        (0.0131666666667, -0.0225, -0.0015),
        (0.0158958333333, -0.0225, -0.0015),
        (0.018625, -0.0225, -0.0015),
        (0.0213541666667, -0.0225, -0.0015),
        (0.0240833333333, -0.0225, -0.0015),
        (0.0268125, -0.0225, -0.0015),
        (0.0295416666667, -0.0225, -0.0015),
        (0.0322708333333, -0.0225, -0.0015),
        (0.035, -0.0225, -0.0015),
        (0.0025947199994, -0.02, -0.0015),
        (0.00529515999945, -0.02, -0.0015),
        (0.0079955999995, -0.02, -0.0015),
        (0.0106960399996, -0.02, -0.0015),
        (0.0133964799996, -0.02, -0.0015),
        (0.0160969199997, -0.02, -0.0015),
        (0.0187973599997, -0.02, -0.0015),
        (0.0214977999998, -0.02, -0.0015),
        (0.0241982399998, -0.02, -0.0015),
        (0.0268986799999, -0.02, -0.0015),
        (0.0295991199999, -0.02, -0.0015),
        (0.03229956, -0.02, -0.0015),
        (0.035, -0.02, -0.0015),
        (0.00269316348886, -0.0175, -0.0015),
        (0.00538539986478, -0.0175, -0.0015),
        (0.00807763624071, -0.0175, -0.0015),
        (0.0107698726166, -0.0175, -0.0015),
        (0.0134621089926, -0.0175, -0.0015),
        (0.0161543453685, -0.0175, -0.0015),
        (0.0188465817444, -0.0175, -0.0015),
        (0.0215388181204, -0.0175, -0.0015),
        (0.0242310544963, -0.0175, -0.0015),
        (0.0269232908722, -0.0175, -0.0015),
        (0.0296155272481, -0.0175, -0.0015),
        (0.0323077636241, -0.0175, -0.0015),
        (0.035, -0.0175, -0.0015),
        (0.002475, -0.015, -0.0015),
        (0.00518541666667, -0.015, -0.0015),
        (0.00789583333333, -0.015, -0.0015),
        (0.01060625, -0.015, -0.0015),
        (0.0133166666667, -0.015, -0.0015),
        (0.0160270833333, -0.015, -0.0015),
        (0.0187375, -0.015, -0.0015),
        (0.0214479166667, -0.015, -0.0015),
        (0.0241583333333, -0.015, -0.0015),
        (0.02686875, -0.015, -0.0015),
        (0.0295791666667, -0.015, -0.0015),
        (0.0322895833333, -0.015, -0.0015),
        (0.035, -0.015, -0.0015),
        (0.0020960909355, -0.0125, -0.0015),
        (0.00483808335754, -0.0125, -0.0015),
        (0.00758007577959, -0.0125, -0.0015),
        (0.0103220682016, -0.0125, -0.0015),
        (0.0130640606237, -0.0125, -0.0015),
        (0.0158060530457, -0.0125, -0.0015),
        (0.0185480454678, -0.0125, -0.0015),
        (0.0212900378898, -0.0125, -0.0015),
        (0.0240320303118, -0.0125, -0.0015),
        (0.0267740227339, -0.0125, -0.0015),
        (0.0295160151559, -0.0125, -0.0015),
        (0.032258007578, -0.0125, -0.0015),
        (0.035, -0.0125, -0.0015),
        (0.00182713832065, -0.01, -0.0015),
        (0.00459154346059, -0.01, -0.0015),
        (0.00735594860054, -0.01, -0.0015),
        (0.0101203537405, -0.01, -0.0015),
        (0.0128847588804, -0.01, -0.0015),
        (0.0156491640204, -0.01, -0.0015),
        (0.0184135691603, -0.01, -0.0015),
        (0.0211779743003, -0.01, -0.0015),
        (0.0239423794402, -0.01, -0.0015),
        (0.0267067845802, -0.01, -0.0015),
        (0.0294711897201, -0.01, -0.0015),
        (0.0322355948601, -0.01, -0.0015),
        (0.035, -0.01, -0.0015),
        (0.0018602885683, -0.0075, -0.0015),
        (0.00462193118761, -0.0075, -0.0015),
        (0.00738357380691, -0.0075, -0.0015),
        (0.0101452164262, -0.0075, -0.0015),
        (0.0129068590455, -0.0075, -0.0015),
        (0.0156685016648, -0.0075, -0.0015),
        (0.0184301442841, -0.0075, -0.0015),
        (0.0211917869035, -0.0075, -0.0015),
        (0.0239534295228, -0.0075, -0.0015),
        (0.0267150721421, -0.0075, -0.0015),
        (0.0294767147614, -0.0075, -0.0015),
        (0.0322383573807, -0.0075, -0.0015),
        (0.035, -0.0075, -0.0015),
        (0.00217185832005, -0.005, -0.0015),
        (0.00490753679338, -0.005, -0.0015),
        (0.00764321526671, -0.005, -0.0015),
        (0.01037889374, -0.005, -0.0015),
        (0.0131145722134, -0.005, -0.0015),
        (0.0158502506867, -0.005, -0.0015),
        (0.01858592916, -0.005, -0.0015),
        (0.0213216076334, -0.005, -0.0015),
        (0.0240572861067, -0.005, -0.0015),
        (0.02679296458, -0.005, -0.0015),
        (0.0295286430533, -0.005, -0.0015),
        (0.0322643215267, -0.005, -0.0015),
        (0.035, -0.005, -0.0015),
        (0.00253925442436, -0.0025, -0.0015),
        (0.00524431655566, -0.0025, -0.0015),
        (0.00794937868697, -0.0025, -0.0015),
        (0.0106544408183, -0.0025, -0.0015),
        (0.0133595029496, -0.0025, -0.0015),
        (0.0160645650809, -0.0025, -0.0015),
        (0.0187696272122, -0.0025, -0.0015),
        (0.0214746893435, -0.0025, -0.0015),
        (0.0241797514748, -0.0025, -0.0015),
        (0.0268848136061, -0.0025, -0.0015),
        (0.0295898757374, -0.0025, -0.0015),
        (0.0322949378687, -0.0025, -0.0015),
        (0.035, -0.0025, -0.0015),
        (0.0027, 0, -0.0015),
        (0.00539166666667, 0, -0.0015),
        (0.00808333333333, 0, -0.0015),
        (0.010775, 0, -0.0015),
        (0.0134666666667, 0, -0.0015),
        (0.0161583333333, 0, -0.0015),
        (0.01885, 0, -0.0015),
        (0.0215416666667, 0, -0.0015),
        (0.0242333333333, 0, -0.0015),
        (0.026925, 0, -0.0015),
        (0.0296166666667, 0, -0.0015),
        (0.0323083333333, 0, -0.0015),
        (0.035, 0, -0.0015),
        (0.00253925442436, 0.0025, -0.0015),
        (0.00524431655566, 0.0025, -0.0015),
        (0.00794937868697, 0.0025, -0.0015),
        (0.0106544408183, 0.0025, -0.0015),
        (0.0133595029496, 0.0025, -0.0015),
        (0.0160645650809, 0.0025, -0.0015),
        (0.0187696272122, 0.0025, -0.0015),
        (0.0214746893435, 0.0025, -0.0015),
        (0.0241797514748, 0.0025, -0.0015),
        (0.0268848136061, 0.0025, -0.0015),
        (0.0295898757374, 0.0025, -0.0015),
        (0.0322949378687, 0.0025, -0.0015),
        (0.035, 0.0025, -0.0015),
        (0.00217185832005, 0.005, -0.0015),
        (0.00490753679338, 0.005, -0.0015),
        (0.00764321526671, 0.005, -0.0015),
        (0.01037889374, 0.005, -0.0015),
        (0.0131145722134, 0.005, -0.0015),
        (0.0158502506867, 0.005, -0.0015),
        (0.01858592916, 0.005, -0.0015),
        (0.0213216076334, 0.005, -0.0015),
        (0.0240572861067, 0.005, -0.0015),
        (0.02679296458, 0.005, -0.0015),
        (0.0295286430533, 0.005, -0.0015),
        (0.0322643215267, 0.005, -0.0015),
        (0.035, 0.005, -0.0015),
        (0.0018602885683, 0.0075, -0.0015),
        (0.00462193118761, 0.0075, -0.0015),
        (0.00738357380691, 0.0075, -0.0015),
        (0.0101452164262, 0.0075, -0.0015),
        (0.0129068590455, 0.0075, -0.0015),
        (0.0156685016648, 0.0075, -0.0015),
        (0.0184301442841, 0.0075, -0.0015),
        (0.0211917869035, 0.0075, -0.0015),
        (0.0239534295228, 0.0075, -0.0015),
        (0.0267150721421, 0.0075, -0.0015),
        (0.0294767147614, 0.0075, -0.0015),
        (0.0322383573807, 0.0075, -0.0015),
        (0.035, 0.0075, -0.0015),
        (0.00182713832065, 0.01, -0.0015),
        (0.00459154346059, 0.01, -0.0015),
        (0.00735594860054, 0.01, -0.0015),
        (0.0101203537405, 0.01, -0.0015),
        (0.0128847588804, 0.01, -0.0015),
        (0.0156491640204, 0.01, -0.0015),
        (0.0184135691603, 0.01, -0.0015),
        (0.0211779743003, 0.01, -0.0015),
        (0.0239423794402, 0.01, -0.0015),
        (0.0267067845802, 0.01, -0.0015),
        (0.0294711897201, 0.01, -0.0015),
        (0.0322355948601, 0.01, -0.0015),
        (0.035, 0.01, -0.0015),
        (0.0020960909355, 0.0125, -0.0015),
        (0.00483808335754, 0.0125, -0.0015),
        (0.00758007577959, 0.0125, -0.0015),
        (0.0103220682016, 0.0125, -0.0015),
        (0.0130640606237, 0.0125, -0.0015),
        (0.0158060530457, 0.0125, -0.0015),
        (0.0185480454678, 0.0125, -0.0015),
        (0.0212900378898, 0.0125, -0.0015),
        (0.0240320303118, 0.0125, -0.0015),
        (0.0267740227339, 0.0125, -0.0015),
        (0.0295160151559, 0.0125, -0.0015),
        (0.032258007578, 0.0125, -0.0015),
        (0.035, 0.0125, -0.0015),
        (0.002475, 0.015, -0.0015),
        (0.00518541666667, 0.015, -0.0015),
        (0.00789583333333, 0.015, -0.0015),
        (0.01060625, 0.015, -0.0015),
        (0.0133166666667, 0.015, -0.0015),
        (0.0160270833333, 0.015, -0.0015),
        (0.0187375, 0.015, -0.0015),
        (0.0214479166667, 0.015, -0.0015),
        (0.0241583333333, 0.015, -0.0015),
        (0.02686875, 0.015, -0.0015),
        (0.0295791666667, 0.015, -0.0015),
        (0.0322895833333, 0.015, -0.0015),
        (0.035, 0.015, -0.0015),
        (0.00269316348886, 0.0175, -0.0015),
        (0.00538539986478, 0.0175, -0.0015),
        (0.00807763624071, 0.0175, -0.0015),
        (0.0107698726166, 0.0175, -0.0015),
        (0.0134621089926, 0.0175, -0.0015),
        (0.0161543453685, 0.0175, -0.0015),
        (0.0188465817444, 0.0175, -0.0015),
        (0.0215388181204, 0.0175, -0.0015),
        (0.0242310544963, 0.0175, -0.0015),
        (0.0269232908722, 0.0175, -0.0015),
        (0.0296155272481, 0.0175, -0.0015),
        (0.0323077636241, 0.0175, -0.0015),
        (0.035, 0.0175, -0.0015),
        (0.0025947199994, 0.02, -0.0015),
        (0.00529515999945, 0.02, -0.0015),
        (0.0079955999995, 0.02, -0.0015),
        (0.0106960399996, 0.02, -0.0015),
        (0.0133964799996, 0.02, -0.0015),
        (0.0160969199997, 0.02, -0.0015),
        (0.0187973599997, 0.02, -0.0015),
        (0.0214977999998, 0.02, -0.0015),
        (0.0241982399998, 0.02, -0.0015),
        (0.0268986799999, 0.02, -0.0015),
        (0.0295991199999, 0.02, -0.0015),
        (0.03229956, 0.02, -0.0015),
        (0.035, 0.02, -0.0015),
        (0.00225, 0.0225, -0.0015),
        (0.00497916666667, 0.0225, -0.0015),
        (0.00770833333333, 0.0225, -0.0015),
        (0.0104375, 0.0225, -0.0015),
        (0.0131666666667, 0.0225, -0.0015),
        (0.0158958333333, 0.0225, -0.0015),
        (0.018625, 0.0225, -0.0015),
        (0.0213541666667, 0.0225, -0.0015),
        (0.0240833333333, 0.0225, -0.0015),
        (0.0268125, 0.0225, -0.0015),
        (0.0295416666667, 0.0225, -0.0015),
        (0.0322708333333, 0.0225, -0.0015),
        (0.035, 0.0225, -0.0015),
        (0.0025, -0.0225, 0),
        (0.00520833333333, -0.0225, 0),
        (0.00791666666667, -0.0225, 0),
        (0.010625, -0.0225, 0),
        (0.0133333333333, -0.0225, 0),
        (0.0160416666667, -0.0225, 0),
        (0.01875, -0.0225, 0),
        (0.0214583333333, -0.0225, 0),
        (0.0241666666667, -0.0225, 0),
        (0.026875, -0.0225, 0),
        (0.0295833333333, -0.0225, 0),
        (0.0322916666667, -0.0225, 0),
        (0.035, -0.0225, 0),
        (0.0028447199994, -0.02, 0),
        (0.00552432666612, -0.02, 0),
        (0.00820393333284, -0.02, 0),
        (0.0108835399996, -0.02, 0),
        (0.0135631466663, -0.02, 0),
        (0.016242753333, -0.02, 0),
        (0.0189223599997, -0.02, 0),
        (0.0216019666664, -0.02, 0),
        (0.0242815733331, -0.02, 0),
        (0.0269611799999, -0.02, 0),
        (0.0296407866666, -0.02, 0),
        (0.0323203933333, -0.02, 0),
        (0.035, -0.02, 0),
        (0.00294316348886, -0.0175, 0),
        (0.00561456653145, -0.0175, 0),
        (0.00828596957405, -0.0175, 0),
        (0.0109573726166, -0.0175, 0),
        (0.0136287756592, -0.0175, 0),
        (0.0163001787018, -0.0175, 0),
        (0.0189715817444, -0.0175, 0),
        (0.021642984787, -0.0175, 0),
        (0.0243143878296, -0.0175, 0),
        (0.0269857908722, -0.0175, 0),
        (0.0296571939148, -0.0175, 0),
        (0.0323285969574, -0.0175, 0),
        (0.035, -0.0175, 0),
        (0.002725, -0.015, 0),
        (0.00541458333333, -0.015, 0),
        (0.00810416666667, -0.015, 0),
        (0.01079375, -0.015, 0),
        (0.0134833333333, -0.015, 0),
        (0.0161729166667, -0.015, 0),
        (0.0188625, -0.015, 0),
        (0.0215520833333, -0.015, 0),
        (0.0242416666667, -0.015, 0),
        (0.02693125, -0.015, 0),
        (0.0296208333333, -0.015, 0),
        (0.0323104166667, -0.015, 0),
        (0.035, -0.015, 0),
        (0.0023460909355, -0.0125, 0),
        (0.00506725002421, -0.0125, 0),
        (0.00778840911292, -0.0125, 0),
        (0.0105095682016, -0.0125, 0),
        (0.0132307272903, -0.0125, 0),
        (0.015951886379, -0.0125, 0),
        (0.0186730454678, -0.0125, 0),
        (0.0213942045565, -0.0125, 0),
        (0.0241153636452, -0.0125, 0),
        (0.0268365227339, -0.0125, 0),
        (0.0295576818226, -0.0125, 0),
        (0.0322788409113, -0.0125, 0),
        (0.035, -0.0125, 0),
        (0.00207713832065, -0.01, 0),
        (0.00482071012726, -0.01, 0),
        (0.00756428193387, -0.01, 0),
        (0.0103078537405, -0.01, 0),
        (0.0130514255471, -0.01, 0),
        (0.0157949973537, -0.01, 0),
        (0.0185385691603, -0.01, 0),
        (0.0212821409669, -0.01, 0),
        (0.0240257127735, -0.01, 0),
        (0.0267692845802, -0.01, 0),
        (0.0295128563868, -0.01, 0),
        (0.0322564281934, -0.01, 0),
        (0.035, -0.01, 0),
        (0.0021102885683, -0.0075, 0),
        (0.00485109785427, -0.0075, 0),
        (0.00759190714025, -0.0075, 0),
        (0.0103327164262, -0.0075, 0),
        (0.0130735257122, -0.0075, 0),
        (0.0158143349982, -0.0075, 0),
        (0.0185551442841, -0.0075, 0),
        (0.0212959535701, -0.0075, 0),
        (0.0240367628561, -0.0075, 0),
        (0.0267775721421, -0.0075, 0),
        (0.029518381428, -0.0075, 0),
        (0.032259190714, -0.0075, 0),
        (0.035, -0.0075, 0),
        (0.00242185832005, -0.005, 0),
        (0.00513670346005, -0.005, 0),
        (0.00785154860004, -0.005, 0),
        (0.01056639374, -0.005, 0),
        (0.01328123888, -0.005, 0),
        (0.01599608402, -0.005, 0),
        (0.01871092916, -0.005, 0),
        (0.0214257743, -0.005, 0),
        (0.02414061944, -0.005, 0),
        (0.02685546458, -0.005, 0),
        (0.02957030972, -0.005, 0),
        (0.03228515486, -0.005, 0),
        (0.035, -0.005, 0),
        (0.00278925442436, -0.0025, 0),
        (0.00547348322233, -0.0025, 0),
        (0.0081577120203, -0.0025, 0),
        (0.0108419408183, -0.0025, 0),
        (0.0135261696162, -0.0025, 0),
        (0.0162103984142, -0.0025, 0),
        (0.0188946272122, -0.0025, 0),
        (0.0215788560101, -0.0025, 0),
        (0.0242630848081, -0.0025, 0),
        (0.0269473136061, -0.0025, 0),
        (0.0296315424041, -0.0025, 0),
        (0.032315771202, -0.0025, 0),
        (0.035, -0.0025, 0),
        (0.00295, 0, 0),
        (0.00562083333333, 0, 0),
        (0.00829166666667, 0, 0),
        (0.0109625, 0, 0),
        (0.0136333333333, 0, 0),
        (0.0163041666667, 0, 0),
        (0.018975, 0, 0),
        (0.0216458333333, 0, 0),
        (0.0243166666667, 0, 0),
        (0.0269875, 0, 0),
        (0.0296583333333, 0, 0),
        (0.0323291666667, 0, 0),
        (0.035, 0, 0),
        (0.00278925442436, 0.0025, 0),
        (0.00547348322233, 0.0025, 0),
        (0.0081577120203, 0.0025, 0),
        (0.0108419408183, 0.0025, 0),
        (0.0135261696162, 0.0025, 0),
        (0.0162103984142, 0.0025, 0),
        (0.0188946272122, 0.0025, 0),
        (0.0215788560101, 0.0025, 0),
        (0.0242630848081, 0.0025, 0),
        (0.0269473136061, 0.0025, 0),
        (0.0296315424041, 0.0025, 0),
        (0.032315771202, 0.0025, 0),
        (0.035, 0.0025, 0),
        (0.00242185832005, 0.005, 0),
        (0.00513670346005, 0.005, 0),
        (0.00785154860004, 0.005, 0),
        (0.01056639374, 0.005, 0),
        (0.01328123888, 0.005, 0),
        (0.01599608402, 0.005, 0),
        (0.01871092916, 0.005, 0),
        (0.0214257743, 0.005, 0),
        (0.02414061944, 0.005, 0),
        (0.02685546458, 0.005, 0),
        (0.02957030972, 0.005, 0),
        (0.03228515486, 0.005, 0),
        (0.035, 0.005, 0),
        (0.0021102885683, 0.0075, 0),
        (0.00485109785427, 0.0075, 0),
        (0.00759190714025, 0.0075, 0),
        (0.0103327164262, 0.0075, 0),
        (0.0130735257122, 0.0075, 0),
        (0.0158143349982, 0.0075, 0),
        (0.0185551442841, 0.0075, 0),
        (0.0212959535701, 0.0075, 0),
        (0.0240367628561, 0.0075, 0),
        (0.0267775721421, 0.0075, 0),
        (0.029518381428, 0.0075, 0),
        (0.032259190714, 0.0075, 0),
        (0.035, 0.0075, 0),
        (0.00207713832065, 0.01, 0),
        (0.00482071012726, 0.01, 0),
        (0.00756428193387, 0.01, 0),
        (0.0103078537405, 0.01, 0),
        (0.0130514255471, 0.01, 0),
        (0.0157949973537, 0.01, 0),
        (0.0185385691603, 0.01, 0),
        (0.0212821409669, 0.01, 0),
        (0.0240257127735, 0.01, 0),
        (0.0267692845802, 0.01, 0),
        (0.0295128563868, 0.01, 0),
        (0.0322564281934, 0.01, 0),
        (0.035, 0.01, 0),
        (0.0023460909355, 0.0125, 0),
        (0.00506725002421, 0.0125, 0),
        (0.00778840911292, 0.0125, 0),
        (0.0105095682016, 0.0125, 0),
        (0.0132307272903, 0.0125, 0),
        (0.015951886379, 0.0125, 0),
        (0.0186730454678, 0.0125, 0),
        (0.0213942045565, 0.0125, 0),
        (0.0241153636452, 0.0125, 0),
        (0.0268365227339, 0.0125, 0),
        (0.0295576818226, 0.0125, 0),
        (0.0322788409113, 0.0125, 0),
        (0.035, 0.0125, 0),
        (0.002725, 0.015, 0),
        (0.00541458333333, 0.015, 0),
        (0.00810416666667, 0.015, 0),
        (0.01079375, 0.015, 0),
        (0.0134833333333, 0.015, 0),
        (0.0161729166667, 0.015, 0),
        (0.0188625, 0.015, 0),
        (0.0215520833333, 0.015, 0),
        (0.0242416666667, 0.015, 0),
        (0.02693125, 0.015, 0),
        (0.0296208333333, 0.015, 0),
        (0.0323104166667, 0.015, 0),
        (0.035, 0.015, 0),
        (0.00294316348886, 0.0175, 0),
        (0.00561456653145, 0.0175, 0),
        (0.00828596957405, 0.0175, 0),
        (0.0109573726166, 0.0175, 0),
        (0.0136287756592, 0.0175, 0),
        (0.0163001787018, 0.0175, 0),
        (0.0189715817444, 0.0175, 0),
        (0.021642984787, 0.0175, 0),
        (0.0243143878296, 0.0175, 0),
        (0.0269857908722, 0.0175, 0),
        (0.0296571939148, 0.0175, 0),
        (0.0323285969574, 0.0175, 0),
        (0.035, 0.0175, 0),
        (0.0028447199994, 0.02, 0),
        (0.00552432666612, 0.02, 0),
        (0.00820393333284, 0.02, 0),
        (0.0108835399996, 0.02, 0),
        (0.0135631466663, 0.02, 0),
        (0.016242753333, 0.02, 0),
        (0.0189223599997, 0.02, 0),
        (0.0216019666664, 0.02, 0),
        (0.0242815733331, 0.02, 0),
        (0.0269611799999, 0.02, 0),
        (0.0296407866666, 0.02, 0),
        (0.0323203933333, 0.02, 0),
        (0.035, 0.02, 0),
        (0.0025, 0.0225, 0),
        (0.00520833333333, 0.0225, 0),
        (0.00791666666667, 0.0225, 0),
        (0.010625, 0.0225, 0),
        (0.0133333333333, 0.0225, 0),
        (0.0160416666667, 0.0225, 0),
        (0.01875, 0.0225, 0),
        (0.0214583333333, 0.0225, 0),
        (0.0241666666667, 0.0225, 0),
        (0.026875, 0.0225, 0),
        (0.0295833333333, 0.0225, 0),
        (0.0322916666667, 0.0225, 0),
        (0.035, 0.0225, 0),
        (0.00275, -0.0225, 0.0015),
        (0.0054375, -0.0225, 0.0015),
        (0.008125, -0.0225, 0.0015),
        (0.0108125, -0.0225, 0.0015),
        (0.0135, -0.0225, 0.0015),
        (0.0161875, -0.0225, 0.0015),
        (0.018875, -0.0225, 0.0015),
        (0.0215625, -0.0225, 0.0015),
        (0.02425, -0.0225, 0.0015),
        (0.0269375, -0.0225, 0.0015),
        (0.029625, -0.0225, 0.0015),
        (0.0323125, -0.0225, 0.0015),
        (0.035, -0.0225, 0.0015),
        (0.0030947199994, -0.02, 0.0015),
        (0.00575349333279, -0.02, 0.0015),
        (0.00841226666617, -0.02, 0.0015),
        (0.0110710399996, -0.02, 0.0015),
        (0.0137298133329, -0.02, 0.0015),
        (0.0163885866663, -0.02, 0.0015),
        (0.0190473599997, -0.02, 0.0015),
        (0.0217061333331, -0.02, 0.0015),
        (0.0243649066665, -0.02, 0.0015),
        (0.0270236799999, -0.02, 0.0015),
        (0.0296824533332, -0.02, 0.0015),
        (0.0323412266666, -0.02, 0.0015),
        (0.035, -0.02, 0.0015),
        (0.00319316348886, -0.0175, 0.0015),
        (0.00584373319812, -0.0175, 0.0015),
        (0.00849430290738, -0.0175, 0.0015),
        (0.0111448726166, -0.0175, 0.0015),
        (0.0137954423259, -0.0175, 0.0015),
        (0.0164460120352, -0.0175, 0.0015),
        (0.0190965817444, -0.0175, 0.0015),
        (0.0217471514537, -0.0175, 0.0015),
        (0.024397721163, -0.0175, 0.0015),
        (0.0270482908722, -0.0175, 0.0015),
        (0.0296988605815, -0.0175, 0.0015),
        (0.0323494302907, -0.0175, 0.0015),
        (0.035, -0.0175, 0.0015),
        (0.002975, -0.015, 0.0015),
        (0.00564375, -0.015, 0.0015),
        (0.0083125, -0.015, 0.0015),
        (0.01098125, -0.015, 0.0015),
        (0.01365, -0.015, 0.0015),
        (0.01631875, -0.015, 0.0015),
        (0.0189875, -0.015, 0.0015),
        (0.02165625, -0.015, 0.0015),
        (0.024325, -0.015, 0.0015),
        (0.02699375, -0.015, 0.0015),
        (0.0296625, -0.015, 0.0015),
        (0.03233125, -0.015, 0.0015),
        (0.035, -0.015, 0.0015),
        (0.0025960909355, -0.0125, 0.0015),
        (0.00529641669088, -0.0125, 0.0015),
        (0.00799674244625, -0.0125, 0.0015),
        (0.0106970682016, -0.0125, 0.0015),
        (0.013397393957, -0.0125, 0.0015),
        (0.0160977197124, -0.0125, 0.0015),
        (0.0187980454678, -0.0125, 0.0015),
        (0.0214983712231, -0.0125, 0.0015),
        (0.0241986969785, -0.0125, 0.0015),
        (0.0268990227339, -0.0125, 0.0015),
        (0.0295993484893, -0.0125, 0.0015),
        (0.0322996742446, -0.0125, 0.0015),
        (0.035, -0.0125, 0.0015),
        (0.00232713832065, -0.01, 0.0015),
        (0.00504987679393, -0.01, 0.0015),
        (0.00777261526721, -0.01, 0.0015),
        (0.0104953537405, -0.01, 0.0015),
        (0.0132180922138, -0.01, 0.0015),
        (0.015940830687, -0.01, 0.0015),
        (0.0186635691603, -0.01, 0.0015),
        (0.0213863076336, -0.01, 0.0015),
        (0.0241090461069, -0.01, 0.0015),
        (0.0268317845802, -0.01, 0.0015),
        (0.0295545230534, -0.01, 0.0015),
        (0.0322772615267, -0.01, 0.0015),
        (0.035, -0.01, 0.0015),
        (0.0023602885683, -0.0075, 0.0015),
        (0.00508026452094, -0.0075, 0.0015),
        (0.00780024047358, -0.0075, 0.0015),
        (0.0105202164262, -0.0075, 0.0015),
        (0.0132401923789, -0.0075, 0.0015),
        (0.0159601683315, -0.0075, 0.0015),
        (0.0186801442841, -0.0075, 0.0015),
        (0.0214001202368, -0.0075, 0.0015),
        (0.0241200961894, -0.0075, 0.0015),
        (0.0268400721421, -0.0075, 0.0015),
        (0.0295600480947, -0.0075, 0.0015),
        (0.0322800240474, -0.0075, 0.0015),
        (0.035, -0.0075, 0.0015),
        (0.00267185832005, -0.005, 0.0015),
        (0.00536587012671, -0.005, 0.0015),
        (0.00805988193337, -0.005, 0.0015),
        (0.01075389374, -0.005, 0.0015),
        (0.0134479055467, -0.005, 0.0015),
        (0.0161419173534, -0.005, 0.0015),
        (0.01883592916, -0.005, 0.0015),
        (0.0215299409667, -0.005, 0.0015),
        (0.0242239527733, -0.005, 0.0015),
        (0.02691796458, -0.005, 0.0015),
        (0.0296119763867, -0.005, 0.0015),
        (0.0323059881933, -0.005, 0.0015),
        (0.035, -0.005, 0.0015),
        (0.00303925442436, -0.0025, 0.0015),
        (0.005702649889, -0.0025, 0.0015),
        (0.00836604535363, -0.0025, 0.0015),
        (0.0110294408183, -0.0025, 0.0015),
        (0.0136928362829, -0.0025, 0.0015),
        (0.0163562317475, -0.0025, 0.0015),
        (0.0190196272122, -0.0025, 0.0015),
        (0.0216830226768, -0.0025, 0.0015),
        (0.0243464181415, -0.0025, 0.0015),
        (0.0270098136061, -0.0025, 0.0015),
        (0.0296732090707, -0.0025, 0.0015),
        (0.0323366045354, -0.0025, 0.0015),
        (0.035, -0.0025, 0.0015),
        (0.0032, 0, 0.0015),
        (0.00585, 0, 0.0015),
        (0.0085, 0, 0.0015),
        (0.01115, 0, 0.0015),
        (0.0138, 0, 0.0015),
        (0.01645, 0, 0.0015),
        (0.0191, 0, 0.0015),
        (0.02175, 0, 0.0015),
        (0.0244, 0, 0.0015),
        (0.02705, 0, 0.0015),
        (0.0297, 0, 0.0015),
        (0.03235, 0, 0.0015),
        (0.035, 0, 0.0015),
        (0.00303925442436, 0.0025, 0.0015),
        (0.005702649889, 0.0025, 0.0015),
        (0.00836604535363, 0.0025, 0.0015),
        (0.0110294408183, 0.0025, 0.0015),
        (0.0136928362829, 0.0025, 0.0015),
        (0.0163562317475, 0.0025, 0.0015),
        (0.0190196272122, 0.0025, 0.0015),
        (0.0216830226768, 0.0025, 0.0015),
        (0.0243464181415, 0.0025, 0.0015),
        (0.0270098136061, 0.0025, 0.0015),
        (0.0296732090707, 0.0025, 0.0015),
        (0.0323366045354, 0.0025, 0.0015),
        (0.035, 0.0025, 0.0015),
        (0.00267185832005, 0.005, 0.0015),
        (0.00536587012671, 0.005, 0.0015),
        (0.00805988193337, 0.005, 0.0015),
        (0.01075389374, 0.005, 0.0015),
        (0.0134479055467, 0.005, 0.0015),
        (0.0161419173534, 0.005, 0.0015),
        (0.01883592916, 0.005, 0.0015),
        (0.0215299409667, 0.005, 0.0015),
        (0.0242239527733, 0.005, 0.0015),
        (0.02691796458, 0.005, 0.0015),
        (0.0296119763867, 0.005, 0.0015),
        (0.0323059881933, 0.005, 0.0015),
        (0.035, 0.005, 0.0015),
        (0.0023602885683, 0.0075, 0.0015),
        (0.00508026452094, 0.0075, 0.0015),
        (0.00780024047358, 0.0075, 0.0015),
        (0.0105202164262, 0.0075, 0.0015),
        (0.0132401923789, 0.0075, 0.0015),
        (0.0159601683315, 0.0075, 0.0015),
        (0.0186801442841, 0.0075, 0.0015),
        (0.0214001202368, 0.0075, 0.0015),
        (0.0241200961894, 0.0075, 0.0015),
        (0.0268400721421, 0.0075, 0.0015),
        (0.0295600480947, 0.0075, 0.0015),
        (0.0322800240474, 0.0075, 0.0015),
        (0.035, 0.0075, 0.0015),
        (0.00232713832065, 0.01, 0.0015),
        (0.00504987679393, 0.01, 0.0015),
        (0.00777261526721, 0.01, 0.0015),
        (0.0104953537405, 0.01, 0.0015),
        (0.0132180922138, 0.01, 0.0015),
        (0.015940830687, 0.01, 0.0015),
        (0.0186635691603, 0.01, 0.0015),
        (0.0213863076336, 0.01, 0.0015),
        (0.0241090461069, 0.01, 0.0015),
        (0.0268317845802, 0.01, 0.0015),
        (0.0295545230534, 0.01, 0.0015),
        (0.0322772615267, 0.01, 0.0015),
        (0.035, 0.01, 0.0015),
        (0.0025960909355, 0.0125, 0.0015),
        (0.00529641669088, 0.0125, 0.0015),
        (0.00799674244625, 0.0125, 0.0015),
        (0.0106970682016, 0.0125, 0.0015),
        (0.013397393957, 0.0125, 0.0015),
        (0.0160977197124, 0.0125, 0.0015),
        (0.0187980454678, 0.0125, 0.0015),
        (0.0214983712231, 0.0125, 0.0015),
        (0.0241986969785, 0.0125, 0.0015),
        (0.0268990227339, 0.0125, 0.0015),
        (0.0295993484893, 0.0125, 0.0015),
        (0.0322996742446, 0.0125, 0.0015),
        (0.035, 0.0125, 0.0015),
        (0.002975, 0.015, 0.0015),
        (0.00564375, 0.015, 0.0015),
        (0.0083125, 0.015, 0.0015),
        (0.01098125, 0.015, 0.0015),
        (0.01365, 0.015, 0.0015),
        (0.01631875, 0.015, 0.0015),
        (0.0189875, 0.015, 0.0015),
        (0.02165625, 0.015, 0.0015),
        (0.024325, 0.015, 0.0015),
        (0.02699375, 0.015, 0.0015),
        (0.0296625, 0.015, 0.0015),
        (0.03233125, 0.015, 0.0015),
        (0.035, 0.015, 0.0015),
        (0.00319316348886, 0.0175, 0.0015),
        (0.00584373319812, 0.0175, 0.0015),
        (0.00849430290738, 0.0175, 0.0015),
        (0.0111448726166, 0.0175, 0.0015),
        (0.0137954423259, 0.0175, 0.0015),
        (0.0164460120352, 0.0175, 0.0015),
        (0.0190965817444, 0.0175, 0.0015),
        (0.0217471514537, 0.0175, 0.0015),
        (0.024397721163, 0.0175, 0.0015),
        (0.0270482908722, 0.0175, 0.0015),
        (0.0296988605815, 0.0175, 0.0015),
        (0.0323494302907, 0.0175, 0.0015),
        (0.035, 0.0175, 0.0015),
        (0.0030947199994, 0.02, 0.0015),
        (0.00575349333279, 0.02, 0.0015),
        (0.00841226666617, 0.02, 0.0015),
        (0.0110710399996, 0.02, 0.0015),
        (0.0137298133329, 0.02, 0.0015),
        (0.0163885866663, 0.02, 0.0015),
        (0.0190473599997, 0.02, 0.0015),
        (0.0217061333331, 0.02, 0.0015),
        (0.0243649066665, 0.02, 0.0015),
        (0.0270236799999, 0.02, 0.0015),
        (0.0296824533332, 0.02, 0.0015),
        (0.0323412266666, 0.02, 0.0015),
        (0.035, 0.02, 0.0015),
        (0.00275, 0.0225, 0.0015),
        (0.0054375, 0.0225, 0.0015),
        (0.008125, 0.0225, 0.0015),
        (0.0108125, 0.0225, 0.0015),
        (0.0135, 0.0225, 0.0015),
        (0.0161875, 0.0225, 0.0015),
        (0.018875, 0.0225, 0.0015),
        (0.0215625, 0.0225, 0.0015),
        (0.02425, 0.0225, 0.0015),
        (0.0269375, 0.0225, 0.0015),
        (0.029625, 0.0225, 0.0015),
        (0.0323125, 0.0225, 0.0015),
        (0.035, 0.0225, 0.0015),
        (0.003, -0.0225, 0.003),
        (0.00566666666667, -0.0225, 0.003),
        (0.00833333333333, -0.0225, 0.003),
        (0.011, -0.0225, 0.003),
        (0.0136666666667, -0.0225, 0.003),
        (0.0163333333333, -0.0225, 0.003),
        (0.019, -0.0225, 0.003),
        (0.0216666666667, -0.0225, 0.003),
        (0.0243333333333, -0.0225, 0.003),
        (0.027, -0.0225, 0.003),
        (0.0296666666667, -0.0225, 0.003),
        (0.0323333333333, -0.0225, 0.003),
        (0.035, -0.0225, 0.003),
        (0.0033447199994, -0.02, 0.003),
        (0.00598265999945, -0.02, 0.003),
        (0.0086205999995, -0.02, 0.003),
        (0.0112585399996, -0.02, 0.003),
        (0.0138964799996, -0.02, 0.003),
        (0.0165344199997, -0.02, 0.003),
        (0.0191723599997, -0.02, 0.003),
        (0.0218102999998, -0.02, 0.003),
        (0.0244482399998, -0.02, 0.003),
        (0.0270861799999, -0.02, 0.003),
        (0.0297241199999, -0.02, 0.003),
        (0.03236206, -0.02, 0.003),
        (0.035, -0.02, 0.003),
        (0.00344316348886, -0.0175, 0.003),
        (0.00607289986478, -0.0175, 0.003),
        (0.00870263624071, -0.0175, 0.003),
        (0.0113323726166, -0.0175, 0.003),
        (0.0139621089926, -0.0175, 0.003),
        (0.0165918453685, -0.0175, 0.003),
        (0.0192215817444, -0.0175, 0.003),
        (0.0218513181204, -0.0175, 0.003),
        (0.0244810544963, -0.0175, 0.003),
        (0.0271107908722, -0.0175, 0.003),
        (0.0297405272481, -0.0175, 0.003),
        (0.0323702636241, -0.0175, 0.003),
        (0.035, -0.0175, 0.003),
        (0.003225, -0.015, 0.003),
        (0.00587291666667, -0.015, 0.003),
        (0.00852083333333, -0.015, 0.003),
        (0.01116875, -0.015, 0.003),
        (0.0138166666667, -0.015, 0.003),
        (0.0164645833333, -0.015, 0.003),
        (0.0191125, -0.015, 0.003),
        (0.0217604166667, -0.015, 0.003),
        (0.0244083333333, -0.015, 0.003),
        (0.02705625, -0.015, 0.003),
        (0.0297041666667, -0.015, 0.003),
        (0.0323520833333, -0.015, 0.003),
        (0.035, -0.015, 0.003),
        (0.0028460909355, -0.0125, 0.003),
        (0.00552558335754, -0.0125, 0.003),
        (0.00820507577959, -0.0125, 0.003),
        (0.0108845682016, -0.0125, 0.003),
        (0.0135640606237, -0.0125, 0.003),
        (0.0162435530457, -0.0125, 0.003),
        (0.0189230454678, -0.0125, 0.003),
        (0.0216025378898, -0.0125, 0.003),
        (0.0242820303118, -0.0125, 0.003),
        (0.0269615227339, -0.0125, 0.003),
        (0.0296410151559, -0.0125, 0.003),
        (0.032320507578, -0.0125, 0.003),
        (0.035, -0.0125, 0.003),
        (0.00257713832065, -0.01, 0.003),
        (0.00527904346059, -0.01, 0.003),
        (0.00798094860054, -0.01, 0.003),
        (0.0106828537405, -0.01, 0.003),
        (0.0133847588804, -0.01, 0.003),
        (0.0160866640204, -0.01, 0.003),
        (0.0187885691603, -0.01, 0.003),
        (0.0214904743003, -0.01, 0.003),
        (0.0241923794402, -0.01, 0.003),
        (0.0268942845802, -0.01, 0.003),
        (0.0295961897201, -0.01, 0.003),
        (0.0322980948601, -0.01, 0.003),
        (0.035, -0.01, 0.003),
        (0.0026102885683, -0.0075, 0.003),
        (0.00530943118761, -0.0075, 0.003),
        (0.00800857380691, -0.0075, 0.003),
        (0.0107077164262, -0.0075, 0.003),
        (0.0134068590455, -0.0075, 0.003),
        (0.0161060016648, -0.0075, 0.003),
        (0.0188051442841, -0.0075, 0.003),
        (0.0215042869035, -0.0075, 0.003),
        (0.0242034295228, -0.0075, 0.003),
        (0.0269025721421, -0.0075, 0.003),
        (0.0296017147614, -0.0075, 0.003),
        (0.0323008573807, -0.0075, 0.003),
        (0.035, -0.0075, 0.003),
        (0.00292185832005, -0.005, 0.003),
        (0.00559503679338, -0.005, 0.003),
        (0.00826821526671, -0.005, 0.003),
        (0.01094139374, -0.005, 0.003),
        (0.0136145722134, -0.005, 0.003),
        (0.0162877506867, -0.005, 0.003),
        (0.01896092916, -0.005, 0.003),
        (0.0216341076334, -0.005, 0.003),
        (0.0243072861067, -0.005, 0.003),
        (0.02698046458, -0.005, 0.003),
        (0.0296536430533, -0.005, 0.003),
        (0.0323268215267, -0.005, 0.003),
        (0.035, -0.005, 0.003),
        (0.00328925442436, -0.0025, 0.003),
        (0.00593181655566, -0.0025, 0.003),
        (0.00857437868697, -0.0025, 0.003),
        (0.0112169408183, -0.0025, 0.003),
        (0.0138595029496, -0.0025, 0.003),
        (0.0165020650809, -0.0025, 0.003),
        (0.0191446272122, -0.0025, 0.003),
        (0.0217871893435, -0.0025, 0.003),
        (0.0244297514748, -0.0025, 0.003),
        (0.0270723136061, -0.0025, 0.003),
        (0.0297148757374, -0.0025, 0.003),
        (0.0323574378687, -0.0025, 0.003),
        (0.035, -0.0025, 0.003),
        (0.00345, 0, 0.003),
        (0.00607916666667, 0, 0.003),
        (0.00870833333333, 0, 0.003),
        (0.0113375, 0, 0.003),
        (0.0139666666667, 0, 0.003),
        (0.0165958333333, 0, 0.003),
        (0.019225, 0, 0.003),
        (0.0218541666667, 0, 0.003),
        (0.0244833333333, 0, 0.003),
        (0.0271125, 0, 0.003),
        (0.0297416666667, 0, 0.003),
        (0.0323708333333, 0, 0.003),
        (0.035, 0, 0.003),
        (0.00328925442436, 0.0025, 0.003),
        (0.00593181655566, 0.0025, 0.003),
        (0.00857437868697, 0.0025, 0.003),
        (0.0112169408183, 0.0025, 0.003),
        (0.0138595029496, 0.0025, 0.003),
        (0.0165020650809, 0.0025, 0.003),
        (0.0191446272122, 0.0025, 0.003),
        (0.0217871893435, 0.0025, 0.003),
        (0.0244297514748, 0.0025, 0.003),
        (0.0270723136061, 0.0025, 0.003),
        (0.0297148757374, 0.0025, 0.003),
        (0.0323574378687, 0.0025, 0.003),
        (0.035, 0.0025, 0.003),
        (0.00292185832005, 0.005, 0.003),
        (0.00559503679338, 0.005, 0.003),
        (0.00826821526671, 0.005, 0.003),
        (0.01094139374, 0.005, 0.003),
        (0.0136145722134, 0.005, 0.003),
        (0.0162877506867, 0.005, 0.003),
        (0.01896092916, 0.005, 0.003),
        (0.0216341076334, 0.005, 0.003),
        (0.0243072861067, 0.005, 0.003),
        (0.02698046458, 0.005, 0.003),
        (0.0296536430533, 0.005, 0.003),
        (0.0323268215267, 0.005, 0.003),
        (0.035, 0.005, 0.003),
        (0.0026102885683, 0.0075, 0.003),
        (0.00530943118761, 0.0075, 0.003),
        (0.00800857380691, 0.0075, 0.003),
        (0.0107077164262, 0.0075, 0.003),
        (0.0134068590455, 0.0075, 0.003),
        (0.0161060016648, 0.0075, 0.003),
        (0.0188051442841, 0.0075, 0.003),
        (0.0215042869035, 0.0075, 0.003),
        (0.0242034295228, 0.0075, 0.003),
        (0.0269025721421, 0.0075, 0.003),
        (0.0296017147614, 0.0075, 0.003),
        (0.0323008573807, 0.0075, 0.003),
        (0.035, 0.0075, 0.003),
        (0.00257713832065, 0.01, 0.003),
        (0.00527904346059, 0.01, 0.003),
        (0.00798094860054, 0.01, 0.003),
        (0.0106828537405, 0.01, 0.003),
        (0.0133847588804, 0.01, 0.003),
        (0.0160866640204, 0.01, 0.003),
        (0.0187885691603, 0.01, 0.003),
        (0.0214904743003, 0.01, 0.003),
        (0.0241923794402, 0.01, 0.003),
        (0.0268942845802, 0.01, 0.003),
        (0.0295961897201, 0.01, 0.003),
        (0.0322980948601, 0.01, 0.003),
        (0.035, 0.01, 0.003),
        (0.0028460909355, 0.0125, 0.003),
        (0.00552558335754, 0.0125, 0.003),
        (0.00820507577959, 0.0125, 0.003),
        (0.0108845682016, 0.0125, 0.003),
        (0.0135640606237, 0.0125, 0.003),
        (0.0162435530457, 0.0125, 0.003),
        (0.0189230454678, 0.0125, 0.003),
        (0.0216025378898, 0.0125, 0.003),
        (0.0242820303118, 0.0125, 0.003),
        (0.0269615227339, 0.0125, 0.003),
        (0.0296410151559, 0.0125, 0.003),
        (0.032320507578, 0.0125, 0.003),
        (0.035, 0.0125, 0.003),
        (0.003225, 0.015, 0.003),
        (0.00587291666667, 0.015, 0.003),
        (0.00852083333333, 0.015, 0.003),
        (0.01116875, 0.015, 0.003),
        (0.0138166666667, 0.015, 0.003),
        (0.0164645833333, 0.015, 0.003),
        (0.0191125, 0.015, 0.003),
        (0.0217604166667, 0.015, 0.003),
        (0.0244083333333, 0.015, 0.003),
        (0.02705625, 0.015, 0.003),
        (0.0297041666667, 0.015, 0.003),
        (0.0323520833333, 0.015, 0.003),
        (0.035, 0.015, 0.003),
        (0.00344316348886, 0.0175, 0.003),
        (0.00607289986478, 0.0175, 0.003),
        (0.00870263624071, 0.0175, 0.003),
        (0.0113323726166, 0.0175, 0.003),
        (0.0139621089926, 0.0175, 0.003),
        (0.0165918453685, 0.0175, 0.003),
        (0.0192215817444, 0.0175, 0.003),
        (0.0218513181204, 0.0175, 0.003),
        (0.0244810544963, 0.0175, 0.003),
        (0.0271107908722, 0.0175, 0.003),
        (0.0297405272481, 0.0175, 0.003),
        (0.0323702636241, 0.0175, 0.003),
        (0.035, 0.0175, 0.003),
        (0.0033447199994, 0.02, 0.003),
        (0.00598265999945, 0.02, 0.003),
        (0.0086205999995, 0.02, 0.003),
        (0.0112585399996, 0.02, 0.003),
        (0.0138964799996, 0.02, 0.003),
        (0.0165344199997, 0.02, 0.003),
        (0.0191723599997, 0.02, 0.003),
        (0.0218102999998, 0.02, 0.003),
        (0.0244482399998, 0.02, 0.003),
        (0.0270861799999, 0.02, 0.003),
        (0.0297241199999, 0.02, 0.003),
        (0.03236206, 0.02, 0.003),
        (0.035, 0.02, 0.003),
        (0.003, 0.0225, 0.003),
        (0.00566666666667, 0.0225, 0.003),
        (0.00833333333333, 0.0225, 0.003),
        (0.011, 0.0225, 0.003),
        (0.0136666666667, 0.0225, 0.003),
        (0.0163333333333, 0.0225, 0.003),
        (0.019, 0.0225, 0.003),
        (0.0216666666667, 0.0225, 0.003),
        (0.0243333333333, 0.0225, 0.003),
        (0.027, 0.0225, 0.003),
        (0.0296666666667, 0.0225, 0.003),
        (0.0323333333333, 0.0225, 0.003),
        (0.035, 0.0225, 0.003)
]
uniform token subdivisionScheme = "none"
uniform token orientation = "rightHanded"
uniform token subsetFamily:materialBind:familyType = "partition"

        def GeomSubset "SurfaceFaces" (
            prepend apiSchemas = ["MaterialBindingAPI"]
        )
        {
            uniform token elementType = "face"
            uniform token familyName = "materialBind"
            int[] indices = [912, 913, 914, 915, 916, 917, 918, 919, 920, 921, 922, 923, 924, 925, 926, 927, 928, 929, 930, 931, 932, 933, 934, 935, 936, 937, 938, 939, 940, 941, 942, 943, 944, 945, 946, 947, 948, 949, 950, 951, 952, 953, 954, 955, 956, 957, 958, 959, 960, 961, 962, 963, 964, 965, 966, 967, 968, 969, 970, 971, 972, 973, 974, 975, 976, 977, 978, 979, 980, 981, 982, 983, 984, 985, 986, 987, 988, 989, 990, 991, 992, 993, 994, 995, 996, 997, 998, 999, 1000, 1001, 1002, 1003, 1004, 1005, 1006, 1007, 1008, 1009, 1010, 1011, 1012, 1013, 1014, 1015, 1016, 1017, 1018, 1019, 1020, 1021, 1022, 1023, 1024, 1025, 1026, 1027, 1028, 1029, 1030, 1031, 1032, 1033, 1034, 1035, 1036, 1037, 1038, 1039, 1040, 1041, 1042, 1043, 1044, 1045, 1046, 1047, 1048, 1049, 1050, 1051, 1052, 1053, 1054, 1055, 1056, 1057, 1058, 1059, 1060, 1061, 1062, 1063, 1064, 1065, 1066, 1067, 1068, 1069, 1070, 1071, 1072, 1073, 1074, 1075, 1076, 1077, 1078, 1079, 1080, 1081, 1082, 1083, 1084, 1085, 1086, 1087, 1088, 1089, 1090, 1091, 1092, 1093, 1094, 1095, 1096, 1097, 1098, 1099, 1100, 1101, 1102, 1103, 1104, 1105, 1106, 1107, 1108, 1109, 1110, 1111, 1112, 1113, 1114, 1115, 1116, 1117, 1118, 1119, 1120, 1121, 1122, 1123, 1124, 1125, 1126, 1127, 1128, 1129, 1130, 1131, 1132, 1133, 1134, 1135, 1136, 1137, 1138, 1139, 1140, 1141, 1142, 1143, 1144, 1145, 1146, 1147, 1148, 1149, 1150, 1151, 1152, 1153, 1154, 1155, 1156, 1157, 1158, 1159, 1160, 1161, 1162, 1163, 1164, 1165, 1166, 1167, 1168, 1169, 1170, 1171, 1172, 1173, 1174, 1175, 1176, 1177, 1178, 1179, 1180, 1181, 1182, 1183, 1184, 1185, 1186, 1187, 1188, 1189, 1190, 1191, 1192, 1193, 1194, 1195, 1196, 1197, 1198, 1199, 1200, 1201, 1202, 1203, 1204, 1205, 1206, 1207, 1208, 1209, 1210, 1211, 1212, 1213, 1214, 1215, 1216, 1217, 1218, 1219, 1220, 1221, 1222, 1223, 1224, 1225, 1226, 1227, 1228, 1229, 1230, 1231, 1232, 1233, 1234, 1235, 1236, 1237, 1238, 1239, 1240, 1241, 1242, 1243, 1244, 1245, 1246, 1247, 1248, 1249, 1250, 1251, 1252, 1253, 1254, 1255, 1256, 1257, 1258, 1259, 1260, 1261, 1262, 1263, 1264, 1265, 1266, 1267, 1268, 1269, 1270, 1271, 1272, 1273, 1274, 1275, 1276, 1277, 1278, 1279, 1280, 1281, 1282, 1283, 1284, 1285, 1286, 1287, 1288, 1289, 1290, 1291, 1292, 1293, 1294, 1295, 1296, 1297, 1298, 1299, 1300, 1301, 1302, 1303, 1304, 1305, 1306, 1307, 1308, 1309, 1310, 1311, 1312, 1313, 1314, 1315, 1316, 1317, 1318, 1319, 1320, 1321, 1322, 1323, 1324, 1325, 1326, 1327, 1328, 1329, 1330, 1331, 1332, 1333, 1334, 1335, 1336, 1337, 1338, 1339, 1340, 1341, 1342, 1343]
            rel material:binding = </DrAnmarSuturableTissue/Materials/Surface>
        }

        def GeomSubset "BulkFaces" (
            prepend apiSchemas = ["MaterialBindingAPI"]
        )
        {
            uniform token elementType = "face"
            uniform token familyName = "materialBind"
            int[] indices = [1, 4, 7, 9, 11, 13, 15, 17, 19, 21, 23, 25, 27, 29, 31, 33, 35, 37, 39, 41, 43, 45, 47, 49, 50, 51, 78, 79, 106, 107, 134, 135, 162, 163, 190, 191, 218, 219, 246, 247, 274, 275, 302, 303, 330, 331, 358, 359, 386, 387, 414, 415, 442, 443, 470, 471, 498, 499, 526, 527, 528, 529, 530, 531, 532, 533, 534, 535, 536, 537, 538, 539, 540, 541, 542, 543, 544, 545, 546, 547, 548, 549, 550, 551, 552, 554, 556, 557, 558, 559, 560, 561, 562, 563, 564, 565, 566, 567, 568, 569, 570, 571, 572, 573, 574, 575, 576, 577, 578, 579, 582, 583, 586, 587, 590, 591, 594, 595, 598, 599, 602, 603, 606, 607, 610, 611, 614, 615, 618, 619, 622, 623, 626, 627, 630, 631, 634, 635, 638, 639, 642, 643, 646, 647, 648, 649, 650, 651, 652, 653, 654, 655, 656, 657, 658, 659, 660, 661, 662, 663, 664, 665, 666, 667, 668, 669, 670, 671, 672, 674, 676, 677, 678, 679, 680, 681, 682, 683, 684, 685, 686, 687, 688, 689, 690, 691, 692, 693, 694, 695, 696, 697, 698, 699, 702, 703, 706, 707, 710, 711, 714, 715, 718, 719, 722, 723, 726, 727, 730, 731, 734, 735, 738, 739, 742, 743, 746, 747, 750, 751, 754, 755, 758, 759, 762, 763, 766, 767, 768, 769, 770, 771, 772, 773, 774, 775, 776, 777, 778, 779, 780, 781, 782, 783, 784, 785, 786, 787, 788, 789, 790, 791, 792, 794, 796, 797, 798, 799, 800, 801, 802, 803, 804, 805, 806, 807, 808, 809, 810, 811, 812, 813, 814, 815, 816, 817, 818, 819, 822, 823, 826, 827, 830, 831, 834, 835, 838, 839, 842, 843, 846, 847, 850, 851, 854, 855, 858, 859, 862, 863, 866, 867, 870, 871, 874, 875, 878, 879, 882, 883, 886, 887, 888, 889, 890, 891, 892, 893, 894, 895, 896, 897, 898, 899, 900, 901, 902, 903, 904, 905, 906, 907, 908, 909, 910, 911]
            rel material:binding = </DrAnmarSuturableTissue/Materials/Bulk>
        }

        def GeomSubset "FasciaFaces" (
            prepend apiSchemas = ["MaterialBindingAPI"]
        )
        {
            uniform token elementType = "face"
            uniform token familyName = "materialBind"
            int[] indices = [0, 2, 6, 8, 10, 12, 14, 16, 18, 20, 22, 24, 26, 28, 30, 32, 34, 36, 38, 40, 42, 44, 46, 48, 52, 53, 56, 57, 58, 59, 60, 61, 62, 63, 64, 65, 66, 67, 68, 69, 70, 71, 72, 73, 74, 75, 76, 77, 80, 81, 84, 85, 86, 87, 88, 89, 90, 91, 92, 93, 94, 95, 96, 97, 98, 99, 100, 101, 102, 103, 104, 105, 108, 109, 112, 113, 114, 115, 116, 117, 118, 119, 120, 121, 122, 123, 124, 125, 126, 127, 128, 129, 130, 131, 132, 133, 136, 137, 140, 141, 142, 143, 144, 145, 146, 147, 148, 149, 150, 151, 152, 153, 154, 155, 156, 157, 158, 159, 160, 161, 164, 165, 168, 169, 170, 171, 172, 173, 174, 175, 176, 177, 178, 179, 180, 181, 182, 183, 184, 185, 186, 187, 188, 189, 192, 193, 196, 197, 198, 199, 200, 201, 202, 203, 204, 205, 206, 207, 208, 209, 210, 211, 212, 213, 214, 215, 216, 217, 220, 221, 224, 225, 226, 227, 228, 229, 230, 231, 232, 233, 234, 235, 236, 237, 238, 239, 240, 241, 242, 243, 244, 245, 248, 249, 252, 253, 254, 255, 256, 257, 258, 259, 260, 261, 262, 263, 264, 265, 266, 267, 268, 269, 270, 271, 272, 273, 276, 277, 280, 281, 282, 283, 284, 285, 286, 287, 288, 289, 290, 291, 292, 293, 294, 295, 296, 297, 298, 299, 300, 301, 304, 305, 308, 309, 310, 311, 312, 313, 314, 315, 316, 317, 318, 319, 320, 321, 322, 323, 324, 325, 326, 327, 328, 329, 332, 333, 336, 337, 338, 339, 340, 341, 342, 343, 344, 345, 346, 347, 348, 349, 350, 351, 352, 353, 354, 355, 356, 357, 360, 361, 364, 365, 366, 367, 368, 369, 370, 371, 372, 373, 374, 375, 376, 377, 378, 379, 380, 381, 382, 383, 384, 385, 388, 389, 392, 393, 394, 395, 396, 397, 398, 399, 400, 401, 402, 403, 404, 405, 406, 407, 408, 409, 410, 411, 412, 413, 416, 417, 420, 421, 422, 423, 424, 425, 426, 427, 428, 429, 430, 431, 432, 433, 434, 435, 436, 437, 438, 439, 440, 441, 444, 445, 448, 449, 450, 451, 452, 453, 454, 455, 456, 457, 458, 459, 460, 461, 462, 463, 464, 465, 466, 467, 468, 469, 472, 473, 476, 477, 478, 479, 480, 481, 482, 483, 484, 485, 486, 487, 488, 489, 490, 491, 492, 493, 494, 495, 496, 497, 500, 501, 504, 505, 506, 507, 508, 509, 510, 511, 512, 513, 514, 515, 516, 517, 518, 519, 520, 521, 522, 523, 524, 525]
            rel material:binding = </DrAnmarSuturableTissue/Materials/Fascia>
        }

        def GeomSubset "WoundFaces" (
            prepend apiSchemas = ["MaterialBindingAPI"]
        )
        {
            uniform token elementType = "face"
            uniform token familyName = "materialBind"
            int[] indices = [3, 5, 54, 55, 82, 83, 110, 111, 138, 139, 166, 167, 194, 195, 222, 223, 250, 251, 278, 279, 306, 307, 334, 335, 362, 363, 390, 391, 418, 419, 446, 447, 474, 475, 502, 503, 553, 555, 580, 581, 584, 585, 588, 589, 592, 593, 596, 597, 600, 601, 604, 605, 608, 609, 612, 613, 616, 617, 620, 621, 624, 625, 628, 629, 632, 633, 636, 637, 640, 641, 644, 645, 673, 675, 700, 701, 704, 705, 708, 709, 712, 713, 716, 717, 720, 721, 724, 725, 728, 729, 732, 733, 736, 737, 740, 741, 744, 745, 748, 749, 752, 753, 756, 757, 760, 761, 764, 765, 793, 795, 820, 821, 824, 825, 828, 829, 832, 833, 836, 837, 840, 841, 844, 845, 848, 849, 852, 853, 856, 857, 860, 861, 864, 865, 868, 869, 872, 873, 876, 877, 880, 881, 884, 885]
            rel material:binding = </DrAnmarSuturableTissue/Materials/Wound>
        }
    }
}
