#usda 1.0
(
    defaultPrim = "DrAnmarMarginInkParticle"
    kilogramsPerUnit = 1
    metersPerUnit = 1
    upAxis = "Z"
)

def Xform "DrAnmarMarginInkParticle" (
    prepend apiSchemas = ["PhysicsRigidBodyAPI", "PhysicsMassAPI", "SemanticsLabelsAPI:class"]
    customData = {
        string drAnmarAssetId = "dranmar-margin-ink-particle"
        string drAnmarStatus = "simulation_training_effect"
    }
)
{
    token[] semantics:labels:class = ["margin_ink_particle"]
    bool physics:rigidBodyEnabled = true
    float physics:mass = 5e-07
    def Scope "Looks"
    {
        def Material "WhitePolymer"
        {
            def Shader "PreviewSurface"
            {
                uniform token info:id = "UsdPreviewSurface"
                color3f inputs:diffuseColor = (0.78, 0.82, 0.84)
                float inputs:metallic = 0
                float inputs:roughness = 0.28
                float inputs:opacity = 1
                token outputs:surface
            }
            token outputs:surface.connect = </DrAnmarMarginInkParticle/Looks/WhitePolymer/PreviewSurface.outputs:surface>
        }
        def Material "DarkPolymer"
        {
            def Shader "PreviewSurface"
            {
                uniform token info:id = "UsdPreviewSurface"
                color3f inputs:diffuseColor = (0.035, 0.05, 0.06)
                float inputs:metallic = 0
                float inputs:roughness = 0.34
                float inputs:opacity = 1
                token outputs:surface
            }
            token outputs:surface.connect = </DrAnmarMarginInkParticle/Looks/DarkPolymer/PreviewSurface.outputs:surface>
        }
        def Material "TealPolymer"
        {
            def Shader "PreviewSurface"
            {
                uniform token info:id = "UsdPreviewSurface"
                color3f inputs:diffuseColor = (0.02, 0.38, 0.4)
                float inputs:metallic = 0
                float inputs:roughness = 0.26
                float inputs:opacity = 1
                token outputs:surface
            }
            token outputs:surface.connect = </DrAnmarMarginInkParticle/Looks/TealPolymer/PreviewSurface.outputs:surface>
        }
        def Material "BluePolymer"
        {
            def Shader "PreviewSurface"
            {
                uniform token info:id = "UsdPreviewSurface"
                color3f inputs:diffuseColor = (0.04, 0.18, 0.55)
                float inputs:metallic = 0
                float inputs:roughness = 0.3
                float inputs:opacity = 1
                token outputs:surface
            }
            token outputs:surface.connect = </DrAnmarMarginInkParticle/Looks/BluePolymer/PreviewSurface.outputs:surface>
        }
        def Material "OrangePolymer"
        {
            def Shader "PreviewSurface"
            {
                uniform token info:id = "UsdPreviewSurface"
                color3f inputs:diffuseColor = (0.83, 0.25, 0.05)
                float inputs:metallic = 0
                float inputs:roughness = 0.31
                float inputs:opacity = 1
                token outputs:surface
            }
            token outputs:surface.connect = </DrAnmarMarginInkParticle/Looks/OrangePolymer/PreviewSurface.outputs:surface>
        }
        def Material "Steel"
        {
            def Shader "PreviewSurface"
            {
                uniform token info:id = "UsdPreviewSurface"
                color3f inputs:diffuseColor = (0.48, 0.52, 0.58)
                float inputs:metallic = 0.88
                float inputs:roughness = 0.18
                float inputs:opacity = 1
                token outputs:surface
            }
            token outputs:surface.connect = </DrAnmarMarginInkParticle/Looks/Steel/PreviewSurface.outputs:surface>
        }
        def Material "Ceramic"
        {
            def Shader "PreviewSurface"
            {
                uniform token info:id = "UsdPreviewSurface"
                color3f inputs:diffuseColor = (0.82, 0.8, 0.72)
                float inputs:metallic = 0
                float inputs:roughness = 0.18
                float inputs:opacity = 1
                token outputs:surface
            }
            token outputs:surface.connect = </DrAnmarMarginInkParticle/Looks/Ceramic/PreviewSurface.outputs:surface>
        }
        def Material "Lens"
        {
            def Shader "PreviewSurface"
            {
                uniform token info:id = "UsdPreviewSurface"
                color3f inputs:diffuseColor = (0.04, 0.28, 0.48)
                float inputs:metallic = 0.05
                float inputs:roughness = 0.06
                float inputs:opacity = 0.28
                token outputs:surface
            }
            token outputs:surface.connect = </DrAnmarMarginInkParticle/Looks/Lens/PreviewSurface.outputs:surface>
        }
        def Material "Liver"
        {
            def Shader "PreviewSurface"
            {
                uniform token info:id = "UsdPreviewSurface"
                color3f inputs:diffuseColor = (0.36, 0.035, 0.03)
                float inputs:metallic = 0
                float inputs:roughness = 0.5
                float inputs:opacity = 1
                token outputs:surface
            }
            token outputs:surface.connect = </DrAnmarMarginInkParticle/Looks/Liver/PreviewSurface.outputs:surface>
        }
        def Material "TumorCore"
        {
            def Shader "PreviewSurface"
            {
                uniform token info:id = "UsdPreviewSurface"
                color3f inputs:diffuseColor = (0.78, 0.56, 0.06)
                float inputs:metallic = 0
                float inputs:roughness = 0.48
                float inputs:opacity = 1
                token outputs:surface
            }
            token outputs:surface.connect = </DrAnmarMarginInkParticle/Looks/TumorCore/PreviewSurface.outputs:surface>
        }
        def Material "TumorHalo"
        {
            def Shader "PreviewSurface"
            {
                uniform token info:id = "UsdPreviewSurface"
                color3f inputs:diffuseColor = (0.92, 0.18, 0.06)
                float inputs:metallic = 0
                float inputs:roughness = 0.52
                float inputs:opacity = 0.28
                token outputs:surface
            }
            token outputs:surface.connect = </DrAnmarMarginInkParticle/Looks/TumorHalo/PreviewSurface.outputs:surface>
        }
        def Material "Vessel"
        {
            def Shader "PreviewSurface"
            {
                uniform token info:id = "UsdPreviewSurface"
                color3f inputs:diffuseColor = (0.52, 0.01, 0.02)
                float inputs:metallic = 0
                float inputs:roughness = 0.42
                float inputs:opacity = 1
                token outputs:surface
            }
            token outputs:surface.connect = </DrAnmarMarginInkParticle/Looks/Vessel/PreviewSurface.outputs:surface>
        }
        def Material "Vein"
        {
            def Shader "PreviewSurface"
            {
                uniform token info:id = "UsdPreviewSurface"
                color3f inputs:diffuseColor = (0.02, 0.1, 0.42)
                float inputs:metallic = 0
                float inputs:roughness = 0.42
                float inputs:opacity = 1
                token outputs:surface
            }
            token outputs:surface.connect = </DrAnmarMarginInkParticle/Looks/Vein/PreviewSurface.outputs:surface>
        }
        def Material "Duct"
        {
            def Shader "PreviewSurface"
            {
                uniform token info:id = "UsdPreviewSurface"
                color3f inputs:diffuseColor = (0.08, 0.5, 0.12)
                float inputs:metallic = 0
                float inputs:roughness = 0.46
                float inputs:opacity = 1
                token outputs:surface
            }
            token outputs:surface.connect = </DrAnmarMarginInkParticle/Looks/Duct/PreviewSurface.outputs:surface>
        }
        def Material "Bag"
        {
            def Shader "PreviewSurface"
            {
                uniform token info:id = "UsdPreviewSurface"
                color3f inputs:diffuseColor = (0.25, 0.7, 0.78)
                float inputs:metallic = 0
                float inputs:roughness = 0.1
                float inputs:opacity = 0.26
                token outputs:surface
            }
            token outputs:surface.connect = </DrAnmarMarginInkParticle/Looks/Bag/PreviewSurface.outputs:surface>
        }
        def Material "Margin"
        {
            def Shader "PreviewSurface"
            {
                uniform token info:id = "UsdPreviewSurface"
                color3f inputs:diffuseColor = (0.02, 0.72, 0.8)
                float inputs:metallic = 0
                float inputs:roughness = 0.24
                float inputs:opacity = 0.38
                token outputs:surface
            }
            token outputs:surface.connect = </DrAnmarMarginInkParticle/Looks/Margin/PreviewSurface.outputs:surface>
        }
        def Material "InkBlue"
        {
            def Shader "PreviewSurface"
            {
                uniform token info:id = "UsdPreviewSurface"
                color3f inputs:diffuseColor = (0.01, 0.06, 0.62)
                float inputs:metallic = 0
                float inputs:roughness = 0.32
                float inputs:opacity = 1
                token outputs:surface
            }
            token outputs:surface.connect = </DrAnmarMarginInkParticle/Looks/InkBlue/PreviewSurface.outputs:surface>
        }
        def Material "InkGreen"
        {
            def Shader "PreviewSurface"
            {
                uniform token info:id = "UsdPreviewSurface"
                color3f inputs:diffuseColor = (0.02, 0.55, 0.12)
                float inputs:metallic = 0
                float inputs:roughness = 0.32
                float inputs:opacity = 1
                token outputs:surface
            }
            token outputs:surface.connect = </DrAnmarMarginInkParticle/Looks/InkGreen/PreviewSurface.outputs:surface>
        }
        def Material "InkYellow"
        {
            def Shader "PreviewSurface"
            {
                uniform token info:id = "UsdPreviewSurface"
                color3f inputs:diffuseColor = (0.92, 0.65, 0.02)
                float inputs:metallic = 0
                float inputs:roughness = 0.32
                float inputs:opacity = 1
                token outputs:surface
            }
            token outputs:surface.connect = </DrAnmarMarginInkParticle/Looks/InkYellow/PreviewSurface.outputs:surface>
        }
        def Material "InkRed"
        {
            def Shader "PreviewSurface"
            {
                uniform token info:id = "UsdPreviewSurface"
                color3f inputs:diffuseColor = (0.7, 0.02, 0.02)
                float inputs:metallic = 0
                float inputs:roughness = 0.32
                float inputs:opacity = 1
                token outputs:surface
            }
            token outputs:surface.connect = </DrAnmarMarginInkParticle/Looks/InkRed/PreviewSurface.outputs:surface>
        }
        def Material "InkBlack"
        {
            def Shader "PreviewSurface"
            {
                uniform token info:id = "UsdPreviewSurface"
                color3f inputs:diffuseColor = (0.015, 0.015, 0.015)
                float inputs:metallic = 0
                float inputs:roughness = 0.38
                float inputs:opacity = 1
                token outputs:surface
            }
            token outputs:surface.connect = </DrAnmarMarginInkParticle/Looks/InkBlack/PreviewSurface.outputs:surface>
        }
        def Material "InkWhite"
        {
            def Shader "PreviewSurface"
            {
                uniform token info:id = "UsdPreviewSurface"
                color3f inputs:diffuseColor = (0.88, 0.88, 0.88)
                float inputs:metallic = 0
                float inputs:roughness = 0.38
                float inputs:opacity = 1
                token outputs:surface
            }
            token outputs:surface.connect = </DrAnmarMarginInkParticle/Looks/InkWhite/PreviewSurface.outputs:surface>
        }
    }

    def Scope "PhysicsMaterials"
    {
        def Material "PolymerPhysics" (
            prepend apiSchemas = ["PhysicsMaterialAPI", "PhysxMaterialAPI"]
        )
        {
            float physics:staticFriction = 0.55
            float physics:dynamicFriction = 0.42
            float physics:restitution = 0.03
            uniform token physxMaterial:frictionCombineMode = "max"
            uniform token physxMaterial:restitutionCombineMode = "min"
        }
        def Material "SteelPhysics" (
            prepend apiSchemas = ["PhysicsMaterialAPI", "PhysxMaterialAPI"]
        )
        {
            float physics:staticFriction = 0.32
            float physics:dynamicFriction = 0.24
            float physics:restitution = 0.02
            uniform token physxMaterial:frictionCombineMode = "max"
            uniform token physxMaterial:restitutionCombineMode = "min"
        }
        def Material "ElastomerPhysics" (
            prepend apiSchemas = ["PhysicsMaterialAPI", "PhysxMaterialAPI"]
        )
        {
            float physics:staticFriction = 0.9
            float physics:dynamicFriction = 0.72
            float physics:restitution = 0.01
            uniform token physxMaterial:frictionCombineMode = "max"
            uniform token physxMaterial:restitutionCombineMode = "min"
        }
        def Material "TissuePhysics" (
            prepend apiSchemas = ["PhysicsMaterialAPI", "PhysxMaterialAPI"]
        )
        {
            float physics:staticFriction = 0.62
            float physics:dynamicFriction = 0.48
            float physics:restitution = 0
            uniform token physxMaterial:frictionCombineMode = "max"
            uniform token physxMaterial:restitutionCombineMode = "min"
        }
        def Material "BagPhysics" (
            prepend apiSchemas = ["PhysicsMaterialAPI", "PhysxMaterialAPI"]
        )
        {
            float physics:staticFriction = 0.45
            float physics:dynamicFriction = 0.32
            float physics:restitution = 0
            uniform token physxMaterial:frictionCombineMode = "max"
            uniform token physxMaterial:restitutionCombineMode = "min"
        }
    }

    def Mesh "Visual" (
        prepend apiSchemas = ["MaterialBindingAPI"]
    )
    {
        rel material:binding = </DrAnmarMarginInkParticle/Looks/InkBlue>
        uniform bool doubleSided = false
        float3[] extent = [(-0.001, -0.001, -0.001), (0.001, 0.001, 0.001)]
        int[] faceVertexCounts = [3, 3, 3, 3, 3, 3, 3, 3, 3, 3, 3, 3, 3, 3, 3, 3, 3, 3, 3, 3, 3, 3, 3, 3, 3, 3, 3, 3, 3, 3, 3, 3, 3, 3, 3, 3, 3, 3, 3, 3, 3, 3, 3, 3, 3, 3, 3, 3, 3, 3, 3, 3, 3, 3, 3, 3, 3, 3, 3, 3, 3, 3, 3, 3, 3, 3, 3, 3, 3, 3, 3, 3, 3, 3, 3, 3, 3, 3, 3, 3, 3, 3, 3, 3, 3, 3, 3, 3, 3, 3, 3, 3, 3, 3, 3, 3, 3, 3, 3, 3, 3, 3, 3, 3, 3, 3, 3, 3, 3, 3, 3, 3, 3, 3, 3, 3, 3, 3, 3, 3, 3, 3, 3, 3, 3, 3, 3, 3, 3, 3, 3, 3, 3, 3, 3, 3, 3, 3, 3, 3, 3, 3, 3, 3, 3, 3, 3, 3, 3, 3, 3, 3, 3, 3, 3, 3, 3, 3, 3, 3, 3, 3, 3, 3, 3, 3, 3, 3, 3, 3, 3, 3, 3, 3, 3, 3, 3, 3, 3, 3, 3, 3, 3, 3, 3, 3, 3, 3, 3, 3, 3, 3, 3, 3, 3, 3, 3, 3, 3, 3, 3, 3, 3, 3, 3, 3, 3, 3, 3, 3, 3, 3, 3, 3, 3, 3, 3, 3, 3, 3, 3, 3, 3, 3, 3, 3, 3, 3, 3, 3, 3, 3, 3, 3, 3, 3, 3, 3, 3, 3, 3, 3, 3, 3, 3, 3, 3, 3, 3, 3, 3, 3, 3, 3, 3, 3, 3, 3, 3, 3, 3, 3, 3, 3, 3, 3, 3, 3, 3, 3, 3, 3, 3, 3, 3, 3, 3, 3, 3, 3, 3, 3, 3, 3, 3, 3, 3, 3, 3, 3, 3, 3, 3, 3, 3, 3, 3, 3, 3, 3, 3, 3, 3, 3, 3, 3, 3, 3, 3, 3, 3, 3, 3, 3, 3, 3, 3, 3, 3, 3]
        int[] faceVertexIndices = [0, 137, 53, 137, 37, 139, 53, 139, 16, 137, 139, 53, 37, 138, 154, 138, 11, 151, 154, 151, 40, 138, 151, 154, 16, 152, 54, 152, 40, 150, 54, 150, 5, 152, 150, 54, 37, 154, 139, 154, 40, 152, 139, 152, 16, 154, 152, 139, 0, 53, 42, 53, 16, 55, 42, 55, 12, 53, 55, 42, 16, 54, 59, 54, 5, 57, 59, 57, 17, 54, 57, 59, 12, 58, 43, 58, 17, 56, 43, 56, 1, 58, 56, 43, 16, 59, 55, 59, 17, 58, 55, 58, 12, 59, 58, 55, 0, 42, 69, 42, 12, 71, 69, 71, 21, 42, 71, 69, 12, 43, 74, 43, 1, 72, 74, 72, 22, 43, 72, 74, 21, 75, 70, 75, 22, 73, 70, 73, 7, 75, 73, 70, 12, 74, 71, 74, 22, 75, 71, 75, 21, 74, 75, 71, 0, 69, 120, 69, 21, 122, 120, 122, 33, 69, 122, 120, 21, 70, 133, 70, 7, 131, 133, 131, 36, 70, 131, 133, 33, 135, 121, 135, 36, 132, 121, 132, 10, 135, 132, 121, 21, 133, 122, 133, 36, 135, 122, 135, 33, 133, 135, 122, 0, 120, 137, 120, 33, 140, 137, 140, 37, 120, 140, 137, 33, 121, 158, 121, 10, 156, 158, 156, 41, 121, 156, 158, 37, 160, 138, 160, 41, 157, 138, 157, 11, 160, 157, 138, 33, 158, 140, 158, 41, 160, 140, 160, 37, 158, 160, 140, 1, 56, 95, 56, 17, 97, 95, 97, 28, 56, 97, 95, 17, 57, 110, 57, 5, 108, 110, 108, 31, 57, 108, 110, 28, 112, 96, 112, 31, 109, 96, 109, 9, 112, 109, 96, 17, 110, 97, 110, 31, 112, 97, 112, 28, 110, 112, 97, 5, 150, 61, 150, 40, 153, 61, 153, 18, 150, 153, 61, 40, 151, 155, 151, 11, 146, 155, 146, 39, 151, 146, 155, 18, 148, 60, 148, 39, 145, 60, 145, 4, 148, 145, 60, 40, 155, 153, 155, 39, 148, 153, 148, 18, 155, 148, 153, 11, 157, 142, 157, 41, 161, 142, 161, 38, 157, 161, 142, 41, 156, 159, 156, 10, 124, 159, 124, 34, 156, 124, 159, 38, 144, 141, 144, 34, 123, 141, 123, 2, 144, 123, 141, 41, 159, 161, 159, 34, 144, 161, 144, 38, 159, 144, 161, 10, 132, 127, 132, 36, 136, 127, 136, 35, 132, 136, 127, 36, 131, 134, 131, 7, 77, 134, 77, 23, 131, 77, 134, 35, 129, 126, 129, 23, 76, 126, 76, 6, 129, 76, 126, 36, 134, 136, 134, 23, 129, 136, 129, 35, 134, 129, 136, 7, 73, 89, 73, 22, 91, 89, 91, 27, 73, 91, 89, 22, 72, 80, 72, 1, 78, 80, 78, 24, 72, 78, 80, 27, 93, 90, 93, 24, 79, 90, 79, 8, 93, 79, 90, 22, 80, 91, 80, 24, 93, 91, 93, 27, 80, 93, 91, 3, 99, 49, 99, 29, 101, 49, 101, 15, 99, 101, 49, 29, 100, 107, 100, 9, 104, 107, 104, 30, 100, 104, 107, 15, 105, 50, 105, 30, 103, 50, 103, 4, 105, 103, 50, 29, 107, 101, 107, 30, 105, 101, 105, 15, 107, 105, 101, 3, 49, 45, 49, 15, 51, 45, 51, 13, 49, 51, 45, 15, 50, 52, 50, 4, 47, 52, 47, 14, 50, 47, 52, 13, 48, 44, 48, 14, 46, 44, 46, 2, 48, 46, 44, 15, 52, 51, 52, 14, 48, 51, 48, 13, 52, 48, 51, 3, 45, 65, 45, 13, 67, 65, 67, 20, 45, 67, 65, 13, 44, 64, 44, 2, 62, 64, 62, 19, 44, 62, 64, 20, 68, 66, 68, 19, 63, 66, 63, 6, 68, 63, 66, 13, 64, 67, 64, 19, 68, 67, 68, 20, 64, 68, 67, 3, 65, 81, 65, 20, 83, 81, 83, 25, 65, 83, 81, 20, 66, 86, 66, 6, 84, 86, 84, 26, 66, 84, 86, 25, 88, 82, 88, 26, 85, 82, 85, 8, 88, 85, 82, 20, 86, 83, 86, 26, 88, 83, 88, 25, 86, 88, 83, 3, 81, 99, 81, 25, 102, 99, 102, 29, 81, 102, 99, 25, 82, 117, 82, 8, 114, 117, 114, 32, 82, 114, 117, 29, 119, 100, 119, 32, 115, 100, 115, 9, 119, 115, 100, 25, 117, 102, 117, 32, 119, 102, 119, 29, 117, 119, 102, 4, 103, 60, 103, 30, 106, 60, 106, 18, 103, 106, 60, 30, 104, 113, 104, 9, 109, 113, 109, 31, 104, 109, 113, 18, 111, 61, 111, 31, 108, 61, 108, 5, 111, 108, 61, 30, 113, 106, 113, 31, 111, 106, 111, 18, 113, 111, 106, 2, 46, 141, 46, 14, 143, 141, 143, 38, 46, 143, 141, 14, 47, 147, 47, 4, 145, 147, 145, 39, 47, 145, 147, 38, 149, 142, 149, 39, 146, 142, 146, 11, 149, 146, 142, 14, 147, 143, 147, 39, 149, 143, 149, 38, 147, 149, 143, 6, 63, 126, 63, 19, 128, 126, 128, 35, 63, 128, 126, 19, 62, 125, 62, 2, 123, 125, 123, 34, 62, 123, 125, 35, 130, 127, 130, 34, 124, 127, 124, 10, 130, 124, 127, 19, 125, 128, 125, 34, 130, 128, 130, 35, 125, 130, 128, 8, 85, 90, 85, 26, 94, 90, 94, 27, 85, 94, 90, 26, 84, 87, 84, 6, 76, 87, 76, 23, 84, 76, 87, 27, 92, 89, 92, 23, 77, 89, 77, 7, 92, 77, 89, 26, 87, 94, 87, 23, 92, 94, 92, 27, 87, 92, 94, 9, 115, 96, 115, 32, 118, 96, 118, 28, 115, 118, 96, 32, 114, 116, 114, 8, 79, 116, 79, 24, 114, 79, 116, 28, 98, 95, 98, 24, 78, 95, 78, 1, 98, 78, 95, 32, 116, 118, 116, 24, 98, 118, 98, 28, 116, 98, 118]
        point3f[] points = [
            (-0.0005257311121, 0.0008506508084, 0),
            (0.0005257311121, 0.0008506508084, 0),
            (-0.0005257311121, -0.0008506508084, 0),
            (0.0005257311121, -0.0008506508084, 0),
            (0, -0.0005257311121, 0.0008506508084),
            (0, 0.0005257311121, 0.0008506508084),
            (0, -0.0005257311121, -0.0008506508084),
            (0, 0.0005257311121, -0.0008506508084),
            (0.0008506508084, 0, -0.0005257311121),
            (0.0008506508084, 0, 0.0005257311121),
            (-0.0008506508084, 0, -0.0005257311121),
            (-0.0008506508084, 0, 0.0005257311121),
            (0, 0.001, 0),
            (0, -0.001, 0),
            (-0.0003090169944, -0.0008090169944, 0.0005),
            (0.0003090169944, -0.0008090169944, 0.0005),
            (-0.0003090169944, 0.0008090169944, 0.0005),
            (0.0003090169944, 0.0008090169944, 0.0005),
            (0, 0, 0.001),
            (-0.0003090169944, -0.0008090169944, -0.0005),
            (0.0003090169944, -0.0008090169944, -0.0005),
            (-0.0003090169944, 0.0008090169944, -0.0005),
            (0.0003090169944, 0.0008090169944, -0.0005),
            (0, 0, -0.001),
            (0.0008090169944, 0.0005, -0.0003090169944),
            (0.0008090169944, -0.0005, -0.0003090169944),
            (0.0005, -0.0003090169944, -0.0008090169944),
            (0.0005, 0.0003090169944, -0.0008090169944),
            (0.0008090169944, 0.0005, 0.0003090169944),
            (0.0008090169944, -0.0005, 0.0003090169944),
            (0.0005, -0.0003090169944, 0.0008090169944),
            (0.0005, 0.0003090169944, 0.0008090169944),
            (0.001, 0, 0),
            (-0.0008090169944, 0.0005, -0.0003090169944),
            (-0.0008090169944, -0.0005, -0.0003090169944),
            (-0.0005, -0.0003090169944, -0.0008090169944),
            (-0.0005, 0.0003090169944, -0.0008090169944),
            (-0.0008090169944, 0.0005, 0.0003090169944),
            (-0.0008090169944, -0.0005, 0.0003090169944),
            (-0.0005, -0.0003090169944, 0.0008090169944),
            (-0.0005, 0.0003090169944, 0.0008090169944),
            (-0.001, 0, 0),
            (-0.0002732665289, 0.0009619383578, 0),
            (0.0002732665289, 0.0009619383578, 0),
            (-0.0002732665289, -0.0009619383578, 0),
            (0.0002732665289, -0.0009619383578, 0),
            (-0.0004338885646, -0.0008626684804, 0.000259891913),
            (-0.0001606220356, -0.0006937804776, 0.0007020464448),
            (-0.0001624598481, -0.0009510565163, 0.0002628655561),
            (0.0004338885646, -0.0008626684804, 0.000259891913),
            (0.0001606220356, -0.0006937804776, 0.0007020464448),
            (0.0001624598481, -0.0009510565163, 0.0002628655561),
            (0, -0.0008506508084, 0.0005257311121),
            (-0.0004338885646, 0.0008626684804, 0.000259891913),
            (-0.0001606220356, 0.0006937804776, 0.0007020464448),
            (-0.0001624598481, 0.0009510565163, 0.0002628655561),
            (0.0004338885646, 0.0008626684804, 0.000259891913),
            (0.0001606220356, 0.0006937804776, 0.0007020464448),
            (0.0001624598481, 0.0009510565163, 0.0002628655561),
            (0, 0.0008506508084, 0.0005257311121),
            (0, -0.0002732665289, 0.0009619383578),
            (0, 0.0002732665289, 0.0009619383578),
            (-0.0004338885646, -0.0008626684804, -0.000259891913),
            (-0.0001606220356, -0.0006937804776, -0.0007020464448),
            (-0.0001624598481, -0.0009510565163, -0.0002628655561),
            (0.0004338885646, -0.0008626684804, -0.000259891913),
            (0.0001606220356, -0.0006937804776, -0.0007020464448),
            (0.0001624598481, -0.0009510565163, -0.0002628655561),
            (0, -0.0008506508084, -0.0005257311121),
            (-0.0004338885646, 0.0008626684804, -0.000259891913),
            (-0.0001606220356, 0.0006937804776, -0.0007020464448),
            (-0.0001624598481, 0.0009510565163, -0.0002628655561),
            (0.0004338885646, 0.0008626684804, -0.000259891913),
            (0.0001606220356, 0.0006937804776, -0.0007020464448),
            (0.0001624598481, 0.0009510565163, -0.0002628655561),
            (0, 0.0008506508084, -0.0005257311121),
            (0, -0.0002732665289, -0.0009619383578),
            (0, 0.0002732665289, -0.0009619383578),
            (0.0006937804776, 0.0007020464448, -0.0001606220356),
            (0.0008626684804, 0.000259891913, -0.0004338885646),
            (0.0005877852523, 0.0006881909602, -0.0004253254042),
            (0.0006937804776, -0.0007020464448, -0.0001606220356),
            (0.0008626684804, -0.000259891913, -0.0004338885646),
            (0.0005877852523, -0.0006881909602, -0.0004253254042),
            (0.000259891913, -0.0004338885646, -0.0008626684804),
            (0.0007020464448, -0.0001606220356, -0.0006937804776),
            (0.0004253254042, -0.0005877852523, -0.0006881909602),
            (0.0002628655561, -0.0001624598481, -0.0009510565163),
            (0.0006881909602, -0.0004253254042, -0.0005877852523),
            (0.000259891913, 0.0004338885646, -0.0008626684804),
            (0.0007020464448, 0.0001606220356, -0.0006937804776),
            (0.0004253254042, 0.0005877852523, -0.0006881909602),
            (0.0002628655561, 0.0001624598481, -0.0009510565163),
            (0.0006881909602, 0.0004253254042, -0.0005877852523),
            (0.0005257311121, 0, -0.0008506508084),
            (0.0006937804776, 0.0007020464448, 0.0001606220356),
            (0.0008626684804, 0.000259891913, 0.0004338885646),
            (0.0005877852523, 0.0006881909602, 0.0004253254042),
            (0.0008506508084, 0.0005257311121, 0),
            (0.0006937804776, -0.0007020464448, 0.0001606220356),
            (0.0008626684804, -0.000259891913, 0.0004338885646),
            (0.0005877852523, -0.0006881909602, 0.0004253254042),
            (0.0008506508084, -0.0005257311121, 0),
            (0.000259891913, -0.0004338885646, 0.0008626684804),
            (0.0007020464448, -0.0001606220356, 0.0006937804776),
            (0.0004253254042, -0.0005877852523, 0.0006881909602),
            (0.0002628655561, -0.0001624598481, 0.0009510565163),
            (0.0006881909602, -0.0004253254042, 0.0005877852523),
            (0.000259891913, 0.0004338885646, 0.0008626684804),
            (0.0007020464448, 0.0001606220356, 0.0006937804776),
            (0.0004253254042, 0.0005877852523, 0.0006881909602),
            (0.0002628655561, 0.0001624598481, 0.0009510565163),
            (0.0006881909602, 0.0004253254042, 0.0005877852523),
            (0.0005257311121, 0, 0.0008506508084),
            (0.0009619383578, 0, -0.0002732665289),
            (0.0009619383578, 0, 0.0002732665289),
            (0.0009510565163, 0.0002628655561, -0.0001624598481),
            (0.0009510565163, -0.0002628655561, -0.0001624598481),
            (0.0009510565163, 0.0002628655561, 0.0001624598481),
            (0.0009510565163, -0.0002628655561, 0.0001624598481),
            (-0.0006937804776, 0.0007020464448, -0.0001606220356),
            (-0.0008626684804, 0.000259891913, -0.0004338885646),
            (-0.0005877852523, 0.0006881909602, -0.0004253254042),
            (-0.0006937804776, -0.0007020464448, -0.0001606220356),
            (-0.0008626684804, -0.000259891913, -0.0004338885646),
            (-0.0005877852523, -0.0006881909602, -0.0004253254042),
            (-0.000259891913, -0.0004338885646, -0.0008626684804),
            (-0.0007020464448, -0.0001606220356, -0.0006937804776),
            (-0.0004253254042, -0.0005877852523, -0.0006881909602),
            (-0.0002628655561, -0.0001624598481, -0.0009510565163),
            (-0.0006881909602, -0.0004253254042, -0.0005877852523),
            (-0.000259891913, 0.0004338885646, -0.0008626684804),
            (-0.0007020464448, 0.0001606220356, -0.0006937804776),
            (-0.0004253254042, 0.0005877852523, -0.0006881909602),
            (-0.0002628655561, 0.0001624598481, -0.0009510565163),
            (-0.0006881909602, 0.0004253254042, -0.0005877852523),
            (-0.0005257311121, 0, -0.0008506508084),
            (-0.0006937804776, 0.0007020464448, 0.0001606220356),
            (-0.0008626684804, 0.000259891913, 0.0004338885646),
            (-0.0005877852523, 0.0006881909602, 0.0004253254042),
            (-0.0008506508084, 0.0005257311121, 0),
            (-0.0006937804776, -0.0007020464448, 0.0001606220356),
            (-0.0008626684804, -0.000259891913, 0.0004338885646),
            (-0.0005877852523, -0.0006881909602, 0.0004253254042),
            (-0.0008506508084, -0.0005257311121, 0),
            (-0.000259891913, -0.0004338885646, 0.0008626684804),
            (-0.0007020464448, -0.0001606220356, 0.0006937804776),
            (-0.0004253254042, -0.0005877852523, 0.0006881909602),
            (-0.0002628655561, -0.0001624598481, 0.0009510565163),
            (-0.0006881909602, -0.0004253254042, 0.0005877852523),
            (-0.000259891913, 0.0004338885646, 0.0008626684804),
            (-0.0007020464448, 0.0001606220356, 0.0006937804776),
            (-0.0004253254042, 0.0005877852523, 0.0006881909602),
            (-0.0002628655561, 0.0001624598481, 0.0009510565163),
            (-0.0006881909602, 0.0004253254042, 0.0005877852523),
            (-0.0005257311121, 0, 0.0008506508084),
            (-0.0009619383578, 0, -0.0002732665289),
            (-0.0009619383578, 0, 0.0002732665289),
            (-0.0009510565163, 0.0002628655561, -0.0001624598481),
            (-0.0009510565163, -0.0002628655561, -0.0001624598481),
            (-0.0009510565163, 0.0002628655561, 0.0001624598481),
            (-0.0009510565163, -0.0002628655561, 0.0001624598481)
        ]
        uniform token subdivisionScheme = "none"
    }

    def Scope "Frames" {
        def Xform "particle_center"
        {
            double3 xformOp:translate = (0, 0, 0)
            quatf xformOp:orient = (1, 0, 0, 0)
            uniform token[] xformOpOrder = ["xformOp:translate", "xformOp:orient"]
            custom string drAnmarFrameRole = "particle_center"
        }
    }
}
