#usda 1.0
(
    defaultPrim = "DrAnmarSealVaporParticle"
    kilogramsPerUnit = 1
    metersPerUnit = 1
    upAxis = "Z"
)

def Xform "DrAnmarSealVaporParticle" (
    customData = {
        bool drAnmarClinicalValidation = false
        string drAnmarRepresentation = "visual_particle_prototype"
    }
)
{
    def Scope "Looks"
    {
        def Material "BodyPolymer"
        {
            def Shader "PreviewSurface"
            {
                uniform token info:id = "UsdPreviewSurface"
                color3f inputs:diffuseColor = (0.82, 0.85, 0.88)
                float inputs:metallic = 0
                float inputs:roughness = 0.34
                float inputs:opacity = 1
                token outputs:surface
            }
            token outputs:surface.connect = </DrAnmarSealVaporParticle/Looks/BodyPolymer/PreviewSurface.outputs:surface>
        }
        def Material "AccentPolymer"
        {
            def Shader "PreviewSurface"
            {
                uniform token info:id = "UsdPreviewSurface"
                color3f inputs:diffuseColor = (0.055, 0.31, 0.62)
                float inputs:metallic = 0
                float inputs:roughness = 0.29
                float inputs:opacity = 1
                token outputs:surface
            }
            token outputs:surface.connect = </DrAnmarSealVaporParticle/Looks/AccentPolymer/PreviewSurface.outputs:surface>
        }
        def Material "DarkPolymer"
        {
            def Shader "PreviewSurface"
            {
                uniform token info:id = "UsdPreviewSurface"
                color3f inputs:diffuseColor = (0.035, 0.045, 0.055)
                float inputs:metallic = 0
                float inputs:roughness = 0.3
                float inputs:opacity = 1
                token outputs:surface
            }
            token outputs:surface.connect = </DrAnmarSealVaporParticle/Looks/DarkPolymer/PreviewSurface.outputs:surface>
        }
        def Material "MountMetal"
        {
            def Shader "PreviewSurface"
            {
                uniform token info:id = "UsdPreviewSurface"
                color3f inputs:diffuseColor = (0.44, 0.48, 0.53)
                float inputs:metallic = 0.82
                float inputs:roughness = 0.24
                float inputs:opacity = 1
                token outputs:surface
            }
            token outputs:surface.connect = </DrAnmarSealVaporParticle/Looks/MountMetal/PreviewSurface.outputs:surface>
        }
        def Material "RailMetal"
        {
            def Shader "PreviewSurface"
            {
                uniform token info:id = "UsdPreviewSurface"
                color3f inputs:diffuseColor = (0.25, 0.29, 0.34)
                float inputs:metallic = 0.74
                float inputs:roughness = 0.26
                float inputs:opacity = 1
                token outputs:surface
            }
            token outputs:surface.connect = </DrAnmarSealVaporParticle/Looks/RailMetal/PreviewSurface.outputs:surface>
        }
        def Material "JawMetal"
        {
            def Shader "PreviewSurface"
            {
                uniform token info:id = "UsdPreviewSurface"
                color3f inputs:diffuseColor = (0.6, 0.64, 0.68)
                float inputs:metallic = 0.78
                float inputs:roughness = 0.22
                float inputs:opacity = 1
                token outputs:surface
            }
            token outputs:surface.connect = </DrAnmarSealVaporParticle/Looks/JawMetal/PreviewSurface.outputs:surface>
        }
        def Material "ElectrodeCopper"
        {
            def Shader "PreviewSurface"
            {
                uniform token info:id = "UsdPreviewSurface"
                color3f inputs:diffuseColor = (0.78, 0.4, 0.13)
                float inputs:metallic = 0.88
                float inputs:roughness = 0.2
                float inputs:opacity = 1
                token outputs:surface
            }
            token outputs:surface.connect = </DrAnmarSealVaporParticle/Looks/ElectrodeCopper/PreviewSurface.outputs:surface>
        }
        def Material "CeramicWhite"
        {
            def Shader "PreviewSurface"
            {
                uniform token info:id = "UsdPreviewSurface"
                color3f inputs:diffuseColor = (0.91, 0.91, 0.88)
                float inputs:metallic = 0
                float inputs:roughness = 0.16
                float inputs:opacity = 1
                token outputs:surface
            }
            token outputs:surface.connect = </DrAnmarSealVaporParticle/Looks/CeramicWhite/PreviewSurface.outputs:surface>
        }
        def Material "BladeSteel"
        {
            def Shader "PreviewSurface"
            {
                uniform token info:id = "UsdPreviewSurface"
                color3f inputs:diffuseColor = (0.7, 0.73, 0.77)
                float inputs:metallic = 0.92
                float inputs:roughness = 0.12
                float inputs:opacity = 1
                token outputs:surface
            }
            token outputs:surface.connect = </DrAnmarSealVaporParticle/Looks/BladeSteel/PreviewSurface.outputs:surface>
        }
        def Material "SpentBlade"
        {
            def Shader "PreviewSurface"
            {
                uniform token info:id = "UsdPreviewSurface"
                color3f inputs:diffuseColor = (0.32, 0.31, 0.3)
                float inputs:metallic = 0.72
                float inputs:roughness = 0.42
                float inputs:opacity = 1
                token outputs:surface
            }
            token outputs:surface.connect = </DrAnmarSealVaporParticle/Looks/SpentBlade/PreviewSurface.outputs:surface>
        }
        def Material "PadElastomer"
        {
            def Shader "PreviewSurface"
            {
                uniform token info:id = "UsdPreviewSurface"
                color3f inputs:diffuseColor = (0.06, 0.53, 0.61)
                float inputs:metallic = 0
                float inputs:roughness = 0.52
                float inputs:opacity = 1
                token outputs:surface
            }
            token outputs:surface.connect = </DrAnmarSealVaporParticle/Looks/PadElastomer/PreviewSurface.outputs:surface>
        }
        def Material "SensorGlass"
        {
            def Shader "PreviewSurface"
            {
                uniform token info:id = "UsdPreviewSurface"
                color3f inputs:diffuseColor = (0.05, 0.16, 0.24)
                float inputs:metallic = 0.15
                float inputs:roughness = 0.1
                float inputs:opacity = 0.75
                token outputs:surface
            }
            token outputs:surface.connect = </DrAnmarSealVaporParticle/Looks/SensorGlass/PreviewSurface.outputs:surface>
        }
        def Material "ThermalGlass"
        {
            def Shader "PreviewSurface"
            {
                uniform token info:id = "UsdPreviewSurface"
                color3f inputs:diffuseColor = (0.31, 0.05, 0.43)
                float inputs:metallic = 0.18
                float inputs:roughness = 0.13
                float inputs:opacity = 0.85
                token outputs:surface
            }
            token outputs:surface.connect = </DrAnmarSealVaporParticle/Looks/ThermalGlass/PreviewSurface.outputs:surface>
        }
        def Material "SensorBlue"
        {
            def Shader "PreviewSurface"
            {
                uniform token info:id = "UsdPreviewSurface"
                color3f inputs:diffuseColor = (0.04, 0.39, 0.86)
                float inputs:metallic = 0.05
                float inputs:roughness = 0.2
                float inputs:opacity = 1
                token outputs:surface
            }
            token outputs:surface.connect = </DrAnmarSealVaporParticle/Looks/SensorBlue/PreviewSurface.outputs:surface>
        }
        def Material "IndicatorGreen"
        {
            def Shader "PreviewSurface"
            {
                uniform token info:id = "UsdPreviewSurface"
                color3f inputs:diffuseColor = (0.05, 0.86, 0.28)
                float inputs:metallic = 0
                float inputs:roughness = 0.2
                float inputs:opacity = 1
                token outputs:surface
            }
            token outputs:surface.connect = </DrAnmarSealVaporParticle/Looks/IndicatorGreen/PreviewSurface.outputs:surface>
        }
        def Material "IndicatorAmber"
        {
            def Shader "PreviewSurface"
            {
                uniform token info:id = "UsdPreviewSurface"
                color3f inputs:diffuseColor = (1, 0.52, 0.02)
                float inputs:metallic = 0
                float inputs:roughness = 0.23
                float inputs:opacity = 1
                token outputs:surface
            }
            token outputs:surface.connect = </DrAnmarSealVaporParticle/Looks/IndicatorAmber/PreviewSurface.outputs:surface>
        }
        def Material "IndicatorRed"
        {
            def Shader "PreviewSurface"
            {
                uniform token info:id = "UsdPreviewSurface"
                color3f inputs:diffuseColor = (0.92, 0.03, 0.04)
                float inputs:metallic = 0
                float inputs:roughness = 0.22
                float inputs:opacity = 1
                token outputs:surface
            }
            token outputs:surface.connect = </DrAnmarSealVaporParticle/Looks/IndicatorRed/PreviewSurface.outputs:surface>
        }
        def Material "SalineBlue"
        {
            def Shader "PreviewSurface"
            {
                uniform token info:id = "UsdPreviewSurface"
                color3f inputs:diffuseColor = (0.04, 0.46, 0.92)
                float inputs:metallic = 0
                float inputs:roughness = 0.05
                float inputs:opacity = 0.56
                token outputs:surface
            }
            token outputs:surface.connect = </DrAnmarSealVaporParticle/Looks/SalineBlue/PreviewSurface.outputs:surface>
        }
        def Material "CollectionDark"
        {
            def Shader "PreviewSurface"
            {
                uniform token info:id = "UsdPreviewSurface"
                color3f inputs:diffuseColor = (0.31, 0.12, 0.08)
                float inputs:metallic = 0
                float inputs:roughness = 0.16
                float inputs:opacity = 0.72
                token outputs:surface
            }
            token outputs:surface.connect = </DrAnmarSealVaporParticle/Looks/CollectionDark/PreviewSurface.outputs:surface>
        }
        def Material "TubeClear"
        {
            def Shader "PreviewSurface"
            {
                uniform token info:id = "UsdPreviewSurface"
                color3f inputs:diffuseColor = (0.63, 0.8, 0.88)
                float inputs:metallic = 0
                float inputs:roughness = 0.08
                float inputs:opacity = 0.34
                token outputs:surface
            }
            token outputs:surface.connect = </DrAnmarSealVaporParticle/Looks/TubeClear/PreviewSurface.outputs:surface>
        }
        def Material "LabelMaterial"
        {
            def Shader "PreviewSurface"
            {
                uniform token info:id = "UsdPreviewSurface"
                color3f inputs:diffuseColor = (0.96, 0.97, 0.98)
                float inputs:metallic = 0
                float inputs:roughness = 0.4
                float inputs:opacity = 1
                token outputs:surface
            }
            token outputs:surface.connect = </DrAnmarSealVaporParticle/Looks/LabelMaterial/PreviewSurface.outputs:surface>
        }
        def Material "VesselMaterial"
        {
            def Shader "PreviewSurface"
            {
                uniform token info:id = "UsdPreviewSurface"
                color3f inputs:diffuseColor = (0.52, 0.055, 0.045)
                float inputs:metallic = 0
                float inputs:roughness = 0.44
                float inputs:opacity = 1
                token outputs:surface
            }
            token outputs:surface.connect = </DrAnmarSealVaporParticle/Looks/VesselMaterial/PreviewSurface.outputs:surface>
        }
        def Material "VesselInner"
        {
            def Shader "PreviewSurface"
            {
                uniform token info:id = "UsdPreviewSurface"
                color3f inputs:diffuseColor = (0.74, 0.16, 0.13)
                float inputs:metallic = 0
                float inputs:roughness = 0.39
                float inputs:opacity = 1
                token outputs:surface
            }
            token outputs:surface.connect = </DrAnmarSealVaporParticle/Looks/VesselInner/PreviewSurface.outputs:surface>
        }
        def Material "BridgeMaterial"
        {
            def Shader "PreviewSurface"
            {
                uniform token info:id = "UsdPreviewSurface"
                color3f inputs:diffuseColor = (0.59, 0.075, 0.06)
                float inputs:metallic = 0
                float inputs:roughness = 0.42
                float inputs:opacity = 1
                token outputs:surface
            }
            token outputs:surface.connect = </DrAnmarSealVaporParticle/Looks/BridgeMaterial/PreviewSurface.outputs:surface>
        }
        def Material "SealBandFresh"
        {
            def Shader "PreviewSurface"
            {
                uniform token info:id = "UsdPreviewSurface"
                color3f inputs:diffuseColor = (0.94, 0.62, 0.1)
                float inputs:metallic = 0.15
                float inputs:roughness = 0.24
                float inputs:opacity = 0.62
                token outputs:surface
            }
            token outputs:surface.connect = </DrAnmarSealVaporParticle/Looks/SealBandFresh/PreviewSurface.outputs:surface>
        }
        def Material "SealBandMature"
        {
            def Shader "PreviewSurface"
            {
                uniform token info:id = "UsdPreviewSurface"
                color3f inputs:diffuseColor = (0.47, 0.21, 0.05)
                float inputs:metallic = 0.15
                float inputs:roughness = 0.3
                float inputs:opacity = 0.78
                token outputs:surface
            }
            token outputs:surface.connect = </DrAnmarSealVaporParticle/Looks/SealBandMature/PreviewSurface.outputs:surface>
        }
        def Material "SealBandFailed"
        {
            def Shader "PreviewSurface"
            {
                uniform token info:id = "UsdPreviewSurface"
                color3f inputs:diffuseColor = (0.2, 0.08, 0.04)
                float inputs:metallic = 0.05
                float inputs:roughness = 0.58
                float inputs:opacity = 0.58
                token outputs:surface
            }
            token outputs:surface.connect = </DrAnmarSealVaporParticle/Looks/SealBandFailed/PreviewSurface.outputs:surface>
        }
        def Material "FixtureMaterial"
        {
            def Shader "PreviewSurface"
            {
                uniform token info:id = "UsdPreviewSurface"
                color3f inputs:diffuseColor = (0.08, 0.09, 0.11)
                float inputs:metallic = 0.2
                float inputs:roughness = 0.42
                float inputs:opacity = 1
                token outputs:surface
            }
            token outputs:surface.connect = </DrAnmarSealVaporParticle/Looks/FixtureMaterial/PreviewSurface.outputs:surface>
        }
        def Material "VaporMaterial"
        {
            def Shader "PreviewSurface"
            {
                uniform token info:id = "UsdPreviewSurface"
                color3f inputs:diffuseColor = (0.78, 0.84, 0.88)
                float inputs:metallic = 0
                float inputs:roughness = 0.08
                float inputs:opacity = 0.3
                token outputs:surface
            }
            token outputs:surface.connect = </DrAnmarSealVaporParticle/Looks/VaporMaterial/PreviewSurface.outputs:surface>
        }
    }
    def Mesh "Vapor" (
        prepend apiSchemas = ["MaterialBindingAPI"]
    )
    {
        rel material:binding = </DrAnmarSealVaporParticle/Looks/VaporMaterial>
        custom token[] drAnmar:labels = ["seal_vapor_particle"]
        float3[] extent = [(-0.0008, -0.0008, -0.0008), (0.0008, 0.0008, 0.0008)]
        int[] faceVertexCounts = [3, 3, 3, 3, 3, 3, 3, 3, 3, 3, 3, 3, 3, 3, 3, 3, 3, 3, 3, 3, 3, 3, 3, 3, 3, 3, 3, 3, 3, 3, 3, 3, 3, 3, 3, 3, 3, 3, 3, 3, 3, 3, 3, 3, 3, 3, 3, 3, 3, 3, 3, 3, 3, 3, 3, 3, 3, 3, 3, 3, 3, 3, 3, 3, 3, 3, 3, 3, 3, 3, 3, 3, 3, 3, 3, 3, 3, 3, 3, 3, 3, 3, 3, 3, 3, 3, 3, 3, 3, 3, 3, 3, 3, 3, 3, 3, 3, 3, 3, 3, 3, 3, 3, 3, 3, 3, 3, 3, 3, 3, 3, 3, 3, 3, 3, 3, 3, 3, 3, 3, 3, 3, 3, 3, 3, 3, 3, 3, 3, 3, 3, 3, 3, 3, 3, 3, 3, 3, 3, 3, 3, 3, 3, 3, 3, 3, 3, 3, 3, 3, 3, 3, 3, 3, 3, 3, 3, 3, 3, 3, 3, 3, 3, 3, 3, 3, 3, 3, 3, 3, 3, 3, 3, 3, 3, 3, 3, 3, 3, 3, 3, 3, 3, 3, 3, 3, 3, 3, 3, 3, 3, 3, 3, 3, 3, 3, 3, 3, 3, 3, 3, 3, 3, 3, 3, 3, 3, 3, 3, 3, 3, 3, 3, 3, 3, 3, 3, 3, 3, 3, 3, 3, 3, 3, 3, 3, 3, 3, 3, 3, 3, 3, 3, 3, 3, 3, 3, 3, 3, 3, 3, 3, 3, 3, 3, 3, 3, 3, 3, 3, 3, 3, 3, 3, 3, 3, 3, 3, 3, 3, 3, 3, 3, 3, 3, 3, 3, 3, 3, 3, 3, 3, 3, 3, 3, 3, 3, 3, 3, 3, 3, 3, 3, 3, 3, 3, 3, 3, 3, 3, 3, 3, 3, 3, 3, 3, 3, 3, 3, 3, 3, 3, 3, 3, 3, 3, 3, 3, 3, 3, 3, 3, 3, 3, 3, 3, 3, 3, 3, 3]
        int[] faceVertexIndices = [0, 137, 53, 137, 37, 139, 53, 139, 16, 137, 139, 53, 37, 138, 154, 138, 11, 151, 154, 151, 40, 138, 151, 154, 16, 152, 54, 152, 40, 150, 54, 150, 5, 152, 150, 54, 37, 154, 139, 154, 40, 152, 139, 152, 16, 154, 152, 139, 0, 53, 42, 53, 16, 55, 42, 55, 12, 53, 55, 42, 16, 54, 59, 54, 5, 57, 59, 57, 17, 54, 57, 59, 12, 58, 43, 58, 17, 56, 43, 56, 1, 58, 56, 43, 16, 59, 55, 59, 17, 58, 55, 58, 12, 59, 58, 55, 0, 42, 69, 42, 12, 71, 69, 71, 21, 42, 71, 69, 12, 43, 74, 43, 1, 72, 74, 72, 22, 43, 72, 74, 21, 75, 70, 75, 22, 73, 70, 73, 7, 75, 73, 70, 12, 74, 71, 74, 22, 75, 71, 75, 21, 74, 75, 71, 0, 69, 120, 69, 21, 122, 120, 122, 33, 69, 122, 120, 21, 70, 133, 70, 7, 131, 133, 131, 36, 70, 131, 133, 33, 135, 121, 135, 36, 132, 121, 132, 10, 135, 132, 121, 21, 133, 122, 133, 36, 135, 122, 135, 33, 133, 135, 122, 0, 120, 137, 120, 33, 140, 137, 140, 37, 120, 140, 137, 33, 121, 158, 121, 10, 156, 158, 156, 41, 121, 156, 158, 37, 160, 138, 160, 41, 157, 138, 157, 11, 160, 157, 138, 33, 158, 140, 158, 41, 160, 140, 160, 37, 158, 160, 140, 1, 56, 95, 56, 17, 97, 95, 97, 28, 56, 97, 95, 17, 57, 110, 57, 5, 108, 110, 108, 31, 57, 108, 110, 28, 112, 96, 112, 31, 109, 96, 109, 9, 112, 109, 96, 17, 110, 97, 110, 31, 112, 97, 112, 28, 110, 112, 97, 5, 150, 61, 150, 40, 153, 61, 153, 18, 150, 153, 61, 40, 151, 155, 151, 11, 146, 155, 146, 39, 151, 146, 155, 18, 148, 60, 148, 39, 145, 60, 145, 4, 148, 145, 60, 40, 155, 153, 155, 39, 148, 153, 148, 18, 155, 148, 153, 11, 157, 142, 157, 41, 161, 142, 161, 38, 157, 161, 142, 41, 156, 159, 156, 10, 124, 159, 124, 34, 156, 124, 159, 38, 144, 141, 144, 34, 123, 141, 123, 2, 144, 123, 141, 41, 159, 161, 159, 34, 144, 161, 144, 38, 159, 144, 161, 10, 132, 127, 132, 36, 136, 127, 136, 35, 132, 136, 127, 36, 131, 134, 131, 7, 77, 134, 77, 23, 131, 77, 134, 35, 129, 126, 129, 23, 76, 126, 76, 6, 129, 76, 126, 36, 134, 136, 134, 23, 129, 136, 129, 35, 134, 129, 136, 7, 73, 89, 73, 22, 91, 89, 91, 27, 73, 91, 89, 22, 72, 80, 72, 1, 78, 80, 78, 24, 72, 78, 80, 27, 93, 90, 93, 24, 79, 90, 79, 8, 93, 79, 90, 22, 80, 91, 80, 24, 93, 91, 93, 27, 80, 93, 91, 3, 99, 49, 99, 29, 101, 49, 101, 15, 99, 101, 49, 29, 100, 107, 100, 9, 104, 107, 104, 30, 100, 104, 107, 15, 105, 50, 105, 30, 103, 50, 103, 4, 105, 103, 50, 29, 107, 101, 107, 30, 105, 101, 105, 15, 107, 105, 101, 3, 49, 45, 49, 15, 51, 45, 51, 13, 49, 51, 45, 15, 50, 52, 50, 4, 47, 52, 47, 14, 50, 47, 52, 13, 48, 44, 48, 14, 46, 44, 46, 2, 48, 46, 44, 15, 52, 51, 52, 14, 48, 51, 48, 13, 52, 48, 51, 3, 45, 65, 45, 13, 67, 65, 67, 20, 45, 67, 65, 13, 44, 64, 44, 2, 62, 64, 62, 19, 44, 62, 64, 20, 68, 66, 68, 19, 63, 66, 63, 6, 68, 63, 66, 13, 64, 67, 64, 19, 68, 67, 68, 20, 64, 68, 67, 3, 65, 81, 65, 20, 83, 81, 83, 25, 65, 83, 81, 20, 66, 86, 66, 6, 84, 86, 84, 26, 66, 84, 86, 25, 88, 82, 88, 26, 85, 82, 85, 8, 88, 85, 82, 20, 86, 83, 86, 26, 88, 83, 88, 25, 86, 88, 83, 3, 81, 99, 81, 25, 102, 99, 102, 29, 81, 102, 99, 25, 82, 117, 82, 8, 114, 117, 114, 32, 82, 114, 117, 29, 119, 100, 119, 32, 115, 100, 115, 9, 119, 115, 100, 25, 117, 102, 117, 32, 119, 102, 119, 29, 117, 119, 102, 4, 103, 60, 103, 30, 106, 60, 106, 18, 103, 106, 60, 30, 104, 113, 104, 9, 109, 113, 109, 31, 104, 109, 113, 18, 111, 61, 111, 31, 108, 61, 108, 5, 111, 108, 61, 30, 113, 106, 113, 31, 111, 106, 111, 18, 113, 111, 106, 2, 46, 141, 46, 14, 143, 141, 143, 38, 46, 143, 141, 14, 47, 147, 47, 4, 145, 147, 145, 39, 47, 145, 147, 38, 149, 142, 149, 39, 146, 142, 146, 11, 149, 146, 142, 14, 147, 143, 147, 39, 149, 143, 149, 38, 147, 149, 143, 6, 63, 126, 63, 19, 128, 126, 128, 35, 63, 128, 126, 19, 62, 125, 62, 2, 123, 125, 123, 34, 62, 123, 125, 35, 130, 127, 130, 34, 124, 127, 124, 10, 130, 124, 127, 19, 125, 128, 125, 34, 130, 128, 130, 35, 125, 130, 128, 8, 85, 90, 85, 26, 94, 90, 94, 27, 85, 94, 90, 26, 84, 87, 84, 6, 76, 87, 76, 23, 84, 76, 87, 27, 92, 89, 92, 23, 77, 89, 77, 7, 92, 77, 89, 26, 87, 94, 87, 23, 92, 94, 92, 27, 87, 92, 94, 9, 115, 96, 115, 32, 118, 96, 118, 28, 115, 118, 96, 32, 114, 116, 114, 8, 79, 116, 79, 24, 114, 79, 116, 28, 98, 95, 98, 24, 78, 95, 78, 1, 98, 78, 95, 32, 116, 118, 116, 24, 98, 118, 98, 28, 116, 98, 118]
        point3f[] points = [
            (-0.0004205848897, 0.0006805206467, 0),
            (0.0004205848897, 0.0006805206467, 0),
            (-0.0004205848897, -0.0006805206467, 0),
            (0.0004205848897, -0.0006805206467, 0),
            (0, -0.0004205848897, 0.0006805206467),
            (0, 0.0004205848897, 0.0006805206467),
            (0, -0.0004205848897, -0.0006805206467),
            (0, 0.0004205848897, -0.0006805206467),
            (0.0006805206467, 0, -0.0004205848897),
            (0.0006805206467, 0, 0.0004205848897),
            (-0.0006805206467, 0, -0.0004205848897),
            (-0.0006805206467, 0, 0.0004205848897),
            (0, 0.0008, 0),
            (0, -0.0008, 0),
            (-0.0002472135955, -0.0006472135955, 0.0004),
            (0.0002472135955, -0.0006472135955, 0.0004),
            (-0.0002472135955, 0.0006472135955, 0.0004),
            (0.0002472135955, 0.0006472135955, 0.0004),
            (0, 0, 0.0008),
            (-0.0002472135955, -0.0006472135955, -0.0004),
            (0.0002472135955, -0.0006472135955, -0.0004),
            (-0.0002472135955, 0.0006472135955, -0.0004),
            (0.0002472135955, 0.0006472135955, -0.0004),
            (0, 0, -0.0008),
            (0.0006472135955, 0.0004, -0.0002472135955),
            (0.0006472135955, -0.0004, -0.0002472135955),
            (0.0004, -0.0002472135955, -0.0006472135955),
            (0.0004, 0.0002472135955, -0.0006472135955),
            (0.0006472135955, 0.0004, 0.0002472135955),
            (0.0006472135955, -0.0004, 0.0002472135955),
            (0.0004, -0.0002472135955, 0.0006472135955),
            (0.0004, 0.0002472135955, 0.0006472135955),
            (0.0008, 0, 0),
            (-0.0006472135955, 0.0004, -0.0002472135955),
            (-0.0006472135955, -0.0004, -0.0002472135955),
            (-0.0004, -0.0002472135955, -0.0006472135955),
            (-0.0004, 0.0002472135955, -0.0006472135955),
            (-0.0006472135955, 0.0004, 0.0002472135955),
            (-0.0006472135955, -0.0004, 0.0002472135955),
            (-0.0004, -0.0002472135955, 0.0006472135955),
            (-0.0004, 0.0002472135955, 0.0006472135955),
            (-0.0008, 0, 0),
            (-0.0002186132231, 0.0007695506862, 0),
            (0.0002186132231, 0.0007695506862, 0),
            (-0.0002186132231, -0.0007695506862, 0),
            (0.0002186132231, -0.0007695506862, 0),
            (-0.0003471108516, -0.0006901347843, 0.0002079135304),
            (-0.0001284976285, -0.000555024382, 0.0005616371558),
            (-0.0001299678785, -0.000760845213, 0.0002102924448),
            (0.0003471108516, -0.0006901347843, 0.0002079135304),
            (0.0001284976285, -0.000555024382, 0.0005616371558),
            (0.0001299678785, -0.000760845213, 0.0002102924448),
            (0, -0.0006805206467, 0.0004205848897),
            (-0.0003471108516, 0.0006901347843, 0.0002079135304),
            (-0.0001284976285, 0.000555024382, 0.0005616371558),
            (-0.0001299678785, 0.000760845213, 0.0002102924448),
            (0.0003471108516, 0.0006901347843, 0.0002079135304),
            (0.0001284976285, 0.000555024382, 0.0005616371558),
            (0.0001299678785, 0.000760845213, 0.0002102924448),
            (0, 0.0006805206467, 0.0004205848897),
            (0, -0.0002186132231, 0.0007695506862),
            (0, 0.0002186132231, 0.0007695506862),
            (-0.0003471108516, -0.0006901347843, -0.0002079135304),
            (-0.0001284976285, -0.000555024382, -0.0005616371558),
            (-0.0001299678785, -0.000760845213, -0.0002102924448),
            (0.0003471108516, -0.0006901347843, -0.0002079135304),
            (0.0001284976285, -0.000555024382, -0.0005616371558),
            (0.0001299678785, -0.000760845213, -0.0002102924448),
            (0, -0.0006805206467, -0.0004205848897),
            (-0.0003471108516, 0.0006901347843, -0.0002079135304),
            (-0.0001284976285, 0.000555024382, -0.0005616371558),
            (-0.0001299678785, 0.000760845213, -0.0002102924448),
            (0.0003471108516, 0.0006901347843, -0.0002079135304),
            (0.0001284976285, 0.000555024382, -0.0005616371558),
            (0.0001299678785, 0.000760845213, -0.0002102924448),
            (0, 0.0006805206467, -0.0004205848897),
            (0, -0.0002186132231, -0.0007695506862),
            (0, 0.0002186132231, -0.0007695506862),
            (0.000555024382, 0.0005616371558, -0.0001284976285),
            (0.0006901347843, 0.0002079135304, -0.0003471108516),
            (0.0004702282018, 0.0005505527682, -0.0003402603233),
            (0.000555024382, -0.0005616371558, -0.0001284976285),
            (0.0006901347843, -0.0002079135304, -0.0003471108516),
            (0.0004702282018, -0.0005505527682, -0.0003402603233),
            (0.0002079135304, -0.0003471108516, -0.0006901347843),
            (0.0005616371558, -0.0001284976285, -0.000555024382),
            (0.0003402603233, -0.0004702282018, -0.0005505527682),
            (0.0002102924448, -0.0001299678785, -0.000760845213),
            (0.0005505527682, -0.0003402603233, -0.0004702282018),
            (0.0002079135304, 0.0003471108516, -0.0006901347843),
            (0.0005616371558, 0.0001284976285, -0.000555024382),
            (0.0003402603233, 0.0004702282018, -0.0005505527682),
            (0.0002102924448, 0.0001299678785, -0.000760845213),
            (0.0005505527682, 0.0003402603233, -0.0004702282018),
            (0.0004205848897, 0, -0.0006805206467),
            (0.000555024382, 0.0005616371558, 0.0001284976285),
            (0.0006901347843, 0.0002079135304, 0.0003471108516),
            (0.0004702282018, 0.0005505527682, 0.0003402603233),
            (0.0006805206467, 0.0004205848897, 0),
            (0.000555024382, -0.0005616371558, 0.0001284976285),
            (0.0006901347843, -0.0002079135304, 0.0003471108516),
            (0.0004702282018, -0.0005505527682, 0.0003402603233),
            (0.0006805206467, -0.0004205848897, 0),
            (0.0002079135304, -0.0003471108516, 0.0006901347843),
            (0.0005616371558, -0.0001284976285, 0.000555024382),
            (0.0003402603233, -0.0004702282018, 0.0005505527682),
            (0.0002102924448, -0.0001299678785, 0.000760845213),
            (0.0005505527682, -0.0003402603233, 0.0004702282018),
            (0.0002079135304, 0.0003471108516, 0.0006901347843),
            (0.0005616371558, 0.0001284976285, 0.000555024382),
            (0.0003402603233, 0.0004702282018, 0.0005505527682),
            (0.0002102924448, 0.0001299678785, 0.000760845213),
            (0.0005505527682, 0.0003402603233, 0.0004702282018),
            (0.0004205848897, 0, 0.0006805206467),
            (0.0007695506862, 0, -0.0002186132231),
            (0.0007695506862, 0, 0.0002186132231),
            (0.000760845213, 0.0002102924448, -0.0001299678785),
            (0.000760845213, -0.0002102924448, -0.0001299678785),
            (0.000760845213, 0.0002102924448, 0.0001299678785),
            (0.000760845213, -0.0002102924448, 0.0001299678785),
            (-0.000555024382, 0.0005616371558, -0.0001284976285),
            (-0.0006901347843, 0.0002079135304, -0.0003471108516),
            (-0.0004702282018, 0.0005505527682, -0.0003402603233),
            (-0.000555024382, -0.0005616371558, -0.0001284976285),
            (-0.0006901347843, -0.0002079135304, -0.0003471108516),
            (-0.0004702282018, -0.0005505527682, -0.0003402603233),
            (-0.0002079135304, -0.0003471108516, -0.0006901347843),
            (-0.0005616371558, -0.0001284976285, -0.000555024382),
            (-0.0003402603233, -0.0004702282018, -0.0005505527682),
            (-0.0002102924448, -0.0001299678785, -0.000760845213),
            (-0.0005505527682, -0.0003402603233, -0.0004702282018),
            (-0.0002079135304, 0.0003471108516, -0.0006901347843),
            (-0.0005616371558, 0.0001284976285, -0.000555024382),
            (-0.0003402603233, 0.0004702282018, -0.0005505527682),
            (-0.0002102924448, 0.0001299678785, -0.000760845213),
            (-0.0005505527682, 0.0003402603233, -0.0004702282018),
            (-0.0004205848897, 0, -0.0006805206467),
            (-0.000555024382, 0.0005616371558, 0.0001284976285),
            (-0.0006901347843, 0.0002079135304, 0.0003471108516),
            (-0.0004702282018, 0.0005505527682, 0.0003402603233),
            (-0.0006805206467, 0.0004205848897, 0),
            (-0.000555024382, -0.0005616371558, 0.0001284976285),
            (-0.0006901347843, -0.0002079135304, 0.0003471108516),
            (-0.0004702282018, -0.0005505527682, 0.0003402603233),
            (-0.0006805206467, -0.0004205848897, 0),
            (-0.0002079135304, -0.0003471108516, 0.0006901347843),
            (-0.0005616371558, -0.0001284976285, 0.000555024382),
            (-0.0003402603233, -0.0004702282018, 0.0005505527682),
            (-0.0002102924448, -0.0001299678785, 0.000760845213),
            (-0.0005505527682, -0.0003402603233, 0.0004702282018),
            (-0.0002079135304, 0.0003471108516, 0.0006901347843),
            (-0.0005616371558, 0.0001284976285, 0.000555024382),
            (-0.0003402603233, 0.0004702282018, 0.0005505527682),
            (-0.0002102924448, 0.0001299678785, 0.000760845213),
            (-0.0005505527682, 0.0003402603233, 0.0004702282018),
            (-0.0004205848897, 0, 0.0006805206467),
            (-0.0007695506862, 0, -0.0002186132231),
            (-0.0007695506862, 0, 0.0002186132231),
            (-0.000760845213, 0.0002102924448, -0.0001299678785),
            (-0.000760845213, -0.0002102924448, -0.0001299678785),
            (-0.000760845213, 0.0002102924448, 0.0001299678785),
            (-0.000760845213, -0.0002102924448, 0.0001299678785)
        ]
        normal3f[] normals = [
            (-0.5257311121, 0.8506508084, 1.002162879e-17),
            (0.5257311121, 0.8506508084, 2.057180269e-18),
            (-0.5257311121, -0.8506508084, 2.057180269e-18),
            (0.5257311121, -0.8506508084, 1.002162879e-17),
            (-1.180713929e-17, -0.5257311121, 0.8506508084),
            (1.035059479e-17, 0.5257311121, 0.8506508084),
            (3.918118797e-18, -0.5257311121, -0.8506508084),
            (-6.97935551e-18, 0.5257311121, -0.8506508084),
            (0.8506508084, 1.651913453e-18, -0.5257311121),
            (0.8506508084, -5.146702578e-18, 0.5257311121),
            (-0.8506508084, -2.554676137e-18, -0.5257311121),
            (-0.8506508084, 6.291981598e-18, 0.5257311121),
            (4.196946279e-18, 1, 0),
            (-4.196946279e-18, -1, 0),
            (-0.3090169944, -0.8090169944, 0.5),
            (0.3090169944, -0.8090169944, 0.5),
            (-0.3090169944, 0.8090169944, 0.5),
            (0.3090169944, 0.8090169944, 0.5),
            (4.204216332e-18, -2.457960667e-18, 1),
            (-0.3090169944, -0.8090169944, -0.5),
            (0.3090169944, -0.8090169944, -0.5),
            (-0.3090169944, 0.8090169944, -0.5),
            (0.3090169944, 0.8090169944, -0.5),
            (0, -2.457960667e-18, -1),
            (0.8090169944, 0.5, -0.3090169944),
            (0.8090169944, -0.5, -0.3090169944),
            (0.5, -0.3090169944, -0.8090169944),
            (0.5, 0.3090169944, -0.8090169944),
            (0.8090169944, 0.5, 0.3090169944),
            (0.8090169944, -0.5, 0.3090169944),
            (0.5, -0.3090169944, 0.8090169944),
            (0.5, 0.3090169944, 0.8090169944),
            (1, 0, 7.000483308e-18),
            (-0.8090169944, 0.5, -0.3090169944),
            (-0.8090169944, -0.5, -0.3090169944),
            (-0.5, -0.3090169944, -0.8090169944),
            (-0.5, 0.3090169944, -0.8090169944),
            (-0.8090169944, 0.5, 0.3090169944),
            (-0.8090169944, -0.5, 0.3090169944),
            (-0.5, -0.3090169944, 0.8090169944),
            (-0.5, 0.3090169944, 0.8090169944),
            (-1, 0, 7.000483308e-18),
            (-0.2752294372, 0.9613785711, -1.629104574e-18),
            (0.2752294372, 0.9613785711, -1.070219188e-17),
            (-0.2752294372, -0.9613785711, -1.070219188e-17),
            (0.2752294372, -0.9613785711, -1.629104574e-18),
            (-0.4346970351, -0.8628221755, 0.2580239935),
            (-0.1594675979, -0.6927210286, 0.7033545776),
            (-0.1536088342, -0.9510051344, 0.2683161574),
            (0.4346970351, -0.8628221755, 0.2580239935),
            (0.1594675979, -0.6927210286, 0.7033545776),
            (0.1536088342, -0.9510051344, 0.2683161574),
            (4.487419791e-18, -0.8560696539, 0.5168604721),
            (-0.4346970351, 0.8628221755, 0.2580239935),
            (-0.1594675979, 0.6927210286, 0.7033545776),
            (-0.1536088342, 0.9510051344, 0.2683161574),
            (0.4346970351, 0.8628221755, 0.2580239935),
            (0.1594675979, 0.6927210286, 0.7033545776),
            (0.1536088342, 0.9510051344, 0.2683161574),
            (-4.487419791e-18, 0.8560696539, 0.5168604721),
            (6.114950136e-18, -0.2752294372, 0.9613785711),
            (-3.07969059e-18, 0.2752294372, 0.9613785711),
            (-0.4346970351, -0.8628221755, -0.2580239935),
            (-0.1594675979, -0.6927210286, -0.7033545776),
            (-0.1536088342, -0.9510051344, -0.2683161574),
            (0.4346970351, -0.8628221755, -0.2580239935),
            (0.1594675979, -0.6927210286, -0.7033545776),
            (0.1536088342, -0.9510051344, -0.2683161574),
            (4.608897425e-18, -0.8560696539, -0.5168604721),
            (-0.4346970351, 0.8628221755, -0.2580239935),
            (-0.1594675979, 0.6927210286, -0.7033545776),
            (-0.1536088342, 0.9510051344, -0.2683161574),
            (0.4346970351, 0.8628221755, -0.2580239935),
            (0.1594675979, 0.6927210286, -0.7033545776),
            (0.1536088342, 0.9510051344, -0.2683161574),
            (-4.608897425e-18, 0.8560696539, -0.5168604721),
            (1.687543395e-17, -0.2752294372, -0.9613785711),
            (-5.807284316e-18, 0.2752294372, -0.9613785711),
            (0.6927210286, 0.7033545776, -0.1594675979),
            (0.8628221755, 0.2580239935, -0.4346970351),
            (0.5877534966, 0.6826889771, -0.4341446624),
            (0.6927210286, -0.7033545776, -0.1594675979),
            (0.8628221755, -0.2580239935, -0.4346970351),
            (0.5877534966, -0.6826889771, -0.4341446624),
            (0.2580239935, -0.4346970351, -0.8628221755),
            (0.7033545776, -0.1594675979, -0.6927210286),
            (0.4341446624, -0.5877534966, -0.6826889771),
            (0.2683161574, -0.1536088342, -0.9510051344),
            (0.6826889771, -0.4341446624, -0.5877534966),
            (0.2580239935, 0.4346970351, -0.8628221755),
            (0.7033545776, 0.1594675979, -0.6927210286),
            (0.4341446624, 0.5877534966, -0.6826889771),
            (0.2683161574, 0.1536088342, -0.9510051344),
            (0.6826889771, 0.4341446624, -0.5877534966),
            (0.5168604721, -1.63015878e-17, -0.8560696539),
            (0.6927210286, 0.7033545776, 0.1594675979),
            (0.8628221755, 0.2580239935, 0.4346970351),
            (0.5877534966, 0.6826889771, 0.4341446624),
            (0.8560696539, 0.5168604721, -1.539777667e-18),
            (0.6927210286, -0.7033545776, 0.1594675979),
            (0.8628221755, -0.2580239935, 0.4346970351),
            (0.5877534966, -0.6826889771, 0.4341446624),
            (0.8560696539, -0.5168604721, 1.210469816e-17),
            (0.2580239935, -0.4346970351, 0.8628221755),
            (0.7033545776, -0.1594675979, 0.6927210286),
            (0.4341446624, -0.5877534966, 0.6826889771),
            (0.2683161574, -0.1536088342, 0.9510051344),
            (0.6826889771, -0.4341446624, 0.5877534966),
            (0.2580239935, 0.4346970351, 0.8628221755),
            (0.7033545776, 0.1594675979, 0.6927210286),
            (0.4341446624, 0.5877534966, 0.6826889771),
            (0.2683161574, 0.1536088342, 0.9510051344),
            (0.6826889771, 0.4341446624, 0.5877534966),
            (0.5168604721, -2.882821235e-18, 0.8560696539),
            (0.9613785711, -8.763633501e-18, -0.2752294372),
            (0.9613785711, -4.348643269e-18, 0.2752294372),
            (0.9510051344, 0.2683161574, -0.1536088342),
            (0.9510051344, -0.2683161574, -0.1536088342),
            (0.9510051344, 0.2683161574, 0.1536088342),
            (0.9510051344, -0.2683161574, 0.1536088342),
            (-0.6927210286, 0.7033545776, -0.1594675979),
            (-0.8628221755, 0.2580239935, -0.4346970351),
            (-0.5877534966, 0.6826889771, -0.4341446624),
            (-0.6927210286, -0.7033545776, -0.1594675979),
            (-0.8628221755, -0.2580239935, -0.4346970351),
            (-0.5877534966, -0.6826889771, -0.4341446624),
            (-0.2580239935, -0.4346970351, -0.8628221755),
            (-0.7033545776, -0.1594675979, -0.6927210286),
            (-0.4341446624, -0.5877534966, -0.6826889771),
            (-0.2683161574, -0.1536088342, -0.9510051344),
            (-0.6826889771, -0.4341446624, -0.5877534966),
            (-0.2580239935, 0.4346970351, -0.8628221755),
            (-0.7033545776, 0.1594675979, -0.6927210286),
            (-0.4341446624, 0.5877534966, -0.6826889771),
            (-0.2683161574, 0.1536088342, -0.9510051344),
            (-0.6826889771, 0.4341446624, -0.5877534966),
            (-0.5168604721, 1.63015878e-17, -0.8560696539),
            (-0.6927210286, 0.7033545776, 0.1594675979),
            (-0.8628221755, 0.2580239935, 0.4346970351),
            (-0.5877534966, 0.6826889771, 0.4341446624),
            (-0.8560696539, 0.5168604721, 1.210469816e-17),
            (-0.6927210286, -0.7033545776, 0.1594675979),
            (-0.8628221755, -0.2580239935, 0.4346970351),
            (-0.5877534966, -0.6826889771, 0.4341446624),
            (-0.8560696539, -0.5168604721, -1.539777667e-18),
            (-0.2580239935, -0.4346970351, 0.8628221755),
            (-0.7033545776, -0.1594675979, 0.6927210286),
            (-0.4341446624, -0.5877534966, 0.6826889771),
            (-0.2683161574, -0.1536088342, 0.9510051344),
            (-0.6826889771, -0.4341446624, 0.5877534966),
            (-0.2580239935, 0.4346970351, 0.8628221755),
            (-0.7033545776, 0.1594675979, 0.6927210286),
            (-0.4341446624, 0.5877534966, 0.6826889771),
            (-0.2683161574, 0.1536088342, 0.9510051344),
            (-0.6826889771, 0.4341446624, 0.5877534966),
            (-0.5168604721, 2.882821235e-18, 0.8560696539),
            (-0.9613785711, 8.763633501e-18, -0.2752294372),
            (-0.9613785711, 4.348643269e-18, 0.2752294372),
            (-0.9510051344, 0.2683161574, -0.1536088342),
            (-0.9510051344, -0.2683161574, -0.1536088342),
            (-0.9510051344, 0.2683161574, 0.1536088342),
            (-0.9510051344, -0.2683161574, 0.1536088342)
        ] (
            interpolation = "vertex"
        )
        uniform token subdivisionScheme = "none"
    }
}
